<?xml version="1.0" encoding="utf-8"?>
<!-- Generator: Adobe Illustrator 21.1.0, SVG Export Plug-In . SVG Version: 6.00 Build 0)  -->
<svg version="1.1" id="Слой_1" xmlns="http://www.w3.org/2000/svg" xmlns:xlink="http://www.w3.org/1999/xlink" x="0px" y="0px"
	 viewBox="0 0 1473 229.1" style="enable-background:new 0 0 1473 229.1;" xml:space="preserve">
<style type="text/css">
	.st0{fill:#F4A310;}
	.st1{fill:none;enable-background:new    ;}
</style>
<path class="st0" d="M1274,1c0,15.3,0,30.7,0,46c-3.2-1.1-2.5-4-2.5-6.2c-0.2-9.5-0.1-19-0.1-28.5c0-8.7,0-8.7-8.9-8.7
	c-29.1,0-58.3,0-87.4,0c-2.8,0-5.7,0.6-8.1-1.6c0-0.3,0-0.7,0-1C1202.7,1,1238.3,1,1274,1z"/>
<path class="st0" d="M1366,1c35.7,0,71.3,0,107,0c0.3,0.7,0.1,1.3-0.6,1.7c-2.3,1.2-4.9,0.9-7.3,0.9c-30.4,0-60.8,0-91.2,0
	c-2.5,0-5,0.3-7.3-0.9C1365.9,2.3,1365.7,1.7,1366,1z"/>
<path class="st0" d="M1,5c0.3,0,0.7,0,1,0c1.7,1.9,1.6,4.3,1.6,6.6c0,25.9,0,51.9,0,77.8c0,2.3,0.2,4.7-1.6,6.6c-0.3,0-0.7,0-1,0
	C1,65.7,1,35.3,1,5z"/>
<path class="st0" d="M1366,1c0,0.3,0,0.7,0,1c-1.9,1.8-4.3,1.6-6.6,1.6c-19.6,0.1-39.2,0-58.8,0c-2.3,0-4.7,0.1-6.6-1.6
	c0-0.3,0-0.7,0-1C1318,1,1342,1,1366,1z"/>
<path class="st0" d="M0.1,91c0-30.3,0-60.7,0-91c17.5,0,35,0,52.5,0c7.6,0,7.6-0.1,7.6,7.8c0,35.3-0.2,70.6,0.1,105.9
	c0.2,19.2,1,38.4,1,57.6c0,4.3-1.3,5.8-5.7,5.8c-16.8-0.2-33.6-0.2-50.5,0c-4.1,0.1-5-1.4-5-5.2C0.1,145,0.1,118,0.1,91z"/>
<path class="st0" d="M1052,87.8c0,26.7,0.3,53.3-0.1,80c-0.2,15.2-4,29.4-13.5,41.8c-9.6,12.5-22.4,19-37.7,19.3
	c-26,0.6-52,0.1-78,0.3c-3.8,0-4.8-1.1-4.8-4.8c0.2-14,0.2-28,0-42c-0.1-4.3,1.6-5.4,5.6-5.3c17.3,0.2,34.7,0.1,52,0.1
	c10.7,0,16.4-5.8,16.4-16.7c0-20.2,0-40.3,0-60.5c0-14.2-0.1-28.3,0.1-42.5c0.1-4.2-1.4-5.5-5.5-5.4c-13.7,0.2-27.3-0.1-41,0.1
	c-12.2,0.2-20.8,6.6-25.3,17.7c-4.2,10.5-3.3,20.7,3.9,30c6.4,8.3,14.9,11.1,24.8,11.2c7.8,0,15.7,0.1,23.5-0.1
	c3.4-0.1,4.7,0.9,4.6,4.5c-0.2,10.7-0.1,21.3-0.1,32c0,3.3-0.2,6.6,0.7,9.9c0.8,2.7,0.3,4.8-3.5,4.8c-17.2-0.1-34.4,0.7-51.5-0.3
	c-15.2-0.9-28.9-7-41-16.5c-14.4-11.4-24.6-25.8-28.1-44c-5.4-27.9,0.5-52.9,20.5-74.1c13.4-14.2,29.5-22.9,48.7-25.9
	c4.4-0.7,8.9-1.1,13.4-1.2c36.7-0.1,73.3,0,110-0.2c4.6,0,5.9,1.2,5.8,5.8C1051.9,33.2,1052,60.5,1052,87.8z"/>
<path class="st0" d="M1167,0c33,0,65.9,0,98.9,0c8,0,7.1-0.7,7.1,7.3c0,10.8,0,21.6,0,32.5c0,1.8-0.7,3.7,0.9,5.2
	c1.2,6-2.6,10-5.6,14.3c-10.7,15.6-21.4,31.2-31.9,47c-1.8,2.7-3.7,3.8-6.9,3.8c-10.2-0.2-20.3,0.2-30.5-0.1
	c-9.5-0.3-18.9,1.6-28.4,1c-1.4-0.1-3.3,0.8-4.1-0.8c-0.7-1.5,0.7-2.7,1.6-3.9c11-15.4,22.1-30.7,33.1-46.1c1-1.3,2.1-2.6,2.9-4
	c0.8-1.4,2.8-2.7,2.1-4.2c-0.9-1.9-3.4-1.1-5-0.8c-9.3,1.7-18.6,0.5-27.9,0.8c-15.2,0.6-26.4,7.3-32.6,21.4
	c-5.8,13-2.3,29.4,7.6,39.7c8,8.3,17.4,12.1,28.9,12c30.5-0.2,61,0,91.5-0.2c4.2,0,5.4,1.2,5.3,5.4c-0.2,14-0.2,28,0,42
	c0.1,3.7-1,4.8-4.8,4.8c-35.3-0.1-70.6,0.6-105.9-0.3c-22-0.5-42.1-8.3-59.6-22.3c-16.4-13.2-26.6-29.7-30.3-50.4
	c-4.3-23.8,1.1-45,16-64c9.3-11.8,20.6-21.2,33.7-28.3c10.2-5.6,21.3-9.2,33-10.6C1159.7,0.7,1163.3-0.5,1167,0z"/>
<path class="st0" d="M668.9,78.1c0,23.3-0.1,46.7,0.1,70c0.1,7.8,1,15.6,1,23.4c0,4.2-0.8,5.8-5.5,5.7c-16.8-0.3-33.7-0.3-50.5,0
	c-4.3,0.1-5.2-1.4-5.2-5.4c0.1-38,0-76,0.2-114c0-4.6-1.2-6-5.8-5.8c-9.7,0.4-19.3-0.2-29,0.2c-14.6,0.6-26.6,6.5-32.8,20.3
	c-6.1,13.5-5.1,26.8,4.3,38.9c7.6,9.7,17.9,13.9,29.8,14.6c5.3,0.3,10.7,0.1,16,0c2.6-0.1,3.5,0.9,3.5,3.5c-0.1,14.7-0.1,29.3,0,44
	c0,3-1.3,3.6-4,3.6c-9.7-0.1-19.4-0.6-29,0.1c-17.5,1.4-33.3-3.2-47.4-12.9c-20.7-14.2-35.7-33-40.9-58c-5.5-26.5-0.5-51,16.9-72.6
	c13.6-17,30.4-28.6,52.2-32.1c4.7-0.8,9.5-1.5,14.3-1.5c35.5-0.1,71,0,106.5-0.2c4.5,0,5.5,1.4,5.5,5.7
	C668.8,29.8,668.9,54,668.9,78.1z"/>
<path class="st0" d="M172.7,0.1c28,0,56,0.1,84-0.1c4.1,0,5.4,1.1,5.4,5.3c-0.2,13.8-0.2,27.7,0,41.5c0.1,4.1-1,5.5-5.2,5.4
	c-16.2-0.2-32.3,0.1-48.5-0.2c-4.9-0.1-6.6,1-6.5,6.2c0.7,37.4,1.5,74.9,1.1,112.4c-0.1,6.5,0,6.5-6.4,6.5c-15.3,0-30.7,0.1-46-0.1
	c-2.6,0-5.5,2.3-7.6,0.1c-2.2-2.3-0.9-5.8-0.9-8.7c-0.1-36.5-0.1-73-0.1-109.5c0-6.8,0-6.8-6.6-6.8c-16,0-32,0-48,0
	c-2.6,0-4.6,0-4.5-3.6c0.5-14.3-1.5-28.6-1-42.9C82,1.2,83.5,0,87.8,0C116.1,0.2,144.4,0.1,172.7,0.1C172.7,0.1,172.7,0.1,172.7,0.1
	z"/>
<path class="st0" d="M371.6,0.1c27.7,0,55.3,0,83,0c6.4,0,6.4,0,6.4,6.6c0,13.3-0.1,26.7,0.1,40c0,3.5-1.1,4.5-4.6,4.5
	c-16.3-0.1-32.7,0.1-49-0.2c-4.4-0.1-5.6,1.1-5.6,5.6c0.2,38.3,0,76.7,0.2,115c0,4.4-1.1,5.7-5.5,5.6c-16.3-0.3-32.7-0.2-49,0
	c-4.3,0.1-5.8-0.9-5.7-5.5c0.3-15.7-0.1-31.3,0.2-47c0.5-22.8-1.7-45.6-1-68.4c0.1-3.8-1.6-4.3-4.8-4.3c-16.5,0.1-33,0-49.5,0.1
	c-3.7,0-4.9-0.9-4.9-4.7c0.2-14.2,0.2-28.3,0-42.5c-0.1-4.2,1.5-4.9,5.2-4.9C315.3,0.1,343.5,0.1,371.6,0.1
	C371.6,0.1,371.6,0.1,371.6,0.1z"/>
<path class="st0" d="M1473,0c0,17,0,34,0,51c-17.8,0-35.7,0.2-53.5-0.1c-4.4-0.1-5.6,1.1-5.6,5.6c0.2,38,0,76,0.2,114
	c0,4.3-0.9,5.9-5.5,5.7c-16.5-0.8-32.9,1.4-49.4,1c-4.1-0.1-5.2-1.2-5.4-5.3c-1.2-38.6-0.9-77.2-0.8-115.9c0-4.1-1.4-5-5.2-5
	c-16.3,0.2-32.7,0-49,0.2c-4,0.1-5.1-1.2-5-5.1c0.2-15.3,0.1-30.7,0.1-46c24,0,48,0,72,0C1401.7,0,1437.3,0,1473,0z"/>
<path class="st0" d="M690,121.5c0-16.8,0.5-33.7-0.2-50.5c-0.6-14,1.3-27.1,8.3-39.2C709.7,12,726.2,0,750.1,0
	c28.5,0,57,0.1,85.4-0.1c4.5,0,5.6,1.3,5.5,5.6c-0.3,13.5-0.2,27,0,40.5c0.1,3.9-0.9,5.2-5,5.1c-11.3-0.3-22.6-0.2-34-0.1
	c-9.8,0.1-19.6,0-29.3,1.1c-10.3,1.2-16.7,8.3-20.7,17.4c-1.6,3.6-2.1,7.6-2.1,11.7c0.1,30.1,0,60.3,0.1,90.4c0,4-0.9,5.5-5.2,5.4
	c-16.6-0.2-33.3-0.2-50,0c-4.1,0.1-5.1-1.3-5-5.1C690.1,155.2,690,138.4,690,121.5z"/>
<path class="st1" d="z"/>
</svg>
