<svg xmlns="http://www.w3.org/2000/svg" xmlns:xlink="http://www.w3.org/1999/xlink" viewBox="-161.34 33.94 293.692 83.65">
  <defs>
    <style>
      .cls-1 {
        fill: #575756;
      }

      .cls-10, .cls-11, .cls-12, .cls-13, .cls-14, .cls-15, .cls-16, .cls-17, .cls-18, .cls-19, .cls-2, .cls-20, .cls-21, .cls-22, .cls-23, .cls-24, .cls-25, .cls-26, .cls-27, .cls-28, .cls-29, .cls-3, .cls-30, .cls-31, .cls-32, .cls-33, .cls-34, .cls-35, .cls-36, .cls-37, .cls-38, .cls-39, .cls-4, .cls-40, .cls-41, .cls-42, .cls-43, .cls-44, .cls-45, .cls-46, .cls-47, .cls-48, .cls-49, .cls-5, .cls-50, .cls-51, .cls-6, .cls-7, .cls-8, .cls-9 {
        fill-rule: evenodd;
      }

      .cls-10, .cls-11, .cls-12, .cls-13, .cls-14, .cls-15, .cls-16, .cls-17, .cls-18, .cls-19, .cls-20, .cls-21, .cls-22, .cls-23, .cls-24, .cls-25, .cls-26, .cls-27, .cls-28, .cls-29, .cls-3, .cls-30, .cls-31, .cls-32, .cls-33, .cls-34, .cls-35, .cls-36, .cls-37, .cls-38, .cls-39, .cls-4, .cls-40, .cls-42, .cls-43, .cls-44, .cls-45, .cls-46, .cls-47, .cls-48, .cls-49, .cls-5, .cls-50, .cls-51, .cls-6, .cls-7, .cls-8, .cls-9 {
        stroke: #575756;
        stroke-linejoin: round;
        stroke-width: 0.12px;
      }

      .cls-3 {
        fill: url(#linear-gradient);
      }

      .cls-4 {
        fill: url(#linear-gradient-2);
      }

      .cls-5 {
        fill: url(#linear-gradient-3);
      }

      .cls-6 {
        fill: url(#linear-gradient-4);
      }

      .cls-7 {
        fill: url(#linear-gradient-5);
      }

      .cls-8 {
        fill: url(#linear-gradient-6);
      }

      .cls-9 {
        fill: url(#linear-gradient-7);
      }

      .cls-11 {
        fill: url(#linear-gradient-8);
      }

      .cls-12 {
        fill: url(#linear-gradient-9);
      }

      .cls-13 {
        fill: url(#linear-gradient-10);
      }

      .cls-14 {
        fill: url(#linear-gradient-11);
      }

      .cls-15 {
        fill: url(#linear-gradient-12);
      }

      .cls-16 {
        fill: url(#linear-gradient-13);
      }

      .cls-17 {
        fill: url(#linear-gradient-14);
      }

      .cls-18 {
        fill: url(#linear-gradient-15);
      }

      .cls-19 {
        fill: url(#linear-gradient-16);
      }

      .cls-20 {
        fill: url(#linear-gradient-17);
      }

      .cls-21 {
        fill: url(#linear-gradient-18);
      }

      .cls-22 {
        fill: url(#linear-gradient-19);
      }

      .cls-23 {
        fill: url(#linear-gradient-20);
      }

      .cls-24 {
        fill: url(#linear-gradient-21);
      }

      .cls-25 {
        fill: url(#linear-gradient-22);
      }

      .cls-26 {
        fill: url(#linear-gradient-23);
      }

      .cls-27 {
        fill: url(#linear-gradient-24);
      }

      .cls-28 {
        fill: url(#linear-gradient-25);
      }

      .cls-29 {
        fill: url(#linear-gradient-26);
      }

      .cls-30 {
        fill: url(#linear-gradient-27);
      }

      .cls-31 {
        fill: url(#linear-gradient-28);
      }

      .cls-32 {
        fill: url(#linear-gradient-29);
      }

      .cls-33 {
        fill: url(#linear-gradient-30);
      }

      .cls-34 {
        fill: url(#linear-gradient-31);
      }

      .cls-35 {
        fill: url(#linear-gradient-32);
      }

      .cls-36 {
        fill: url(#linear-gradient-33);
      }

      .cls-37 {
        fill: url(#linear-gradient-34);
      }

      .cls-38 {
        fill: url(#linear-gradient-35);
      }

      .cls-39 {
        fill: url(#linear-gradient-36);
      }

      .cls-40 {
        fill: url(#linear-gradient-37);
      }

      .cls-41 {
        fill: url(#linear-gradient-38);
      }

      .cls-42 {
        fill: url(#linear-gradient-39);
      }

      .cls-43 {
        fill: url(#linear-gradient-40);
      }

      .cls-44 {
        fill: url(#linear-gradient-41);
      }

      .cls-45 {
        fill: url(#linear-gradient-42);
      }

      .cls-46 {
        fill: url(#linear-gradient-43);
      }

      .cls-47 {
        fill: url(#linear-gradient-44);
      }

      .cls-48 {
        fill: url(#linear-gradient-45);
      }

      .cls-49 {
        fill: url(#linear-gradient-46);
      }

      .cls-50 {
        fill: url(#linear-gradient-47);
      }

      .cls-51 {
        fill: url(#linear-gradient-48);
      }
    </style>
    <linearGradient id="linear-gradient" x1="2.535" y1="-0.417" x2="-1.535" y2="1.417" gradientUnits="objectBoundingBox">
      <stop offset="0" stop-color="#e97125"/>
      <stop offset="1" stop-color="#fc0"/>
    </linearGradient>
    <linearGradient id="linear-gradient-2" x1="0.918" y1="0.074" x2="0.004" y2="0.916" xlink:href="#linear-gradient"/>
    <linearGradient id="linear-gradient-3" x1="0.994" y1="0.03" x2="-0.028" y2="0.948" xlink:href="#linear-gradient"/>
    <linearGradient id="linear-gradient-4" x1="144.426" y1="-67.542" x2="-143.421" y2="68.541" xlink:href="#linear-gradient"/>
    <linearGradient id="linear-gradient-5" x1="1.638" y1="-0.074" x2="-0.713" y2="1.066" xlink:href="#linear-gradient"/>
    <linearGradient id="linear-gradient-6" x1="12.273" y1="-2.335" x2="-11.223" y2="3.325" xlink:href="#linear-gradient"/>
    <linearGradient id="linear-gradient-7" x1="3.77" y1="-0.671" x2="-2.811" y2="1.669" xlink:href="#linear-gradient"/>
    <linearGradient id="linear-gradient-8" x1="1.337" y1="-0.116" x2="-0.337" y2="1.116" xlink:href="#linear-gradient"/>
    <linearGradient id="linear-gradient-9" x1="0.914" y1="-0.002" x2="0.086" y2="1.002" xlink:href="#linear-gradient"/>
    <linearGradient id="linear-gradient-10" x1="1.06" y1="0.074" x2="-0.032" y2="0.941" xlink:href="#linear-gradient"/>
    <linearGradient id="linear-gradient-11" x1="0.871" y1="0.09" x2="0.094" y2="0.926" xlink:href="#linear-gradient"/>
    <linearGradient id="linear-gradient-12" x1="0.965" y1="0.087" x2="-0.012" y2="0.897" xlink:href="#linear-gradient"/>
    <linearGradient id="linear-gradient-13" x1="0.941" y1="0.113" x2="0.017" y2="0.881" xlink:href="#linear-gradient"/>
    <linearGradient id="linear-gradient-14" x1="1.335" y1="-0.09" x2="-0.387" y2="1.066" xlink:href="#linear-gradient"/>
    <linearGradient id="linear-gradient-15" x1="1.249" y1="0.072" x2="-0.33" y2="0.932" xlink:href="#linear-gradient"/>
    <linearGradient id="linear-gradient-16" x1="2.514" y1="-0.214" x2="-1.586" y2="1.213" xlink:href="#linear-gradient"/>
    <linearGradient id="linear-gradient-17" x1="1.685" y1="-0.047" x2="-0.755" y2="1.046" xlink:href="#linear-gradient"/>
    <linearGradient id="linear-gradient-18" x1="0.942" y1="0.111" x2="-0.024" y2="0.865" xlink:href="#linear-gradient"/>
    <linearGradient id="linear-gradient-19" x1="2.867" y1="-0.241" x2="-1.916" y2="1.239" xlink:href="#linear-gradient"/>
    <linearGradient id="linear-gradient-20" x1="1.417" y1="-0.232" x2="-0.439" y2="1.22" xlink:href="#linear-gradient"/>
    <linearGradient id="linear-gradient-21" x1="1.936" y1="-0.55" x2="-0.948" y2="1.544" xlink:href="#linear-gradient"/>
    <linearGradient id="linear-gradient-22" x1="0.924" y1="0.054" x2="0.044" y2="0.922" xlink:href="#linear-gradient"/>
    <linearGradient id="linear-gradient-23" x1="1.166" y1="0.08" x2="-0.207" y2="0.92" xlink:href="#linear-gradient"/>
    <linearGradient id="linear-gradient-24" x1="7.161" y1="-2.27" x2="-6.161" y2="3.269" xlink:href="#linear-gradient"/>
    <linearGradient id="linear-gradient-25" x1="19.172" y1="-8.399" x2="-18.171" y2="9.399" xlink:href="#linear-gradient"/>
    <linearGradient id="linear-gradient-26" x1="0.941" y1="0.119" x2="-0.012" y2="0.868" xlink:href="#linear-gradient"/>
    <linearGradient id="linear-gradient-27" x1="1.104" y1="0.067" x2="-0.124" y2="0.932" xlink:href="#linear-gradient"/>
    <linearGradient id="linear-gradient-28" x1="1.15" y1="-0.114" x2="-0.163" y2="1.106" xlink:href="#linear-gradient"/>
    <linearGradient id="linear-gradient-29" x1="1.373" y1="-0.003" x2="-0.474" y2="1.001" xlink:href="#linear-gradient"/>
    <linearGradient id="linear-gradient-30" x1="1.06" y1="-0.169" x2="-0.06" y2="1.169" xlink:href="#linear-gradient"/>
    <linearGradient id="linear-gradient-31" x1="0.896" y1="0.025" x2="0.086" y2="0.959" xlink:href="#linear-gradient"/>
    <linearGradient id="linear-gradient-32" x1="0.871" y1="-0.014" x2="0.094" y2="0.998" xlink:href="#linear-gradient"/>
    <linearGradient id="linear-gradient-33" x1="1.004" y1="0.109" x2="-0.033" y2="0.89" xlink:href="#linear-gradient"/>
    <linearGradient id="linear-gradient-34" x1="2.314" y1="-0.576" x2="-1.314" y2="1.576" xlink:href="#linear-gradient"/>
    <linearGradient id="linear-gradient-35" x1="63.872" y1="-46.11" x2="-62.876" y2="47.113" xlink:href="#linear-gradient"/>
    <linearGradient id="linear-gradient-36" x1="0.916" y1="0.086" x2="0.043" y2="0.906" xlink:href="#linear-gradient"/>
    <linearGradient id="linear-gradient-37" x1="0.995" y1="0.072" x2="-0.039" y2="0.927" xlink:href="#linear-gradient"/>
    <linearGradient id="linear-gradient-38" x1="0.199" y1="0.285" x2="0.826" y2="0.6" gradientUnits="objectBoundingBox">
      <stop offset="0"/>
      <stop offset="0.49" stop-color="#b2b2b2"/>
      <stop offset="1"/>
    </linearGradient>
    <linearGradient id="linear-gradient-39" x1="26.903" y1="-24.081" x2="-25.907" y2="25.083" xlink:href="#linear-gradient"/>
    <linearGradient id="linear-gradient-40" x1="0.94" y1="0.066" x2="0.024" y2="0.943" xlink:href="#linear-gradient"/>
    <linearGradient id="linear-gradient-41" x1="0.867" y1="-0.002" x2="0.134" y2="1.022" xlink:href="#linear-gradient"/>
    <linearGradient id="linear-gradient-42" x1="1.635" y1="-1.172" x2="-0.634" y2="2.171" xlink:href="#linear-gradient"/>
    <linearGradient id="linear-gradient-43" x1="0.888" y1="0.066" x2="0.121" y2="0.965" xlink:href="#linear-gradient"/>
    <linearGradient id="linear-gradient-44" x1="0.881" y1="-0.08" x2="0.119" y2="1.084" xlink:href="#linear-gradient"/>
    <linearGradient id="linear-gradient-45" x1="0.882" y1="-0.028" x2="0.119" y2="1.058" xlink:href="#linear-gradient"/>
    <linearGradient id="linear-gradient-46" x1="0.894" y1="-0.116" x2="0.07" y2="1.078" xlink:href="#linear-gradient"/>
    <linearGradient id="linear-gradient-47" x1="0.901" y1="-0.249" x2="0.035" y2="1.197" xlink:href="#linear-gradient"/>
    <linearGradient id="linear-gradient-48" x1="0.538" y1="0.424" x2="0.292" y2="0.707" gradientUnits="objectBoundingBox">
      <stop offset="0" stop-color="#878787"/>
      <stop offset="0.34" stop-color="#dadada"/>
      <stop offset="0.63" stop-color="#fff"/>
      <stop offset="1" stop-color="#dadada"/>
    </linearGradient>
  </defs>
  <g id="logo" transform="translate(-181.88 27.83)">
    <path id="Path_1" data-name="Path 1" d="M33.969,107.979v5.261H40.02v12.767h6.135V113.215h6.051v-5.236Zm103.009,0v5.261h6.051v12.767h6.135V113.215h6.051v-5.236Zm-123.315,0v5.261h6.051v12.767H25.85V113.215H31.9v-5.236Zm-8.2,0H11.6v18.028H5.46Zm56.547,0H73.37v18.028h-6.1V113.215H63.907a3.858,3.858,0,0,0-2.765,1.034,3.522,3.522,0,0,0-1.093,2.673,3.622,3.622,0,0,0,1.126,2.706,3.841,3.841,0,0,0,2.79,1.093H65.89v5.261H62.066a8.228,8.228,0,0,1-6.135-2.807,8.951,8.951,0,0,1-2.656-6.312,8.808,8.808,0,0,1,2.521-6.22,8.186,8.186,0,0,1,6.211-2.69Zm28.862,0v5.261H84.381a2.622,2.622,0,0,0-1.984.84,2.975,2.975,0,0,0-.84,2.1v9.792H75.421V114.7a6.841,6.841,0,0,1,1.8-4.774,5.656,5.656,0,0,1,4.337-1.95Zm7.808,23.29v-5.261h6.11a1.311,1.311,0,0,0,.975-.454,1.555,1.555,0,0,0,.42-1.093V113.215H101.51a2.656,2.656,0,0,0-2.017.84,3.017,3.017,0,0,0-.84,2.135,2.9,2.9,0,0,0,.84,2.093,2.69,2.69,0,0,0,2,.84H104.7v5.261h-4.413a8.245,8.245,0,0,1-5.942-2.32,7.623,7.623,0,0,1-2.412-5.715,8.085,8.085,0,0,1,2.521-5.959,8.329,8.329,0,0,1,6.077-2.521H112.3v16.482a7.7,7.7,0,0,1-1.4,4.824,5.169,5.169,0,0,1-4.354,1.984ZM134.9,120.754v5.261H124.53a10.674,10.674,0,0,1-7.043-2.4,8.287,8.287,0,0,1-3.093-6.724,8.169,8.169,0,0,1,3.043-6.22,10.355,10.355,0,0,1,7.127-2.715H134.91v5.261l-4.093,5.993h-6.951l4.32-5.993h-3.152a3.959,3.959,0,0,0-2.832,1.025,3.421,3.421,0,0,0-1.084,2.6,3.715,3.715,0,0,0,1.143,2.774,3.833,3.833,0,0,0,2.774,1.109Z" transform="translate(159.016 -66.405)"/>
    <path id="Path_2" data-name="Path 2" class="cls-1" d="M33.969,107.987v5.261H40.02v3.538h6.135v-3.538h6.051v-5.261Zm115.187,8.8h-6.135v-3.538h-6.051v-5.261H155.2v5.261h-6.051v3.538Zm-16.675,0h-6.858l2.521-3.538h-3.152a3.959,3.959,0,0,0-2.832,1.025,3.4,3.4,0,0,0-1.084,2.521h-6.724a8.2,8.2,0,0,1,3.034-6.085A10.355,10.355,0,0,1,124.513,108H134.86v5.261l-2.421,3.538Zm-20.171,0h-6.135v-3.538H101.5a2.656,2.656,0,0,0-2.017.84,3.017,3.017,0,0,0-.84,2.135,3.31,3.31,0,0,0,0,.529H91.92V116.4a8.085,8.085,0,0,1,2.521-5.959,8.338,8.338,0,0,1,6.077-2.521h11.767v8.8Zm-30.745,0H75.43v-2.076a6.841,6.841,0,0,1,1.8-4.774,5.656,5.656,0,0,1,4.328-1.95h9.287v5.261H84.381a2.622,2.622,0,0,0-1.984.84,2.975,2.975,0,0,0-.84,2.1v.563Zm-8.2,0H67.269v-3.538H63.907a3.858,3.858,0,0,0-2.765,1.034,3.48,3.48,0,0,0-1.093,2.521H53.325a8.817,8.817,0,0,1,2.521-6.11A8.186,8.186,0,0,1,62.058,108H73.37v8.8Zm-47.52,0H19.706v-3.538H13.655v-5.261H31.893v5.261H25.842v3.538Zm-14.288,0H5.46v-8.8H11.6Z" transform="translate(159.016 -66.413)"/>
    <g id="Group_94" data-name="Group 94">
      <path id="Path_3" data-name="Path 3" class="cls-2" d="M86.628,52.6c28.579,0,53.469,9.976,66.088,24.64-16.522-10.949-40-17.79-66.088-17.79S37.089,66.291,20.54,77.24C33.159,62.585,58.023,52.6,86.628,52.6Z" transform="translate(0 -4.964)"/>
      <path id="Path_4" data-name="Path 4" class="cls-3" d="M76.121,85.308,70.7,95.382l.045-.223.045-.223.036-.223.045-.232.036-.223.045-.223.036-.223.045-.214.036-.223.045-.223.036-.223.045-.214.036-.223.036-.214.045-.223.036-.214.045-.223.036-.214.036-.214.036-.223.045-.214.036-.214.036-.214.045-.214.036-.214.036-.214.036-.205.045-.214.036-.214.036-.214.036-.205.036-.214L77.577,77.19l-.045.25-.045.241-.045.25-.045.241-.045.25-.036.25-.045.241-.045.25-.045.25-.045.25-.045.25-.045.25-.045.25-.045.259-.045.25-.045.25-.045.259-.054.25-.045.25-.045.259-.045.259-.045.25-.045.259-.054.259-.045.259-.045.259L76.362,84l-.054.259-.045.259-.045.268-.054.259Z" transform="translate(-5.363 -7.593)"/>
      <path id="Path_5" data-name="Path 5" class="cls-4" d="M76.914,76.609,71.287,87.827l-.232-.1-.232-.107-.223-.1-.232-.116-.232-.107-.223-.107-.223-.116-.223-.116-.223-.116-.223-.116L68.8,86.6l-.223-.116-.214-.125-.214-.125-.214-.134-.214-.125-.214-.134L67.3,85.71l-.214-.134-.205-.143L66.67,85.3l-.205-.143-.205-.143-.2-.143-.205-.152-.2-.143-.2-.152-.2-.152-.2-.152-.188-.152-.188-.152-.2-.161,4.519-11.9.223.188.223.179.223.179.223.179.223.17.232.179L70.6,73l.232.17.232.17.241.161.232.17.241.161.241.161.241.152.25.161.241.152.25.152.25.152.25.143.259.143.25.143.259.143.259.143.259.134.259.134.259.125.268.134.259.125.268.125.268.125.277.116Z" transform="translate(-4.7 -7.013)"/>
      <path id="Path_6" data-name="Path 6" class="cls-5" d="M68.18,71.76l-4.519,11.9-.205.1-.214.107-.205.107-.214.1-.214.107-.214.107-.214.1-.214.107-.214.107-.214.1-.214.107-.214.107-.214.107-.223.1-.214.107-.223.107-.223.107-.214.107-.223.107-.223.107-.223.107-.214.107-.223.107-.223.116-.232.107-.223.107-.223.107-.223.116-.232.107-.223.116-.223.107-.232.116,3.376-11.342.268-.134.259-.125.268-.134.259-.125.268-.134.259-.125.259-.125.259-.125.268-.125.259-.125.259-.134.259-.125.25-.125.259-.116.259-.125.25-.125.259-.125.25-.125.259-.125.25-.116.25-.125.25-.125.25-.116.25-.125.25-.125.25-.116.25-.125.241-.116.25-.125L67.7,72l.241-.125Z" transform="translate(-3.861 -7.013)"/>
      <path id="Path_7" data-name="Path 7" class="cls-6" d="M92.585,14.56l-7.52,19.049-.036.089-.036.089-.045.1-.036.089-.036.089-.045.089-.036.1-.036.089-.045.089-.036.1-.036.089-.045.1-.036.089-.045.1-.036.089-.045.1,7.422-18.808.045-.107.045-.107L92,15.953l.054-.107.045-.107.045-.107.045-.107.045-.107.045-.107.045-.107.045-.107.045-.107.045-.107.045-.107.045-.107Z" transform="translate(-6.832 -0.897)"/>
      <path id="Path_8" data-name="Path 8" class="cls-7" d="M64.26,13.94,60.268,33.025l-.152-.089-.161-.08-.152-.08-.161-.08-.152-.08-.161-.089-.152-.08-.161-.08-.152-.089-.161-.08-.152-.08-.161-.089-.152-.08-.161-.08-.161-.08-.152-.089-.161-.08-.152-.08-.161-.089-.152-.08-.161-.08-.161-.089-.152-.08-.161-.089-.161-.08-.152-.08-.161-.089-.161-.08-.152-.08-.161-.089-.161-.08-.161-.089,3.179-19.5.179.1.188.089.179.1.188.1.188.1.179.1.179.1.188.1.188.1.179.1.188.1.179.089.188.1.179.1.188.1.179.1.179.1.188.1.179.089.188.1.179.1.179.1.188.1.179.1.179.089.188.1.179.1.179.1.188.089.179.1.179.1Z" transform="translate(-3.71 -0.5)"/>
      <path id="Path_9" data-name="Path 9" class="cls-8" d="M65.259,18.271,61.213,36.794l-.045-.116-.036-.116-.045-.116-.036-.116-.036-.107-.027-.116-.036-.116-.027-.107-.027-.107-.027-.116-.018-.107-.027-.116-.018-.107-.018-.107-.009-.107-.018-.107-.009-.107-.009-.1V34.7l-.009-.107v-.3l.009-.1v-.1l.009-.107.009-.1.018-.1.018-.089.018-.1.018-.1L64.821,14.44l-.027.107-.018.116-.018.107-.009.116L64.732,15l-.009.116-.009.116v.116l-.009.116v.116l.009.125v.116l.009.125.009.125.009.116.018.125.018.125.018.125.027.125.018.134.027.125.027.125.036.134.036.125.036.134.036.134.036.134.045.125.045.134.054.134Z" transform="translate(-4.298 -0.884)"/>
      <path id="Path_10" data-name="Path 10" class="cls-9" d="M72.047,9.26l-4.93,19.657L67,28.756l-.116-.17-.116-.161-.116-.17-.116-.17-.116-.161-.116-.17-.116-.161-.116-.17-.116-.17-.116-.161-.116-.17-.116-.161-.116-.17-.116-.161-.116-.17L69.886,6.17l.134.188.134.2.134.2.143.188.134.2.134.188.134.2.134.188.134.2.134.2.134.188.134.2.143.2.134.188.134.2Z" transform="translate(-4.781)"/>
      <path id="Path_11" data-name="Path 11" class="cls-10" d="M72.584,16.412,67.61,35.194l.1-.241.116-.232.143-.223.17-.2.188-.188.205-.17.223-.152.241-.143.25-.116.277-.107.277-.089.3-.071.313-.054.322-.045.339-.027.348-.018.348.009.375.009.375.036.375.045.393.054.4.071.4.089.411.1.411.116.42.125.42.134.429.152.42.161.429.179.429.179.429.205.42.205.429.223.42.232.42.241.4.241.4.259.384.259.366.259.366.268.348.268.339.277.33.277.313.286.295.286.295.286.268.286.259.286.241.295.232.286.205.295.2.286.179.286.17.286.143.286.125.286.116.277.089.277.071.277.054.268.036.268.018.268v.25l-.027.25-.045.25-.071.241-.089.223,7.895-17.281.107-.268.08-.277.054-.286.027-.295.009-.295-.027-.3-.036-.313-.063-.313-.089-.322-.107-.322-.125-.322-.152-.33-.17-.33L92.8,22.78l-.214-.33-.223-.339-.25-.339-.259-.33-.286-.339-.3-.339-.313-.33-.33-.33-.348-.33-.366-.33-.384-.322-.393-.322-.4-.313-.429-.313-.429-.3-.447-.3-.464-.295-.473-.286-.482-.277-.491-.277-.491-.25-.5-.25-.491-.232-.5-.214-.491-.2-.5-.2-.491-.17-.491-.161-.482-.143-.482-.134-.482-.116-.464-.1-.464-.08-.455-.071-.447-.054-.438-.036-.42-.018h-.42l-.4.018-.393.027-.375.054-.357.063-.348.089-.33.1-.313.125-.3.143-.277.152-.259.179-.241.2-.214.223-.2.232-.17.25-.134.277Z" transform="translate(-5.033 -0.838)"/>
      <path id="Path_12" data-name="Path 12" class="cls-11" d="M121.374,40.363,110.21,56.153v-.384l.009-.125v-.991l.009-.125v-.366L121.391,38.05v.572l-.009.143v.866l-.009.143v.589Z" transform="translate(-9.587 -3.409)"/>
      <path id="Path_13" data-name="Path 13" class="cls-12" d="M138.012,52.76l-13.3,14.263-.116.036-.107.036-.107.036-.116.036-.107.036-.116.036-.107.036-.116.036-.107.036-.116.036-.116.036-.107.027-.116.045-.116.027-.116.036-.116.036L135.922,53.4l.134-.036.134-.045.134-.036.134-.045.125-.036.134-.045.134-.045.125-.036.134-.045.134-.036.125-.045.134-.036.125-.045.125-.036.134-.045Z" transform="translate(-10.945 -4.981)"/>
      <path id="Path_14" data-name="Path 14" class="cls-10" d="M115.158,45.374,104.78,60.547l.143-.188.152-.179.161-.161.188-.152.2-.125.205-.116.223-.1.232-.08.241-.063.259-.054.259-.027.277-.018.286-.009.295.018.3.027.313.045.313.054.33.08.33.089.33.1.348.125.339.134.357.143.348.17.366.179.357.2.357.205.357.214.348.223.339.241.339.241.339.25.322.259.322.268.313.277.3.286.295.286.295.295.277.295.268.3.259.313.259.313.232.313.232.322.223.322.205.33.2.322.179.33.17.322.161.33.143.33.134.33.116.33.1.322.089.33.071.322.054.322.036.313.018.313.009.295-.018.286-.036.277-.063.268-.071.241-.089.241-.107.223-.125.205-.143.2-.152.179,12.6-13.173.179-.205.17-.232.143-.241.125-.259.107-.277.08-.286.063-.3L132,57.52l.018-.33v-.348L132,56.475l-.045-.366-.071-.366-.08-.384-.1-.375-.116-.375-.134-.384-.152-.384-.17-.384-.179-.384-.205-.375-.205-.384-.232-.375-.241-.384-.25-.375-.268-.366-.286-.366-.286-.366-.3-.357-.322-.357-.321-.348-.339-.339-.339-.339L127,48.017l-.366-.322-.366-.313-.384-.3-.384-.295-.393-.286-.4-.268-.4-.268-.42-.25-.411-.241-.42-.223-.42-.205-.411-.188-.411-.179-.4-.152-.393-.143-.393-.125-.384-.1-.375-.089L119.489,44l-.357-.045-.357-.036-.339-.018-.33.009-.322.018-.3.036-.3.063-.286.071-.268.1-.259.116-.241.125-.223.152-.214.17-.2.188-.17.205Z" transform="translate(-9.007 -4.034)"/>
      <path id="Path_15" data-name="Path 15" class="cls-13" d="M120.713,69.289,109.63,81.417l.009-.125v-.134l.009-.134.009-.125v-.134l.009-.125.009-.134v-.125l.009-.134v-.134l.009-.125v-.125l.009-.134.009-.125V79.47l.009-.125V79.22l.009-.134v-.125l.009-.125v-.125l.009-.134v-.125l.009-.125V78.2l.009-.125v-.125l.009-.134v-.125l.009-.125v-.125l.009-.125,11.1-12.8-.009.143v.143l-.009.152V65.1l-.009.152V65.4l-.009.152-.009.143v.152l-.009.143v.152l-.009.143v.152l-.009.143-.009.152v.152l-.009.143-.009.152v.152l-.009.152-.009.143v.152l-.009.152-.009.152v.152l-.009.152-.009.152v.152l-.009.152-.009.152v.152Z" transform="translate(-9.525 -6.239)"/>
      <path id="Path_16" data-name="Path 16" class="cls-14" d="M120.412,64.024l-11.1,12.8-.143-.1-.143-.1-.143-.1-.134-.1-.143-.1-.134-.107-.143-.1-.134-.107-.134-.107-.134-.107-.134-.107-.143-.107-.125-.107-.134-.107-.134-.116-.134-.107L107,75.036l-.134-.116-.125-.107-.125-.116-.134-.116-.125-.116-.125-.116-.125-.125-.125-.116-.116-.116-.125-.125-.125-.116-.116-.125-.116-.116-.125-.125-.116-.125L115.562,59.88l.143.143.134.143.143.143.134.143.143.134.143.143.143.134.143.143.143.134.152.143.143.134.152.134.143.134.152.134.152.125.152.134.152.134.152.125.152.125.161.125.152.134.161.125.152.116.161.125.161.125.161.116.161.116.161.125.161.116.161.116.161.107Z" transform="translate(-9.045 -5.743)"/>
      <path id="Path_17" data-name="Path 17" class="cls-15" d="M90.01,35.825,82.758,52.186l-.152-.018-.152-.018-.152-.027-.161-.027-.152-.027-.152-.027-.161-.027-.152-.027-.161-.036-.161-.036-.152-.027-.161-.036-.161-.036-.161-.045-.161-.036-.17-.045-.161-.036-.161-.045-.17-.045-.161-.045-.17-.054-.161-.045-.17-.054-.17-.054-.161-.054-.17-.054-.17-.054-.17-.054-.17-.063-.17-.063-.17-.063-.179-.063L83.981,34.28l.2.071.2.071.205.071.2.063.2.071.2.063.2.063.2.063.188.063.2.054.2.063.188.054.2.054.188.054.188.045.2.054.188.045.188.045.188.045.188.045.179.045.188.036.188.036.179.045.188.027.179.036.179.036.179.027.179.027.179.027.179.027Z" transform="translate(-6.096 -3.005)"/>
      <path id="Path_18" data-name="Path 18" class="cls-16" d="M105.095,36.224l-9.154,16.3-.125-.063-.125-.071-.116-.063-.125-.063-.125-.071-.116-.063-.125-.063L94.958,52l-.116-.063-.125-.071L94.6,51.8l-.125-.071-.125-.063-.116-.071-.125-.063-.125-.063-.116-.071-.125-.063-.125-.071-.125-.063-.116-.071-.125-.063L93.127,51l-.116-.063-.125-.071-.125-.063-.125-.063-.125-.071-.125-.063-.116-.071-.125-.063L92.02,50.4l8.511-16.647.152.08.143.08.143.071.143.08.143.08.143.071.143.08.143.08.143.071.143.08.143.08.143.071.143.08.143.08.143.071.143.08.143.08.143.071.143.08.134.08.143.071.143.08.143.071.143.08.143.08.143.071.134.08.143.08.143.071.143.08.143.071Z" transform="translate(-7.642 -2.949)"/>
      <path id="Path_19" data-name="Path 19" class="cls-17" d="M68.944,25,64.354,42.74h-.33l-.17-.009h-.33l-.17-.009h-.17l-.17-.009h-.339l-.161-.009h-.17l-.17-.009h-.348l-.17-.009h-.17l-.17-.009h-.179l-.17-.009H60.8l-.179-.009h-.17l-.17-.009H60.1l-.179-.009h-.348l-.179-.009h-.179l-.179-.009h-.17l3.7-17.763.205.009h.205l.205.009.205.009H63.8l.2.009.205.009h.205l.205.009h.2l.205.009h.2l.2.009h.205l.2.009h.2l.205.009h.2l.2.009h.2l.2.009h.2l.2.009h.2l.2.009h.384l.2.009h.2l.2.009Z" transform="translate(-4.098 -1.998)"/>
      <path id="Path_20" data-name="Path 20" class="cls-18" d="M74.8,29.289,69.484,46.436l-.17-.107-.152-.107L69,46.106,68.85,46l-.161-.107-.152-.116-.152-.107-.152-.116-.152-.107-.152-.116-.143-.107-.152-.116-.143-.116-.143-.116-.143-.107-.143-.116-.134-.116-.143-.116-.134-.116-.134-.116-.134-.116-.134-.116-.134-.125-.125-.116-.125-.116-.134-.116-.116-.125-.125-.116-.125-.125L65.251,43l-.125-.116-.116-.125L69.6,25.02l.143.143.134.134.143.143.134.134.152.143.143.134.143.143.152.134.152.143.152.134.152.134.152.134.161.143.161.134.161.134.161.134.161.134.17.134.161.134.17.125.17.134.179.134.17.134.17.125.179.134.179.125.179.125.179.134.188.125.179.125.188.125Z" transform="translate(-4.755 -2.015)"/>
      <path id="Path_21" data-name="Path 21" class="cls-19" d="M62.184,24.158l-3.7,17.763-.143-.161-.134-.161-.134-.161-.125-.161-.134-.161-.125-.161-.125-.161-.116-.161-.116-.161-.116-.161-.116-.161-.116-.161-.107-.152-.107-.161-.1-.161-.107-.161-.1-.152-.1-.161-.089-.161-.1-.152-.089-.161-.08-.152-.089-.161-.08-.152-.08-.161-.071-.152-.08-.161-.071-.152-.063-.152-.071-.152-.063-.152-.063-.152L58.459,18.29l.071.179.071.179.08.179.08.179.08.179.089.179.089.179.089.179.1.188.089.179.107.188.1.179.107.188.116.179.107.188.116.179.116.188.125.188.125.179.125.188.125.188.134.188.143.179.134.188.143.188.143.188.143.188.152.188.152.188.152.188.161.179Z" transform="translate(-3.714 -1.296)"/>
      <path id="Path_22" data-name="Path 22" class="cls-20" d="M66.318,40.438,62.094,56.183l-.107-.116-.107-.125-.1-.116-.107-.125-.107-.125-.107-.116-.107-.125-.107-.125-.107-.116-.107-.125-.1-.125-.107-.116-.107-.125-.107-.125-.107-.116-.107-.125-.107-.125-.107-.116-.107-.125-.1-.125-.107-.116-.107-.125-.107-.125-.107-.116-.107-.125-.107-.125-.107-.116-.1-.125-.107-.116-.107-.125-.107-.125-.107-.116L62.371,35.91l.125.143.125.143.125.134.125.143.116.143.125.143.125.143.125.134.125.143.116.143.125.143.125.143.125.143.125.143.116.143.125.143.125.134.125.152.125.134.125.143.116.143.125.143.125.143.125.143.125.143.116.143.125.143.125.134.125.143.125.143.116.143Z" transform="translate(-4.08 -3.18)"/>
      <path id="Path_23" data-name="Path 23" class="cls-21" d="M58.269,53.792,55,67.893l-.232-.063-.232-.063-.223-.063-.232-.071-.232-.063-.232-.071-.232-.063-.241-.063L52.91,67.3l-.232-.063-.232-.071-.241-.063-.232-.071-.241-.063L51.5,66.9l-.241-.063-.241-.071-.232-.063-.241-.071-.241-.063-.241-.071-.241-.071-.241-.063-.241-.071-.241-.063-.241-.071-.241-.071-.241-.063-.241-.071-.241-.063-.25-.071L47.4,65.75,49.436,51.3l.277.08.286.08.286.071.277.08.286.08.277.08.286.08.277.08.277.08.286.08.277.071.277.08.286.08.277.08.277.071.277.08.277.08.277.08.268.071.277.08.277.08.277.071.268.08.277.08.268.071.268.08.277.08.268.071.268.08.268.071.268.08Z" transform="translate(-2.872 -4.825)"/>
      <path id="Path_24" data-name="Path 24" class="cls-22" d="M61.206,61.422,57.652,74.5l-.1-.2-.1-.2-.089-.188-.089-.2-.089-.2-.089-.2-.08-.2-.08-.2-.071-.2-.08-.2-.071-.2-.063-.2-.071-.205-.063-.2-.054-.2-.054-.2-.054-.2-.054-.205-.045-.2-.045-.2-.045-.2-.036-.2-.036-.2-.036-.2-.027-.205-.027-.2-.027-.2-.018-.2-.018-.2-.018-.2-.009-.2-.009-.2,3.269-14.1.009.232.009.223.018.232.018.223.027.232.027.232.036.223.036.232.036.232.036.232.054.223.045.232.054.232.054.232.063.223.063.232.063.232.071.232.071.223.071.232.08.232.08.232.089.223.089.232.089.232.1.223.1.232.1.223.107.223.107.232.116.223Z" transform="translate(-3.782 -5.123)"/>
      <path id="Path_25" data-name="Path 25" class="cls-23" d="M103.578,25.751,94.629,43.4h-.161l-.17-.009h-.161l-.17-.009h-.33l-.161-.009h-.17l-.17-.009h-.33l-.17-.009h-.17l-.17-.009h-.17l-.179-.009,8.511-17.656.2.009.2.009h.205l.2.009h.393l.188.009h.2l.2.009h.188l.2.009h.2l.188.009h.384Z" transform="translate(-7.635 -2.086)"/>
      <path id="Path_26" data-name="Path 26" class="cls-24" d="M100.224,33.75,91.713,50.4l-.116.134-.125.125-.125.116-.134.116L91.07,51l-.152.107-.152.107-.161.1-.161.089-.17.089-.17.089-.188.08-.188.071-.188.071-.2.063-.2.063,8.1-16.4.232-.071.223-.071.223-.089.214-.089.214-.089.205-.1.2-.107.188-.107.188-.116.179-.116.17-.125.161-.125.161-.134.152-.143.134-.143Z" transform="translate(-7.336 -2.949)"/>
      <path id="Path_27" data-name="Path 27" class="cls-25" d="M99.919,40.34,91.4,56.165l-.134.045-.134.036L91,56.282l-.143.036-.134.036-.143.027-.143.036-.143.027-.152.027L90,56.5l-.152.027-.152.018-.152.027-.152.018-.152.018-.161.018-.161.018-.152.009-.17.018-.161.009-.161.009-.17.009h-.161l-.17.009h-.857l-.179-.009-.179-.009-.179-.009,7.7-15.736.214.009.205.009.205.009h.4l.2.009.2-.009h.2l.2-.009.2-.009h.188l.2-.018.188-.009.188-.018.188-.018.179-.018.188-.018.179-.018.179-.027.179-.027.17-.027.179-.027.17-.027.17-.036.17-.036.161-.036.17-.036.161-.036.161-.045.161-.036.152-.045Z" transform="translate(-7.039 -3.653)"/>
      <path id="Path_28" data-name="Path 28" class="cls-26" d="M93.758,40.475l-7.7,15.736-.08-.116-.089-.125-.08-.116-.089-.125-.08-.116-.089-.125-.08-.116-.08-.125-.089-.116-.08-.125-.089-.116-.08-.125-.08-.116-.089-.125-.08-.116-.089-.116-.08-.125-.08-.116-.089-.125-.08-.116-.08-.125-.089-.116-.08-.116-.089-.125-.08-.116-.08-.125-.089-.116-.08-.116-.08-.125-.089-.116-.08-.116-.08-.125L90.632,36.01l.1.134.1.143.1.134.1.143.1.134.1.143.1.143.1.134.089.143.1.134.1.143.1.143.1.134.1.143.1.134.1.143.1.143.1.134.1.143.089.143.1.134.1.143.1.134.1.143.1.143.1.143.1.134.1.143.1.143.1.143.1.134Z" transform="translate(-6.719 -3.19)"/>
      <path id="Path_29" data-name="Path 29" class="cls-27" d="M83.312,39,76.98,54.943l.027-.188.018-.188.027-.188.018-.188.027-.188.027-.179.018-.188.027-.188.018-.179.027-.188.018-.179.027-.179.018-.188.027-.179.018-.179L77.346,52,83.732,35.59,83.7,35.8,83.678,36l-.018.214-.027.205-.027.214-.027.214-.027.214-.027.214-.027.205-.027.214-.027.214-.027.223-.027.214-.027.214-.027.214Z" transform="translate(-6.034 -3.146)"/>
      <path id="Path_30" data-name="Path 30" class="cls-28" d="M83.81,34.28,77.389,50.856l-.036.1-.045.089-.045.1-.045.089-.045.1-.045.089-.045.1-.045.089L77,51.7l-.045.1-.045.1-.045.089-.045.1-.036.089-.045.1-.045.1-.054.089-.045.1-.036.1-.054.089-.045.1-.045.1-.045.1-.045.1-.045.089-.045.1-.045.1-.045.1-.045.1-.054.1-.045.1-.045.1,6.18-16.084.054-.116.054-.116.054-.107.054-.116.054-.116.054-.107.054-.116.054-.116.054-.107.054-.116.054-.107.054-.116.054-.107.045-.116.054-.107.054-.116.054-.107.054-.107.045-.116.054-.107.054-.107.054-.116.045-.107.054-.107.054-.107.054-.107.054-.116.045-.107.054-.107.054-.107.045-.107Z" transform="translate(-5.925 -3.005)"/>
      <path id="Path_31" data-name="Path 31" class="cls-29" d="M81.287,37.758l-6.18,16.084-.223-.089-.232-.089-.223-.089-.232-.089-.223-.1-.223-.1-.232-.1-.223-.1-.232-.1-.223-.1-.223-.107-.223-.1-.232-.107-.223-.107-.223-.107-.223-.116-.223-.107-.223-.116-.223-.116-.223-.107-.214-.125-.223-.116-.223-.116-.223-.125-.214-.116-.223-.125-.214-.125-.214-.125-.214-.134-.223-.125-.214-.134-.214-.125L73.008,33.65l.25.152.25.152.25.152.25.152.25.143.259.143.25.143.25.143.259.143.259.143.25.134.259.134.259.134.259.134.259.134.259.125.268.134.259.125.259.125.259.116.268.125.259.125.268.116.259.116.259.116.268.107.268.116.259.107.268.107.259.107.268.107Z" transform="translate(-5.072 -2.938)"/>
      <path id="Path_32" data-name="Path 32" class="cls-30" d="M110.451,52.4l-9.8,14.245-.071-.134-.071-.134-.063-.134-.063-.134-.071-.134-.063-.134-.054-.134-.063-.134-.054-.134-.063-.125-.054-.134-.054-.134-.054-.134-.045-.125-.054-.134-.045-.134-.045-.125-.045-.134-.036-.125L99.546,64l-.036-.125-.045-.125-.036-.134-.036-.125-.027-.125-.036-.125-.027-.134-.027-.125-.027-.125-.027-.116-.018-.125-.027-.125,9.565-14.914.018.134.027.152.036.143.027.143.036.143.027.152.045.143.036.152.036.143.045.152.045.152.045.143.045.152.054.152.045.152.054.152.054.152.063.152.054.152.063.152.063.152.063.152.063.161.071.152.063.152.071.161.071.152.08.152.071.161.08.152.08.161Z" transform="translate(-8.408 -4.427)"/>
      <path id="Path_33" data-name="Path 33" class="cls-31" d="M107.883,52.31,98.39,66.644l-.161.08-.17.08-.17.089-.17.08-.17.089-.17.08-.179.089-.17.089-.17.08-.179.089-.17.089-.179.08-.17.089-.179.089-.179.08-.179.089,9.047-14.1.205-.1.205-.107.205-.1.205-.1.205-.1.2-.107.205-.1.2-.1.205-.1.2-.1.2-.107.2-.1.2-.1.205-.1.2-.1Z" transform="translate(-8.028 -4.933)"/>
      <path id="Path_34" data-name="Path 34" class="cls-32" d="M59.308,75.108,55.933,86.45l-.232-.232-.232-.232-.232-.232-.223-.232-.232-.232-.214-.232-.223-.241-.214-.241-.205-.232-.214-.241L53.5,83.86l-.205-.25-.2-.241-.2-.241-.188-.25-.2-.25-.179-.25-.188-.25-.179-.25-.179-.25-.17-.25-.17-.259-.17-.25-.161-.259-.161-.259-.161-.259-.152-.259-.152-.259-.143-.259-.143-.259-.143-.259-.134-.268L52.333,65.9l.161.313.161.3.17.3.17.3.179.295.179.3.179.3.188.295.188.295.2.3.2.295.205.295.205.286.205.295.214.295.214.286.223.286.223.286.232.286.232.286.232.286.241.277.241.286.241.277.25.277.259.277.25.268.268.277.259.268.268.268.268.268Z" transform="translate(-3.143 -6.386)"/>
      <path id="Path_35" data-name="Path 35" class="cls-33" d="M108.778,81,99.141,91.744l-.134.152-.143.143-.143.152-.143.152-.152.143-.143.143-.152.143-.161.143-.152.134-.161.143-.161.134-.17.134-.161.125-.17.134-.179.134-.17.125-.179.125-.17.125-.188.116-.179.125-.188.116-.188.116-.188.116-.188.107-.2.116-.2.107-.2.107-.205.107,8.868-10.154.232-.125.232-.125.223-.125.223-.125.223-.134.223-.134.214-.134.214-.134.214-.143.214-.143.205-.143.205-.143.2-.152.2-.143.2-.152.2-.161.2-.152.179-.161.188-.161.188-.161.179-.161.179-.161.17-.17.179-.17.161-.17.17-.179.161-.17Z" transform="translate(-7.896 -8.001)"/>
      <path id="Path_36" data-name="Path 36" class="cls-34" d="M115.137,59.88,104.714,73.258l-.214.071-.214.063-.214.063-.223.071-.214.063-.223.071-.223.071-.214.063-.223.071-.223.063-.232.071-.223.063-.223.071-.232.063-.223.071-.232.071,9.851-13.209.268-.08.259-.08.268-.08.259-.071.268-.08.259-.08.259-.08.259-.071.259-.08.259-.08.25-.08.259-.071.25-.08.25-.08.25-.08Z" transform="translate(-8.62 -5.743)"/>
      <path id="Path_37" data-name="Path 37" class="cls-35" d="M113.3,69.933l-10.208,12.1-.152-.045-.143-.045-.152-.045-.143-.036-.152-.045-.152-.045-.143-.045-.152-.045-.152-.045-.143-.045-.152-.045-.152-.045-.143-.036-.152-.045-.152-.045-.152-.045-.152-.045-.143-.045-.152-.045-.152-.045-.152-.045-.152-.045-.152-.045-.152-.045-.152-.045-.152-.045-.152-.045L98.9,80.8l-.152-.045-.161-.045-.152-.045-.152-.045,9.431-12.333.179.054.179.054.179.054.17.054.179.045.179.054.179.054.179.054.179.054.17.054.179.054.179.045.17.054.179.054.179.054.17.045.179.054.17.054.179.054.17.045.179.054.17.054.17.054.179.045.17.054.179.054.17.045.17.054.179.054.17.045.17.054Z" transform="translate(-8.312 -6.642)"/>
      <path id="Path_38" data-name="Path 38" class="cls-36" d="M111.544,39.545l-9.949,15.87-.071-.089-.071-.089-.063-.1-.071-.089-.071-.089-.071-.089-.071-.089-.063-.1-.071-.089L100.9,54.5l-.071-.089-.071-.1-.063-.089-.071-.089-.071-.089-.071-.089-.063-.1-.071-.089-.071-.089-.063-.089-.071-.089-.071-.089L100,53.325l-.063-.1-.071-.089-.071-.089-.063-.089-.071-.089-.071-.089-.071-.089-.063-.1L99.38,52.5l9.583-16.343.08.107.08.107.08.1.08.107.08.107.08.107.08.1.08.107.08.107.08.107.08.107.08.107.08.1.08.107.08.107.08.107.08.107.08.1.08.107.08.107.08.107.08.107.08.107.08.107.08.107.08.1.089.107.08.107.08.107.08.107.08.107Z" transform="translate(-8.429 -3.206)"/>
      <path id="Path_39" data-name="Path 39" class="cls-37" d="M103.386,44.206,94.5,59.487v-.545l.009-.125v-.134l.009-.125.009-.134.018-.125.009-.125.018-.125.009-.125.027-.116.018-.125.018-.116.027-.125.027-.116.027-.116.027-.116.027-.116.036-.107.036-.116.036-.107.036-.107.036-.107L95,56.325l.045-.107.036-.1.045-.107.054-.1.045-.1.054-.1,9-15.888-.054.116-.063.116-.054.116-.054.116-.054.116-.045.125-.045.125-.045.125-.045.125-.045.134-.036.125-.036.134-.036.125-.036.134-.036.134-.027.143-.027.134-.027.143-.018.143-.027.143-.018.143-.018.143-.018.143-.009.152-.009.143-.009.152-.009.152-.009.152v.473Z" transform="translate(-7.908 -3.599)"/>
      <path id="Path_40" data-name="Path 40" class="cls-38" d="M109.257,42.435,99.63,57.993l.089-.17.089-.161,9.654-15.6-.107.179Z" transform="translate(-8.456 -3.837)"/>
      <path id="Path_41" data-name="Path 41" class="cls-39" d="M108.245,47.275,98.68,62.19l-.125-.071-.134-.063-.125-.071-.125-.063-.134-.071-.125-.063-.134-.071-.125-.063-.134-.071-.125-.063-.134-.071-.134-.071L97,61.315l-.134-.071-.125-.063-.134-.071-.125-.071-.134-.063-.134-.071-.125-.071-.134-.063-.134-.071-.125-.071-.134-.063-.134-.071-.134-.071-.125-.063-.134-.071-.134-.071-.134-.071-.134-.071-.134-.063,8.886-15.281.152.08.152.08.152.089.161.071.152.089.152.071.152.089.152.071.161.08.152.08.152.08.152.08.152.08.152.08.152.08.152.08.152.08.152.071.152.08.152.08.143.08.152.08.152.08.152.071.152.08.152.08.152.08.152.08.143.071.152.08.152.08Z" transform="translate(-7.908 -4.123)"/>
      <path id="Path_42" data-name="Path 42" class="cls-40" d="M110.553,60.5,100.7,73.714l-.143-.17-.143-.17-.143-.17-.134-.17-.143-.17-.134-.179-.134-.17-.134-.17-.134-.17L99.327,72l-.125-.17-.134-.17-.125-.179-.116-.17-.125-.179-.125-.179-.116-.17-.116-.179-.116-.17-.116-.179L98,70.079l-.107-.17-.107-.179-.107-.179-.107-.179-.107-.17-.1-.179-.1-.179-.1-.179-.1-.17-.1-.179-.089-.179,9.226-14.111.107.205.107.205.116.205.116.205.116.205.116.205.116.205.125.205.125.205.125.205.134.2.125.205.134.205.134.205.143.205.134.205.143.2.143.205.143.205.143.2.152.205.152.205.152.2.152.205.152.2.161.2.161.2.161.205.161.2.161.2.17.2Z" transform="translate(-8.162 -5.117)"/>
      <path id="Path_43" data-name="Path 43" class="cls-41" d="M70.286,50.722,66.58,62.2l.991-.018.054-.054.348-.277.375-.259.393-.241.411-.214.429-.2.438-.17.455-.152.473-.134.491-.107.491-.089.509-.071.518-.045.527-.018.536-.009.545.018.545.045.554.054.563.089.563.1.563.125.563.143.563.161.563.188.563.205.545.223.536.232.2.089.071.036h0l.259.125.518.259.5.277.491.286.473.3.464.322.447.322.438.339.42.348.4.357.393.366.366.384.357.384.33.393.322.411.295.411.286.42.259.42.241.429.223.438.2.447.179.447.161.455.134.455.107.455.089.464.063.464.045.464.009.473-.009.464-.045.455-.071.447-.1.429-.125.429-.161.411-.179.4-.214.384-.232.375,8.359-12.548.268-.438.241-.447.214-.464.179-.482.152-.491.116-.509.08-.518.045-.527.018-.545-.018-.545-.045-.536-.071-.545-.107-.536-.125-.536-.161-.527-.179-.527-.205-.518-.232-.518-.259-.509-.277-.5-.313-.5-.322-.482-.348-.482-.375-.464-.384-.464-.411-.447-.429-.438-.455-.429-.464-.42-.491-.4-.5-.393-.527-.384-.536-.366-.554-.348-.572-.339-.581-.322-.6-.3L87.8,46.73l-.625-.277-.634-.259-.652-.232-.652-.214-.661-.2-.652-.161-.661-.152-.652-.116-.643-.089-.652-.071-.634-.045-.634-.027-.616.009-.616.027-.6.054-.6.071-.572.107-.563.125-.554.152-.536.179-.509.2-.5.232-.473.25-.455.277-.438.3-.411.322-.384.357-.366.375-.33.4-.313.429-.277.455-.25.482-.214.5Z" transform="translate(-4.922 -4.14)"/>
      <path id="Path_44" data-name="Path 44" class="cls-42" d="M105.244,73.46,96.126,85.142l-.089.116-.1.125-.1.116L104.9,73.871l.116-.134.116-.143Z" transform="translate(-8.051 -7.194)"/>
      <path id="Path_45" data-name="Path 45" class="cls-43" d="M102.743,84.962,93.875,95.116l-.134-.17-.134-.17-.134-.17-.134-.17-.134-.17-.134-.17-.134-.17-.134-.17-.143-.17-.134-.161-.134-.17-.134-.17-.134-.17-.134-.17-.134-.161-.134-.17-.134-.17-.134-.17-.134-.17-.134-.161-.134-.17-.134-.17-.134-.17-.134-.161-.134-.17-.143-.17-.125-.17-.143-.161-.134-.17-.134-.17L89.7,89.9l-.134-.17L97.733,78.71l.161.2.152.188.161.2.152.2.161.2.152.2.161.188.152.2.152.2.161.2.161.2.152.2.152.188.161.2.152.2.161.2.161.2.152.2.152.2.161.188.161.2.152.2.161.2.152.2.161.2.152.2.161.2.152.2.161.2.161.2.152.2Z" transform="translate(-7.38 -7.756)"/>
      <path id="Path_46" data-name="Path 46" class="cls-44" d="M142.569,65.693l-13.9,12.619-.107-.054-.1-.054-.107-.054-.1-.054-.107-.054-.1-.063-.107-.054-.1-.054-.107-.054-.1-.054-.107-.063-.1-.054-.107-.054-.107-.054-.1-.054-.107-.054-.1-.063-.107-.054-.107-.054-.107-.054-.1-.054-.107-.063-.1-.054-.107-.054-.107-.054-.1-.063-.107-.054-.107-.054-.107-.054-.1-.063-.107-.054-.107-.054L138.719,63.63l.116.063.125.071.116.063.125.063.125.063.116.071.125.063.125.063.116.063.125.071.116.063.125.063.116.063.125.071.116.063.125.063.116.063.125.071.116.063.125.063.116.063.125.063.116.071.116.063.125.063.116.063.125.063.116.063.116.063.125.071.116.063Z" transform="translate(-11.206 -6.143)"/>
      <path id="Path_47" data-name="Path 47" class="cls-45" d="M140.046,72.53l-13.566,11.8-.17.143-.179.134-.179.125-.188.125-.2.116-.2.107-.205.1-.214.1-.214.089-.223.089-.223.071-.241.071-.241.063,13.146-11.583.277-.08.277-.071.259-.089.259-.1.259-.107.241-.107.241-.125.232-.125.223-.134.214-.143.214-.143.205-.161Z" transform="translate(-11.041 -7.095)"/>
      <path id="Path_48" data-name="Path 48" class="cls-46" d="M136.587,73.674,123.441,85.257l-.1-.134-.1-.134-.089-.134-.1-.134-.1-.134-.1-.125-.1-.134-.1-.134-.1-.134-.089-.125-.1-.134-.1-.134-.1-.134-.089-.125-.1-.134-.1-.134-.1-.125-.1-.134-.089-.134-.1-.134-.1-.125-.1-.134-.089-.134-.1-.125-.1-.134-.1-.134-.089-.125-.1-.134-.1-.134-.089-.125-.1-.134-.1-.134L133,68.78l.116.152.107.152.116.152.107.152.116.152.107.152.116.152.107.152.107.152.116.152.107.152.116.152.107.152.116.161.107.152.116.152.107.152.116.152.116.152.107.152.116.152.107.161.116.152.107.152.116.152.116.152.107.152.116.161.116.152.107.152.116.152Z" transform="translate(-10.672 -6.694)"/>
      <path id="Path_49" data-name="Path 49" class="cls-47" d="M132.535,68.712,119.9,80.974l-.107.009-.107.009-.107.009h-.107l-.107.009h-.223L119.023,81h-.116l-.116-.009h-.116l-.116-.009-.116-.009-.116-.009-.125-.018-.116-.018-.125-.009-.116-.018-.125-.018-.125-.027-.125-.018-.125-.027-.125-.027-.125-.027-.134-.027-.125-.027-.134-.036-.125-.027-.134-.045-.134-.027-.134-.045-.134-.036L128.052,68.14l.152.045.161.045.152.045.152.045.152.036.152.036.152.036.143.036.152.027.143.027.152.027.143.027L130,68.6l.143.027.143.018.143.018.143.018.134.009.143.018.134.009.134.009.134.009.134.009h.268l.125.009.134-.009h.25l.134-.009.125-.009Z" transform="translate(-10.211 -6.626)"/>
      <path id="Path_50" data-name="Path 50" class="cls-48" d="M127.5,73.147l-12.03,11.673-.179-.063-.179-.063-.179-.063-.179-.063-.179-.071-.188-.063-.179-.071-.179-.071-.188-.08-.179-.071-.179-.08-.188-.08-.179-.08-.188-.089-.179-.08-.188-.089-.179-.089-.188-.089-.188-.1-.179-.089-.188-.1-.179-.1-.188-.1-.179-.107-.188-.107-.188-.1-.179-.107-.188-.116-.179-.107L110,82.22l-.179-.116-.188-.116L120.713,69.86l.214.134.205.134.214.134.214.125.214.125.214.125.214.125.214.125.214.116.214.116.214.116.205.116.214.107.214.107.214.107.214.1.214.107.214.1.214.1.205.1.214.089.214.089.214.089.205.089.214.08.214.089.205.08.214.071.205.08.214.071.205.071Z" transform="translate(-9.525 -6.81)"/>
      <path id="Path_51" data-name="Path 51" class="cls-49" d="M96.969,78.71,88.807,89.731l-.17.063-.188.063-.179.054-.179.054-.188.054-.179.054-.188.045-.188.054-.188.045-.2.036-.188.045-.2.036-.2.045-.2.027-.2.036-.2.036-.205.027-.2.027-.205.018-.205.027-.205.018-.205.018-.214.018-.205.009-.214.018h-.214l-.214.009-.214.009h-.429l-.223-.009H82.43l7.127-10.878.25.009h.759l.25-.009h.241l.25-.018.25-.009.241-.018.241-.018.241-.018.241-.027.241-.018L93,79.621l.232-.027.232-.036.241-.036.223-.036.232-.045.223-.036.223-.045.232-.054.214-.045.223-.054.223-.054.214-.063.214-.054.214-.063.214-.063.205-.071.205-.063Z" transform="translate(-6.617 -7.756)"/>
      <path id="Path_52" data-name="Path 52" class="cls-50" d="M87.5,88.495l-7.011,9.77-.295-.018-.3-.018-.3-.018-.3-.018-.3-.027-.3-.027-.3-.036-.3-.036-.3-.036-.3-.036-.313-.045-.3-.045-.3-.054-.313-.045-.3-.063-.3-.054-.313-.063-.3-.063-.313-.071-.3-.071-.3-.071-.313-.071-.3-.08-.313-.08-.3-.089-.313-.089-.3-.089-.3-.089-.313-.1-.3-.1-.3-.107-.313-.107L76.121,86.28l.357.116.357.125.357.116.357.107.357.107.357.107.357.107.357.1.357.1.357.089.357.089.357.08.357.08.357.08.357.08.357.063.357.071.357.063.357.063.357.054.357.054.348.054.357.045.357.045.357.045.348.027.357.036.348.036.357.018.348.027.348.018Z" transform="translate(-5.363 -8.565)"/>
      <path id="Path_53" data-name="Path 53" class="cls-51" d="M73.874,77.715c.518-2.8.991-5.5,1.456-8.109a31.535,31.535,0,0,1-7.895-4.849c-2.6,1.277-5.359,2.581-8.154,3.974a35.035,35.035,0,0,1-6.975-9.2c2.858-1.134,5.6-2.179,8.234-3.224a17.353,17.353,0,0,1-2.027-7.323l-8.833-2.51a16.129,16.129,0,0,1,2.965-7.413l7.9,2.465a13.048,13.048,0,0,1,4.8-4.251l-3.947-4.528a27.4,27.4,0,0,1,7.94-1.581c1.2,1.366,2.42,2.733,3.635,4.09a27.069,27.069,0,0,1,7.4.607c.143-1.161.286-2.3.42-3.412A42.1,42.1,0,0,1,88.529,35.4c-.045,1.107-.089,2.251-.143,3.4a32.5,32.5,0,0,1,6.144,4.189c1.125-.429,2.215-.893,3.269-1.295a36.671,36.671,0,0,1,5.162,5.7c-1.045.518-2.108,1.063-3.215,1.6a20.684,20.684,0,0,1,2.581,5.832l5.091,1.652a20.675,20.675,0,0,1,.679,6.832l-5.6-1.643a11.726,11.726,0,0,1-2.519,5.01c1.536,1.867,3.09,3.715,4.644,5.6a18.871,18.871,0,0,1-6.135,4.93l-5.01-6.252a20.782,20.782,0,0,1-7.422,1.072c-.259,2.545-.518,5.171-.795,7.895a39.144,39.144,0,0,1-11.387-2.215Zm-2.822-47A50.156,50.156,0,0,0,79.33,34.82l1.661-3.572a28.4,28.4,0,0,0,6.046,1.563l3.117,4.465a17.245,17.245,0,0,0,5.832-.589l-2.965-4.108A6.127,6.127,0,0,0,96,30.792l4.555,2.474a6.689,6.689,0,0,0,.688-3.671l-4.153-2.313a9.4,9.4,0,0,0-1.152-3.688l3.117.063A27.159,27.159,0,0,0,95.611,19.3l-3.045-.188a32.151,32.151,0,0,0-4.421-3.742c.25-.581.491-1.152.723-1.724a50.387,50.387,0,0,0-5.787-3.376c-.295.554-.607,1.1-.893,1.661a32.321,32.321,0,0,0-5.7-2.018L74.356,7.063A30.132,30.132,0,0,0,68.22,6.17l2.161,3.09a9.949,9.949,0,0,0-4.162,1.027L61,7.429a7.037,7.037,0,0,0-3.179,2.92l5.841,3.1a6.743,6.743,0,0,0,.42,3.938L57.825,17a20.943,20.943,0,0,0,3.751,5.859c2.206.054,4.323.107,6.386.143a31.66,31.66,0,0,0,5.225,4.269l-2.108,3.438Zm0-15.942c1.974-2.626,7.8-1.849,13.012,1.1S92.61,23.067,91.646,26s-6.555,3.278-12.789,0S69.1,17.4,71.078,14.77Zm43.216,48.28a29.892,29.892,0,0,0,6.8,3.287c0-1.661-.089-3.26-.134-4.823a12,12,0,0,0,4.465.572q1.786,2.429,3.572,4.894a6.966,6.966,0,0,0,3.635-2.072l-3.385-4.465a5.358,5.358,0,0,0,1.349-2.929l3.858,2.063a15.781,15.781,0,0,0-.822-4.787l-3.572-1.947a20.121,20.121,0,0,0-2.036-4.385l2.09-.652a37.017,37.017,0,0,0-3.769-4.707l-2.1.482a31.56,31.56,0,0,0-4.224-3.68c0-.795-.08-1.581-.125-2.349a34.223,34.223,0,0,0-5.046-2.885c0,.759,0,1.527,0,2.313a16.209,16.209,0,0,0-4.465-1.206l-2.34-3.135a11.271,11.271,0,0,0-4.331.322l2.545,3.376a4.733,4.733,0,0,0-2.313,2.259l-4.465-2.367a8.761,8.761,0,0,0-.893,4.385l4.858,2.536a16.451,16.451,0,0,0,1.742,4.841c-1.322.295-2.679.616-4.1.893a34.143,34.143,0,0,0,4.465,6.475q2.134-.634,4.126-1.25a30.008,30.008,0,0,0,4.841,4.144c-.045,1.554-.107,3.144-.179,4.769Zm-5.591-19.943c.322-3.751,4.394-4.153,8.868-1.661s8.154,7.091,8.529,11-3.17,5.617-8.359,2.956S108.347,46.859,108.677,43.108ZM68.328,47.1c-1.447,6.064,4.966,14.164,13.4,16.343s14.414-2.009,14.388-7.823-5.064-11.369-12.03-13.8S69.774,41.072,68.328,47.1Z" transform="translate(-3.116 0)"/>
    </g>
  </g>
</svg>
