<svg id="Слой_1" data-name="Слой 1" xmlns="http://www.w3.org/2000/svg" viewBox="0 0 250 250"><defs><style>.cls-1{fill:#fefefe;}.cls-2{fill:#f1f1f3;}.cls-3{fill:#0a2439;}.cls-4{fill:#dfdcdd;}.cls-5{fill:#ededed;}.cls-6{fill:#0a334f;}.cls-7{fill:#0e3655;}.cls-8{fill:#0b2f49;}.cls-9{fill:#010b4a;}.cls-10{fill:#50858e;}.cls-11{fill:#b8b5b4;}.cls-12{fill:#d5d4d3;}.cls-13{fill:#407076;}.cls-14{fill:#888787;}.cls-15{fill:#001629;}.cls-16{fill:#7ddbea;}.cls-17{fill:#e76f71;}.cls-18{fill:#f6e949;}.cls-19{fill:#6ccbd5;}.cls-20{fill:#040a2a;}.cls-21{fill:#5b9ba1;}.cls-22{fill:#488188;}.cls-23{fill:#d0922a;}.cls-24{fill:#b6b5b5;}.cls-25{fill:#b6b6b6;}.cls-26{fill:#b7b7b7;}.cls-27{fill:#d3d3d3;}.cls-28{fill:#d3d2d4;}.cls-29{fill:#d4d1d4;}.cls-30{fill:#d6d3d6;}</style></defs><title>service-office</title><path class="cls-1" d="M118.25,52a1,1,0,0,1,1,1c0,.66-.54.89-1.05,1-.67.13-.68-.42-.69-.87S117.46,52,118.25,52Z"/><path class="cls-2" d="M109.86,52.39c1.15-1,1.87-.16,2.41.58.66.91.16,1.42-.67.76A12.32,12.32,0,0,1,109.86,52.39Z"/><path class="cls-3" d="M213.69,138.5v25.56c0,2.54.43,5,.3,7.58-.19,3.67-2.11,5.75-5.74,5.8-8.06.1-16.12.05-24.18,0a3.92,3.92,0,0,1-2.6-.73,2.84,2.84,0,0,1-.77-2.09c0-6.78-.25-13.56.14-20.34-.43-4-.43-4.06-4.49-4.08-1,0-2-.16-2.94-.12-3.75.28-7.51.12-11.26.13H128.59a10.63,10.63,0,0,1-3.42-.27,2.26,2.26,0,0,1-1.24-.55,1.28,1.28,0,0,1-.19-.87c.89-2.14.57-4.39.6-6.61,0-2.46.07-4.92,0-7.38-.08-2.19-.57-2.64-2.79-2.77H42.39a33.43,33.43,0,0,0-3.46.12,2,2,0,0,1-2.4-1.5l0-.09c-.14-15.46,0-30.92-.07-46.38a7.77,7.77,0,0,0-.13-2.52c.47-2.37,2.09-3.22,4.3-3.22H62.19c.84,0,1.67-.09,2.51-.14.89.69.61,1.68.62,2.56V93.51c0,3.19.37,3.54,3.64,3.52a61.85,61.85,0,0,0,7.6-.14h2.08c30,.21,60.08-.48,90.12-.3a17.84,17.84,0,0,0,2.3-.08,1.69,1.69,0,0,0,1.62-1.65,22.31,22.31,0,0,0,.08-2.53v-35c0-1.26-.31-2.67,1-3.58,3.22.39,6.6-.83,9.7.91a2.41,2.41,0,0,1-2.21,1H178c-3,0-2.92,0-2.9,3,.05,10.83,0,21.66,0,32.5v3a3.68,3.68,0,0,0,.1,1.37c1.26,3,3.85,1.26,5.84,1.55,1.51.23,1.87-.84,1.85-2.22-.06-4.45-.13-8.91.07-13.36.05-1.23,0-2.5,1.32-3.22H208c3.43,0,4.88,1.47,4.88,4.91"/><path class="cls-4" d="M173.82,53.7c0,13.77-.1,27.53,0,41.3,0,2-.38,2.55-2.47,2.55q-47.42-.09-94.85,0a.79.79,0,0,1,.28-.81c1.16-.86,2.51-.59,3.79-.59h41.3a1.87,1.87,0,0,0,2-2.05v-48c0-1.36-.25-2.81,1-3.88,4.75,0,9.51-.1,14.26-.11q16.33,0,32.68-.05c1.62,0,2.08.41,2,2C173.68,47.25,173.8,50.48,173.82,53.7Z"/><path class="cls-5" d="M124.84,42.16V94c0,3.07,0,3.08-3,3.08H76.48l-.37-.27c-.63-1-.42-2.08-.42-3.14V59.21a22.8,22.8,0,0,0-.19-3.44,2.8,2.8,0,0,1,.82-2.09c0-3.37.08-6.75.07-10.12,0-1,0-1.53,1.29-1.52Q101.26,42.15,124.84,42.16Z"/><path class="cls-6" d="M36.7,130.35c.46.37.8.82,1.56.79,16.66-.74,33.34-.19,50-.32,11.3-.09,22.6,0,33.9,0,2.66,0,3.12.45,3.13,3.07v12.45c0,1.08.13,2.25-1.39,2.48-.94.94-2.15.67-3.28.67H83.08a22.8,22.8,0,0,0-5.7.53,3.47,3.47,0,0,1-.82,0,40.49,40.49,0,0,1-5.68.21c-2.55,0-2.59.09-2.78,2.71,0,5.22.05,10.43,0,15.64v5.53a3.71,3.71,0,0,1-.62,2.4,1.93,1.93,0,0,1-.76.51c-8.13.37-16.26.06-24.39.17a7.49,7.49,0,0,1-3.81-.63c-.93-1.15-2.48-1.94-2.22-3.78a7.36,7.36,0,0,0,.15-2.51V132.82A4.41,4.41,0,0,1,36.7,130.35Z"/><path class="cls-7" d="M76.33,53.67v1.91a2.17,2.17,0,0,0-.16.66q0,20.11,0,40.21a2,2,0,0,0,.17.66h.16v.47c-3.47,1-7,.33-10.51.43-1.23,0-1.46-1.16-1.47-2,0-6-.47-12,.23-17.92,0-7.14-.1-14.29-.12-21.43,0-2.09,1.07-3,3.2-2.93C70.64,53.77,73.48,53.68,76.33,53.67Z"/><path class="cls-8" d="M184.73,95.49a2.42,2.42,0,0,1-2.34,2.5h-.16c-2.07.08-4.15,0-6.23,0-1,0-1.57-.43-1.61-1.48,0-.69-.15-1.38-.15-2.06V56.85c0-1.87,1-2.31,2.61-2.27h6.69l.78,1a4.88,4.88,0,0,1,1.06,3.19V72"/><path class="cls-9" d="M36.7,130.35V170.1c0,.9.23,1.85-.37,2.67q0-21.34-.07-42.68,0-23.19,0-46.38c0-.77.06-1.53.09-2.3.45.14.46.46.46.89Q36.72,106.33,36.7,130.35Z"/><path class="cls-10" d="M181.81,176.49q0,7.24-.07,14.48c0,4.89-1,5.91-5.88,5.93-.53,0-1.07-.06-1.6-.09a2.88,2.88,0,0,1-.7-2.35V156.63c0-2.53.61-3.19,3.12-3.19,1.64,0,3.38-.61,4.93.47q0,10,.09,20.07C181.7,174.8,181.77,175.64,181.81,176.49Z"/><path class="cls-11" d="M124.82,149.38h48.86c1.58,1.67,1.33,3.4.15,5.15a3.6,3.6,0,0,1-2.8.8H127.67a4.22,4.22,0,0,1-2.86-.69C123.58,152.88,123.4,151.13,124.82,149.38Z"/><path class="cls-12" d="M124.82,149.38l.07,4.87-.25.39a3.78,3.78,0,0,1-2.84.67H79.36a4.61,4.61,0,0,1-3.08-.71c-1.14-1.8-1.35-3.56.19-5.26a.85.85,0,0,0,.4-.14,3.44,3.44,0,0,1,1.58-.17h43.89a3.52,3.52,0,0,1,1.58.16Z"/><path class="cls-13" d="M173.68,154.37v-5c1.83,0,3.66.06,5.48-.11,2-.19,2.82.58,2.52,2.58a18.17,18.17,0,0,0-.08,2.05,11.27,11.27,0,0,1-4.79.42c-2-.19-2.64.54-2.63,2.59.09,13.3.05,26.6.06,39.9a.92.92,0,0,1-.42.09c-1-.62-1-1.65-1-2.65q-.07-18.67,0-37.33A3.26,3.26,0,0,1,173.68,154.37Z"/><path class="cls-14" d="M201.73,164a16.07,16.07,0,0,0,2.3,0c2.07-.31,2.83.45,2.67,2.59-.1,1.45-.43,2.07-2,2-2.14-.11-4.29-.05-6.44,0s-1.32-1.6-1.45-2.64-.11-2,1.45-1.91C199.43,164.09,200.58,164,201.73,164Z"/><path class="cls-15" d="M123.92,149.21H76.86c.82-.62,1.77-.39,2.67-.39h44.39Z"/><path class="cls-16" d="M200,97.71a2.49,2.49,0,0,1-.54,2.13,1.75,1.75,0,0,0,.57,2.41h0a2,2,0,0,0,3-2.51c-.31-.64-1.1-1.14-.53-2,2,1.37,2.53,2.88,1.57,4.57s-2.87,2-5.14.82C197.55,100.42,197.76,99.32,200,97.71Z"/><path class="cls-17" d="M204.58,89.94c.83.09,1.34.55,1.32,1.33s-.38,1.36-1.25,1.34a1.25,1.25,0,0,1-1.39-1.43C203.29,90.31,203.85,90,204.58,89.94Z"/><path class="cls-18" d="M199.61,91.24a1.26,1.26,0,0,1-1.13,1.37h-.08a1.28,1.28,0,0,1-1.52-1.32A1.22,1.22,0,0,1,198,90h.19a1.3,1.3,0,0,1,1.41,1.18Z"/><path class="cls-19" d="M201.86,97.2v2.53c0,.46.06,1-.58,1-.86.06-.7-.64-.71-1.13V97.07Z"/><path class="cls-4" d="M173.68,154.37q0,19.19.08,38.39c0,1.38,0,2.76.08,4.13,0,3.14-.11,6.28,0,9.41,0,1.49-.41,2-1.94,2-4.74-.06-9.49,0-14.24,0H140.54a3.18,3.18,0,0,1-1.8.21H81.44a3.62,3.62,0,0,1-1.81-.19c-1-.59-2.51.76-3.15-.94,1.1-.77,2.37-.53,3.58-.53h41.45c1.65,0,2.34-.8,2.35-2.41v-8.29a5.07,5.07,0,0,1,.53-2.9,3.17,3.17,0,0,1,2.65-1.1c.84,0,1.7.06,2.53,0,1-.13,2.78.53,2.72-1.15s-1.79-.93-2.83-1-1.84,0-2.76-.07a3,3,0,0,1-2.25-1,7.34,7.34,0,0,1,.16-6.49c1.06-1,2.42-.85,3.7-.86h29.28c1.12,0,3,.55,3.07-1s-1.91-1.09-3-1.09c-9.76-.06-19.52,0-29.28,0-1.29,0-2.64.19-3.73-.81a7.07,7.07,0,0,1-.08-6.68c1-1.08,2.39-.9,3.67-.91h29.24c1.12,0,3.09.55,3.09-1,0-1.76-2-1.14-3.2-1.15-9.67-.07-19.34,0-29,0-1.29,0-2.64.18-3.72-.82a7.1,7.1,0,0,1-.08-6.66c1-1.08,2.38-.91,3.67-.92h29c1.13,0,3.09.55,3.15-.91.08-1.84-2-1.22-3.12-1.22-9.6-.07-19.19,0-28.79,0-1.29,0-2.64.2-3.75-.75a2,2,0,0,1-.09-2.83l.09-.09.08-.15,46,.07A8,8,0,0,1,173.68,154.37Z"/><path class="cls-20" d="M76.32,97.12a3,3,0,0,1-.41-2.21V57.79a3.14,3.14,0,0,1,.4-2.21Z"/><path class="cls-21" d="M75.89,196.78c-1.52,0-3,0-4.55.12-2.17.12-3.24-1.32-4.24-2.88-.38-5.85-.16-11.71-.12-17.56l.21-23.91a22.73,22.73,0,0,0,6.06.87c2.67,0,3.33.74,3.34,3.5V194C76.59,195,76.75,196,75.89,196.78Z"/><path class="cls-22" d="M75.89,196.78q0-20.05.06-40.12c0-1.85-.6-2.51-2.39-2.34-1.14.1-2.32-.08-3.45,0a2.34,2.34,0,0,1-2.87-1.65l0-.17c-.2-3.26-.2-3.26,3.07-3.26,2.06,0,4.13,0,6.19.06v5a3.45,3.45,0,0,1,.89,2.76v37.13c0,1,0,2-1,2.67Z"/><path class="cls-23" d="M67,176.45,67.12,194a3.39,3.39,0,0,1-.41-2.41V176.55A.57.57,0,0,1,67,176.45Z"/><path class="cls-1" d="M76.34,196.92q0-20,.05-40c0-.84,0-1.68.07-2.53h48.35V157l-.23.37c-1,.91-2.32.68-3.52.68H91.57c-1.11,0-3-.56-3,1.07s1.93,1.06,3,1.06c9.83.05,19.66,0,29.49,0,1.2,0,2.48-.24,3.56.6l.26.35v6.44l-.25.35c-1.06.88-2.33.64-3.54.64H91.6c-1.11,0-3-.56-3,1.07s1.93,1.06,3,1.07c9.83.05,19.66,0,29.49,0,1.2,0,2.48-.24,3.55.63l.25.35v6.43l-.25.35c-1.06.87-2.34.63-3.54.63H91.61c-1.11,0-3-.56-3,1.07s1.93,1.06,3,1.07c9.83.05,19.66,0,29.49,0,1.2,0,2.48-.24,3.54.63l.25.35V189l-.26.35c-1.07.86-2.34.62-3.55.62H91.59c-1.11,0-3-.56-3,1.07s1.93,1.06,3,1.07c9.83.05,19.66,0,29.49,0,1.2,0,2.48-.24,3.54.66l.24.36c0,4.14,0,8.29.06,12.43,0,1.64-.4,2.32-2.18,2.31-14.66-.06-29.32,0-44,0a4,4,0,0,1-2.23-.43Z"/><path class="cls-24" d="M124.83,178.33h35c1.55,0,2.4.23,2.4,2.1s-.85,2.11-2.4,2.1h-35a2.79,2.79,0,0,1-.22-3.94l.22-.22Z"/><path class="cls-25" d="M124.82,167.7h34.56c1,0,2.19-.31,2.67,1.15.67,2,0,3-2.19,3h-35a2.8,2.8,0,0,1-.21-4l.21-.21Z"/><path class="cls-25" d="M124.79,157q17.28,0,34.56.07c.91,0,2-.4,2.48,1,.78,2.28.29,3.12-2.18,3.12H124.86a2.81,2.81,0,0,1-.27-4l.19-.2Z"/><path class="cls-26" d="M124.84,189c2.38,0,4.77.07,7.15,0,1.63,0,1.63,1,1.64,2.11s-.09,2.12-1.68,2.08c-2.38-.06-4.76,0-7.15,0h0a2.82,2.82,0,0,1-.19-4l.19-.19Z"/><path class="cls-27" d="M124.8,157.07l.08,4.16H89.62c-1.45,0-2.68.13-2.68-2.05S88,157,89.54,157Q107.17,157.1,124.8,157.07Z"/><path class="cls-28" d="M124.83,167.72v4.16H89.33c-1.54,0-2.4-.22-2.4-2.1s.83-2.12,2.39-2.11h32.27Z"/><path class="cls-29" d="M124.84,178.35v4.16H89.34c-1.79,0-2.42-.5-2.39-2.35s1.06-1.86,2.39-1.86Q107.09,178.36,124.84,178.35Z"/><path class="cls-30" d="M124.85,189v4.17H89.36c-1.84,0-2.38-.58-2.36-2.38S88,189,89.36,189Z"/></svg>