<svg id="Слой_1" data-name="Слой 1" xmlns="http://www.w3.org/2000/svg" viewBox="0 0 250 250"><defs><style>.cls-1{fill:#e3e7eb;}.cls-2{fill:#2f7bd3;}.cls-3{fill:#c3cbcd;}.cls-4{fill:#c5cdcf;}.cls-5{fill:#3f81cb;}.cls-6{fill:#bdc6ca;}.cls-7{fill:#85b1d7;}.cls-8{fill:#3a83d5;}.cls-9{fill:#bcc8cd;}.cls-10{fill:#4180c4;}.cls-11{fill:#347fd4;}.cls-12{fill:#4186d2;}.cls-13{fill:#3581d5;}.cls-14{fill:#e4e8ec;}.cls-15{fill:#2f7dd9;}.cls-16{fill:#ccd3d4;}.cls-17{fill:#e7eaee;}.cls-18{fill:#89a7ca;}.cls-19{fill:#4586cd;}.cls-20{fill:#3b81cf;}.cls-21{fill:#278cdf;}.cls-22{fill:#3581d6;}.cls-23{fill:#4283cd;}.cls-24{fill:#0466b8;}.cls-25{fill:#e6e9ed;}.cls-26{fill:#dce9f4;}.cls-27{fill:#e5eaec;}.cls-28{fill:#8baacd;}.cls-29{fill:#298ad9;}.cls-30{fill:#e5e8ec;}.cls-31{fill:#e7eef5;}.cls-32{fill:#0666b8;}.cls-33{fill:#0165b9;}.cls-34{fill:#9ca6b3;}.cls-35{fill:#c7cdcf;}.cls-36{fill:#e4e7eb;}.cls-37{fill:#297ad6;}.cls-38{fill:#2f7ed7;}.cls-39{fill:#2c7bd6;}.cls-40{fill:#cdd3d5;}.cls-41{fill:#3480d4;}.cls-42{fill:#1b88e0;}.cls-43{fill:#1d85df;}.cls-44{fill:#cfd4d5;}.cls-45{fill:#126fbc;}.cls-46{fill:#e5eaef;}.cls-47{fill:#fcfcfc;}.cls-48{fill:#2a79d2;}.cls-49{fill:#2677d2;}.cls-50{fill:#bfc7cc;}.cls-51{fill:#d2d7dd;}.cls-52{fill:#4277b3;}.cls-53{fill:#2e7ed7;}.cls-54{fill:#3d79b9;}.cls-55{fill:#0163b6;}.cls-56{fill:#c2c7c9;}.cls-57{fill:#cad0d4;}.cls-58{fill:#e0e3e4;}.cls-59{fill:#3176c3;}.cls-60{fill:#dde1e3;}.cls-61{fill:#a5aeb9;}.cls-62{fill:#80898a;}.cls-63{fill:#565e6a;}.cls-64{fill:#9aabb2;}.cls-65{fill:#545d6a;}.cls-66{fill:#3c73b3;}.cls-67{fill:#e2e9ee;}.cls-68{fill:#dee6ec;}.cls-69{fill:#8b9191;}.cls-70{fill:#9aabb1;}.cls-71{fill:#596371;}.cls-72{fill:#59626a;}.cls-73{fill:#d0dbe6;}.cls-74{fill:#cad8e4;}.cls-75{fill:#1a61ba;}.cls-76{fill:#2869b7;}.cls-77{fill:#cadae7;}.cls-78{fill:#d0deee;}.cls-79{fill:#8b9292;}.cls-80{fill:#7a99c3;}.cls-81{fill:#7599c5;}.cls-82{fill:#56616e;}.cls-83{fill:#97a7ae;}.cls-84{fill:#e0e6ea;}.cls-85{fill:#dfe4ea;}.cls-86{fill:#71a1ca;}.cls-87{fill:#555f6b;}.cls-88{fill:#005aaa;}.cls-89{fill:#5a8fbf;}.cls-90{fill:#b8d2e9;}.cls-91{fill:#dadbda;}.cls-92{fill:#dedfdf;}.cls-93{fill:#aab4c0;}.cls-94{fill:#a2b7ca;}.cls-95{fill:#7d8384;}.cls-96{fill:#5c6570;}.cls-97{fill:#8ea6b3;}.cls-98{fill:#c4c8cc;}.cls-99{fill:#1b63bf;}.cls-100{fill:#81a8ca;}.cls-101{fill:#0061b4;}.cls-102{fill:#d7dce1;}.cls-103{fill:#3c75b5;}.cls-104{fill:#a4bacd;}.cls-105{fill:#5f6875;}.cls-106{fill:#005bab;}.cls-107{fill:#0062ba;}.cls-108{fill:#bdcbd9;}.cls-109{fill:#537aa0;}.cls-110{fill:#d3d6db;}.cls-111{fill:#b9bec3;}.cls-112{fill:#d3d3d3;}.cls-113{fill:#c6c8c7;}.cls-114{fill:#acb6c2;}.cls-115{fill:#d4dee5;}.cls-116{fill:#809dc2;}.cls-117{fill:#5a6270;}.cls-118{fill:#6691b4;}.cls-119{fill:#0066c1;}.cls-120{fill:#dddede;}.cls-121{fill:#757b7a;}.cls-122{fill:#92a8b2;}.cls-123{fill:#5c6672;}</style></defs><title>service-it-infrastructure</title><path class="cls-1" d="M38.26,156.27c-1-1.34-.26-2,.85-2.78,3.28-2.2,7.09-3.38,10.44-5.43a9.05,9.05,0,0,1,3.57-.51c2.22,3.07,5.44,5.11,8.15,7.66,1.6,1.51,4.19.9,6.39,1.08,2.9.24,3.75-1.77,4.78-3.77a8.63,8.63,0,0,1,1.37-1.82c3.77-4.11,7.54-8.23,11.38-12.27A4.22,4.22,0,0,1,89,136.8c.24,1.36-.93,1.89-1.61,2.69-4,4.73-8.46,9-12.25,14a2.5,2.5,0,0,0-.92,1.44,4.1,4.1,0,0,1-3.53,3.47c-1.26.17-2.45-.34-3.68-.39-.77,0-1.75-.36-1.88.94a1.33,1.33,0,0,1-.61.83c-3.74,1.81-7.22,4.08-10.89,6-3.19,1.67-3.75,1.59-6.41-.93C44.22,162,41.65,158.7,38.26,156.27Z"/><path class="cls-2" d="M133,118.32c3.68,5,3,9.52-2.07,13.18-8,5.82-23.52,5.86-31.52.09-5.48-4-5.36-10.4.35-14.44a50,50,0,0,1,5.12-2.82,37.46,37.46,0,0,1,21.43,0c1.46.42,3,.54,4.25,1.58A5.48,5.48,0,0,1,133,118.32Z"/><path class="cls-3" d="M163.23,92.83a16.46,16.46,0,0,0,.5-5.66c-.22-.93.36-1.18,1.1-1.29,2.91.78,5.91,1.24,8.71,2.44.6.61,1.14,1.24.24,2a2.81,2.81,0,0,1-1.17,0c-2.19-.49-4.38-1-6.54-1.64-1.9-.25-.87,1.22-1.12,1.93a3.84,3.84,0,0,0,.09.68c2.42,1.84,5.38,1.87,8.17,2.43,1.42.42,3,.1,4.34.8a5.5,5.5,0,0,1,1.14,3.38,3.81,3.81,0,0,0-1.54,3.47c.07,3.15-.45,3.69-3.51,4.44-1.15.28-2.17.91-3.32,1.21-2.42.54-4.66-.25-6.9-1-.7-.33-1.53-.51-1.86-1.35,1.06-2.07.39-4.31.57-6.46.1-1.11-1-.95-1.52-1.41C161,95.21,162.75,94.44,163.23,92.83Z"/><path class="cls-4" d="M59.76,65.55a2.4,2.4,0,0,0,.52-2l-1-7.68c-.18-.68-.39-2.12.57-1.42,3.15,2.3,6.49,1,9.75,1.17a1,1,0,0,1,.45.23,11.79,11.79,0,0,1,1,5.36,3.19,3.19,0,0,0,1.55,3.22c-.64,1.31,1.29,1.65,1.06,2.81-1.41,1.4-2.84,2.79-2.56,5.05a14.26,14.26,0,0,1-7.75,1,3,3,0,0,1-1-.52c-1.14-1.05-2-2.14-.65-3.68.44-.52-.2-.89-.51-1.27A12.07,12.07,0,0,1,59.76,65.55Z"/><path class="cls-5" d="M98.19,75.34l3.6-1.13c1.46,1.33-.54,1.8-.67,2.73A12.54,12.54,0,0,1,100,78.28c-1.63,2-1.57,2.18,1.37,3.42a24.33,24.33,0,0,0,15.73-.51c2.55-1.31,2.55-1.31.16-4.18a2.36,2.36,0,0,1,.48-2.59,16,16,0,0,1,3.7,1.64c2.55,1.84,2.67,4.68.18,6.59-3.1,2.37-6.76,3.08-10.52,3.36a33.45,33.45,0,0,1-12.82-1.56A5.2,5.2,0,0,1,94.07,80C93.9,77.78,95.14,76.38,98.19,75.34Z"/><path class="cls-6" d="M117.7,74.41v2.91c-.55,1.38.65,2.77-.05,4.15-5.55,2.7-11.2,2.56-16.92.57.84-1.7-.49-2.84-1.09-4.17l1.15-1c1-.9,2.22-.62,3.4-.47,2.61.33,5.21.7,7.82,1a3.92,3.92,0,0,0,2-.08c.71-.31,1.55-.74,1.49-1.55s-1.07-.53-1.65-.76c-1.45-.58-3.46.35-4.37-1.64A18.69,18.69,0,0,1,117.7,74.41Z"/><path class="cls-7" d="M164.77,86.11a1.72,1.72,0,0,0-1,1.06,15.8,15.8,0,0,1-7.25-.33c-2.32-.72-3.51-2.12-2.76-4.54.61-2-.3-2.48-1.92-3-2-.63-4.07-1.18-5.45-3,1.06-.69,1.92,0,2.79.45a18.37,18.37,0,0,0,4,1.43,50.9,50.9,0,0,0,21.72.65,1.66,1.66,0,0,1,1.21.56q0,.22,0,.44c-1.65,1.45-3.36,2.55-5.77,2.07-.81-.16-1.32,1-2.16,1.21-3.14-.92-3.4-.72-3,2.31A1.16,1.16,0,0,1,164.77,86.11Z"/><path class="cls-8" d="M150,106.13l1.44.37c1.25,0,2.49.17,2.79,1.58s-.63,2.35-1.86,2.95a42,42,0,0,1-6,2.7c-2.51,0-4.26,1.88-6.46,2.67-3.15,1.14-5.73.49-7.16-2a1.53,1.53,0,0,1,1.08-1.56,60.23,60.23,0,0,1,6.35-2.56h0C143.5,108.82,146.55,107,150,106.13Z"/><path class="cls-9" d="M202.14,59.9c3.74.19,3-3.18,4-5.11a1.79,1.79,0,0,1,.6.32,10.07,10.07,0,0,0,5.38,1.59.88.88,0,0,1,.53.42,1.67,1.67,0,0,1,.13,1c-.5,2,.34,2.87,2.34,2.8a2.79,2.79,0,0,1,1.23.29,2.53,2.53,0,0,1,1.27,1.66c-.27.82-1.34.84-1.62,1.64-.33,1.13-.11,2.52-1.52,3.11a18.86,18.86,0,0,1-10.14-1.25c-.71-.92-.55-2.1-.94-3.12,0-.75-.37-1.45-.4-2.2S202.28,60.41,202.14,59.9Z"/><path class="cls-10" d="M202.14,59.9a6.46,6.46,0,0,1,1.24.08c.41.08,1.19-.12,1.12.57s-.79.42-1.25.5c-.64.82-1.91,1.07-2,2.32.4,1.5,2.31,1.11,2.92,2.33A25.93,25.93,0,0,0,215,67.07c1.08-.83,2.54-.64,3.65-1.36.8-.6.57-1.05-.18-1.49-.46-.27-1.18-.37-1-1.2-.31-.51-1.13-.7-1-1.51.49-.43,1-.25,1.54-.09a14.34,14.34,0,0,1,3.85,1.93c1.18.9,1.61,1.94.76,3.29-.72,1.57-2,2.07-3.66,2.3a36.67,36.67,0,0,1-18.82-2.13c-1.35-.54-2.73-1-3.43-2.48a2.4,2.4,0,0,1,1.09-3.22l.27-.11C199.42,60.63,200.68,59.9,202.14,59.9Z"/><path class="cls-11" d="M161.64,104.6l1.66.93c-1.06,1.88-2.88,1.18-4.45,1.33a8,8,0,0,1-2-.49,3.84,3.84,0,0,1-.62-.34c-1.1-.92-2.17-1.86-3.23-2.83a2.71,2.71,0,0,1-.59-1.41,22.72,22.72,0,0,1-.06-2.79c.25-3.66,3.21-4.26,5.88-5.18l5-1c.75,2.43-1.4,2.89-2.67,3.95a2,2,0,0,1-1,1c-2.63,1.78-2.66,3-.19,4.91C160.12,103.34,161.17,103.62,161.64,104.6Z"/><path class="cls-12" d="M91.54,89.64a59.79,59.79,0,0,0-7.41,3.21,7.87,7.87,0,0,1-2.36.82c-1.2.11-2.49-.11-2.91-1.47s1-1.48,1.83-1.94c1-.6,2.07-1.08,3.12-1.62a24.54,24.54,0,0,1,10-4.42c2.86,1,3.07,1.35,2.2,3.33Z"/><path class="cls-13" d="M152.55,78.82c-2.26-.34-4-1.94-6.2-2.46-3.05-3-2.74-5.77.94-7.64a12.51,12.51,0,0,1,4-1.46c2.4-.28,4.13-1,4.17-3.74a2.44,2.44,0,0,1,.41,3.21c-1.13,1.26-.28,2.46-.51,3.64-1.24.74-2.64-.54-3.93.4-.79.58-2,.7-2.12,1.91s.87,1.53,1.6,2.08a13.39,13.39,0,0,0,3.64,1.71,1,1,0,0,1,.59.84C154.73,78.56,153.61,78.63,152.55,78.82Z"/><path class="cls-14" d="M109.49,73.31a16.46,16.46,0,0,0,5.87,1c.62,0,1.26.05,1.53.67s-.37,1-.69,1.5c-2.12,3.2-5.06,1.19-7.63,1.12s-5.16-.84-7.79-.78c-.37-1.14,1.88-1.31,1-2.65C104.2,72.53,106.89,73.28,109.49,73.31Z"/><path class="cls-15" d="M79.73,107.59l2.2-1.43h1.36L98.2,113.4c-.35,2.2-2,3.16-4.14,2.23-4.34-1.88-8.55-4-12.84-6A2.67,2.67,0,0,1,79.73,107.59Z"/><path class="cls-16" d="M218,61.42l-1.54.09c-4.71,0-4.71,0-4.12-4.65a2.87,2.87,0,0,1-.66-1.19c-1.17-1.73-3.23-1.22-4.82-1.9a3.53,3.53,0,0,1-.57-.4,1,1,0,0,1,.44-1.09,2.21,2.21,0,0,1,1.72-.2c2.83.46,5.63,1.08,8.43-.3.35-.17,2.09-.84,1.67,1a26.51,26.51,0,0,1-1.32,6A2,2,0,0,0,218,61.42Z"/><path class="cls-17" d="M153,102l.5,1.08a12.11,12.11,0,0,0,3.11,3h0a.39.39,0,0,1,0,.55l0,0c-.44.05-1,.22-.87.68,1,2.76-.81,3.51-2.8,4.34-3.72,1.55-7.26,3.52-11.14,4.68.56-2.49,3-2.22,4.62-3.11s3.4-1.51,5-2.42c3.29-1.87,3.27-2.36.1-4.28.66-.69,2.28-1.1.78-2.46a5,5,0,0,1-1.41-6c1-2.74,3.36-3.6,5.85-4.28a5.46,5.46,0,0,1,1.52,0c-1.92,1.53-5,1.88-5.28,5.08A2.31,2.31,0,0,0,153,102Z"/><path class="cls-18" d="M197,64.07c2.86,2.69,6.6,3.39,10.19,4a40.39,40.39,0,0,0,12.35.16c1.35-.18,2-1.07,3.05-1.62.16,1.69-.94,2.46-2.28,2.92a18,18,0,0,1-5.89,1.23,65.56,65.56,0,0,1-11.8-1.57c-1.15.45-1.68-.69-2.54-1-1-.83-2.46-.85-3.17-2.08C195.86,64.84,195.87,64.77,197,64.07Z"/><path class="cls-19" d="M79.73,71.31a94.16,94.16,0,0,1,15.36,3c.36,1.67-.65,2.31-2,2.61a9.82,9.82,0,0,1-2.53.08c-3.33-.66-6.7-1.16-10-1.88-1.17-.25-2.39-.47-2.67-2a1.73,1.73,0,0,1,1.64-1.81Z"/><path class="cls-20" d="M193.87,69.15a88.14,88.14,0,0,0-10.14,2.1c-.36.26-.8.19-1.2.28-1.44.34-2.84.27-3.25-1.39-.52-2.08,1.45-1.48,2.42-1.94L193,66.11c.63.41,1.48.43,2,1.08h0C195.33,68.25,194.7,68.75,193.87,69.15Z"/><path class="cls-21" d="M156,57.88c-.21-1.37.77-1.74,1.77-2a14.79,14.79,0,0,1,9.2.38c2.55.91,2.1,2.85,1.41,4.79-.72-.6-.58-1.35-.38-2.1-.64.73-1.61.74-2.45,1.05a14.19,14.19,0,0,1-6.71-.48C157.86,59.07,156.66,59,156,57.88Z"/><path class="cls-22" d="M176.07,79.46,175,79.38c-1.24-.63-1-1.59-.57-2.58a3.1,3.1,0,0,1,.41-.61c.95-.86,2.19-1.71.18-2.77a1.24,1.24,0,0,1-.31-.63,21.42,21.42,0,0,0,.26-3.21c0-.74-.24-1.76,1-1.92l.15.5a39,39,0,0,1,4.19,3.28c1.88,1.93,1.83,3.89-.24,5.9C179,78.49,177.44,78.83,176.07,79.46Z"/><path class="cls-23" d="M73.69,67.09c-.44-.85-3.91-.45-1.08-2.64a14.64,14.64,0,0,1,5.17,1.24c1.87.92,2.93,2.32,2,4.53-1.15,1.54-2.5,2.77-4.57,2.86-1-.49-2.66.78-2.95-1.27.26-1.11,1.32-1.22,2.11-1.65,1.91-1,1.92-1.16.06-2.4A1.93,1.93,0,0,1,73.69,67.09Z"/><path class="cls-24" d="M156,57.88a6.6,6.6,0,0,1,2.62,1.05,8.2,8.2,0,0,1-.38,3.7,10.15,10.15,0,0,0,.37,4.47c.52,2.09,0,3.82-2,4.88a1.42,1.42,0,0,1-1.7-.6.58.58,0,0,1,.13-.71c-1.52-2.49,1.42-4.7.44-7.16C155.67,61.64,155.38,59.72,156,57.88Z"/><path class="cls-25" d="M70,55.87a19.47,19.47,0,0,0-3.68.6c-2.42.87-4.31.22-6.18-1.4-1.3-1.13-.66.46-.9.81-.68-.78-.84-1.45.28-2C63.55,51.91,67.17,52.58,70,55.87Z"/><path class="cls-26" d="M90.52,76.38c1.78-.11,3.93.61,4.57-2,1.07.22,1.84,1.38,3.1,1-.4.3-.79.61-1.21.88-3,2-3.13,4.74-.35,7,.51.42,1.06.8,1.6,1.19-.88.94.09,3.21-2.24,3.09.7-2.2-1.38-2.16-2.4-3C92.53,81.85,93.51,78.37,90.52,76.38Z"/><path class="cls-27" d="M218.58,52.82c-.37-1.51-1.68-.59-2-.39-2.91,2-5.74.64-8.6,0a11.65,11.65,0,0,0-1.25-.15,10.62,10.62,0,0,1,10.84-1.22C218.38,51.4,219.71,51.43,218.58,52.82Z"/><path class="cls-28" d="M75.11,72.7c1.8-.36,3.18-1.52,4.66-2.48v1.09c-.42.66-1.38.76-1.62,1.6A22.62,22.62,0,0,1,72.34,75a25.74,25.74,0,0,1-7.15,1.08,3.84,3.84,0,0,1-2.81-.78c-2.2-.83-4.81-.27-6.76-2a2.14,2.14,0,0,1,2.11-.56c5.31,1.6,10.6.58,15.9-.13A2.71,2.71,0,0,1,75.11,72.7Z"/><path class="cls-29" d="M168.34,63.61a9.85,9.85,0,0,1,5.73.12c.89.25,2.11.41,2,1.86-1.62,2.14-3.95.9-5.94,1.25A2.79,2.79,0,0,1,167.7,66,2.08,2.08,0,0,1,168.34,63.61Z"/><path class="cls-30" d="M180.06,77.35c1.68-3.5,1.15-5.18-2.1-7.18-.76-.47-2.18-.48-1.85-2,1.86.84,3.72-.18,5.58,0-.51.75-2.39.06-1.94,1.75.37,1.38,1.59,1.28,2.7,1.28h1.27c-1.4.55-1.66,1.65-1.55,3C182.3,75.83,182,77.2,180.06,77.35Z"/><path class="cls-31" d="M195,67.19a4.16,4.16,0,0,1-2-1.08c.54-.08.94-.27.93-.93-.06-3.85.28-4.18,4.17-4.17a3.52,3.52,0,0,0-1,3.06c-.89.65-.16,1.37-.09,2.06C196.15,66.22,194.44,64.59,195,67.19Z"/><path class="cls-32" d="M169.89,66.16c2-.25,4.19.48,6.16-.57l-.1,2.08c-1.12,1.76.39,4-1.08,5.72-.25.38-.56.67-1,.26a1.84,1.84,0,0,1-.5-1.63c.44-2.72.32-5-3.27-5.2C169.92,66.8,169.85,66.43,169.89,66.16Z"/><path class="cls-33" d="M168.34,63.61a3.28,3.28,0,0,1-.5,2c-1.29.3-2.35-.61-2-1.49.67-1.69-.23-3.15-.08-4.71,1.92-1.15,2.82-.65,2.64,1.62C168.64,61.9,167.15,62.72,168.34,63.61Z"/><path class="cls-17" d="M150,106.13a58.59,58.59,0,0,1-9.74,4.12c0-.25,0-.68.14-.71a74.69,74.69,0,0,0,7.35-3.31A6.37,6.37,0,0,1,150,106.13Z"/><path class="cls-34" d="M206.32,53.37a1.81,1.81,0,0,1,.47,0c1.69,1.07,3.85.81,5.52,1.93l.06,1.59h-.48a28.44,28.44,0,0,1-5.6-1.5l-.1-.62Z"/><path class="cls-35" d="M208.28,137.31a5.19,5.19,0,0,0-1,3.56c.16.47-.12.72-.48.92-1.22.46-2.51.18-3.76.33-.79.09-1.65.28-1.68,1.21,0,1.14,1,.93,1.69,1,4.38.34,7,3,8.61,6.77-.06,3.19,0,6.42-2.31,9a2.05,2.05,0,0,1-.56.53,18.84,18.84,0,0,0-4.7,2.22c-4.68,1.62-9.26.51-13.77-.7-5-1.34-9.56-3.52-13-7.58-4.62-5.46-3.54-10.71,2.88-13.84a37.58,37.58,0,0,1,3.78-1.51c1.9-.68,1.94-1.21.34-2.73a.53.53,0,0,1-.1-.71h0c.86-.77,2.18-.19,3-1l.06-1c.74-.67,1.43-.16,2.12.1,3.1,1.19,6.21,2.36,9.23,3.71,1.76.79,2.8.35,4-.88,1.56-1.58,2.91-3.33,4.43-4.94.71-.76,1.33-1.86,2.69-1.6C209.62,132.6,208.21,134.8,208.28,137.31Z"/><path class="cls-36" d="M209.82,130.15c-3,2.22-4.9,5.59-7.72,8.05a2.09,2.09,0,0,1-2.79.36c-3.91-1.79-8-3.23-12-4.8a73.44,73.44,0,0,1,8.58-8.61,2.1,2.1,0,0,1,2.13-.55q5.69,2.11,11.35,4.32C209.92,129.12,210.64,129.42,209.82,130.15Z"/><path class="cls-37" d="M74.68,153.2c3.69-5.18,8.4-9.48,12.46-14.33.6-.71,1.24-1.38,1.87-2.07l1.91.06c1.07.37,2.28.17,3.28.81a2,2,0,0,1-.09,2.6c-3.66,4.23-6.76,8.95-11.16,12.51a13.67,13.67,0,0,0-2.11,1.81,4.46,4.46,0,0,1-6.29-.48h0C74.28,153.8,74.44,153.47,74.68,153.2Z"/><path class="cls-38" d="M44.48,111.6a16.87,16.87,0,0,1-9.3-4.46,5.73,5.73,0,0,1-.48-7.65,10.22,10.22,0,0,1,3-2.65,8.27,8.27,0,0,1,3.53-2.2A3.05,3.05,0,0,0,43,92.77c1.26.4,1.12,1.43,1,2.39-.06.63-.48,1.25.1,1.84a1.32,1.32,0,0,1,0,1c-.85,1.08-2.1,1.72-3,2.79-1.55,1.89-1.44,3.19.43,4.81,1.33,1.15,3,1.47,4.55,2.27a2.55,2.55,0,0,1,.77.86C47.58,111.38,47.58,111.38,44.48,111.6Z"/><path class="cls-39" d="M145.29,128.51l.5.11A204.14,204.14,0,0,1,168.53,137c1.26,1.66.68,2.77-1.06,3.54-4.6.3-8.51-2-12.55-3.6-3.69-1.44-7.41-2.83-11-4.46-.83-.37-1.88-.42-2-1.63a2.24,2.24,0,0,1,1.23-2A2.09,2.09,0,0,1,145.29,128.51Z"/><path class="cls-40" d="M39.8,164.92c.66-1.3.16-2.43-.49-3.54-.32-1.71-1.06-3.33-1-5.11.66-1.55,1.15-.11,1.45.18,2.81,2.72,5.66,5.4,8.27,8.3,1.64,1.82,3.06,1.87,5,.65,3-1.82,6-3.46,9.06-5.15a4.83,4.83,0,0,1,2.35-.91c.66.78.34,1.5-.14,2.21a48.23,48.23,0,0,1-11,6.11c-1.16.2-2.19,1-3.45.73-2.66-1.81-5.81-.8-8.66-1.5A2.41,2.41,0,0,1,39.8,164.92Z"/><path class="cls-30" d="M167.81,83c1.17-1.45,2.38-2.5,4.49-1.57,1.58.7,2.11-1.88,3.72-1.52-.88,1-1.68,1.74.51,2.28,1,.24,3.49-.25,2.6,2.39-1.15,1.08-2.14,2.31-3.33,3.33-.65.56-1.25,1.46-2.33.76-2.88-.93-6-.89-8.71-2.56a.92.92,0,0,0,0-.42C165.39,84.34,166,83,167.81,83Z"/><path class="cls-41" d="M185.26,107.1l-1.6.37c-2.12-.36-3.74,1.45-5.9,1.27-1.43-.12-2.69-.25-3.7-1.32-.35-1.52.89-1.32,1.68-1.44a13.29,13.29,0,0,0,5.69-1.92c1.47-1,1.45-2,.34-3.36-.92-1.09-2.58-1.35-3.12-2.83-1.16-.74-1.19-1.89-1.13-3.07,0-.45.13-.67.6-.56a19.73,19.73,0,0,1,8.21,4.66C189,101.66,188.46,105.6,185.26,107.1Z"/><path class="cls-42" d="M41.3,84.11c-.88-2.36.68-3.1,2.45-3.71,3.12-.73,6.22-1.53,9.48-1.22,2.75.27,3.65,1.34,3.12,3.84a3.58,3.58,0,0,1-1.65,1.46,17.47,17.47,0,0,1-6.6,1.32,24,24,0,0,1-3.16-.18A15.72,15.72,0,0,1,41.3,84.11Z"/><path class="cls-43" d="M55.7,83.05c1-1.68.34-2.68-1.35-3.24a9,9,0,0,0-6-.09,11.2,11.2,0,0,1-4.64.68A16.27,16.27,0,0,1,57.22,80a22.42,22.42,0,0,1,1.44,6.08c.21,1.85.89,2,2.45,1.38a10,10,0,0,1,8.39.21c.18.5.66.91.47,1.52-.61,1.54-2,2-3.38,2.59-2.58.66-5.16,1.37-7.52-.61A19.54,19.54,0,0,1,57.37,86,3.83,3.83,0,0,0,55.7,83.05Z"/><path class="cls-44" d="M178.13,94.23l-.6.56c-1.53-.09-3.12.33-4.57-.5a2.8,2.8,0,0,1,.34-3.95l.19-.14c.79-.52.14-1,0-1.53,1.73-.28,2.36-2,3.62-2.84.65-.45.87-1.66,2-1.25C179.06,87.82,177.85,90.94,178.13,94.23Z"/><path class="cls-23" d="M57.67,73.31H55.61c-2.87-2-2.82-4.49.22-6.2a33.28,33.28,0,0,1,3.93-1.61c1.13.22,1.43,1,1.46,2-.37.9-1.31,1-2,1.47-.48.31-1.21.51-1.06,1.26s.81.82,1.36,1c.95.35,2,.28,2.88.94l.54.48C61.33,74.43,59.46,73.53,57.67,73.31Z"/><path class="cls-45" d="M41.3,84.11c1.27-.44,2.15.44,3.14.93a30.41,30.41,0,0,0,1.2,7.25,3.72,3.72,0,0,1-1.75,4.59c-1.1.21-1.17.17-.88-.41.64-1.25.92-2.46,0-3.7C41.41,90.09,42.06,87,41.3,84.11Z"/><path class="cls-46" d="M185.26,107.1c2.26-2.49,2.9-5.19,1.08-8.21a4.55,4.55,0,0,1,2.16,7.22c-1.53,1.77-3.29,3.13-5.8,3C183.34,108.2,184.82,108.29,185.26,107.1Z"/><path class="cls-17" d="M94,137.87a7.12,7.12,0,0,1-3-1,14.89,14.89,0,0,1,2-.06c1.34.13,3-.63,3.8,1.2.71,1.6-.41,2.7-1.1,3.91l-1.55,1c-.69-.92.2-1.7.2-2.55S94.77,138.61,94,137.87Z"/><path class="cls-47" d="M161.68,122c-1.34.13-2.71-.22-3.19-1.86-.14-.49.6-.66,1.16-.47,1.38.48,3.29.3,3.8,1.93C163.72,122.44,162.49,122,161.68,122Z"/><path class="cls-47" d="M200.13,68.22l2.54,1v1.51A8.21,8.21,0,0,1,200.13,68.22Z"/><path class="cls-31" d="M193.87,69.15l1.06-2c.58.22,1.13.57.86,1.25C195.45,69.27,194.63,69.23,193.87,69.15Z"/><path class="cls-17" d="M187.28,134.73c-.62,1.47-1.93.93-3,1C184.9,134.34,186.2,134.87,187.28,134.73Z"/><path class="cls-48" d="M174,139.9a20.8,20.8,0,0,1,10.19-3.73c.68.54,2.36-.82,2.26,1.07-.07,1.3-.16,2.66-2.19,2.77a12.17,12.17,0,0,0-5.79,2.41c-3.77,2.49-4.4,6-2,9.94a18.08,18.08,0,0,0,8,6.88c6.26,2.92,12.75,4.62,19.72,3.06,1.5-.73,3.08-1.28,4.62-1.9h0a28.26,28.26,0,0,1,2.7-2.77c2.1-2.36.95-6.64-1.38-9.21a21,21,0,0,0-2.75-2.61c-2-1.54-2.06-2.15-.62-4.38l.47-.57,3.95,2.15c3.33,2.38,6.39,5,7.58,9.14a10.25,10.25,0,0,1-.34,6.72c-2.63,5.6-7.46,7.72-13.24,8.34H195c-9.15-1-17.06-4.5-22.8-12a11.55,11.55,0,0,1-2-10.63A7,7,0,0,1,174,139.9Z"/><path class="cls-49" d="M39.8,164.92c.78.22,1,.88,1.14,1.54,1.45,1.94,1.36,2.72-.63,5.41A12.49,12.49,0,0,0,37,178.09c-.88,5.16.81,8.38,5.72,11a21.11,21.11,0,0,0,6,2,5.31,5.31,0,0,1,.75.2,24,24,0,0,0,7-.08,37.39,37.39,0,0,0,16-7,16.73,16.73,0,0,0,5-6.68,9.6,9.6,0,0,0-4.1-12.59,18.4,18.4,0,0,0-5.67-2.29c-2-.44-3.14-1.52-3-3.69-.82-1-1.19-1.8.68-1.63,1.66.15,3.32.35,5,.52a10.21,10.21,0,0,1,5.38,1.41c3.14,1.37,5.35,3.84,7.49,6.39,3.71,7.22,2.12,13.83-2.85,19.65C73.26,193.66,63.94,197.68,53,198c-4.27.11-8.49,0-12.55-1.68-4.69-2-8.3-4.91-10.18-9.78s-.78-9.36,1.45-13.76c1.58-3.14,4.35-5.13,7-7.21Z"/><path class="cls-50" d="M64.84,158.92c.43,2.55,2.47,3,4.51,3.47a13.71,13.71,0,0,1,5.88,2.95c4.77,4.14,5.39,9.75,1.57,15.05-4.92,6.83-12,9.89-20,11.21a24.61,24.61,0,0,1-7.69,0h0c-.64-.4-1.07-.86-.49-1.62a18.43,18.43,0,0,0,5,.43c3,.59,5.37-1.43,8-2.23,3.55-1.08,7.14-2.11,10.07-4.74,4.34-3.9,5.67-8.88,3.05-14-1.83-3.62-5.42-4.33-9.09-4.64a3,3,0,0,1-1.7-3.39,3.28,3.28,0,0,0,.53-2Z"/><path class="cls-51" d="M75.68,159.67l-5.19-1.86c2.15-.3,3.07-1.65,3.2-3.7,3.67,2.12,6.85,1.86,9.3-1.93,3.81-3.72,6.93-8.05,10.51-12a2.18,2.18,0,0,0,.45-2.34c1.58,1.65,1,3.36.14,5.07a3.28,3.28,0,0,0-1.53,1.54c-1.22,1.52-2.38,3.08-3.58,4.61h0c-1.41,1.77-2.84,3.55-4.07,5.44a8.58,8.58,0,0,1-6,3.82A14.22,14.22,0,0,0,75.68,159.67Z"/><path class="cls-52" d="M83,152.19l-.58.84c-2.85,4-4.68,4.27-8.72,1.09.26-.38.37-.92,1-.91,2.21,2.44,4,2.56,6.14.49C81.45,153.08,81.89,152.14,83,152.19Z"/><path class="cls-53" d="M79.78,103c-2.07,1.5-3.63,3.7-6.2,4.49-1.72-.27-1.57-1.69-1.78-2.89a1.71,1.71,0,0,1,.17-.71,6,6,0,0,1,.9-.87c3.59-3.24,3.32-5.24-1-7.56a2.79,2.79,0,0,1-1.2-.88c-.56-1.26-1.16-2.52-.13-3.84a23.47,23.47,0,0,1,6,2C80.79,94.91,82,98.62,79.78,103Z"/><path class="cls-54" d="M79.73,107.59c4.51,3.18,9.68,5.1,14.6,7.47,1.65.8,3.13.12,3.86-1.71,1,.26,1.31.92.53,1.61-1.44,1.26-3,2.2-5.07,1.24-4.41-2.07-8.85-4.07-13.22-6.21C79.6,109.59,77.76,109,79.73,107.59Z"/><path class="cls-55" d="M70.52,90.75c-.22,1.41.47,2.69.55,4.05a2.77,2.77,0,0,1,.34,3c-1.76,1.24-3,.92-3.4-1.14-.38-1.81-.87-3.6-1.08-5.45l3-2Z"/><path class="cls-56" d="M127,129.18c-4.72,4.07-18.81,4.38-24.81-.55-3-2.46-3.24-5.17-.61-8.06.61-.68,1.2-1.38,1.79-2.08a35.51,35.51,0,0,1,3.21,4.28,3.79,3.79,0,0,0,4.42,1.58c4.22-1,8.47-2,12.65-3.14a5.63,5.63,0,0,1,2.26-.32c1.73,1.12,2.27,2.67.88,3.8C124.52,126.51,125,127.77,127,129.18Z"/><path class="cls-36" d="M125.84,121.42c-5.23,1.27-10.48,2.48-15.69,3.84a2.56,2.56,0,0,1-3.12-.9c-1.32-1.9-3.37-3.35-3.69-5.88,5.28-2.11,10.94-2.73,16.41-4.12,2.18-.55,2.75,1.86,4.1,2.85a15,15,0,0,1,2.26,1.92C126.76,120,127,120.79,125.84,121.42Z"/><path class="cls-57" d="M125.84,121.42a1.44,1.44,0,0,0-.15-2l-.15-.11c-.64-.61-1.44-1.11-1.68-2.06a10.12,10.12,0,0,1,6.44,4.48c1.35,1.94,1,3.94-1.08,5.87a19.15,19.15,0,0,1-2.24,1.6c-3.87-1.45-3.82-1.4-.7-4.74C127.15,123.51,127.63,122.19,125.84,121.42Z"/><path class="cls-58" d="M178.65,97.86c2.16,1,5,2.12,4.69,4.7s-3.22,3-5.49,3.72c-1.29.42-2.75-.17-3.89.79-1.31.84-2.58,1.28-3.6-.41a7.34,7.34,0,0,1,3.06-1.58c2.73-.57,3.61-1.52,3-4.35C176,98.66,176.7,97.89,178.65,97.86Z"/><path class="cls-59" d="M170.36,106.67c1.12.8,2.41.21,3.6.41a7.7,7.7,0,0,0,7.53.18,1.91,1.91,0,0,1,2.17.2c-8.5,3.9-16.8,2.7-25-1,1.46-.71,3.25.14,4.64-1C165.65,106,167.92,106.81,170.36,106.67Z"/><path class="cls-60" d="M161.64,104.6a8,8,0,0,1-3.29-1.87c-2.39-2-2.17-3.84.56-5.33a12.39,12.39,0,0,1,1.65-.62c1.62-.39,3-.68,2.23,1.92a5.71,5.71,0,0,0,.09,3.27C163.35,103.41,162.64,104,161.64,104.6Z"/><path class="cls-61" d="M173.49,90.2a11.24,11.24,0,0,0-.53,4.09c-2.73.06-5.19-1.21-7.84-1.57-.92-.13-.87-.87-.8-1.56,2-.06,3.84,1,5.69,1.13-1.81-.42-3.75-.85-5.65-1.46-.14-2.91-.14-2.91,1.47-2.76a9.52,9.52,0,0,0,7,1.69Z"/><path class="cls-62" d="M167.94,100.88c1.21.28,3.48,0,3.16,1.43-.4,1.77-2.27.13-3.48.1a7.54,7.54,0,0,1-2.63-.82c-.49-.21-1.63.25-1.3-1,.25-.91,1-.7,1.68-.58s1.31.27,2,.4C167.63,100.46,167.74,100.73,167.94,100.88Z"/><path class="cls-63" d="M172.86,89.76c0,.66-.12,1.27-1,1.07q-3.07-.73-6.11-1.58c-1.35-.38-1.26-.82,0-1.18Z"/><path class="cls-64" d="M167.94,100.88l-.61-.44c-1.56-1.23-.3-2.73-.34-4.1,0-.41.6-.51,1-.45a.82.82,0,0,1,.81.81C168.78,98.13,169.37,99.73,167.94,100.88Z"/><path class="cls-65" d="M164.35,90.83c2.82-.12,5.37.86,7.91,1.95a16.51,16.51,0,0,1-8-1.62A1,1,0,0,0,164.35,90.83Z"/><path class="cls-66" d="M57.67,73.31a19.76,19.76,0,0,0,5.26-.54,23.94,23.94,0,0,0,8.13-1,1.11,1.11,0,0,1,1.5-.1c.29,1.72,2.05-.16,2.55,1A32.71,32.71,0,0,1,58.8,73.82,5.59,5.59,0,0,1,57.67,73.31Z"/><path class="cls-67" d="M72.56,71.66l-1.5.1c.08-1-.84-1.39-1.25-2.42,2.14.56,1.9-2.5,3.88-2.26,1.3.11,2.93.42,3.1,1.67S75.2,70.43,74.14,71A12.94,12.94,0,0,1,72.56,71.66Z"/><path class="cls-68" d="M62.39,72.29h-.25c-2,.11-4.68-.09-5-1.86s2.4-2.24,4.08-2.85c1.11.46,3,.59.68,2.23C60.53,70.79,62.16,71.47,62.39,72.29Z"/><path class="cls-69" d="M66.76,68.82c-.75.25-1.15.28-1.26-.31A.67.67,0,0,1,66,67.7h0c.63-.22,1.37-.65,1.92-.5,1.06.29,2.66-1.58,3,.22.19,1.08-1.87.85-2.9,1.24A4.08,4.08,0,0,1,66.76,68.82Z"/><path class="cls-70" d="M68,63.17a3.47,3.47,0,0,1,.91,2.6.79.79,0,0,1-1,.8c-1.42-.24-.82-1.41-.94-2.21C66.89,63.75,67,63.16,68,63.17Z"/><path class="cls-71" d="M64.2,60.61c1.46-1.21,3.2-1,4.78-1.55.41-.13.87-.1,1,.44a.66.66,0,0,1-.34.55A12.41,12.41,0,0,1,64.2,60.61Z"/><path class="cls-72" d="M64,58.58a8.94,8.94,0,0,1,5.83-1.23C68.1,58.74,66.05,58.65,64,58.58Z"/><path class="cls-73" d="M99.65,77.87c2.81,2,2.91,2.33,1.09,4.17C97.26,80.65,97.12,80.09,99.65,77.87Z"/><path class="cls-74" d="M117.65,81.47c0-.25.07-.65-.05-.73-1.79-1.21-.88-2.31.1-3.41,1.12.26,2.22.92,2.26,2S118.86,81.21,117.65,81.47Z"/><path class="cls-75" d="M175,77a1.92,1.92,0,0,0,0,2.41,44.24,44.24,0,0,1-22.44-.57l2.5-1.49c1.74-1.07,3.44.14,5.17.06a34,34,0,0,0,11.88-.53C173.05,76.66,174.06,76.13,175,77Z"/><path class="cls-76" d="M167.81,83l-3,2.7c-.28-1.11-1.64-2.4-.32-3.3C165.3,81.81,167,81.22,167.81,83Z"/><path class="cls-77" d="M219.06,66.11a5.53,5.53,0,0,1-4.07,1c.57-.94-.24-2.15.59-3C217.34,63.71,218.68,64.1,219.06,66.11Z"/><path class="cls-78" d="M204.12,65.71c-1.36-.46-3.15-.25-3.54-2.25.93-.78,1.88-1.35,3.06-.47C204.21,63.83,205,64.61,204.12,65.71Z"/><path class="cls-79" d="M210.33,64.48c-.23.14-.45.39-.66.38a9.86,9.86,0,0,1-4.51-1.22A.71.71,0,0,1,205,63a.67.67,0,0,1,.55-.35q2.2.49,4.37,1.09A5.52,5.52,0,0,1,210.33,64.48Z"/><path class="cls-80" d="M219.06,66.11c-.84-1.24-2.24-1.53-3.48-2.08.32-.92,1.1-1,1.89-1,.42.69,1.3.33,1.79.73C220.27,64.57,220.7,65.46,219.06,66.11Z"/><path class="cls-81" d="M203.64,63l-3.06.47c0-1.79,1.19-2.26,2.67-2.41C203.79,61.62,204.53,62.14,203.64,63Z"/><path class="cls-82" d="M206.29,55.41a10.63,10.63,0,0,1,5.6,1.5C209.7,57.64,207.94,56.71,206.29,55.41Z"/><path class="cls-83" d="M207.66,62.47c-.65-.06-.55-.47-.45-.9.16-.72,0-1.71.93-1.9.71-.14.68.59.67,1.08C208.81,61.57,208.63,62.29,207.66,62.47Z"/><path class="cls-84" d="M153,102c-1.78-1-1.86-2-.08-3.06Z"/><path class="cls-84" d="M156.62,106a4,4,0,0,1-3.11-3C154.64,104,155.94,104.68,156.62,106Z"/><path class="cls-85" d="M155.06,70.67l.1.52c.07,1.9.69,3.87-.74,5.57-2.07-.06-3.63-1.25-5.14-2.46-1.28-1-1.2-2.15.08-3.15a12.66,12.66,0,0,1,4.18-1.73C154.77,69,154.45,70.39,155.06,70.67Z"/><path class="cls-86" d="M154.41,76.76c.36-1.84-.4-3.83.74-5.57l1.36.64c.89,1.06.16,2.79,1.54,3.65.81.85,2.34.87,2.66,2.28a.94.94,0,0,1-.14.19.36.36,0,0,1-.42,0c-1.75.21-3.38-.52-5.09-.6Z"/><path class="cls-87" d="M212.3,55.27c-1.92-.42-4.1-.07-5.52-1.93C208.71,53.74,211,53.24,212.3,55.27Z"/><path class="cls-88" d="M157.6,75.88c-1.78-1-1.06-2.61-1.09-4.05a4.93,4.93,0,0,0,1.25-5.46,10.07,10.07,0,0,1,.87-7.44,28.72,28.72,0,0,0,7.12.48c.55,1.4,1.89,2.54.58,4.38-.67.94.76,1.37,1.49,1.82.53.75,1.36.42,2.06.55l.19.17c1.27.89,3.43-.6,4.11,1.11.47,1.19-.2,2.79-.15,4.2,0,.57-.83,1.87.84,1.74l.18-.1c.57.86.13,1.58-.34,2.29-3.44,2.15-7.65,1.45-9.79-1.86-.75,1.44-1.55,2.7-3.19,3.07S159,76.3,157.6,75.88Z"/><path class="cls-89" d="M157.6,75.88a11.11,11.11,0,0,0,2.24.37c1.74-.06,3.72.2,4-2.39.09-.79.77-1,1.45-1.22,1.29,3.48,4.81,4.49,9.09,2.62a1.18,1.18,0,0,1,.61,1.28,3.44,3.44,0,0,1,0,.43,41.16,41.16,0,0,1-12.45,1.45c-.82-.06-1.71.23-2.39-.49C159.87,76.54,158.2,76.88,157.6,75.88Z"/><path class="cls-90" d="M175,76.54a1.42,1.42,0,0,1-.61-1.28l.66-2c1-.73,1.62,0,1.84.8C177.31,75.59,176,76,175,76.54Z"/><path class="cls-91" d="M196.57,161.37a6.59,6.59,0,0,1-4.32-.85c-.41-.28-1.09-.41-1-1s.7-.64,1.22-.7a20.8,20.8,0,0,1,4.28-.47c4.85.5,7.19-3.8,7.44-7.31.11-1.57-.43-3.71,1.81-3.88s3.12,1.79,3.62,3.65c1.46,5.37-1.72,9.73-7.38,10.34A22.65,22.65,0,0,1,196.57,161.37Z"/><path class="cls-92" d="M178.09,149.33a7.5,7.5,0,0,1,5.08-7.13c1.71-.62,2.24.08,2.06,1.65a17,17,0,0,1-.61,3.24c-.86,2.66-1.15,5.25.24,7.85.63,1.18.56,1.87-1.21,1.63C180.4,156.14,178.09,153.29,178.09,149.33Z"/><path class="cls-93" d="M198.54,139.89c.92,0,1.48.33,1.17,1.41a18.23,18.23,0,0,0-.61,2.72c-.25,2.05-1.4,1.94-2.85,1.29-2-.9-4-1.84-6-2.68-4.07-1.7-4.19-2-2.42-6.36,2.91,1.59,6,2.7,9.06,4C197.51,140.57,198.16,140.81,198.54,139.89Z"/><path class="cls-94" d="M206.81,141.44c-.83,2-.09,3.3,1.64,4.6a11.41,11.41,0,0,1,4.69,7,5.3,5.3,0,0,1-1.31,5.13,1,1,0,0,1-.52-1.45c.74-1.88.42-3.75.06-5.64a16.71,16.71,0,0,0-3.55-4.26,6.88,6.88,0,0,0-5.51-1.93c-.74.1-2.2.55-2-1,.12-1.17.39-2.61,2.21-2.53C203.94,141.47,205.38,141.43,206.81,141.44Z"/><path class="cls-95" d="M195.89,155.11c-.27,1-.75,1.27-1.56.9l-8.55-3.86c-.62-.28-.92-.71-.57-1.42a.85.85,0,0,1,1.06-.57l.18.08c2.92,1.34,5.84,2.67,8.74,4.06C195.52,154.45,195.71,154.89,195.89,155.11Z"/><path class="cls-96" d="M198.54,139.89c.67.89.59,2-.6,1.57-3.38-1.27-6.62-2.94-9.89-4.49-.16-.07-.17-.46-.25-.7,1-.89,1.74,0,2.52.31C193.08,137.63,195.8,138.78,198.54,139.89Z"/><path class="cls-97" d="M189.42,149.1c.46-.74-.32-2.68,1.72-2.67.88,0,2.3.17,2,1.63s.27,3.39-1.54,3.76C190.62,152,189.08,151.19,189.42,149.1Z"/><path class="cls-98" d="M211.38,151.13a4,4,0,0,1,.67,4.63,2.74,2.74,0,0,0-.21,2.45c-1,.76-1.56,2-3,2.19C210.69,157.58,210.77,154.29,211.38,151.13Z"/><path class="cls-98" d="M208.86,160.39c-1.23,1.39-3,1.49-4.62,1.9C205.54,161.08,206.92,160.07,208.86,160.39Z"/><path class="cls-1" d="M75.68,159.67A1.91,1.91,0,0,1,77.63,158c4.67-.12,6.94-3.42,9.23-6.71A6.58,6.58,0,0,1,89,149.13a28.89,28.89,0,0,1-7.17,9.22c-1,.61-3.19.71-1,2.56,5.12,4.64,8.39,10,6.68,17.27A14.74,14.74,0,0,1,85.31,183C78.74,192.79,69.4,198.19,58,200.37a38.26,38.26,0,0,1-20-1.55C30.45,196.24,26.71,191,27,183c.27-7.34,5.55-15.14,11.84-17.5-2,2.44-4.77,4.25-6.28,7.14-6.25,8.43-4.4,17,3.9,22.63a24.82,24.82,0,0,0,18.3,3.81c10.91-1.75,20.63-6,27.58-15,3.87-5,5.47-10.58,2-16.63a4.69,4.69,0,0,0-1.61-1.92A24.24,24.24,0,0,0,75.68,159.67Z"/><path class="cls-1" d="M89,149.09a10.33,10.33,0,0,1,3.58-4.61A10,10,0,0,1,89,149.09Z"/><path class="cls-17" d="M80.79,160.87c-.83-.07-1.62-.44-1.41-1.33.28-1.18,1.43-1.19,2.43-1.23C81.15,159,79.73,159.46,80.79,160.87Z"/><path class="cls-99" d="M72.08,104.53c.93.77.06,2.45,1.49,3-8.29,4.42-17.24,5.14-26.39,4.69a16,16,0,0,1-2.71-.6c1.71-.28,2.75-1,2-3a2.44,2.44,0,0,1,2.36-.53,38.85,38.85,0,0,0,20.34-3C70.11,104.74,71,104.11,72.08,104.53Z"/><path class="cls-100" d="M72.08,104.53a40.88,40.88,0,0,1-25.6,4.12l-.52-.5c-1-2.55-2-5.11-1.38-7.93,2.16-.62,3.42,0,4.05,1.94.38,1.19.41,2.57,1.83,3.16,1.75.93,3.51.08,5.27.06a26.68,26.68,0,0,0,10.43-2.72c1.42-.8,3.06-1.23,4.15-2.58a1,1,0,0,1,1.41-.1l.1.1c.6,1.3,1.23,2.59.25,4Z"/><path class="cls-101" d="M50.07,105.95a2.1,2.1,0,0,1-1.61-2.05c-.12-2.29-1.57-3.33-3.48-4a1.49,1.49,0,0,1-1.08-2v-1c2.39-2.77.56-5.63.19-8.46-.15-1.15-.57-2.34.36-3.38l3.56.08c-2.3,2.64-.51,5.31-.06,8-.86,2.42,1.45,3,2.53,4.25.16,1.46.93,3,0,4.37-.69,1-.75,1-.53,1.62C50.23,104.18,50.71,105,50.07,105.95Z"/><path class="cls-102" d="M43.9,97.87l1.08,2c-.49,2.85,1.42,5.42,1,8.27a5.41,5.41,0,0,1-1.24-.21c-2.25-.94-5.06-1.63-5.29-4.47S41.65,99.15,43.9,97.87Z"/><path class="cls-103" d="M167.33,140.25a2,2,0,0,1-2.67.94l-.12-.06c-7.24-2.85-14.51-5.63-21.74-8.5-.89-.35-2.42-.9-.61-2.18.06.42.11.9.56,1.07,6.27,2.45,12.59,4.77,18.78,7.38C163.45,139.71,165.49,139.45,167.33,140.25Z"/><path class="cls-50" d="M50.06,168c1.16,0,2-1.11,3.19-1,.1.66-.35,1.07-.67,1.55a2.22,2.22,0,0,0-.11,1.73c.48,2.87.7,2.93,3.32,1.6,2.35-1.2,4.53-2.71,6.87-3.91a4.86,4.86,0,0,0,2.83-3.25,1.41,1.41,0,0,1,1.1.1,33.88,33.88,0,0,1,1.67,6.79c.25,1.58.9,3.18-.25,4.69-4.14,2.54-8.57,4.62-12.3,7.8a2.9,2.9,0,0,1-4.14-1.77c-.79-2.13-2.39-4.05-1.58-6.72.48-1.59-.86-2.31-2.35-2-2.56.56-4.21-.56-5.43-2.64a.82.82,0,0,1,.28-.68,5.9,5.9,0,0,1,4.22-.32C48.62,170.53,49.76,170.09,50.06,168Z"/><path class="cls-104" d="M50.06,168c.8,3.11.46,3.49-2.62,2.78a29.14,29.14,0,0,0-5.06-.22c-.8.47-1.26,1.84-2.57,1,1.22-1.53,2.13-3.13,1.12-5.14C44,166.83,47.36,165.54,50.06,168Z"/><path class="cls-105" d="M52.13,168l1.12-1a113.15,113.15,0,0,0,10.63-5.74c.68.36.53,1,.53,1.59-.22.53-.3,1.17-.92,1.44-3.17,1.38-6,3.46-9.2,4.74C53.45,169.46,51.83,170.43,52.13,168Z"/><path class="cls-106" d="M47.5,93.27c-.78-1.44-.82-3.09-1.31-4.61-.61-1.9-.13-3,1.82-3.54,2.3.18,4.41-.79,6.63-1.11,2.19-.78,2.57.84,2.63,2.27a5.8,5.8,0,0,0,2,4.43c2.46,1.79,5.1.7,7.69.46,1.57,1.28,1.37,3.12,1.57,4.85.18,1.57.67,2.72,2.59,1.84a1.62,1.62,0,0,1,.43,2,7.85,7.85,0,0,1-5.1,3.14c-3.51,1.19-4.94.66-7.8-3.33.25,3.09.74,6-3,6.39-1.87.13-3.74.95-5.59-.1-.23-.89-.43-1.78-.7-2.66-.21-.71-2-1.85.58-1.67.46,0,.43-.73.35-1.27-.16-1-.17-2-.24-3,1.06-1,2.47-1,3.79-1.23.76-.15,1.64-.3,1.66-1.26,0-1.13-1-1.24-1.82-1.35a12.65,12.65,0,0,0-3.54.08C49.24,93.74,48.3,94,47.5,93.27Z"/><path class="cls-107" d="M59.24,90.72c-2.29,0-2.49-1.63-2.53-3.39,0-1.49.23-3.23-2.08-3.31l1.07-1c.54.11,1.31-.75,1.61.45C57.92,85.92,58.6,88.31,59.24,90.72Z"/><path class="cls-108" d="M218,158.76c-.7,4.18-3.79,6.35-7.25,7.77-5.36,2.2-11,2.41-16.74,1.5a39.1,39.1,0,0,1-16.49-6.78c-4.91-3.44-8.38-8-7.64-14.56.1-.86.06-1.72.94-2.22-1.67,6.47,1.38,11.1,6.11,14.85a33.44,33.44,0,0,0,17.47,7.21,55.39,55.39,0,0,0,11.42,0C211.12,165.9,215.36,163.6,218,158.76Z"/><path class="cls-109" d="M205.81,166.52a25.07,25.07,0,0,1-11.42,0Z"/><path class="cls-110" d="M82.71,165.55c3.38,1.36,4,4.59,4.11,7.44.36,6.82-3.23,12.09-8.2,16.25a46,46,0,0,1-21.9,10.27c-9.89,1.71-18.8-.14-25.53-8.17-4.6-5.49-3.75-14.81,1.4-18.69-2.3,4.55-3.5,9.17-1.34,14.18,2.83,6.55,8.45,9.38,14.86,10.21,12.15,1.56,23.18-1.45,32.12-10.24C84.36,180.77,86.68,173.78,82.71,165.55Z"/><path class="cls-111" d="M39.81,171.61c1.13.36,1.4-1.48,2.57-1v.51a1.71,1.71,0,0,1-.54,1.12c-2.36,2.15-2.78,4.79-2.43,7.87.46,4,2.14,6.85,6,8.36a9.45,9.45,0,0,1,3.13,1.6l.52,1.53a15.4,15.4,0,0,1-10.4-4.66C34.73,183,35.35,176.15,39.81,171.61Z"/><path class="cls-111" d="M49,191.59h7.69A12.62,12.62,0,0,1,49,191.59Z"/><path class="cls-112" d="M67.35,176.27c1.38-1.51.34-3.1.14-4.66a4.21,4.21,0,0,1,2.85,5.23q-.05.17-.12.34c-.34,1-1,1.8-1.28,2.78-.24.82-.53,1.76.29,2.36s1.63.06,2.32-.47c3.36-2.6,3.9-9.33,1.14-12.56-1.72-2-4.11-3-6.24-4.34h-1a.39.39,0,0,1,0-.5,9.57,9.57,0,0,1,11,7.85l0,.28a11.78,11.78,0,0,1-2.92,9.83c-3.21,3.84-7.76,5.24-12.28,6.54-2.54.73-4.71,2.83-7.65,2.11a39.93,39.93,0,0,1-8.87-2.9c-3.31-1.74-5.22-4.29-5.12-8.12,0-1.76-.65-3.57.27-5.28.59-1.1,1.07-2.59,2.72-2.1s3.36,1.16,3.23,3.12c-.54,8.26,10.61,12.3,16.55,8.17a7.67,7.67,0,0,0,3.5-5.07A15.67,15.67,0,0,1,67.35,176.27Z"/><path class="cls-113" d="M66.46,178.84c0,3.56-2.42,5.29-5.21,6.53a12.17,12.17,0,0,1-15.64-5.73c-.38-.76-1-1.57-.56-2.41,1.33-2.72-1-3.28-2.5-4-1.33-.66-1.64.81-2,1.65-2.33,5.41.61,11.51,6.47,13.8,2.2.86,4.66,1,6.62,2.45-1.77-.06-3.63.4-5.13-1-3.92-.32-8.35-3.37-9.1-6.67-1.38-6.07-1.42-9.22,3-12.28,1.72,1.1,3,2.94,5.7,1.69,1.7-.78,3.35,1.74,2.55,3.59-1.25,2.93,1.92,7.51,5.19,7.48,2.69-.8,4.91-2.48,7.27-3.89C64.12,179.37,65,178.28,66.46,178.84Z"/><path class="cls-114" d="M65.43,164.45v.5c.58,1.41.22,2.24-1.24,3-3.25,1.67-6.41,3.53-9.51,5.45-1.51.94-2.22.48-2.37-1s-1.48-2.84-.17-4.33c.17,1.09.8,1.21,1.64.75q5.33-2.91,10.64-5.86C64.74,163.45,65.5,163.68,65.43,164.45Z"/><path class="cls-115" d="M71.52,99.87a2.56,2.56,0,0,1-.43-2V94.8c2.52.25,4.59,1.66,4.92,4,.35,2.51-1.55,4.26-3.91,5.23Z"/><path class="cls-116" d="M110.95,127.51a.72.72,0,0,1-.89-.65,1,1,0,0,1,.75-1.15.79.79,0,0,1,1,.77C111.89,127.06,111.49,127.38,110.95,127.51Z"/><path class="cls-117" d="M198.31,143.77c-.32.71-.59,1.13-1.52.68-2.74-1.31-5.54-2.49-8.3-3.74-.59-.27-1.47-.57-1-1.42s1.07-.05,1.55.14c2.66,1.07,5.3,2.2,7.95,3.32C197.5,143,198.13,143.09,198.31,143.77Z"/><path class="cls-118" d="M55.66,106c2.12-1.07,3.24-2.53,2.24-5-.5-1.25.56-1.76,1.75-2.45.32,4.62,3.57,4.51,6.8,4.44-.58,1.39-2.33,1.74-3.13,1.77C60.68,104.88,58.36,106.62,55.66,106Z"/><path class="cls-119" d="M47.5,93.27c2.1-.13,4.15-.78,6.28-.51,1.27.16,2.8.28,2.8,1.9s-1.09,2.28-2.77,2.23a23.32,23.32,0,0,0-3.74.47C48.23,96.61,46.14,96,47.5,93.27Z"/><path class="cls-120" d="M66.45,165a9.69,9.69,0,0,1,8,5.89c1.63,3.65.87,7.49-1.65,10.78-.1.13-.27.22-.37.34-1.1,1.31-2.71,2.12-4,1.07-1.07-.88-.7-2.65,0-4,2.06-3.79,1.91-4.89-1-7.43C67.49,169.34,66.25,167.27,66.45,165Z"/><path class="cls-121" d="M66.46,178.84c-2.74,1.6-5.47,3.21-8.21,4.79-.75.43-1.51,1.21-2.43.25a1.16,1.16,0,0,1,.51-1.34c3.69-2.05,7.08-4.65,11-6.27A2.22,2.22,0,0,1,66.46,178.84Z"/><path class="cls-122" d="M62.73,175.54c.38,2.5-1.2,2.85-2.27,3.57a1.07,1.07,0,0,1-.88-.16c-.23-1.55-1.43-3.08-.5-4.63.55-.92,1.9-1.78,2.78-1.33S62.54,175.1,62.73,175.54Z"/><path class="cls-123" d="M64.91,165.72c-.13.57-.19,1-.69,1.15-3.29,1.17-6.09,3.28-9.19,4.82-.57.28-1.31,1-1.72.08s.58-1.07,1.13-1.39c2.94-1.68,5.89-3.33,8.84-5C64,165,64.68,164.66,64.91,165.72Z"/></svg>