<svg id="Слой_1" data-name="Слой 1" xmlns="http://www.w3.org/2000/svg" viewBox="0 0 250 250"><defs><style>.cls-1{fill:#fefefe;}.cls-2{fill:#fedc05;}.cls-3{fill:#fdfad7;}.cls-4{fill:#faea90;}.cls-5{fill:#fbdc26;}.cls-6{fill:#f9ed87;}.cls-7{fill:#f9e040;}.cls-8{fill:#f7de5c;}.cls-9{fill:#f9d73d;}.cls-10{fill:#f2d031;}.cls-11{fill:#fdfacd;}.cls-12{fill:#f3e086;}.cls-13{fill:#fbf1ad;}.cls-14{fill:#f8d72e;}.cls-15{fill:#d21d1d;}.cls-16{fill:#cf1d1d;}.cls-17{fill:#fed42f;}.cls-18{fill:#d41c1f;}.cls-19{fill:#fdc12f;}.cls-20{fill:#fbd218;}.cls-21{fill:#fdda5b;}.cls-22{fill:#fed663;}.cls-23{fill:#fee950;}.cls-24{fill:#fecc52;}.cls-25{fill:#fede50;}.cls-26{fill:#fdc858;}.cls-27{fill:#b61e00;}.cls-28{fill:#fecd50;}.cls-29{fill:#fed92f;}.cls-30{fill:#fb8e2e;}.cls-31{fill:#fef8c3;}.cls-32{fill:#edd04b;}.cls-33{fill:#fcc460;}.cls-34{fill:#b91700;}.cls-35{fill:#d1211c;}</style></defs><title>service-1c</title><path class="cls-1" d="M126,32c37.17,0,74.33,0,111.5-.08,3,0,3.59.6,3.58,3.58q-.17,91,0,182c0,3-.6,3.59-3.58,3.58q-111.5-.16-223,0c-3,0-3.59-.6-3.58-3.58q.17-91,0-182c0-3,.6-3.59,3.58-3.58C51.67,32,88.83,32,126,32Z"/><path class="cls-2" d="M217,109.87c-5.7,3.68-12.27,5.44-18.31,8.38-5.52,2.69-11.21,5-16.77,7.64A6.5,6.5,0,0,0,179.61,136c1.94,2.22.39,3.19-1.14,3.59-4,1.05-2.67,2.79-.87,4.7,2.2,2.33,3.2,5.92,7.13,6.46.73.1,1.67,1.3,1.85,2.13.31,1.45-1.2,1.85-2.18,2.31-4.66,2.19-9.32,4.37-14,6.42-9.63,4.18-16.92,11.61-25.2,17.69-5.45,4-10.61,8.06-14.81,13.35-1.36,1.72-4.31,1-5.35,3.34-5.65.22-8.61,4.41-11.92,8.08-1.72.82-4.44,6.65-4.43-1.09,0-2.2-2.8,1-4.13-.5.1-2.23,1.8-3.33,3.37-4.53,2.29-5.71,2.28-6-3.18-6.69-2.24-.26-3.32-2.77-5.68-2.2l0,0c-2,1.76-3.51.9-4.75-1-2,0-2.68,1.76-4,2.72-3.42,2.25-6.84,2.58-10.3,0A11.42,11.42,0,0,0,76.59,189c-.44-.14-.86-.31-1.28-.48-1.2-.52-2.53-.87-3.38-2-1.13-1.46-2.37-1.75-3.7-.31-1.86,2-3.54.94-5.24-.24-4.09-2.12-7.77-4.58-8.26-9.76-.17-1.83-1.14-2-2.8-1.54-3.77,1-4.93-.67-4-4.24.38-1.42,1.81-2.66-.92-3.91-2.13-1,.05-2.81,1-3.93,1.11-1.35,2.24-2.46,1-4.35s-3.17-.31-4.16-.7c-3.82-1.52-8.15,1.76-10.52.2-4.44-2.93-8-7.51-10.84-12.2-1.16-1.88-.31-3.84,1.22-5.42,5.3-5.48,10.42-11.11,17-15.21,3-1.88,5.58-4.47,8.35-6.74,5.06-4.47,10.93-7.88,16-12.38,1.27-1.13,2.49-2.21,2.75-4,1.06-7.22,6.56-10.13,12.35-12.78a59.72,59.72,0,0,0,13.91-8c3.14-.44,6.29-.86,8-4.09l5.79-3.12c7.17-1.83,13.35-5.53,19-10.13,8.2-4.22,16.15-9,25-11.88,5.09-2.33,10.65-3.28,15.87-5.27,1.41-.54,3.22-.6,3.89,1.79s2.76,4.09,4.05,6.19,2.8,3.18,5.26,2.88c3-.36,4.82.89,5.38,3.84a3.66,3.66,0,0,0,3.22,3.28c3.53.38,4.57,3.45,6.19,5.84,1.06,1.56-.32,2.21-1.35,3.1-1.3,1.13-4,1.69-2.39,4.43,1.1.29,2.22.53,3.3.89a5.59,5.59,0,0,1,4,4.6c.2,1.9-2.06,2.31-3.51,3s-3.17,1-4.59,1.76c-1.89,1.06-2.21,1.71-1,4.48,2.51,5.57,6.77,9.1,10.84,13,4.21,1.1,8.17,5,12.8,1.09h-.06C218,106.13,218.09,107.57,217,109.87Z"/><path class="cls-3" d="M81.17,89.11C75.48,92.51,70,96,69.72,103.75a2.43,2.43,0,0,1-.94,1.66c-6.21,4.3-12.45,8.55-18.69,12.81,2.62-5.15,8.84-6.18,12.11-10.58-3.91-.81-3.91-.81-3.61-2.7,2.08-1.1,6.4-.21,4.39-4.95C68.6,95.61,74,90.93,81.17,89.11Z"/><path class="cls-4" d="M63,186c1.11.24,2.87,1,3.22.64,4.06-4.75,6.71,0,9.85,1.29-.18.22-.57.53-.54.61.15.32.29.2.29-.26,0-.12.14-.24.22-.36,2.09-.63,3.49.81,4.79,1.89,3.11,2.58,6.07,2.27,9.13.09,1.58.93,3.39,1.69,3.05,4.07-4.59-1-9.1,1.27-13.69.37-.13,0-.24-.22-.36-.33.39-3-2.28-.64-2.78-1.69-.86-.08-.12,1.11-.26.46,0-.24.1-.4.37-.3,1,.35,2.87-.85,2.68,1.54-.82,0-1.64.11-2.46.11-6.6,0-7.8-1.44-6.07-7.93C67.87,186.91,65.16,190.3,63,186Z"/><path class="cls-5" d="M191,66c-3.25.1-4.94-1.46-5-4.71-.06-2-1-3.4-3-3.15-6.32.81-8.16-4.23-10.34-8.2-1.46-2.66-2.47-3.15-5.26-2.17-4.74,1.67-9.47,3.51-14.52,4.19,5-3.87,11.27-4.14,17-6,1.24-.4,2.43.13,3.17,1.64,2.66,5.38,5.55,10.54,13,9.28,1.44-.24,2.46.76,2.89,2.2A12.7,12.7,0,0,1,191,66Z"/><path class="cls-6" d="M113.08,204.08c1.13-5.35,7.93-10,11.92-8.08C121.28,199.07,119.22,204.57,113.08,204.08Z"/><path class="cls-7" d="M99,189.07c3.48.44,7.57-.11,10.28,1.57,3.78,2.33,1.25,5.24-1.42,7.32C106,193.94,102.31,191.7,99,189.07Z"/><path class="cls-8" d="M191,66c-2.57-1.75-2-4.43-2.05-6.93,4.33,2.65,5.79,7.53,8.66,11.31,1.23,1.62-.12,2.74-1.53,3.5-1.68.91-3,2-3.1,4.14-3.27-1-.82-2.16-.14-3.37.85-1.53,4.12-1.5,3.25-3.71S194,66.28,191,66Z"/><path class="cls-9" d="M127.92,63.81c-4.89,6.12-11,9.94-19,10.13C115.13,70.38,121.3,66.68,127.92,63.81Z"/><path class="cls-10" d="M217,109.87c.11-1.6-.32-2.81-2.15-3,.15-.94.88-1.8,1.6-1.27,2,1.49,3.09,1.17,4.76-.75,2.29-2.64,4.27.23,6.8,1.29C224.43,108.48,220.72,109.22,217,109.87Z"/><path class="cls-11" d="M93,194c-.53-1.72-3.05-1.95-3.05-4.07,1.18-1.81,2.45-3.49,4.81-3.81,1.68,1.58-.37,4.58,2.21,5.82C96.1,193.49,94.17,193,93,194Z"/><path class="cls-12" d="M63,100c1.06.19,4.15-1.86,2.16,1.74-1.33,2.42-2.62,5.75-6.55,3.2C58.38,101.79,62.22,102.25,63,100Z"/><path class="cls-13" d="M103.09,77.06c-1.21,4.43-3.7,5.71-8,4.09C96.87,78.06,100.31,78.22,103.09,77.06Z"/><path class="cls-14" d="M214.89,106.83c-3.13,3.17-9.45,2.63-12.8-1.09C206.45,105,210.42,108.85,214.89,106.83Z"/><path class="cls-7" d="M97,191.94c-1.88.16-3.2-.05-2.32-2.56a10.8,10.8,0,0,0,.11-3.26c1.55.79,1.15,4.45,4.29,2.93Z"/><path class="cls-15" d="M167.9,135.14c-.15,1.81.49,3.73-.78,5.37-10.73,1.08-21.5.33-32.25.44-5.76.05-11.61.79-17.26-1.09-5.07-1.67-8.83-5.1-12.14-9.12-5.71-9.54-5.2-16.14,1.88-24.64,12-10.68,22.66-10.69,34.38,0,2.8,2.35,3.8,5.67,4.72,9,.48,1.74,1,3.75-1.35,4.61a4.52,4.52,0,0,1-5.32-1.51c-1.29-1.55-1.57-3.6-2.5-5.32-4.88-8.37-13.14-10.15-21.45-4.58-5.18,3.89-6.47,9.12-4.74,15.05s7.44,10.09,14.36,10.24c11.94.26,23.89,0,35.84.1C163.59,133.66,166,133.36,167.9,135.14Z"/><path class="cls-16" d="M119.18,122.88c1.72,3.24,4.81,3.13,7.8,3.14,12.12,0,24.24.13,36.36,0,4.64-.06,5.73,1.56,3.66,5.58a6.31,6.31,0,0,1-2.84.77c-13.86.09-27.73.15-41.59,0a8.68,8.68,0,0,1-3.8-1c-7.86-5.51-9.81-11.52-6-18.5,2.39-4.41,8-7.56,12.85-6.88,5.68.8,9.83,3.73,11.84,9.29a4,4,0,0,1-.19,3.8c-3.31,1.92-5.6.8-7.19-2.41-2.35-3.34-5.73-3.43-8.88-2C117.45,116.32,118.35,119.75,119.18,122.88Z"/><path class="cls-17" d="M136.85,118.81c-.45-5.54-3.3-9.21-8.59-10.92a11.63,11.63,0,0,0-12.71,3.27A11.19,11.19,0,0,0,113,123.56c1,2.61,3.12,4.21,5,6.08,1.69,2.68,4.64,1.46,6.94,2.25,12.1.28,24.2,0,36.29.14,1.95,0,4-.44,5.73,1l.92,2.13c-14.12-.09-28.25-.06-42.37-.31-10.47-.18-17.31-7.27-16.66-16.94.32-4.75,2.34-8.56,6.63-11,10.23-4.35,15-3.29,22.77,5a9.58,9.58,0,0,1,2,5c.41,2.37,2.24,2.09,3.89,2,2.33-.15,1.9-1.87,1.71-3.33-.46-3.57-2.5-6.47-4.13-9.54,4.88,2.4,5.45,7.41,5.86,11.69.37,3.87-3.43,3.81-6.17,2.76-1.55-.59-2.76-1.71-4.42-.51a.8.8,0,0,1-.35-.76Q136.73,118.81,136.85,118.81Z"/><path class="cls-18" d="M85.21,103.68l-.1-5.3c4.34-1.67,8.74-.9,13.14-.38a6.34,6.34,0,0,1,1.13,4.23q.08,16.89,0,33.79a6.12,6.12,0,0,1-.94,3.79c-4.62,1.11-5.71.48-5.84-4.17-.22-8,0-16-.09-24,0-1.81.35-3.68-.72-5.34C90,104.45,86.69,106.3,85.21,103.68Z"/><path class="cls-19" d="M93.05,104.21c1.7,3.42.63,7.07.73,10.6q.29,10.62,0,21.25c-.09,3.24.87,4.69,4.22,3.9,1.18-6.23.33-12.52.48-18.78.18-7.45,0-14.91.08-22.37l.37-.87,1,.08a154.4,154.4,0,0,1,0,43c-3,0-6.18,1.93-8.9-.88l-.65-.63c-1.77-4.62-.74-9.43-.9-14.15-.17-5.09-.07-10.19,0-15.27a22.39,22.39,0,0,0-.08-2.39,4,4,0,0,1,.12-1.47C90.14,104.52,92,105.1,93.05,104.21Z"/><path class="cls-20" d="M100,141q0-21.48,0-43c2,2.11.69,4.7,1,7,.21,1.57-.46,3.65,1.43,4.34s1.94-1.85,3.2-2.47l1.74-.84c-5.11,7.94-5.93,16.1-1.24,24.54a.9.9,0,0,1-.17,1.38c-1.66-.15-1.63-3.48-3.8-2.28-1.73.95-.93,3-1.15,4.59C100.68,136.55,101.9,139,100,141Z"/><path class="cls-21" d="M116.25,138.87c8.11,2.25,16.41,1.18,24.63,1.36,8.75.19,17.49.19,26.24.27.62,2.28-1.19,1.5-2.07,1.5-13.64,0-27.28.11-40.91-.09-3.23,0-6.62-.53-9.3-2.85A1,1,0,0,1,116.25,138.87Z"/><path class="cls-22" d="M124.13,132.09c-2.23-.35-5.08.86-6.12-2.45,3.08,1.5,6.37,1.63,9.71,1.65q19.64.11,39.28.29l-.08.44c-7.44,1.06-14.92.39-22.38.42C137.74,132.46,130.92,133,124.13,132.09Z"/><path class="cls-23" d="M124.13,132.09l42.79-.08c.72.29.76.62.07,1-12.57,0-25.13,0-37.69,0C127.56,133,125.62,133.69,124.13,132.09Z"/><path class="cls-19" d="M91.08,140.1c-6.7,2.65-7,2.45-7.07-4.3,0-7.26,0-14.51,0-21.77a1.06,1.06,0,0,1,1.5.3c2,5.77.83,11.74.9,17.61,0,3.68.87,6.39,4.41,7.85Z"/><path class="cls-24" d="M119.18,122.88c-2.44-3.54-1.81-6.86,1.62-9s7-1.86,9.37,2.09a.71.71,0,0,1-1.24.09C121.63,113.26,119.36,114.86,119.18,122.88Z"/><path class="cls-25" d="M93.05,104.21c-.14,2.09-2.27.83-3.06,1.81-3,1.83-6,2.09-9-.12,1-1.44,3.47-.24,4.22-2.23Z"/><path class="cls-26" d="M116.25,138.87l-1.41.2c-4.13-.89-6.52-4-8.9-7.06l.17-1.38A33.54,33.54,0,0,0,116.25,138.87Z"/><path class="cls-27" d="M90,106.85l.49,1.15c-1.37,1.53-3.24,1.3-5,1.27A5.78,5.78,0,0,0,80.29,112a.85.85,0,0,1-1.3-.16l0-4.81C82.68,106.07,86.36,106.42,90,106.85Z"/><path class="cls-28" d="M128.92,116l1.24-.09c1.23,3.29,3.84,3.36,6.69,2.86L137,120C132.26,122.87,130.71,119.22,128.92,116Z"/><path class="cls-29" d="M98,98.38H85.11c4.53-2.48,9.17-1.75,13.82-.44v.2A.72.72,0,0,1,98,98.38Z"/><path class="cls-28" d="M79,111.88l1-.09c4-1.31,4.58-1.06,4.95,2.2q-.48,0-1,.05C82.25,113.47,79.49,115.28,79,111.88Z"/><path class="cls-30" d="M90,106.85l-11,.22c.33-.94,1.14-1.06,2-1.16l9,.11Q90,106.44,90,106.85Z"/><path class="cls-31" d="M76,187.95c.33,1,2.6,1.94,0,2.84-1.07.37-2.58.56-2.79-1-.3-2.13,1.67-1.47,2.78-1.82Z"/><path class="cls-32" d="M79,194c-1.24-1.88-3.52-.23-5.61-1.95,2.48,0,4.51-.49,6.13.12,2.26.85.62,1.46-.53,1.83Z"/><path class="cls-33" d="M138.27,111.94c-3.1-1.25-4.7-4.42-7.87-5.8-5.24-2.28-10-.22-14.9.79C123.58,101.17,133.26,103.3,138.27,111.94Z"/><path class="cls-34" d="M98,98.38a1.89,1.89,0,0,1,1-.24q.12,19.69.22,39.37c0,1,.13,2-1.14,2.44Q98,119.17,98,98.38Z"/><path class="cls-35" d="M84.94,114c-.32-3.72-3.43-1.17-4.95-2.2-.3-2.67.62-4.06,3.58-3.82,2.31.19,4.64,0,7,0q.13,15.9.25,31.8c-4.33,1.25-6-.14-5.75-4.83C85.35,128,85,121,84.94,114Z"/></svg>