<svg id="Слой_1" data-name="Слой 1" xmlns="http://www.w3.org/2000/svg" viewBox="0 0 250 250"><defs><style>.cls-1{fill:#17232d;}.cls-2{fill:#2d3e50;}.cls-3{fill:#019ba7;}.cls-4{fill:#59afec;}.cls-5{fill:#943d33;}.cls-6{fill:#038da6;}.cls-7{fill:#fbba82;}.cls-8{fill:#028da5;}.cls-9{fill:#fbba83;}.cls-10{fill:#fdf2ef;}.cls-11{fill:#344757;}.cls-12{fill:#b5b9bb;}.cls-13{fill:#fddd51;}.cls-14{fill:#18242e;}.cls-15{fill:#f7b077;}.cls-16{fill:#b5b9bc;}.cls-17{fill:#048da4;}.cls-18{fill:#989999;}.cls-19{fill:#364958;}.cls-20{fill:#e3eaf0;}.cls-21{fill:#fabb84;}.cls-22{fill:#f9bb85;}.cls-23{fill:#e4e9f1;}.cls-24{fill:#e1e8ef;}.cls-25{fill:#f7cca1;}.cls-26{fill:#0b8da2;}.cls-27{fill:#e2e9f0;}.cls-28{fill:#394b5c;}.cls-29{fill:#2d3c4d;}.cls-30{fill:#c4a789;}.cls-31{fill:#6a251c;}.cls-32{fill:#f49721;}.cls-33{fill:#f4fbf1;}.cls-34{fill:#f4fcf0;}.cls-35{fill:#6a241a;}.cls-36{fill:#974d37;}.cls-37{fill:#556470;}.cls-38{fill:#324758;}.cls-39{fill:#5aade7;}.cls-40{fill:#58ace7;}.cls-41{fill:#57a9e4;}.cls-42{fill:#344859;}.cls-43{fill:#57a7e1;}.cls-44{fill:#fcdb45;}.cls-45{fill:#c6d3dd;}.cls-46{fill:#f6da45;}.cls-47{fill:#256bae;}.cls-48{fill:#facfa4;}.cls-49{fill:#fefefe;}.cls-50{fill:#f4f4ee;}.cls-51{fill:#f5f2ee;}.cls-52{fill:#bbdadd;}.cls-53{fill:#974d33;}.cls-54{fill:#999a99;}.cls-55{fill:#5bafec;}.cls-56{fill:#5aaee9;}.cls-57{fill:#58adea;}.cls-58{fill:#098ba1;}.cls-59{fill:#118a96;}</style></defs><title>service-audit-it</title><path class="cls-1" d="M84.47,155.45c2.59,0,5.87-1.1,7.57.38s.59,4.91.6,7.46c.06,14.75,0,29.49.07,44.24,0,1.95-.51,2.49-2.45,2.47-9-.1-18-.08-27.06,0-1.77,0-2.41-.45-2.38-2.32.13-6.42.08-12.84.1-19.25.26-1.57,1.23-2.14,2.76-2.1,4.33.1,8.67-.18,13,.18,3.59-.31,7.19,0,10.77-.18.6,0,1.73.64,1.76-.78a33.27,33.27,0,0,0-12.67-.08,58.11,58.11,0,0,1-9.86.28,2.17,2.17,0,0,1-2-1c-.45-.91.59-1.29,1-1.92,1.49-2.51,3.81-3,6.5-2.84,1.55.1,3.12.06,4.67.19,4-.37,8.08,0,12.13-.39-3.91-.46-7.86-.12-11.78-.35-1.62-.19-3.25.29-4.85-.12s-1.92-1-.74-2.39,2.17-3.18,4.48-2.87a6.44,6.44,0,0,1,.87.1,50.78,50.78,0,0,0,13.2.07A2.78,2.78,0,0,0,87.31,173h-8c-.77,0-1.68.05-2.07-.75s.51-1.34,1-1.86a19.49,19.49,0,0,0,1.32-1.58c1.91-1.13,4-.58,6.07-.72a16,16,0,0,0,4-.27c-2.34-.72-4.7.3-6.69-1a5,5,0,0,1,4-4.18c.93-.1,1.93.14,2.7-.56-.53-1.09-1.47-.67-2.23-.59a80.82,80.82,0,0,1-11.14.14c-2.79.5-5.51-.62-8.29-.34-.94.09-1.9,0-3.35.18a3.56,3.56,0,0,0,2,.35c5.31-.45,10.52.77,15.8.82.7,0,1.48,0,1.85.71s-.34,1.26-.79,1.71c-.62.61-1.11,1.32-1.73,1.93a8,8,0,0,1-4.49.52c-4.08.14-8.18,0-12.27.29,4,.55,8,0,12,.53a2.11,2.11,0,0,1,1.55.49,5.74,5.74,0,0,1-5.21,4.9c-1.38.1-2.77,0-4.16,0H65c2,.19,3.72,0,5.43.21a2.32,2.32,0,0,1,1.95,1.13c.47,1-.51,1.32-.87,2-1.59,2.75-4.36,2.34-7,2.5.65,1,2.12.67,2.21,1.73s-1,1.53-1.63,2.21c-1.12,1.21-1.8,3.1-4,2.77,0-9.34,0-18.68-.12-28,0-2.46.63-3.39,3-2.78,5.37-.42,10.76-.18,16.13-.12C81.48,155.38,83,154.19,84.47,155.45Z"/><path class="cls-2" d="M137.34,89.43c6.47-.27,6.76-.2,9.4,5.7,3.4,7.62,6.94,15.2,8.71,23.44a9.44,9.44,0,0,1,.21,3.08c-1.26.72-1.31,3-3.38,2.67a2.3,2.3,0,0,1-1-2c-.4-5.59-2.55-10.67-4.5-15.67-.17,3.73,0,9.77-.71,13.61-.29.63-.14-.88-.38-.23-.73,2-2.13,2.54-4.12,2.21-2.66-.43-5.35-.94-7.64,1.16-.65.6-1.13.38-1.76-.18-2.34-2.08-5.51-1.27-6.18,1.72s-.27,6-.18,9.07a1.15,1.15,0,0,0,1.09,1.21h0c.78,0,1-.59,1.16-1.18.5-2.05.17-4.15.23-6.22,0-1.65.56-2.84,2.27-3.34,1.53-.44,2.68-.15,2.86,1.57.23,2.08,1.49,3,3.31,3.48a6.63,6.63,0,0,1,2,.61c.59.39,1.18.82,1,1.65a1.41,1.41,0,0,1-1.38,1,16.37,16.37,0,0,1-3.38,0c-.77-.07-1.42.05-1.54,1a1.21,1.21,0,0,0,1,1.32,8.86,8.86,0,0,0,7.07-.43c2.09-1.19,1.84-5.3-.32-6.36a26,26,0,0,0-3.11-1.31,1.34,1.34,0,0,1-1-1.64h0a1.27,1.27,0,0,1,1.48-1l.09,0a10.56,10.56,0,0,0,4.54-.08c1.65-.37,2.65,1,2.76,2.7.14,2.25-.09,4.5,0,6.76-.17,2.5.36,5-.32,7.51-1.94,1.44-4.2.91-6.28.78-6.82-.43-13.64-.11-20.46-.24a2.18,2.18,0,0,1-1.83-.76V136.5c1.09-1.25,2.77-.71,4-1.45.81-.47,2-.78,1.52-1.95a1.75,1.75,0,0,0-2.35-.76l-.1.05c-1.23.49-1.56.77-2.62-.48-.22-.52,0-.79.26-1.28.8-.9.85-.69,1.85-.83,1.45-.21,3.5.8,3.85-1.8.39-3-.7-5.05-3-5.87-1.12-.39-2.44,0-3.41-1V106.07c-2.72,2.93-4.5,6.51-7.88,8.67-3.7,2.37-7.5,2.22-11.44.19v3.58c1.11,1.55,1.43,3-.34,4.37-.55,0-1-.11-.82-.83a17.62,17.62,0,0,1-.14-1.81,13.83,13.83,0,0,0-3.35-10.08c-3.56-4.16-4.58-9.55-4.2-15.08a2.73,2.73,0,0,1,3.37-.5c.8.48.73,1.27.74,2a36.09,36.09,0,0,0,1.34,7.73c-.64-3-1.5-5.47-1.25-8.15.43-.89.91-.94,1.46-.1,1.29,3.61,1.65,7.4,2.24,11.15a6.61,6.61,0,0,0,10.39,4.5,11.59,11.59,0,0,0,2.49-2.26,32.68,32.68,0,0,0,6.74-13c1.7-6.85,2.43-7.49,9.32-7a2.33,2.33,0,0,1,.62.52c2.46,6.53,3.72,13.34,5,19.06,1.41-5.55,2.75-12.3,4.92-18.85A2.31,2.31,0,0,1,137.34,89.43Z"/><path class="cls-3" d="M117.2,141l1.56.08c5.34.37,10.68.07,16,.16,2.65,0,3.09.45,3.23,3.14a13.44,13.44,0,0,1-2.1,8.61c-2.17,0-4.35.06-6.51-.09-1.81-.13-2.35.45-2.33,2.3.09,9.55.06,19.11,0,28.67,0,5.73-.07,11.46-.11,17.19a5.65,5.65,0,0,1-6.71-.07V155.41c0-1.51,0-2.8-1.57-3.74a3.67,3.67,0,0,1-1.6-3.38C117.15,145.84,117.17,143.41,117.2,141Z"/><path class="cls-4" d="M189.61,99.24c-5.49,2.34-10.77,2.31-15.76-1.32a14.56,14.56,0,0,1-4.57-17.48c2.66-6,9.45-9.67,15.48-8.48,7.33,1.45,12,6.79,12.24,13.73.22,5.57-2.36,9.6-6.41,13A.87.87,0,0,1,189.61,99.24Z"/><path class="cls-5" d="M109.86,53.43c.31-1.43-.49-2.12-1.61-2.85-2.63-1.72-3.62-4.54-2.76-6.94.34-.94.68-1.35,1.63-.66,1.38,1,2.73.62,4.15-.06a30,30,0,0,1,15.88-3.15c2.74.26,5.33.94,7.07,3.31a2.56,2.56,0,0,0,1.72.94c3,.73,4.57,2.57,4.57,5.78a25.25,25.25,0,0,1-3.65,13.63,2.54,2.54,0,0,1-2.22-.39c-1-.7-2.33-.39-3.24-1.26-1.26-1.78-1.39-3.91-1.69-6-.28-1.89-.91-2.77-3.07-2.21a27.71,27.71,0,0,1-12.92.11C112.43,53.46,111.13,53.79,109.86,53.43Z"/><path class="cls-6" d="M135.91,153c-.26-.63-.71-1.29-.23-2,1.55-2.14,1.18-4.6,1.31-7,.1-1.9-.54-2.62-2.5-2.56-4.32.12-8.65,0-13,0-.93,0-1.92.23-2.76-.41l27-.13a32.88,32.88,0,0,1,.17,8.25c-.31.61-.46,1.48-1,1.79-2.41,1.5-2.2,3.79-2.19,6.14v43.86a5.82,5.82,0,0,1-6.78.09Z"/><path class="cls-7" d="M135.27,62.28a2.47,2.47,0,0,0,1.59,1.15c-.62,1.29.05,3-1.36,4a4.79,4.79,0,0,0-1.86,3.27A12.28,12.28,0,0,1,131,76.5a9.35,9.35,0,0,1-8.65,3.5c-1.88-.18-3.78-.07-5.67-.1-3.88-.9-6-3.43-6.83-7.23-.47-1.26-.14-2.56-.21-3.84-.1-1.81-.5-3.89,2.64-2.76.87.31,1.51-.66,2.11-1.27s.93-1.66,1.63-2.33a2,2,0,0,1,1.91-.22c1.11.54,1.26,1.8,2,2.64,1.4,1.6,2.47,1.61,3.79,0,.74-.92,1-2.24,2.27-2.74a21.47,21.47,0,0,1,5.53,0C132.73,62.38,134,61.45,135.27,62.28Z"/><path class="cls-4" d="M50.47,118.91c-6.37-3.78-9.71-9.17-9-16.77a5.35,5.35,0,0,1,.91-2.91c2,1.2,1.9,3.2,2,5.13a1.55,1.55,0,0,1,0,.51c-1.33,5.83,1.31,8.24,7,8,4.75-.18,9.52.07,14.27-.1a4.79,4.79,0,0,0,4.56-2.88,4.62,4.62,0,0,0-.56-4.9c-.1-.14-.18-.35-.32-.4-3.28-1.12-4.41-3.9-5.63-6.79-.81-1.91-3-2.1-4.82-2.7-1.71-.86-1.45-3.37-3.4-4-1.29-.58-2.94-.14-4-1.41l-.16-.33c3.39-1.6,6.9-1.38,10.44-.67a1,1,0,0,1,1.41.15l.09.14c5.85,3,9.54,7.42,10.2,14.27.76,7.85-6.09,16.35-14,16.9a32.62,32.62,0,0,1-7.74-.48A1.1,1.1,0,0,1,50.47,118.91Z"/><path class="cls-8" d="M196.41,136.8l4.72,2.74c-.58,1.64-2,1.27-3.25,1.36-2.38.17-4.8-.24-7.14.48-.95.29-2.05.31-2.68,1.28-.15,2-.28,4,.72,5.87.31,1.15-.83,1.87-.87,2.92.13,1.94.34,3.91-1.73,5.09-1.68,1-3.19,2.28-5.31,2.37-.91,0-1.38.9-1.93,1.56a12.5,12.5,0,0,1-3.41,3.4,17.5,17.5,0,0,1-.31-20.17,17.89,17.89,0,0,1,19.66-7.23l1,.24C196.1,136.5,196.27,136.54,196.41,136.8Z"/><path class="cls-9" d="M109.86,53.43a2.28,2.28,0,0,1,2.88-.94,27,27,0,0,0,15.38-.31c1.46-.46,2-.35,2.16,1.28.34,2.74,1,5.45,1.45,8.17-2.15,1.3-4.54.43-6.81.69-4.45.51-8.94-.17-13.42.13a2.35,2.35,0,0,1-2.09-.83v-.87a4.31,4.31,0,0,1,2.39-1.13c-.72-.11-1.51.92-2.32,0l-.15-2.09h0C110.17,56.26,109.54,54.79,109.86,53.43Z"/><path class="cls-10" d="M175.53,163.87c.58-2.36,2.89-3.47,3.95-5.49a.8.8,0,0,1,.65-.37c2.23.51,3.55-1.4,5.36-2s3.32-.61,4.46,1.14a13.31,13.31,0,0,0,1.33,2.38c.6.85,1.69,1.14,2.28,2a4.38,4.38,0,0,1-.2,5.43c-.6.65-1.22,1.25-2.17.58-3.69,0-7.39-.12-11.08,0C176.82,167.61,176.17,167.19,175.53,163.87Z"/><path class="cls-11" d="M76.56,174.78c-2.52-.06-4.06,1.42-5.57,3.45,2.16.54,4.12.11,6,.3a2.32,2.32,0,0,1-.05,2.58,50,50,0,0,1-5.73,0c-2.87-.33-4.84.82-6.47,3.47,4,0,7.78.13,11.58,0,4.91-.21,9.81-.68,14.7.21-.85,1.16-2.13,1-3.32,1-2.51.07-5,0-7.54,0-1.24,0-2.46.08-3.08,1.43-4.65,0-9.3.15-13.94,0a2.31,2.31,0,0,0-2.27,1.17v-2.12c1.74-1.53,3.77-2.74,5.22-4.63-.57-.94-1.43-.46-2.12-.54s-1.57-.16-1.59-1.25.79-1.37,1.73-1.37h3.64a2.67,2.67,0,0,0,2-.46c.79-.76,2.27-1.4,2-2.49S70,175,69,174.91c-1.73-.08-3.46,0-5.19,0-.63,0-1.26-.13-1.32-.93-.08-1,.59-1.16,1.34-1.16a56.77,56.77,0,0,1,7.27,0c3.37.41,5.65-1,7.41-3.61a.72.72,0,0,1,1-.09l.09.09c-.25,1.26-2,1.4-2.17,3.05H89c1.15,0,2.6-.34,2.57,1.61s-1.5,1.54-2.63,1.55H78.88c-.82,0-1.76.29-2.36-.63a3.93,3.93,0,0,1,3.13-.93h8.3c-2.88-.06-5.75,0-8.63,0A2.8,2.8,0,0,0,76.56,174.78Z"/><path class="cls-12" d="M188.42,148.85c-1.74-.36-1.37-1.75-1.39-2.92s.06-2.26.09-3.38a3.3,3.3,0,0,1,2.76-.21,29,29,0,0,0,13.08,0,3.71,3.71,0,0,1,2.77.18l.13,3.29c.56,1.46.72,2.83-.91,3.76-4.74,1.9-9.6,1.63-14.49.78A2.92,2.92,0,0,1,188.42,148.85Z"/><path class="cls-13" d="M55.6,90.38c3.2-.22,2.26,2.64,3.11,4.17-1.64,2.21-3.25,4.4-6.49,4.15-2-.15-3.17,1-4,2.66a5.15,5.15,0,0,1-4.33,3.14l-1.44-5.27c-.09-1.4-1.6-2.67-.37-4.19a8.83,8.83,0,0,1,4.59-2.28C49.73,92.34,52.58,91,55.6,90.38Z"/><path class="cls-14" d="M136,201.06l6.78-.09c3.32,2.71,7.1,4.81,10.27,7.73a1.67,1.67,0,0,1-1.4.54q-7.15,0-14.29,0a2,2,0,0,1-1.42-.54Z"/><path class="cls-14" d="M120.3,201H127v7.71a3,3,0,0,1-2.19.53H112c-.76,0-1.57.07-2.11-.67Z"/><path class="cls-15" d="M116.65,79.92c1.53-1,3.23-.52,4.82-.43,6,.34,10.78-3.49,11.27-9.46.16-2,1-2.61,2.76-2.56l-.05.94c.48,6.57.09,13.16.22,19.74,0,.75-.12,1.42-1,1.61a2,2,0,0,1-2.38-1.15c-.79-1.45-.55-3-.57-4.59,0-3,0-3-3.08-3.06a2.42,2.42,0,0,1-1.22-.41l-8.06-.09A4,4,0,0,1,116.65,79.92Z"/><path class="cls-7" d="M127.45,80.54a8,8,0,0,0,3.11-1.23c1.91-1.57,2.19-.25,2.22,1.3.05,2.17,0,4.33,0,6.5,0,1,.11,2.07,1.37,2.12,1.49.05,1.2-1.2,1.21-2.09,0-6.24,0-12.48.06-18.73.85,2.18.34,4.44.39,6.66.09,4.06,0,8.12,0,12.18,0,1.11,0,2.13,1.5,2.18l-.3.44c-2.5,3.51-8.4,3.53-11,0a.55.55,0,0,1-.16-.44c1.26-.1,1.72-.79,1.67-2C127.46,85.13,127.48,82.84,127.45,80.54Z"/><path class="cls-16" d="M192.8,166.55c1.61-3.4,1.21-4.36-2.64-6.3a2.42,2.42,0,0,1,2.1-.82c3.92.68,7.73-.06,11.56-.72a2.68,2.68,0,0,1,2,.3c.74.87.35,1.76,0,2.65.56,2.67-1.06,3.92-3.17,4.85a16.94,16.94,0,0,1-7.05,1C194.6,167.44,193.53,167.49,192.8,166.55Z"/><path class="cls-17" d="M192.8,166.55c3.29.13,6.58-.47,9.88,0-5.5,4.83-11.75,6.26-18.78,4.16-.57,0-1.16.09-1.42-.61-.7-.7-1.85-.8-2.46-1.93,3.78-.65,7.55.41,11.18-.58A2.12,2.12,0,0,0,192.8,166.55Z"/><path class="cls-18" d="M205.73,142.49a27.59,27.59,0,0,1-18.6.06c-.18-1.51,1-1.59,2-1.89,2.85-.91,5.79-.79,8.73-.78,1.09,0,2.25.36,3.28-.34a8.46,8.46,0,0,0,2.82,1.11C204.83,140.9,205.83,141.22,205.73,142.49Z"/><path class="cls-19" d="M97.26,122.66c.73,1.75-.2,3.55.18,5.31-1,10.19-4.44,19.24-12.33,26.19-.39.35-.79.68-.63,1.29q-8.9.11-17.78.19c-.94,0-1.89-.1-2.83-.15,5-.52,10-.19,15.06-.18a6.69,6.69,0,0,0,4.71-1.72,32.74,32.74,0,0,0,11.16-19.4h0c1.38-3.09,1.38-6.42,1.66-9.69.07-.83-.23-1.71.33-2.48Z"/><path class="cls-20" d="M196.41,136.8l-.53-.09c-1-2.33-.55-4.8-.46-7.18.34-9-1.42-17.7-4.29-26.2-.47-1.38-1.54-2.54-1.52-4.09l1-.57a62.27,62.27,0,0,1,5.79,20.57A62,62,0,0,1,196.41,136.8Z"/><path class="cls-21" d="M156.64,141.06c.54,2,1.52,3.91,1.25,6.17-.18,1.52-.6,2.3-2.15,2.06s-3.65,1-4.08-1.82c-.35-2.28.62-4.19,1.54-6.13A2.77,2.77,0,0,1,156.64,141.06Z"/><path class="cls-22" d="M92.47,95.15l-3.41-.05c0-1.71,0-3.42-.09-5.12s.46-2.44,2.12-2.39a1.31,1.31,0,0,1,1.51,0c3.33.42,4.07,2.76,2,6.46-.35.22-.65.51-1,.71A2.07,2.07,0,0,1,92.47,95.15Z"/><path class="cls-2" d="M156.64,141.06c-1.12.49-2.29.22-3.44.28,0-3-1.75-15.36-1.8-18.4,0-2.45,1.36-3.17,4.29-2.72C155.85,123.9,156.49,137.39,156.64,141.06Z"/><path class="cls-23" d="M50.47,118.91l1.45.73c-.94,3-.39,6-.43,9,0,2.75-.37,5.53.27,8.26.1.41.26.9-.29,1.09s-.81-.25-1-.63a4.54,4.54,0,0,1-.55-1.7q-.06-7.52,0-15A6.34,6.34,0,0,1,50.47,118.91Z"/><path class="cls-24" d="M63.41,89l-1.5-.29c.93-3.61,3.86-5.86,6-8.64a50.28,50.28,0,0,1,5.36-5.62c.52-.5,1.28-1.67,2.13-.77S75,75,74.48,75.47c-3.23,3.36-6.79,6.4-9.32,10.4C64.5,86.84,63.58,87.69,63.41,89Z"/><path class="cls-25" d="M116.08,62.79c-.31,3.76-2.74,5.26-6.26,3.64v6.26c-.92-3.3-.34-6.64-.31-10A8.86,8.86,0,0,1,116.08,62.79Z"/><path class="cls-26" d="M205.85,161.66l-.11-2.42c-.61-.67-1.41-1.24-1.33-2.31a33.64,33.64,0,0,0,.54-5.67,5,5,0,0,1-.3-2.49c1.59-.51,1-1.9,1.21-3A15.81,15.81,0,0,1,205.85,161.66Z"/><path class="cls-27" d="M109.36,57.55a74.62,74.62,0,0,0-15.72,5c-.53.24-1.13,1-1.57.34-.64-.89.43-1.17.94-1.43a63.1,63.1,0,0,1,14.91-5.06c1-.21,1.51,0,1.44,1.11Z"/><path class="cls-28" d="M92.6,87.58H91.09c-.79-1.81,0-4.08-1.86-5.68a2.23,2.23,0,0,1,.26-2.84,2.64,2.64,0,0,1,2.73-.1c1,.53.72,2,.37,2.57C91.25,83.65,92.23,85.58,92.6,87.58Z"/><path class="cls-24" d="M182.47,170.07a1.91,1.91,0,0,1,1.42.61c-2.64,2.95-4.8,6.31-7.72,9-.37.34-.77.9-1.3.55s-.3-1,.09-1.34C177.88,176.29,179.78,172.85,182.47,170.07Z"/><path class="cls-29" d="M109.41,61.62h22.31c1.17.29,2.5-.34,3.54.65a9.28,9.28,0,0,0-3.43.3c-3-.37-6,.37-9,.33-4.47-.05-9-.47-13.44-.58-.3-.1-.87-.22-.86-.29C108.57,61.49,109.12,61.8,109.41,61.62Z"/><path class="cls-30" d="M109.38,62.34q10.76,0,21.52-.07a3.11,3.11,0,0,1,.94.32l-6.39.2a6.36,6.36,0,0,1-7.26,0h-2.12l-6.58-.07A.6.6,0,0,1,109.38,62.34Z"/><path class="cls-31" d="M153.59,209.41c-.49.69-1.22.54-1.9.54h-14c-.61,0-1.44.34-1.74-.63A91.48,91.48,0,0,1,153.59,209.41Z"/><path class="cls-32" d="M46.5,93.53A13.11,13.11,0,0,1,42,95c.44-3.18,3.38-2.51,5.28-3.44a.84.84,0,0,1,.61.4C48,93,47.17,93.21,46.5,93.53Z"/><path class="cls-33" d="M153.59,209.41l-17.66-.11v-.6H153Z"/><path class="cls-34" d="M109.9,208.59l17.16.14v.56a115.1,115.1,0,0,1-17.17,0Z"/><path class="cls-35" d="M109.88,209.25h17.17c-.14.71-.72.64-1.21.64H111C110.53,209.94,109.93,210,109.88,209.25Z"/><path class="cls-36" d="M109.51,59.64c1.86-.41,3.76-1.09,5.8,1-2.29-.37-4.11-.62-5.86.11Z"/><path class="cls-37" d="M93,94.18c.48-.87,1.07-.47,1.65-.14l.07,2.08c-.36-.11-.72-.38-1.06,0C92.29,95.88,93.1,94.88,93,94.18Z"/><path class="cls-4" d="M48,92.16l-.64-.55a12.91,12.91,0,0,1,4.13-2.26h0C51.39,91.61,50,92.23,48,92.16Z"/><path class="cls-38" d="M91.1,162.95a2.43,2.43,0,0,1-2.17.42c-2.8-.44-4.71.82-6.16,3.06a.72.72,0,0,1-1,.09l-.09-.09c.25-1.26,2-1.38,2.14-2.94-5.78-.06-11.49-.91-17.25-.62H64.23c-.77,0-1.68.07-1.74-1s.72-1.5,1.68-1.51a60.27,60.27,0,0,1,7.25.08c1.72.19,3.43.29,5.15.42.69,1,1.71,1,2.77,1h8.52C89,161.84,90.3,161.76,91.1,162.95Z"/><path class="cls-39" d="M81.66,166.44h1.1c2.32,0,4.64.07,7,.08.94,0,1.69.05,1.69,1.32s-.82,1.27-1.72,1.27l-10,.08h-1.1L77,169.1q-2-1.29,0-2.58Z"/><path class="cls-40" d="M77,181.12a2.42,2.42,0,0,1,.05-2.58H89.56c1.06,0,1.92.05,1.85,1.47s-1.11,1.09-1.9,1.09C85.34,181.13,81.17,181.12,77,181.12Z"/><path class="cls-41" d="M77.14,187.24c-1-1.77-.51-2.51,1.52-2.49H91.08c.8,1.77.29,2.55-1.71,2.52C85.29,187.19,81.22,187.24,77.14,187.24Z"/><path class="cls-42" d="M77,166.53a2.41,2.41,0,0,0,0,2.58H64.36c-1,0-2,0-1.91-1.42s1.06-1.17,1.9-1.17Q70.7,166.5,77,166.53Z"/><path class="cls-43" d="M91.1,162.95c-4.14,0-8.28-.1-12.42,0-1.62,0-2.19-.63-2.12-2.11,4.35-.55,8.72-.16,13.08-.3C91.7,160.46,91.75,161.46,91.1,162.95Z"/><path class="cls-44" d="M126.05,89.9c3.67,2,7.34,2.34,11,0l-5.2,21.58h-.56Z"/><path class="cls-45" d="M93,94.18c.27.64.07,1.45.65,2,.31,3.38,1.64,6.61,1.62,10.66-2.4-4-2.76-7.78-2.81-11.67Z"/><path class="cls-46" d="M182.82,87.2c-1.42-.11-3.14-1.06-3.36,1.62-.07.86-1.18.8-1.54,0-.66-1.39-1.46-1.38-2.69-.78s-1.85.31-1.33-1.23a1.45,1.45,0,0,0-1.24-2.11c-1.41-.28-1.73-.83-.34-1.66,1.07-.64,1.46-1.27.65-2.47s-.31-1.77,1.1-1.36c.53.16,1.28.31,1.43-.15.87-2.78,2-2.09,3.47-.46.32.37.78-.07,1.14-.31,1.5-1,2-.47,1.54,1.12a1.36,1.36,0,0,0,1.15,1.91c1.5.28,1.66.88.48,1.71-1.63,1.14-1,2.11,0,3.14C183.64,86.78,183.31,87,182.82,87.2Z"/><path class="cls-47" d="M182.82,87.2l.48-1c.13-1.06.07-2.37,1.76-1.24.19.13.64.21.73.1,1.33-1.53,2.38-1.4,3.2.47,3.73-.55,1,3.62,3.11,4.32.19.06-.63.61-.68.89-.47,2.62-3,2.51-4.62,3.61-.4.27-1.09.43-1,.1.42-2.87-4-.36-3.42-3.14.15-.7.59-1.33-.09-1.84C180.49,88.2,182,87.81,182.82,87.2Z"/><path class="cls-48" d="M118.2,62.78h7.26c-.07.33-.13.67-.22,1-.56,2-1.81,3.8-3.85,3.38A4,4,0,0,1,118.2,62.78Z"/><path class="cls-49" d="M43.86,104.49c1.46-1.58,3.49-2.48,4.27-4.91a3.54,3.54,0,0,1,4.42-1.89,2.32,2.32,0,0,0,3.09-1.1l.05-.12a5.47,5.47,0,0,1,3-1.93c4.67,0,6.56,1.57,7.24,6.24.16,1.1.58,1.35,1.57,1.58,3.1.74,4.59,3,4.34,6.11a5.41,5.41,0,0,1-5.41,5.23c-5.88.12-11.77.17-17.66,0C43.94,113.61,41.92,109.64,43.86,104.49Z"/><path class="cls-50" d="M48,92.16c1.21-.88,2.73-1.38,3.46-2.84l4.16,1.06a1,1,0,0,1-.88,1.09c-2.73.72-5.33,2-8.22,2.06Z"/><path class="cls-12" d="M205.76,150.9c-.36,2.07,1.12,4.46-1.08,6.2-.21.38-.43.84-.84,1-4.8,1.49-9.59,2.19-14.27-.42a4.82,4.82,0,0,0-4.09-1.62,1.89,1.89,0,0,0,1.57-2.37,19.5,19.5,0,0,1,.07-2.78c1.34-.81,2.71-.23,4,0a35.31,35.31,0,0,0,12.09-.19A3.32,3.32,0,0,1,205.76,150.9Z"/><path class="cls-18" d="M205.76,150.9a29.73,29.73,0,0,1-18.63,0c-.25-1.12.69-1.47,1.3-2a30.28,30.28,0,0,0,16.23-.09C205.1,149.44,206.07,149.84,205.76,150.9Z"/><path class="cls-51" d="M182.22,146.22c.21,1.89,2.55,3.11,1.69,5.36-.12.3.12.79,0,1-1.64,2.08-3.9.52-5.84.92-.89.18-1.68.12-2-1.3-.51-2.61,1.31-4.25,2.07-6.32a3.15,3.15,0,0,1,.57.44c1,1.5,1.95.69,2.85-.16A.56.56,0,0,1,182.22,146.22Z"/><path class="cls-52" d="M182.22,146.22h-.68a5,5,0,0,1-3.34.51l-.06-.84C179.64,144.2,181,144.33,182.22,146.22Z"/><path class="cls-53" d="M125.31,60.32a24.53,24.53,0,0,0-5.39,0C121.73,58.74,123.53,58.89,125.31,60.32Z"/><path class="cls-54" d="M189.57,157.65c5.06.58,10.12,1.05,15.11-.55.46.66,1.38,1.09,1.07,2.13a35.37,35.37,0,0,1-15.59,1Z"/><path class="cls-55" d="M76.56,174.78c0-1.26.3-2.11,1.92-2.07,3.65.1,7.3,0,10.94,0,.73,0,1.66-.21,1.73,1s-.78,1.19-1.58,1.18l-13-.16Z"/><path class="cls-56" d="M180.33,83.3a2.33,2.33,0,0,1-2.62,2.41,1.94,1.94,0,0,1-2.06-2.14A2.35,2.35,0,0,1,178.17,81C179.74,80.89,180.28,81.8,180.33,83.3Z"/><path class="cls-57" d="M189.09,89.13a2.23,2.23,0,0,1-2.18,2.28h-.17A1.58,1.58,0,0,1,185,89.66a2.1,2.1,0,0,1,1.82-2.34l.32,0C188.51,87.16,188.82,88.15,189.09,89.13Z"/><path class="cls-58" d="M178.2,146.72c1-1,2.05-1.48,3.34-.51.21.91,1,2.12-.88,2.1C179.58,148.3,177.86,149,178.2,146.72Z"/><path class="cls-59" d="M179.5,151c-.5-.84-.28-1.43.56-1.58.39-.07.92.59.68.85-.59.65.5,1.9-.64,2.08C178.73,152.58,180.14,151.23,179.5,151Z"/><polygon class="cls-2" points="146.11 138.85 117.22 138.85 117.23 110.63 146.71 110.65 146.11 138.85"/></svg>