<svg id="Слой_1" data-name="Слой 1" xmlns="http://www.w3.org/2000/svg" viewBox="0 0 250 250"><defs><style>.cls-1{fill:#1d1a2a;}.cls-2{fill:#312d3d;}.cls-3{fill:#312d3a;}.cls-4{fill:#4baeec;}.cls-5{fill:#30445d;}.cls-6{fill:#e1e3fd;}.cls-7{fill:#252231;}.cls-8{fill:#eeedfd;}.cls-9{fill:#e9eafb;}.cls-10{fill:#27374d;}.cls-11{fill:#cfcfdf;}.cls-12{fill:#e8e8f8;}.cls-13{fill:#d4d9ec;}.cls-14{fill:#1e1e2e;}.cls-15{fill:#2d9fd6;}.cls-16{fill:#1f2e43;}.cls-17{fill:#d3d3e2;}.cls-18{fill:#284966;}.cls-19{fill:#c6d2ea;}.cls-20{fill:#d0d6e7;}.cls-21{fill:#e4e6fc;}.cls-22{fill:#242434;}.cls-23{fill:#dedef0;}.cls-24{fill:#302d3d;}.cls-25{fill:#478bba;}.cls-26{fill:#ebebfc;}.cls-27{fill:#374a61;}.cls-28{fill:#4a6484;}.cls-29{fill:#e3e0f1;}.cls-30{fill:#fcf8ff;}.cls-31{fill:#262232;}.cls-32{fill:#d4d2e2;}.cls-33{fill:#2b2737;}.cls-34{fill:#ede9f9;}.cls-35{fill:#292535;}.cls-36{fill:#cfcfe0;}.cls-37{fill:#dadcee;}.cls-38{fill:#ccccdc;}.cls-39{fill:#9695a6;}.cls-40{fill:#b1b2c2;}.cls-41{fill:#9494a4;}.cls-42{fill:#1c5e87;}.cls-43{fill:#697c94;}.cls-44{fill:#727181;}.cls-45{fill:#585869;}.cls-46{fill:#e2e6fe;}.cls-47{fill:#a7d7fd;}.cls-48{fill:#428cbc;}.cls-49{fill:#d6d9ea;}.cls-50{fill:#d4d5e6;}.cls-51{fill:#2ea4db;}.cls-52{fill:#c2c4d5;}.cls-53{fill:#c5cee1;}.cls-54{fill:#1c1a2a;}.cls-55{fill:#302c3c;}.cls-56{fill:#407da0;}.cls-57{fill:#e0e2f4;}.cls-58{fill:#415e7b;}.cls-59{fill:#5ea1d1;}.cls-60{fill:#bbcce2;}.cls-61{fill:#bcbfd1;}.cls-62{fill:#87a3c1;}.cls-63{fill:#272333;}.cls-64{fill:#1c1828;}.cls-65{fill:#717382;}.cls-66{fill:#2a91c8;}.cls-67{fill:#b7c9e0;}.cls-68{fill:#cbd2e4;}.cls-69{fill:#a4bdd6;}.cls-70{fill:#3e83ab;}.cls-71{fill:#4f8cb7;}.cls-72{fill:#4a90bb;}.cls-73{fill:#2b79a8;}.cls-74{fill:#3a86b7;}.cls-75{fill:#a1a2b2;}.cls-76{fill:#1d1e2f;}.cls-77{fill:#2b6990;}.cls-78{fill:#bbc1d4;}.cls-79{fill:#9c9fb1;}.cls-80{fill:#38aaeb;}.cls-81{fill:#c2c8de;}.cls-82{fill:#d3d7ef;}.cls-83{fill:#d0d9ed;}.cls-84{fill:#2a2736;}.cls-85{fill:#d0d4e4;}.cls-86{fill:#7abee6;}.cls-87{fill:#1b1929;}.cls-88{fill:#bdbccc;}.cls-89{fill:#9f9daf;}.cls-90{fill:#5298c8;}.cls-91{fill:#2d72a0;}.cls-92{fill:#c8cee2;}.cls-93{fill:#1d1d2d;}.cls-94{fill:#bfc2d5;}.cls-95{fill:#232030;}.cls-96{fill:#cbcfe2;}.cls-97{fill:#203249;}.cls-98{fill:#e5e5f6;}.cls-99{fill:#d6d4e4;}.cls-100{fill:#bfc8db;}.cls-101{fill:#2a2c3b;}.cls-102{fill:#c2c0d1;}.cls-103{fill:#afacbc;}.cls-104{fill:#1a1626;}.cls-105{fill:#858192;}.cls-106{fill:#b1adbd;}.cls-107{fill:#9793a3;}.cls-108{fill:#28283a;}.cls-109{fill:#3296d1;}.cls-110{fill:#bfcadf;}.cls-111{fill:#2c9bd1;}.cls-112{fill:#82b8d5;}.cls-113{fill:#a5bcd6;}.cls-114{fill:#96adc3;}.cls-115{fill:#2586b1;}.cls-116{fill:#adadbf;}.cls-117{fill:#5ab6e9;}.cls-118{fill:#68b4d8;}.cls-119{fill:#bfdefc;}.cls-120{fill:#63b2d9;}.cls-121{fill:#afdcfc;}.cls-122{fill:#2679a4;}.cls-123{fill:#b9cae0;}.cls-124{fill:#2f2f3f;}.cls-125{fill:#b7c1ce;}.cls-126{fill:#3484b6;}.cls-127{fill:#2a93c9;}.cls-128{fill:#458dbc;}.cls-129{fill:#8cb0ce;}.cls-130{fill:#a7a6b8;}.cls-131{fill:#aaadbe;}.cls-132{fill:#262333;}.cls-133{fill:#d1d1e1;}.cls-134{fill:#2580af;}.cls-135{fill:#9494a3;}.cls-136{fill:#b5b7c4;}.cls-137{fill:#1a192a;}.cls-138{fill:#2d6b92;}.cls-139{fill:#d5d5e6;}.cls-140{fill:#2282a2;}.cls-141{fill:#609bc6;}.cls-142{fill:#d1d8eb;}.cls-143{fill:#201f30;}.cls-144{fill:#e4e6f7;}.cls-145{fill:#2478ac;}.cls-146{fill:#2785b9;}.cls-147{fill:#9cb9d4;}.cls-148{fill:#2d97d2;}.cls-149{fill:#92b3d0;}.cls-150{fill:#2c94d0;}.cls-151{fill:#2a92c9;}.cls-152{fill:#2886bd;}.cls-153{fill:#2b94cc;}.cls-154{fill:#89b1ca;}.cls-155{fill:#d2d1e2;}.cls-156{fill:#0d0c1d;}.cls-157{fill:#dbe8ff;}.cls-158{fill:#93d1ff;}.cls-159{fill:#6ac8ff;}.cls-160{fill:#aadafd;}.cls-161{fill:#b7c1d7;}.cls-162{fill:#2e8cc5;}.cls-163{fill:#adb8cf;}.cls-164{fill:#2d9dd6;}.cls-165{fill:#a6aabb;}.cls-166{fill:#8a8b9d;}.cls-167{fill:#256187;}.cls-168{fill:#268cb7;}.cls-169{fill:#cfd6eb;}.cls-170{fill:#bdc5d6;}.cls-171{fill:#2f3140;}.cls-172{fill:#d0d0e1;}.cls-173{fill:#181a2b;}.cls-174{fill:#29719c;}.cls-175{fill:#4a94c4;}.cls-176{fill:#b0c4da;}.cls-177{fill:#141020;}.cls-178{fill:#2fa6e0;}.cls-179{fill:#2f7cad;}.cls-180{fill:#4085b0;}.cls-181{fill:#c3c0cf;}.cls-182{fill:#9a97a6;}.cls-183{fill:#233c56;}.cls-184{fill:#1f3047;}.cls-185{fill:#e0e0ef;}.cls-186{fill:#8f8a9b;}.cls-187{fill:#a2a3b5;}.cls-188{fill:#b2bfd6;}.cls-189{fill:#d3d2e3;}.cls-190{fill:#2ea1d9;}.cls-191{fill:#b2b0c0;}.cls-192{fill:#a7aabb;}.cls-193{fill:#2c9cd0;}.cls-194{fill:#2272a3;}.cls-195{fill:#266f9d;}.cls-196{fill:#a1afc7;}.cls-197{fill:#1f6392;}.cls-198{fill:#97abc4;}.cls-199{fill:#becee4;}.cls-200{fill:#507fa6;}.cls-201{fill:#7597bb;}.cls-202{fill:#373646;}.cls-203{fill:#a7abbd;}.cls-204{fill:#9b98a8;}.cls-205{fill:#3780b5;}.cls-206{fill:#93adc4;}.cls-207{fill:#8ba0bd;}.cls-208{fill:#849bb6;}</style></defs><title>service-installation-sks</title><path class="cls-1" d="M88.92,64.72,89.26,67a12,12,0,0,1,.68,3.62,14.44,14.44,0,0,0,.27,2.61A13.18,13.18,0,0,0,90.47,76c0,.23,0,.46,0,.69a6.37,6.37,0,0,0,0,1.7c.66,2.36-1,3.32-2.57,4.29a7.84,7.84,0,0,1-2.24.87,13.44,13.44,0,0,0-4.88,2.22,6.94,6.94,0,0,1-2.06.94c-.56.11-1.11.23-1.67.32-1.12-.36-1.69.44-2.33,1.1a19.46,19.46,0,0,1-5.79,2.64,11.4,11.4,0,0,0-4.19,2.07c-1.52,1.15-3.47,1.21-5.21,1.81a1.67,1.67,0,0,1-1.34-.37,52.34,52.34,0,0,1-6-4.1,3.87,3.87,0,0,0-2.1-1.46,1.13,1.13,0,0,1-.83-.88c0-.71.51-.85,1.05-.9a14.94,14.94,0,0,1,6.05.67A1.35,1.35,0,0,1,57,88a2.62,2.62,0,0,0,3.1.8c-.07-1-.92-2-.18-3.15.08-.12-.07,0-.09,0-.82.28-.95-.38-1.2-.87s-.5-.48-.89-.32c-.89.09-.81-.42-.56-1a1.75,1.75,0,0,1,.87-.71c.76-.4.64-.91.09-1.32-1.37-1-.55-2.51-.77-3.77-.08-.46.53-.86,1.13-.85A4.22,4.22,0,0,0,62,75.37a1.28,1.28,0,0,1,2-.22,1,1,0,0,0-.45-.92c-2.46-1.64-5.07-3-7.56-4.6-.12-.08-.26-.13-.37-.21-.47-.35-1.29-.67-.8-1.38s1,0,1.48.27c2.74,1.62,5.54,3.15,8.3,4.74a1.62,1.62,0,0,0,1.86.16.7.7,0,0,1,.4-.15,5,5,0,0,0,4.88-2.38c-2.18-1.32-4.58-2.57-6.85-4a6.22,6.22,0,0,1-.72-.46c-.18-.15-.41-.32-.3-.58s.38-.27.62-.26a3.8,3.8,0,0,1,1.71.66c2.42,1.43,5,2.5,7.35,4.09.2.14.45.32.66.22,1.33-.61,2.9-.58,4.09-1.51a3.84,3.84,0,0,1,1.9-1.06,25,25,0,0,0-4.6-2.7c-1.26-.66-2.59-1.21-3.83-1.92-.44-.25-1.12-.51-.85-1.12s1-.29,1.5-.09a36.07,36.07,0,0,1,4.28,2.28c1.68,1,3.58,1.57,5.11,2.82.16.13.31.21.5.08,1.58-1.13,3.81-.86,5.21-2.43C87.84,64.31,88.45,64,88.92,64.72Z"/><path class="cls-2" d="M88.92,64.72c-1.29-.36-1.82.9-2.74,1.32a3.71,3.71,0,0,1-1.77.61c-.94,0-1.91.24-2.18,1.12-3.56-2.29-7.3-4-11-6-.29.72.07.79.36.94,2.78,1.43,5.56,2.84,8.32,4.31.41.22,1.13.39.94,1.08s-.72.09-1.09.15c-.18,0-.44.08-.52.21-1,1.68-3,1.18-4.3,2.14-.68.49-1.16.22-1.77-.18a97.18,97.18,0,0,0-9-4.93l-.19.33L73,71c-1.32.34-2.43.65-2.71,2-.06.27-.35.28-.59.29a8.36,8.36,0,0,0-4,.66c-.6.33-1.43-.67-2.14-1.07-2.87-1.6-5.71-3.24-8.69-4.68a83.23,83.23,0,0,0,8.94,5.67.45.45,0,0,1-.2.61c-1.12.42-1.94,1.36-3.06,1.76-1.42.51-2.94.57-4.38,1.06-.75.25-1.45-.25-2.13-.61-1-.55-2-1.23-3.32-.49a.82.82,0,0,1-1.24-.73c0-1.83-1.58-1.81-2.59-2.41-.62-.37-.4.78-.95.76l-.12-.53c-.07-.86-.74-1.65-.27-2.56l6.14-2.24c3.13-1.15,6.26-2.29,9.37-3.48.46-.18,1-.07,1.39-.54,4.73-1.74,9.47-3.47,14.19-5.25a2.56,2.56,0,0,1,2.29.11C81.95,60.89,85,62.39,88,64,88.38,64.12,89,64.09,88.92,64.72Z"/><path class="cls-3" d="M120.43,70.41c-.4-.15-1.1.52-1.21-.42-.08-.65.16-1,.79-1.42,2.55-1.67,4.91-1.29,7.33.25a16.26,16.26,0,0,0,2.47,1.07c.35,0,.62.13.62.55a.92.92,0,0,1-.39.27,1.92,1.92,0,0,1-1,.06,24.26,24.26,0,0,0-7.75-.24C121,70.53,120.74,70.32,120.43,70.41Z"/><path class="cls-4" d="M120.43,70.41c.13-.23.33-.22.54-.18,1.2.2,2.45-.05,3.64.3a.65.65,0,0,1,.17,1.07,1.12,1.12,0,0,1-1.52.29,7.75,7.75,0,0,0-5.33,1.57,8,8,0,0,1-3.1,1.38c-.59.1-1.06-.1-.61-.75.79-1.16,1.47-2.49,3.06-2.77a4.2,4.2,0,0,0,2-.6C119.63,70.59,120.15,71,120.43,70.41Z"/><path class="cls-5" d="M141.81,64.07c.24.19.72-.15.81.36a1.07,1.07,0,0,1-.57.62c-3,1.11-5.78,2.67-8.68,4a2.07,2.07,0,0,0-1.21,1.15,1.09,1.09,0,0,1-1,.85c-.36-.07-.82,0-.76-.6l0,0c.44-.5.32-1.3.94-1.69Z"/><path class="cls-6" d="M131.31,68.75c-.66.37.48,1.74-.94,1.69l-.56-.55C130,69,130.73,69,131.31,68.75Z"/><path class="cls-7" d="M221.51,115c.5.83-.27,1.1-.7,1.45-2.55,2.06-5.13,4.07-7.7,6.11-.26.2-.48.45-.72.67-.85.86-1.8.55-2.72.21-.74-.28-1.43-.68-2.14-1-.42-.22-.84-.43-1.25-.67-1.25-.74-1.31-1.48-.16-2.41,1.32-1.07,2.73-2,4.07-3.08,1.76-1.17,3.29-2.65,5.07-3.79a1.36,1.36,0,0,1,1.22-.18,12.14,12.14,0,0,1,3.89,2.21A2.3,2.3,0,0,0,221.51,115Z"/><path class="cls-8" d="M195.83,138.73a5.86,5.86,0,0,0,.56,2.25c.92,1.9-.55,3.44-.86,5.16-.1.53-.35,1,.14,1.41s.83.23,1.3.05a7.61,7.61,0,0,1,8.66,3.22,1.21,1.21,0,0,0,.45.53c2.05.85,2.62,2.87,3.64,4.53a1.07,1.07,0,0,1-.16,1.4.53.53,0,0,1-.34.19,2.87,2.87,0,0,1-2-1.22c.05-.7-.59-.54-.94-.73a14.89,14.89,0,0,1-1.56-.92,1.55,1.55,0,0,1-.25-.32,22.64,22.64,0,0,0-7.81-4.8,6.08,6.08,0,0,0-2.39-.15c-.86,0-1.72,0-1.43-1.3,1-2.46,1-5.15,1.75-7.67a4.46,4.46,0,0,1,.45-1.32C195.23,138.8,195.47,138.6,195.83,138.73Z"/><path class="cls-9" d="M206.66,109.24c.34-.34.62-.77,1.2-.73.22.29.41.78.85.57,2.18-1,4.07.11,6,.82a5.81,5.81,0,0,1,3.15,2.32,3.84,3.84,0,0,0,2.12,1.37c.5.17.44.55.42.93-1.15-.55-2.32-1.08-3.46-1.66a1.54,1.54,0,0,0-1.6-.09,7.22,7.22,0,0,0-.94.28c-1.66.87-1.71.86-2.95-.49a6.7,6.7,0,0,0-1.4-1.4,3,3,0,0,0-3.34-.13c-.33.2-.76.34-1,0s.08-.66.29-1S206.41,109.52,206.66,109.24Z"/><path class="cls-10" d="M190.07,139.88l2.33-1.79a2.84,2.84,0,0,1,1.67-1.36c.64-.16,1.09-1.43,1.94-.32-.18,0-.25.09-.21.26s0,.5-.19.7-.6.13-.84.35c-3.59,2.92-7.23,5.77-10.82,8.69a2.41,2.41,0,0,1-1.48.76,1,1,0,0,1-.7-.4c.5-1.62,1.95-2.15,3.25-2.85A32.74,32.74,0,0,0,190.07,139.88Z"/><path class="cls-11" d="M209.21,157.34l.34,0,.29.87c-.22.52-.88.76-.87,1.42l-1.22.25C207.81,158.76,209.2,158.45,209.21,157.34Z"/><path class="cls-12" d="M195.51,137.3l.28-.63c.36.68-.11,1.38,0,2.07l-.53.29C194.75,138.37,195.09,137.83,195.51,137.3Z"/><path class="cls-13" d="M89.26,136.22c-.29-.67-.56-1.09.49-1.61s1.77-2,3.21-2.4c.24-.06.26-.42.07-.61-2.15-2.22-3.07-5.28-5.12-7.58-.85-1-.69-2.21-.69-3.4,0-1.64-.25-1.88-1.91-1.89a36.07,36.07,0,0,0-4.27,0c-1.61.18-3-.76-4.6-.63-1.91.15-2.3.52-2,2.43,0,0-.22.11-.34.17a1,1,0,0,1-.84,0,2.56,2.56,0,0,1-1.34-1.2c-.48-1.28-.33-1.63.85-2a9.47,9.47,0,0,1,3.25-.33,5,5,0,0,0,1.69-.22c2.18-.15,4.36,0,6.54-.07a22,22,0,0,1,2.49.08,5.31,5.31,0,0,0,2,.23c2-.1,3.65,1.23,5.6,1.37.43,0,.61.55.74,1a26.29,26.29,0,0,0,4.36,8.7c.71.92.43,1.6-.51,2.24-1.48,1-3,1.89-4.43,3a26.85,26.85,0,0,1-4,2.54C90.08,136.27,89.69,136.49,89.26,136.22Z"/><path class="cls-2" d="M40.9,144.74a2,2,0,0,1,1.34-1.81,28.08,28.08,0,0,0,4.12-2.19c2.16-1.41,3.51,0,4.91,1.38.66.65,1.44,1.19,2.17,1.79a19.29,19.29,0,0,1,4.34,3.49c.2.36.52.68.32,1.14a17.84,17.84,0,0,0-3.25,3.1,1.85,1.85,0,0,1-1.87.74,2.06,2.06,0,0,0-1.91.24,1.5,1.5,0,0,1-2.05-.32c-.78-.87-2-1.14-2.7-2.24a1,1,0,0,0-1.66.17c-.39,1.14-1,1.25-1.92.84-.72-.6-.6-1.53-.91-2.29a23.15,23.15,0,0,0-.81-3.23A1.54,1.54,0,0,1,40.9,144.74Z"/><path class="cls-14" d="M72.33,119.72c.28.34.53.73,1,.77.45.79.39.9-.75,1.37a45.92,45.92,0,0,0-5.42,2.81c-3,1.37-6,2.94-8.85,4.59-1.36.9-2.5.37-3.59-.56-.47-.47-1-.82-1.54-1.26-.78-.7-.61-1.31.15-1.86a9.33,9.33,0,0,1,1.38-.74c4-2,8-4.06,12-6.14a6.79,6.79,0,0,1,1.5-.79,2.33,2.33,0,0,1,3.13.76A7.14,7.14,0,0,1,72.33,119.72Z"/><path class="cls-15" d="M89.26,136.22a25.28,25.28,0,0,0,4.86-2.88c2.22-1.21,4.31-2.64,6.43-4,.73-.12,1.24-.94,2.09-.66.27.61-.23,1-.37,1.53-.59.86-1.7,1.07-2.36,1.85-1.4,1-3.15,1.51-4.44,2.73a1.59,1.59,0,0,1-.35.19c-1.23.2-2.09,1.1-3.07,1.72-1.43.9-3.07,1.49-4.31,2.69a2.67,2.67,0,0,1-.46.4c-.42.25-.85.45-1.29.66-1.57.85-3.23,1.54-4.72,2.55a1.41,1.41,0,0,1-1.6.15c-.54-.33-.31-.81-.11-1.25.41-.79,1.24-.88,2-1.16h0a46,46,0,0,1,6.33-3.69A3,3,0,0,0,89.26,136.22Z"/><path class="cls-16" d="M64.15,140.77q6.2-3.38,12.4-6.75c.52-.28,1.26-1,1.28.4a1.8,1.8,0,0,1-.05,1.48c-1-.92-1.9-.35-2.82.23-1.19.75-2.42,1.46-3.68,2.09-3.57,2.17-7.29,4.06-10.91,6.14a1.64,1.64,0,0,0-.91,2c.58,2.3.91,4.66,1.36,7,.27,1.39.54,1.48,1.79.7a8.43,8.43,0,0,1,2.28-1.15.62.62,0,0,1,.41.1.69.69,0,0,1,.07.61c-.8,1-2,1.35-3,2s-2,1-1.76,2.42a.39.39,0,0,1-.44.42c-.87-.7-.79-1.76-1-2.7a12.73,12.73,0,0,1-.25-2.65c.23-1.9-.5-3.65-.82-5.47-.83-3.66-1-3.26,2.17-5.11C61.54,141.85,62.86,141.37,64.15,140.77Z"/><path class="cls-17" d="M64.15,140.77a27.86,27.86,0,0,1-4.81,2.74c-1.24.62-1.67,1.37-1.21,2.67a10.35,10.35,0,0,1,.29,1.39c-.32.71-.59.14-.87,0l-4.11-3.63a23.72,23.72,0,0,0,2.71-1.21,12.47,12.47,0,0,1,3.79-.81c.91-.11,1.79-.21,2.2-1.22.13-.32.44-.5.63-.16C63.16,141.24,63.7,140.66,64.15,140.77Z"/><path class="cls-18" d="M77.55,135.86c.42-.42.12-1,.28-1.44l.85,4.88a7,7,0,0,1,.65,2.79c0,1,.56,2,.21,3.06a1.49,1.49,0,0,1-.69.88c-1.76.82-3.17,2.24-5,2.93a.91.91,0,0,1-.62-.14.63.63,0,0,1-.15-.4c.27-1,1.24-1.18,1.87-1.75a8,8,0,0,1,.86-.51c2.52-1.34,2.56-1.35,2.06-4.2-.26-1.5-.44-3-.63-4.51C77.16,136.89,77,136.31,77.55,135.86Z"/><path class="cls-19" d="M87.85,137.05a49.31,49.31,0,0,1-6.33,3.69c-.09-1.36,1.72-.8,1.91-1.87,1.71.06,2.57-1.9,4.28-1.82Z"/><path class="cls-19" d="M79,142.1a13.2,13.2,0,0,1-.33-2.8,4.52,4.52,0,0,0,2.84,1.44l-1.73,1.2C79.54,142.1,79.32,142.35,79,142.1Z"/><path class="cls-20" d="M72.62,121.86c.21-.48,1.3-.48.75-1.37l.71.24A1.2,1.2,0,0,1,72.62,121.86Z"/><path class="cls-21" d="M142.63,67.21a9.05,9.05,0,0,1,0,2.4c-.45,1.72,1.13,2.92,1,4.52,0,.29.34.3.56.26,3.22-.56,6,.79,8.7,2.18,1.06.54,2.32.65,3.09,1.76a1.51,1.51,0,0,0,1.46.37c1.78-.28,3.63,0,5.37-.72.31-.12.35.21.41.44.84,2.13,0,4.09-2,4.75-1.4.45-2.72,1.14-4.16,1.49a3,3,0,0,0-1.58,1.17c-.39.48-.76,1.06-1.36,1.22-1.36.35-1.42,1.32-1.35,2.44a30.12,30.12,0,0,0,.68,3.05c.08.51.59.54,1,.72,1,.46,1.15.83.32,1.49a4.36,4.36,0,0,0-1.3,2.3c-.35,1-.88,1.92-2.22,1.74a.89.89,0,0,1-.23-.63c.34-1.27-.29-2.53-.06-3.8.66-1.1,0-2.09-.27-3.11A9.94,9.94,0,0,0,149,87.49a15.58,15.58,0,0,1-1.15,2.6c-1,2.48-3.25,3.15-5.29,4.2-.08,0-.2,0-.27.08-2.62,1.94-6.11,1.52-8.8,3.26a1.7,1.7,0,0,1-1.24.16A13.39,13.39,0,0,0,129,98c-1.67.12-3.37-.36-5,.27-.18.07-.43-.18-.58-.37-.5-.61-.94-.51-1.38.07-.11.15.05,0-.09.11a1.33,1.33,0,0,1-1.59.2c-.62-.34,0-.84-.06-1.28a.82.82,0,0,1,.36-.74,6.39,6.39,0,0,0,2.1-1.13,2.36,2.36,0,0,1,1.72-.53A6.63,6.63,0,0,0,128,93.39a1.45,1.45,0,0,0,.77-1c.23-1.52,1.33-2.45,2.29-3.48,1,.16,1,.16.58,1.46a13.29,13.29,0,0,0,1.67-3.88,2.27,2.27,0,0,1,.51-.84,3.25,3.25,0,0,0,.53-4c-1-2-.36-4,.35-5.85.37-1,1.28-1,2.17-.68a2.54,2.54,0,0,0,2.38,1.05c1-.08,2,.44,3,.54,1.43.33,1.93,1.7,2.88,2.57a3.86,3.86,0,0,1,1.13,1.08c.58,1.06,1.3,1.08,2.22.47.75-.5,1.6-.85,2.37-1.32.39-.24.64-.56.07-.82-1.27-.58-2.44-1.57-4-1.1a2.67,2.67,0,0,1-1.57-.88,4,4,0,0,0-2.15-1c-1.89-.2-2-.51-1.35-2.38.22-1.53,0-3.07.12-4.61C142,68.17,141.87,67.5,142.63,67.21Z"/><path class="cls-22" d="M163.59,78.46c.21,0,.25-.38.52-.23,1.14,1,2.64,1.37,4,2a27.9,27.9,0,0,0,6.61,2.39,14.6,14.6,0,0,0-1.18,3.4c0,.26-.28.61,0,.77.56.27,1,.68.47,1.15s-.8,1.48-1.93.93a2.9,2.9,0,0,0-2.36.1,9.65,9.65,0,0,1-7.17.43.75.75,0,0,1-.41-.49,20.33,20.33,0,0,1,.14-2.24c0-.78.32-1.5.28-2.28,0-.24,0-.48,0-.72C163.13,82,163.09,80.18,163.59,78.46Z"/><path class="cls-23" d="M163.59,78.46l-.67,5.41a2.06,2.06,0,0,1-1.58,1.26,6,6,0,0,0-4,5.65,3.6,3.6,0,0,0,1.08,2.41c.53.52.42,1,.07,1.63-1.11,2.1-3.19,2.86-5.09,3.88a3.08,3.08,0,0,0-.73.64c-.61.61-1.14.63-1.55-.22a.47.47,0,0,1,.09-.41,2.48,2.48,0,0,0,2-2.26c.13-.86.36-1.68,1.34-2,.22-.07.49-.2.46-.47s-.37-.43-.65-.4c-1.3.15-1.31-.65-1.5-1.65a14,14,0,0,1-.51-3.9c0-.47-.05-1,.65-1a2.53,2.53,0,0,0,2.12-1.45c1-1.66,3-1.33,4.44-2.26a.61.61,0,0,1,.14,0c3.39-1.18,3.39-1.18,3.51-4.85Z"/><path class="cls-24" d="M174.68,82.72c-2.93.07-5.3-1.57-7.86-2.63a7.66,7.66,0,0,0-1.26-.57c-.68-.16-1.34-.45-1.45-1.29l.85-.65a3.83,3.83,0,0,1,1.78-.83,1.6,1.6,0,0,1,1.6,0c1.33.6,2.7,1.11,4,1.66a7.43,7.43,0,0,1,2.55,1.2c.52.43.84.42,1-.35a1.26,1.26,0,0,1,1-1.09.55.55,0,0,1,.43.59,3.35,3.35,0,0,0,.07,1.37,3.22,3.22,0,0,1,.32,2.53.57.57,0,0,1-.46.38c-.4-.18-.3-.68-.65-1C176,82.3,175.65,83.54,174.68,82.72Z"/><path class="cls-25" d="M177.24,82.94l.3-.21c.59-.7,1.43-1.12,2.06-1.78.41,0,.47.41.65.68.7,1.08,1.65,1.16,2.85,1a1.92,1.92,0,0,0,1.81-2c.1-1,.37-2,.55-2.93.07-.4,0-.88.59-1,.38.21.07.67.33.93l-.72,4.87c.13.67-.32,1-.78,1.32a25.1,25.1,0,0,0-2.31,1.51,3.17,3.17,0,0,1-1.48.51,2.7,2.7,0,0,0-2,.9,3.09,3.09,0,0,1-.54.38c-1.68.68-1.84.55-2-1.64C176.69,84.58,176.14,83.52,177.24,82.94Z"/><path class="cls-26" d="M184.66,83.54c.34-.35,1-.41,1-1.09.12.33.69.48.49.91-.33.72.17.48.44.41,2.8-.7,5.21.85,7.79,1.38.78.16.95,1.27,1.42,1.41,1.23.38.55,1,.41,1.54l-.11.07c-.87.38-1.55-.21-2.25-.52a3.5,3.5,0,0,0-2.6-.29,2.21,2.21,0,0,1-2.19-.59,5.55,5.55,0,0,0-3.44-1.47C184.34,85.24,184.17,84.8,184.66,83.54Z"/><path class="cls-27" d="M186.37,77.58c-.33-.21-.23-.56-.28-.86a1,1,0,0,1-.22-.65c0-.48.46-1.11-.14-1.41-.43-.21-.85.3-1.25.52-2,1-3.82,2.26-5.81,3.25-.44.22-.85.67-1.42.29L177,78.2,182.64,75a.8.8,0,0,1,.93-.51c.84-.44,1.69-.86,2.52-1.31s1-.17.89.65C186.77,75.07,186.57,76.33,186.37,77.58Z"/><path class="cls-28" d="M142.63,67.21a39.51,39.51,0,0,0-.26,5.1c0,.51.08,1.05-.28,1.51-.63.54-1.2,1.18-2.16,1a.47.47,0,0,1-.26-.36.69.69,0,0,1,.26-.63c1.55-.81,1.38-2.24,1.52-3.67.18-1.81-.07-3.69.63-5.44l.56-.31Z"/><path class="cls-29" d="M174.94,79.64a8.8,8.8,0,0,1-2.55-1.2C173.61,78.06,174.28,78.84,174.94,79.64Z"/><path class="cls-30" d="M183.56,74.48l-.93.51c-.49-.07-.37-.29-.12-.52S183.22,74,183.56,74.48Z"/><path class="cls-21" d="M166.74,76.75a2.93,2.93,0,0,1-1.78.83C165.24,76.62,166,76.72,166.74,76.75Z"/><path class="cls-31" d="M209.21,157.34c.36.61,0,1-.4,1.43s-.7.72-1.05,1.08l-.25.24a48.1,48.1,0,0,1-5.41,4.94,3.1,3.1,0,0,0-1.14,1.09c-1.06,1.21-2.37,2.14-3.52,3.24a1.93,1.93,0,0,1-2.54.34c-.59-.31-1.14-.67-1.71-1-1-.78-2.16-1.36-3.23-2.05s-1.22-1.43-.21-2.37c3-2.72,6-5.3,9.1-7.91.68-.59,1.34-1.2,2-1.81,2.09-1.48,2.4-1.49,3.81,0h0a11.5,11.5,0,0,1,2.64,1.64Z"/><path class="cls-32" d="M195.26,170.17A5.89,5.89,0,0,0,193,169c-.64-.25-1.36-.41-1.74-1.09,0-.57.35-.47.64-.28a7.48,7.48,0,0,0,1.45.81c3.18,1.61,3.17,1.6,5.87-.9a5.68,5.68,0,0,1,1.74-1.41c-.82,1.93-2.76,2.71-4.19,4C196.32,170.53,195.76,170.12,195.26,170.17Z"/><path class="cls-32" d="M188.4,171.32a1.54,1.54,0,0,1,1.51-1.67c-.33,2,.36,2.65,3,2.73l.14.14.23.51a5.31,5.31,0,0,0-1.71.29C190.17,173.16,188.7,173.15,188.4,171.32Z"/><path class="cls-11" d="M202.09,165a54.21,54.21,0,0,1,5.41-4.94A16.42,16.42,0,0,1,202.09,165Z"/><path class="cls-32" d="M192.88,171.06l.94,0c-.16.55-.11,1.22-.8,1.49l-.11-.11A1.06,1.06,0,0,1,192.88,171.06Z"/><path class="cls-33" d="M46.38,76.37a2.74,2.74,0,0,0-.27-1.47c-.18-.34-.44-.66-.18-1.07a2.94,2.94,0,0,0,.14-.68c0-.94.23-1.2,1-.46a4.49,4.49,0,0,0,1.39.68c.79.37,1.66.67,1.29,1.94a.57.57,0,0,0,1,.54c.77-.8,1.5-.49,2.19-.13a6.3,6.3,0,0,0,5.27.72,41.81,41.81,0,0,0,5.14-2.08c.19-.09.32-.33.48-.5.94.48.41,1.31.68,2.18-1.43-1.33-1.68-1.3-2.64.11-.22.33-2.68,1.35-3,1.16a.69.69,0,0,0-1.09.16,1,1,0,0,0-.12,1.19c0,.08.16.16.16.23a3.49,3.49,0,0,0,1,2.88c.68.74-.39,1.19-1,1.53-.36.19-.7.38-.56.84.07.22.31.06.48,0,.36.2.8.07,1.16.28.07,1.2.88,1.08,1.83.81-.92.87-1.18,1.57-.21,2.43.19.17.06,1.08-.21,1.3a2.17,2.17,0,0,1-3-.09c-2.16-2-4.76-1.53-7.29-1.58-.41,0-.56.28-.63.64a.6.6,0,0,1-.63,0,3.5,3.5,0,0,1-.75-1.35c-.37-1.45-.45-3-.85-4.4a16.44,16.44,0,0,0-.62-2.85C46,78.37,46.52,77.35,46.38,76.37Z"/><path class="cls-2" d="M34.36,107.57a2.23,2.23,0,0,1,3.12.69,4.12,4.12,0,0,0,1.14.77,18.55,18.55,0,0,1,4.8,3.51,1.3,1.3,0,0,1,.24.77c-.06,1-.93,1-1.6,1.24a10,10,0,0,1-7.28,1.72,1.56,1.56,0,0,1-.68-.17c-.72-.58-.94-.17-1.1.5-.4,1.65-.53,1.67-1.85.45l-.48-1.19-1.12-4.34c-.53-1.29,0-1.89,1.27-2.31A35.83,35.83,0,0,0,34.36,107.57Z"/><path class="cls-34" d="M45.54,70.73l.27,2.56C45.5,72.46,44.8,71.67,45.54,70.73Z"/><path class="cls-35" d="M31.14,117l1.42.54c.17-.24,0-.53,0-.78.09-.59.09-1.37.46-1.69.78-.69.6.61,1.06.69a6.46,6.46,0,0,0,2.49.3c1.69-.45,3.6-.38,5-1.78.11-.12.35-.11.53-.16,0,1.14-.94,1.56-1.71,2-.5.32-.85.6-.61,1.23a44.63,44.63,0,0,1,1.61,6.42c.22,1.08.57,2.26-.55,3.17-.4.32,0,.58.18.84-.67,1.12-1.42.56-2.06,0-2.29-1.88-4.61-3.72-6.74-5.79a3.17,3.17,0,0,1-.47-.47c-.67-1.09-.14-2.36-.5-3.49Z"/><path class="cls-36" d="M31.22,118.16c.64,1.06.32,2.36.85,3.44a.58.58,0,0,1,.08.63A9,9,0,0,1,31,123.29c-1.52,1.35-1.59,2-.34,3.6a6.27,6.27,0,0,0,4.45,2.26,9.26,9.26,0,0,0,4-.23,4.43,4.43,0,0,1,2.39.1,8.63,8.63,0,0,0,7.16-1.26c2.05-1.42,3.21-1.33,5.31.17.32.23.71.27,1,.53,1,.84,2,1.6,3.42.81a1.82,1.82,0,0,1-2,.56c-1-.18-1.7-.12-2.15,1a1.65,1.65,0,0,1-1.82,1.06c-.06-.36.25-.59.34-.9a.65.65,0,0,0-.45-.89.78.78,0,0,0-1,.27c-.23.4,0,.72.31,1s.61.26.8.55c-1,.9-1.83.08-2.52-.35a2.65,2.65,0,0,0-1.91-.52,39,39,0,0,1-4.28.06A81.75,81.75,0,0,1,35,131c-2.24-.24-4.4-.61-6.22-2.09a3.67,3.67,0,0,1-.87-4.69,16.44,16.44,0,0,1,2.44-3.48A3.48,3.48,0,0,0,31.22,118.16Z"/><path class="cls-37" d="M89.56,70.72a2.09,2.09,0,0,0,2,1.42,13.17,13.17,0,0,1,8.07,3.75C100.8,77,102,78,103.24,79c.48.18.62-.34.94-.49s.71-.4,1-.08.2.78,0,1.17a5.35,5.35,0,0,1-.64.76,7.13,7.13,0,0,0-.23,9.74c.84,1,2.11,1.42,3.14,2.19.37.28.82,0,1.24-.05a4.75,4.75,0,0,1,3.07.08c.25.75-.53.61-.79.93s-.3.66.25.46,1.16-.62,1.83-.21c.74,1.27.59,1.64-.83,2.07.35.12.86.05.72.67a3.85,3.85,0,0,1-3.16.77c-.52,0-1.09-.18-1.46.25a5.26,5.26,0,0,1-3.38,1.5c-.64.23-.83.89-1.23,1.33s-.84.48-1.45.11a8.38,8.38,0,0,1-3.44-4.83,3.85,3.85,0,0,0-.44,2.52c.07.83-.17,1.41-1.14,1.41a2.28,2.28,0,0,1-1.2-.41c-2.11-1.46-4.46-2.52-6.59-3.95-.43-.29-.93-.52-.93-1.15.4-2.38,2.16-3.67,3.94-5,2.42-1.75,2.83-4.36,3-7.08,0-.52,0-1,0-1.57,0-3.35-1-4.7-4.18-5.73-.66-.21-1.26-.43-1.44-1.19A9.86,9.86,0,0,1,89.56,70.72Z"/><path class="cls-38" d="M89.81,73.29a2.83,2.83,0,0,0,1.58.85c2.52.73,4.72,2.45,4.47,5.69-.14,1.74-.21,3.49-.4,5.22A6.68,6.68,0,0,1,93,88.94a31,31,0,0,1-2.8,2.16c-.51.38-1.08.88-.84,1.51.33.87-.34.92-.73,1.24-.59.29-1.08-.06-1.59-.26-1-.72-2.2-1.18-2.94-2.25-.39-1.31.61-2,1.42-2.49,1.36-.87,2.55-1.95,3.89-2.84,1.78-1.19,2.16-2.32,1.63-4.34A1.82,1.82,0,0,1,91.21,80a1.91,1.91,0,0,0-.4-2.87c-.33-.29-.46-.71-.77-1A11.65,11.65,0,0,1,89.81,73.29Z"/><path class="cls-39" d="M49,87.79l.49.15a.84.84,0,0,0,.8.53,13.41,13.41,0,0,1,2.08,1.41l6.09,4.16a1.91,1.91,0,0,0,1.62.12,19.64,19.64,0,0,0,6.47-2.8,9.8,9.8,0,0,1,3.59-1.3c1.74-.3,3-1.6,4.59-2.22a1.61,1.61,0,0,1,1.71.18A37.18,37.18,0,0,0,79.87,90c.32.33,1,.43.71,1.16a1.06,1.06,0,0,1-1,.07c-2.31-1.05-4.42-.24-6.57.59a64.56,64.56,0,0,1-10.47,3.15,11.46,11.46,0,0,1-2,.19c-.69,0-1.38,0-2.08,0A17.62,17.62,0,0,1,52.23,93,11.84,11.84,0,0,1,49,89.91C48.49,89.29,48.13,88.5,49,87.79Z"/><path class="cls-40" d="M90.05,76.15c1,.69,2.15,1.26,2,2.78,0,.44,0,.87-.44,1.14s-.47.88-.32,1.4c.68,2.33,0,3.71-2,5.11a23.11,23.11,0,0,0-4.78,3.71c-.33.39-.15.68-.21,1-.82.42-1.31-.26-1.88-.59a9.8,9.8,0,0,1-1.73-1.21.87.87,0,0,1-.25-.58,3.5,3.5,0,0,1,2.42-2.4,20.31,20.31,0,0,0,5-2.92c1.4-1.09,3-2.5,2.35-4.82-.19-.66.17-1.4-.19-2.06Z"/><path class="cls-41" d="M90.06,76.72a6,6,0,0,1-2.78,7.75c-1.6.79-3,1.9-4.72,2.6a4.3,4.3,0,0,0-2,2c-.88.44-1.35-.23-1.9-.7-.5-.63-.82-1.26-.05-1.92C81.34,85,84,83.38,87,82.7a8.17,8.17,0,0,0,2.51-1.58,1.52,1.52,0,0,0,.68-1.71A23.33,23.33,0,0,1,90.06,76.72Z"/><path class="cls-42" d="M78.9,88.19a3.78,3.78,0,0,0,1.71.87l.33.31c.14,1-.43,1-1.12.8-1.4-.24-2.4-1.28-3.64-1.86a3.69,3.69,0,0,0-1.46-.47c.5-.9,1.05-1.69,2.27-1.07A5.64,5.64,0,0,1,78.9,88.19Z"/><path class="cls-43" d="M78.9,88.19A3.85,3.85,0,0,1,77,86.77a3.61,3.61,0,0,1,1.67-.33A1.63,1.63,0,0,0,78.9,88.19Z"/><path class="cls-44" d="M58.93,84.43c-.48.31-1,.54-1.16-.28C58.28,83.74,58.73,83.59,58.93,84.43Z"/><path class="cls-33" d="M52.36,89.89a4.74,4.74,0,0,1-2.08-1.41A2.84,2.84,0,0,1,52.36,89.89Z"/><path class="cls-45" d="M75.74,77.32a.44.44,0,0,1-.47.41c-.3,0-.36-.25-.35-.5s.14-.46.43-.41A.46.46,0,0,1,75.74,77.32Z"/><path class="cls-46" d="M113,96.09a.92.92,0,0,0-1.05-.13c-.35.13-.72.17-.79-.26s.41-.41.69-.4c1.34,0,1.76-.49,1.14-1.72l.06-.17a1,1,0,0,1,.83-.33c.62,0,.89-.6,1.42-.75a.65.65,0,0,1,.37.08c1,1.2.38-.64.84-.44a1.89,1.89,0,0,1,1.72-.52c-1.46.12-1.41-1.21-2-1.94-.48.13-.44.67-.73.94a1.75,1.75,0,0,1-.28.26c-1,.19-1,1.22-1.54,1.74-.61.07-1.22.4-1.84,0-1.2.08-2.46-.37-3.59.42a.74.74,0,0,1-.67,0,17.19,17.19,0,0,1-3.48-2.37A7.47,7.47,0,0,1,104.4,80c.17-.17.34-.33.5-.51s.5-.55.17-.85-.48.13-.72.23-.66.65-1.11.16a3.78,3.78,0,0,1,2.88-1.8c1.48-.11,1.84-1.67,2.44-2.62.84-1.34,1.88-1,2.95-1,.59,0,.56.51.6.95,0,.28.09.64.46.56s.29-.38.22-.68c-.48-1.89.08-2.68,2-2.46,1,.11,1.52-1.06,2.49-.62-1.53.53-1.93,2.13-3.22,3.29a7.7,7.7,0,0,0,3.88-1.6c1.55-1.18,3.4-1.42,5.24-1.7a1.64,1.64,0,0,1,.08.26c.13.45-.24.6-.49.82a4.53,4.53,0,0,1-1.58.53c-1.26.36-2.24.94-2.12,2.47a38.18,38.18,0,0,0-4.7,1.9A5.37,5.37,0,0,0,113,78.36c-.14.21-.56.22-.46.55,0,.08.4-.08.61-.16s.59-.49,1-.5a1.07,1.07,0,0,1,.37.1.73.73,0,0,1,.28,1.17.89.89,0,0,1-.3.25c-.23.13-.62,0-.72.32s.21.22.37.27a3.32,3.32,0,0,1,2.75,3.08,5,5,0,0,0,1.13,2.69c.74.86.68,1.19.12,2.82.44-.58.67-1.35,1.54-1.54a3.18,3.18,0,0,1,2.2.29,2.13,2.13,0,0,0,.84.14c2.62.16,3.84,2.34,2.66,4.75a2,2,0,0,1-3.48.67c-.27-.24-.43-.64-.85-.62a.68.68,0,0,0-.22.68c.08,1.73.08,1.76-1.62,1.85-.82,0-.86.51-.87,1.15,0,.93-.1,1.85-1.32,2-.88-.47-.8-1.15-.44-2.09-1.26,1.78-2.43,1-3.6.06Z"/><path class="cls-6" d="M130.39,70.42c.2.32.56.24.85.35.48.25,1-.21,1.46,0,1.19.49,2.53.73,3.26,2,.05.67-.4.75-.82.55a5.68,5.68,0,0,0-3.73-.06,3.86,3.86,0,0,0-1.65,0,.89.89,0,0,1-1.26-.86c-.2-.21-.44-.44-.7-.42a5.29,5.29,0,0,1-3.17-1.18,14.74,14.74,0,0,1-3.65-.53C124.12,69.64,127.25,70.08,130.39,70.42Z"/><path class="cls-47" d="M124.62,70.76c1.36.74,3.05.4,4.33,1.37a7.18,7.18,0,0,1-3,1.14,16.27,16.27,0,0,0-2.24.19.39.39,0,0,1-.52-.47c.11-.52-.4-.57-.58-.86l.59-.58C124.18,72.1,124.6,71.78,124.62,70.76Z"/><path class="cls-48" d="M132.62,71.07a2.49,2.49,0,0,1-1.39-.3c2.74-3.57,7.12-4.2,10.83-6,.21,2.56-.39,5.09-.28,7.64a1.19,1.19,0,0,1-.91,1.27c-.47.15-1,.31-1.08,1-1.25.29-1.9-.81-2.85-1.21a.71.71,0,0,1-.13-.38.75.75,0,0,0-.41-1.05C135.21,71.46,134,70.77,132.62,71.07Z"/><path class="cls-49" d="M207.58,122.15c.77.35,1.56.67,2.3,1.07a2.28,2.28,0,0,0,2.51,0c-.14.18-.28.52-.42.52-1.43,0-2.3,1-3.32,1.78-.46-.72-.68-1.75-1.88-1.57-.23,0-.49.07-.52.37s.16.32.31.44c.62.48,1.49.27,2.1.76-.49,1-1.57.87-2.24.78a24.12,24.12,0,0,0-8.49.58,35.85,35.85,0,0,1-6.9.43,25.51,25.51,0,0,1-8.41-1c-2.57-.83-5.31-1.58-7.37-3.72-3.32-3.45-7.28-3.48-11.58-1.92A2.57,2.57,0,0,0,161.6,123a3.38,3.38,0,0,1-1.89,2.54c-.9.43-.93,1.58-1.51,2.33-.33.43-.91.91-.94,1.34,0,.72-1.85.39-.84,1.74.35.47.13,1.48,1,1.88.34.15.34.54.48.84s.42,1,.68,1c1.82.18,2.23,2.2,3.75,2.75a1,1,0,0,1,.61,1,.82.82,0,0,1-.94,0,93.54,93.54,0,0,1-9.19-5.7,10.76,10.76,0,0,0-2.82-1.88,1.66,1.66,0,0,1-.35-.29,2.13,2.13,0,0,1,0-2.65c1.6-2.47,3-5,4.5-7.58a4.69,4.69,0,0,1,4.19-2.27c4.46-.09,8.92-.17,13.37,0a33.59,33.59,0,0,1,4.64,0,32.79,32.79,0,0,1,6.08,3.91,12.07,12.07,0,0,0,6.45,1.93c3.41.23,6.81-.33,10.23-.33a4.81,4.81,0,0,0,3.8-1.65c1-1.2,1.73-1.29,3.12-.52A13.07,13.07,0,0,0,207.58,122.15Z"/><path class="cls-50" d="M185,143.91l-3.28,2.79c0,.35-.27.5-.56.6-1.17.39-2.39,0-3.57.27-1.22,0-2.07-.86-3-1.44-1.9-1.14-3.82-2.26-5.72-3.41-.83-.85-2.28-1-2.73-2.27.36,0,.68-.23,1.08.05,1.9,1.36,4.12,1.31,6.33,1.39,1.36.05,2.66.83,4,.52,2.14-.46,4.2.07,6.29.37A1.17,1.17,0,0,1,185,143.91Z"/><path class="cls-51" d="M166.13,140.45l2.89,1.93a1.18,1.18,0,0,1-.87.63,2.45,2.45,0,0,1-2.11-.58,39.1,39.1,0,0,0-5.11-3c-2.26-1.52-4.53-3-6.87-4.43a4.61,4.61,0,0,1-1.25-.91c-.42-1-1.51-1-2.32-1.42-.63-.28-1.42-.31-1.7-1.12a.93.93,0,0,1,.71-1,.62.62,0,0,1,.62.17h0a21.5,21.5,0,0,1,2.83,1.79c3.28,2.09,6.57,4.14,10,6A20.89,20.89,0,0,0,166.13,140.45Z"/><path class="cls-12" d="M194.07,136.73a3.47,3.47,0,0,1-1.67,1.36c0-.14,0-.28,0-.43C192.55,135.88,192.55,135.88,194.07,136.73Z"/><path class="cls-52" d="M207.58,122.15a2.8,2.8,0,0,1-1.61-.35c-1.06-.59-2.08-.7-2.91.62s-2.55,1.72-4,1.69c-3,0-5.87.32-8.82.37a22.89,22.89,0,0,1-5.48-.72,8.21,8.21,0,0,1-3.44-1.94c-1.51-1.35-3.34-2.15-4.91-3.37.37-.44.89-.38,1.38-.4h1.43a7.42,7.42,0,0,1,4.28,1.61,11.94,11.94,0,0,0,8.88,2.75,21.07,21.07,0,0,1,3.85,0c1.56.19,2.81-.18,3.42-1.8a3,3,0,0,1,1.11-1.26A6.87,6.87,0,0,0,203,116.8a2.94,2.94,0,0,1,1.49-1.24c.19-.14.39-.26.59-.38.6-.39,1.23-.78,1.09-1.63s-.77-1-1.41-1.22l-.27-.08c-.47-.17-1.19-.23-1.15-.82s.61-.75,1.17-.76c.65.48,1.26,1,2.18.52.67-.33,1.19,0,1.48.69a3.79,3.79,0,0,1,0,3,11.28,11.28,0,0,0-.81,2c1.15.4,1.92-1.32,3.06-.43-1.37,1.08-2.75,2.14-4.1,3.24-1.16.93-1.12,1.17.18,1.83C206.86,121.7,207.21,121.93,207.58,122.15Z"/><path class="cls-53" d="M210.41,116.44c-.93-.27-1.41.7-2.17.81-.47.07-1,.65-1.42.07s.2-.86.41-1.27c.58-1.14,1.21-2.26.74-3.62-.27-.78-.41-1.42-1.56-.81a1.3,1.3,0,0,1-2-1c0-.22.06-.33.3-.25.84-.08,1.22-1,2-1.17a5.4,5.4,0,0,1-.88,1.79,3.65,3.65,0,0,1,3.76-.57,5,5,0,0,1,2,1.72c.67.88,1.44,1.63,2.58.62a.86.86,0,0,1,1.16,0A45.48,45.48,0,0,1,210.41,116.44Z"/><path class="cls-54" d="M204.67,110.41l-.3.25-1.08.83c1.07.59,2.6.31,3.14,1.61.68,1.65-.78,2.08-1.75,2.76a4.6,4.6,0,0,1-4.79-.27c-.6-.43-.51.27-.68.53a13.45,13.45,0,0,0-.59,1.7,13.08,13.08,0,0,1-1.69,3.16,1.61,1.61,0,0,1-.3.28,18.9,18.9,0,0,1-2.87,1.17c-1.33,0-2.28-.85-3.36-1.4a40.22,40.22,0,0,1-5.09-2.8,2.32,2.32,0,0,0-2-1.42c-.94,0-1.24-.68-1.25-1.52a16.59,16.59,0,0,1,.4-3,1.53,1.53,0,0,1,.46-.74.64.64,0,0,1,.83.36c.78,1.29,2.4,1.89,2.79,3.51.11.45.62.71,1.08.87a14.41,14.41,0,0,1,5.14,3c.74.7,1.3.66,1.69-.37a5,5,0,0,0,.69-2.57c-.11-.77.67-1.09,1.05-1.6-1.07-.91-1-2.38.37-4.55a6.05,6.05,0,0,0,3.56-2.6,2.77,2.77,0,0,1,.08,1.75.24.24,0,0,1,0,.23c-.25,1.1-.27,2.22-.48,3.48a16.75,16.75,0,0,0,2.43-1.24A3.87,3.87,0,0,1,204.67,110.41Z"/><path class="cls-55" d="M200.15,109.36l-.07-1.2c-.88,1.22-1.83,2.23-3.39,2.28-.72.49-1.39.12-2-.19-3.24-1.63-6.54-3.16-9.7-5a1.26,1.26,0,0,1-.7-.83c1.25-2,3.92-3.29,6-2.3s4.29,2.16,6.51,3.1c.94.4,1.68.75,2-.61a.33.33,0,0,1,.46-.2l.33.89c.48.59,0,1.57.78,2A3.24,3.24,0,0,1,200.15,109.36Z"/><path class="cls-55" d="M202.09,111.83c-.3.72-1,.89-1.6,1.29-.32.23-.57.84-1,.55s-.3-.92-.12-1.29c.44-.89.23-1.95.78-2.79a1.62,1.62,0,0,1,0,.28C200,112.08,200,112.08,202.09,111.83Z"/><path class="cls-56" d="M200.37,107.36c-1.5-.2-.76-1.26-.78-2l.77-.64C201.28,105.58,200,106.47,200.37,107.36Z"/><path class="cls-57" d="M204.64,154.51a2.49,2.49,0,0,0-3.62.26,2,2,0,0,0-1.35.69,2.93,2.93,0,0,1-1.42.91c-1.41.49-1.61.38-1.85-1.06a6.08,6.08,0,0,0-1.66-3.54,1.81,1.81,0,0,0-2.55-.3,9.39,9.39,0,0,1-1.68.77c-.42.19-.87.24-1.16-.18s.07-.75.45-1,.22-.51.39-.73c.76-.92,1.3-2.13,2.78-2.09.07,1.25,1,.82,1.59.71a6.34,6.34,0,0,1,4.76,1.24,59.11,59.11,0,0,1,5,3.3C204.88,153.91,204.65,154.15,204.64,154.51Z"/><path class="cls-58" d="M193,148.25a8,8,0,0,0-2.58,2.24c-.92.49-1.37,1.51-2.26,2a.91.91,0,0,0-.86.25c-.32.32-.73.61-1.23.24,0-.85.66-1.21,1.21-1.65,1.78-1,3.13-2.61,4.81-3.77a2.67,2.67,0,0,0,.8-1.78c.61-2.82,1.18-5.66,1.82-8.48.25-.5.54-.11.81,0L195.3,139q-.84,3.94-1.68,7.88C193.52,147.41,193.48,147.94,193,148.25Z"/><path class="cls-57" d="M207.27,156.14a9.35,9.35,0,0,1-2.64-1.64C205.62,154.87,206.83,154.89,207.27,156.14Z"/><path class="cls-24" d="M168.11,142.78l.91-.4,8.47,5a2.76,2.76,0,0,1,2,1.26c.15.34.2.87.76.37s.33-1.49,1-1.94l.47-.33a.82.82,0,0,1,.66.3c-.59,1.29-.81,2.53.51,3.56a.78.78,0,0,1,.22.91.51.51,0,0,1-.28.25c-.83.32-1,1.24-1.54,1.79a4.15,4.15,0,0,1-1.39,1.18c-.61.19-1.31,0-1.85.44a2.37,2.37,0,0,1-.36.18A1.68,1.68,0,0,1,176,155c-3.84-2.76-8.12-4.86-11.92-7.69-.36-.27-.82-.25-1.16-.51-.29-.82.42-1,.86-1.37a7.45,7.45,0,0,1,1.25-.87,8,8,0,0,0,1.73-1.18A4.51,4.51,0,0,1,168.11,142.78Z"/><path class="cls-59" d="M182.94,151.57a1,1,0,0,0-.39-1,2.22,2.22,0,0,1-.16-3.61c2.38-1.48,4.39-3.46,6.63-5.13,1.94-1.45,3.79-3,5.67-4.54.34.24.26.6.2.91-.59,2.78-1.21,5.55-1.79,8.32a2.13,2.13,0,0,1-.83,1.43,37.74,37.74,0,0,0-4,3.22,1.39,1.39,0,0,1-1,.35A13.54,13.54,0,0,0,184,152C183.57,152.14,183,152.35,182.94,151.57Z"/><path class="cls-60" d="M100.67,129.59a34.38,34.38,0,0,1-6.55,3.75,34.55,34.55,0,0,1,4.7-3.21c.61-.37.95-.87.43-1.49a23.07,23.07,0,0,1-4.61-9.23c-.15-.59-.6-.59-1.09-.69-2.21-.45-4.33-1.28-6.6-1.41.43-.49,1-.4,1.57-.4,1.54,0,3.09-.06,4.63,0,1.41.44,3,0,4.28,1.2a2.84,2.84,0,0,1,1.05,1.61,11.85,11.85,0,0,0,2.91,5.59c.15.18.31.35.45.55,1.18,1.62,1,2.31-.7,3.39Z"/><path class="cls-20" d="M72.33,119.72a8.05,8.05,0,0,1-.7-.46c-2-1.63-2.53-1.66-4.67-.24-.36.26-.82,0-1.21.24s-.89.41-1.1-.09a.94.94,0,0,1,.59-1.15A11.15,11.15,0,0,1,68,116.95c.75-.07,1.51,0,2.27-.05,1.89,0,3.78,0,5.67,0,.56,0,1.15-.08,1.59.41-.67.53-1.46.2-2.19.26a10.62,10.62,0,0,0-2.09.23C71.62,118.26,71.61,118.23,72.33,119.72Z"/><path class="cls-61" d="M77.51,117.31l-7.44,0c.27-.92,1.07-.65,1.66-.65,3.47,0,6.93,0,10.4,0a5.4,5.4,0,0,1,2.09.22.33.33,0,0,1,.16.44Z"/><path class="cls-62" d="M84.38,117.27a2.42,2.42,0,0,1,0-.25,1,1,0,0,1,.75-.37,78.43,78.43,0,0,1,8.69.1.66.66,0,0,1,.35.39c-.13.38-.38.29-.65.18l-6.57,0Z"/><path class="cls-63" d="M42.9,152.74c.23-.55,0-1.09,0-1.64.11-.28-.09-.78.37-.81s.18.64.47.86c.46,0,.31-.4.34-.64.08-.72.46-1.18,1.17-1.17s1.59,0,1.76.85c.25,1.24,1.66.81,2.15,1.74.67,1.27,1.59.49,2.4.06.52-.27,1-.36,1.37.18.63.34,1.59.5.75,1.59-.17.22.13.67.35.88a2.09,2.09,0,0,1,.48,2.32c-.27,1,.37,1.71.83,2.48.65,1.08,0,3.59-1.07,4.19a1.42,1.42,0,0,1-2.1-.83c-.73-2.07-3.18-2.49-4-4.44-.16-.39-.74-.54-1.26-.66-.08.71.86,1,.6,1.68-.59.33-1-.09-1.33-.43-.71-.66-1.41-1.34-2.06-2.07-.73-1.13-.62-2.56-1.29-3.71A.5.5,0,0,1,42.9,152.74Z"/><path class="cls-64" d="M47.46,159.42c-.11-.68-.75-.95-1.12-1.43-.15-.21-.25-.42-.08-.64a.45.45,0,0,1,.62-.18c.76.48,2,.49,2.11,1.68s1.23,1.14,1.89,1.54c1,.65,1.06,1.87,1.87,2.61s1.77.69,2.05-.41a21.54,21.54,0,0,0,.73-2.27c.05-.41-.78-.9-1-1.55a3.29,3.29,0,0,1-.31-2.24,2.38,2.38,0,0,0-.64-2c-.24-.33-.5-.93-.41-1,1.32-.7-.3-.92-.2-1.39A2.51,2.51,0,0,0,55,150.93a6.33,6.33,0,0,1,3.13-2.53A8.68,8.68,0,0,1,59.23,153c.4,1.8.17,3.73,1.11,5.43,1.16,1.41,1.08,2.16-.23,3.32s-2.32,2.24-4,2.62c-.31.11-.64.13-.95.24-2.16.74-2.16.74-3.59-1a7.21,7.21,0,0,0-2.48-2.35C48.39,160.82,47.64,160.37,47.46,159.42Z"/><path class="cls-65" d="M59.23,153l-1.08-4.62-.59-.87c.29-.08.56.49.87,0C58.82,149.37,59.58,151.12,59.23,153Z"/><path class="cls-61" d="M67.8,117.28c-1,.6-2.35.58-3.18,2,.93-.26,1.62-.7,2.33-.27l-12.29,6.26c-2.18,1.11-2.17,1.12-.23,2.67a5.2,5.2,0,0,1,.49.5,1.57,1.57,0,0,1-1.08-.23c-2.37-1.92-3.81-1-5.59.21a8.08,8.08,0,0,1-6.44,1,6.79,6.79,0,0,0-3.05-.11c-3.3.76-7.26,0-9-3.07a1.94,1.94,0,0,1,.21-2.57,4.63,4.63,0,0,1,2.12-1.58.37.37,0,0,1,.07.27c-.83,2.7-.09,4.17,2.55,5.36a11.44,11.44,0,0,0,4.48.6,19.21,19.21,0,0,0,5.51-.28,4.68,4.68,0,0,0,2.46-1.32,5.32,5.32,0,0,1,2.27-1.41A18.74,18.74,0,0,0,56,121.11c1.36-.75,2.79-1.43,3.61-2.87a1.7,1.7,0,0,1,1.16-1,19.75,19.75,0,0,1,5.9-.63C67.16,116.68,67.72,116.61,67.8,117.28Z"/><path class="cls-66" d="M102.08,130.14c-.1-.59.31-1,.59-1.39.37-1,1.35-1.25,2.13-1.74a4.64,4.64,0,0,1,1.78-2.12c.51-.31.51-.9-.07-1.29-1.06-.71-1.94-1.66-3-2.37a5.47,5.47,0,0,1-1.91-2.41,2.26,2.26,0,0,1,.28-2.87c.61-.58.36-1.88,1.61-1.9a.79.79,0,0,1,.46.74c-1.25,2.49-.62,3.39,1.92,6.18,1.35,1.48,3.22,2.23,5,3.15a26.44,26.44,0,0,0,9,2.61,36,36,0,0,0,11.86-.51,58.59,58.59,0,0,0,6.15-1.76,15,15,0,0,0,3.72-1.42,3.16,3.16,0,0,0,1.29-1.29c.14-.31.29-.64.62-.75a4.39,4.39,0,0,0,3.07-4,1.18,1.18,0,0,1,.43-.87c.56.05.68.5.84.92a3.56,3.56,0,0,1,0,1.56,11.43,11.43,0,0,1-3.56,4,16.71,16.71,0,0,0-2.38,1.94,5.6,5.6,0,0,0,1.75.76.64.64,0,0,1,.6.91,3.35,3.35,0,0,1-.13.34c-.24.46.13.78.27,1.15s.33.76,0,1.13a.6.6,0,0,1-.55,0c-2.24-1.48-3.85.11-5.58,1.13a2.77,2.77,0,0,1-.77.43,29.46,29.46,0,0,1-5.71,1.57,3,3,0,0,1-1.53.11c-.36-.14-.69-.31-.74-.76a1.46,1.46,0,0,1,1.79-1,3.51,3.51,0,0,0,3.29-1.27c.12-.14,0,0,.1-.1a5.79,5.79,0,0,1,2.46-1.35c.88-.33.74-1.81,1.59-1.79a77.46,77.46,0,0,1-11.75,2.78c1.46.45,1.92,1.58,2.36,2.74a2,2,0,0,1-2.89-.35c-.3-.36-.79-.52-1.13-.85-.54-.53-.94-.45-1.37.15a3.4,3.4,0,0,1-4,1.35,2,2,0,0,0-1.89.15c-2.64.15-5-.89-7.37-1.81a8,8,0,0,1-2.39-1.22,1.84,1.84,0,0,0-2.23-.23c-1,.43-1.92,1-2.92,1.49C102.78,130.17,102.47,130.48,102.08,130.14Z"/><path class="cls-67" d="M87.24,139.64l.24-.36c2.56-1.55,5.11-3.13,7.76-4.53h0c1.64-1.14,3.52-1.87,5.11-3.09a3.27,3.27,0,0,1,1-.43,27.78,27.78,0,0,0,3.19-1.17,5.56,5.56,0,0,1,4.55,0,40.45,40.45,0,0,0,8.75,2.44c1.47.31,2.78,1,4.19,1.38.73.22.82,1,1,1.63.73,3.43.39,6.89.3,10.34,0,.46.08,1.1-.71,1.12a3.37,3.37,0,0,1-.35-2.19,4.53,4.53,0,0,0-.36-2.21,18.41,18.41,0,0,1-.18-2.84,3.77,3.77,0,0,0-2.89-3.77,24.54,24.54,0,0,0-4.16-1c-1.81-.19-3.45-1-5.26-1.16a4.91,4.91,0,0,1-1.8-.83,6.82,6.82,0,0,0-7.27.46c-2.32,1.49-5,2.33-7.31,3.79a31.81,31.81,0,0,1-4.55,2.58,1.74,1.74,0,0,1-.82.19C87.42,140,87.22,139.93,87.24,139.64Z"/><path class="cls-68" d="M87.24,139.64l.27.26a.56.56,0,0,1-.24.61,11.58,11.58,0,0,1-4.62,2.8,3.53,3.53,0,0,1-2.1,2,1.1,1.1,0,0,0-.71,1.24c.11.69.72.46,1.15.48a6.68,6.68,0,0,1,5.17,2.75,2.87,2.87,0,0,0,1.73,1.14,7.08,7.08,0,0,1,2.48,1.56.76.76,0,0,1,.25,1.2c-1.13,0-1.76-.83-2.49-1.43a1.72,1.72,0,0,0-2.28-.19,33.21,33.21,0,0,1-4.91,2.79c-.73.19-1.46.24-1.93-.47s.1-1.17.38-1.7c.2-.38.41-.75.6-1.14.37-.78.82-1.56.07-2.37s-1.56-.42-2.35-.06c-.22.1-.42.23-.64.31-.51.18-1.07.33-1.38-.28a1,1,0,0,1,.53-1.32c.93-.51,1.56-1.38,2.42-2l.65-.57c-.14-1.87,1.61-2,2.62-2.74,1.28-.94,2.8-1.53,4.15-2.39A1.81,1.81,0,0,1,87.24,139.64Z"/><path class="cls-69" d="M104.9,127.28a10.56,10.56,0,0,0-2.23,1.47c-.78,0-1.21.86-2,.84,2.07-2.06,2-2,.12-4.35A11.17,11.17,0,0,1,98.1,120a3.26,3.26,0,0,0-2.8-2.42c-.6,0-1.25.21-1.78-.26l.59,0c2-.79,3.91-.31,5.83.19.62.16.77.79.84,1.38a6.59,6.59,0,0,0,.84,2.84,17,17,0,0,0,2.39,3.15,9.6,9.6,0,0,1,1.15,1.35C105.48,126.69,105.47,127,104.9,127.28Z"/><path class="cls-70" d="M101.25,131.58l-.84.32a.43.43,0,0,1-.6,0c.43-1,1.57-1.1,2.28-1.74,1.31-.67,2.6-1.39,3.94-2,.81-.38,1.69-.63,2.35.33-2.17.35-3.88,1.76-5.84,2.58A9.42,9.42,0,0,0,101.25,131.58Z"/><path class="cls-71" d="M86.07,140.15c-1.62,1.54-3.73,2.32-5.53,3.59a2.75,2.75,0,0,0-1.24,1.55A14.7,14.7,0,0,0,79,142.1l.78-.16c.09.34-.47.75,0,1a1.26,1.26,0,0,0,1.31-.23A21.68,21.68,0,0,1,86.07,140.15Z"/><path class="cls-72" d="M95.25,134.75c-1.45,1.48-3.44,2.11-5.14,3.2a5.61,5.61,0,0,1-2.63,1.33c.22-.86,1.09-1.08,1.67-1.38a41,41,0,0,0,4.73-2.9A1.85,1.85,0,0,1,95.25,134.75Z"/><path class="cls-72" d="M99.8,131.88h.6a18.74,18.74,0,0,1-5.16,2.86C96.38,133.19,98.24,132.76,99.8,131.88Z"/><path class="cls-73" d="M75,147.06c-.51.54-1.33.68-1.73,1.36a1.07,1.07,0,0,1-.53.34,12.84,12.84,0,0,0-6.64,3.43,5.87,5.87,0,0,1-1.11.84l-3.13,2c-.62.39-1,.16-1.11-.49Q59.82,150,59,145.56c-.12-.62.23-1,.73-1.24,3-1.65,5.94-3.36,9-5,.87-.46,1.54-1.28,2.56-1.45.51.92,1.48,1.3,2.25,1.91C75,141,74.91,142,73.21,143c-2.82,1.57-5.5,3.38-8.39,4.81a7.47,7.47,0,0,0-2.14,1.63.78.78,0,0,0-.09,1.15c.31.34.65.21,1,.08a38.13,38.13,0,0,0,7.64-3.86c1.25-.79,2.43-.13,3.64-.09C75,146.71,75,146.92,75,147.06Z"/><path class="cls-74" d="M75,147.06a6.21,6.21,0,0,0-4.3.49c-1.91,1.07-3.6,2.78-6,2.91-.46,0-.58.45-.89.64a1.1,1.1,0,0,1-1.54-.15,1.08,1.08,0,0,1,0-1.64,20.58,20.58,0,0,1,4.87-3.15c2.18-1.24,4.37-2.48,6.51-3.78.75-.45,1-1.11.18-1.84A8.83,8.83,0,0,0,72,139.33c-.57-.3-1.06-.64-.81-1.4,1.53-.91,3.08-1.78,4.58-2.74,1-.63,1.52-.47,1.75.68a59,59,0,0,0,1,7.87c.12.92,0,1.42-.83,1.82S75.87,146.56,75,147.06Z"/><path class="cls-75" d="M56.12,164.19a17.07,17.07,0,0,0,4.19-3c1.05-.88.14-1.81,0-2.72-.43-1.54.34-2.35,1.65-3a36.19,36.19,0,0,0,3.24-2c1.08-.79,1.2-.78,1.32.43a1.53,1.53,0,0,0,1.65,1.54,8,8,0,0,0,2.93-.19,1.41,1.41,0,0,1,1.23,0c.21.62-.28.77-.66,1a14.47,14.47,0,0,1-2.35.54,4.85,4.85,0,0,0-2.9,1.65A6.62,6.62,0,0,1,63,160.85a1.27,1.27,0,0,0-1,.88c-.61,2.53-2.74,3.07-4.81,3.65-.69.19-1.46.54-2.19,0C54.69,164.33,55.65,164.5,56.12,164.19Z"/><path class="cls-76" d="M72.37,155.34a12.8,12.8,0,0,1-3.88.64c-1.87-.12-2.48-.84-2.23-2.74-.4-.15-.66.27-1,.26V153a3.54,3.54,0,0,1,2.56-1.56c.89.37,1,1.13,1.07,2,0,.51,0,1.14.66,1.28s1.26-.31,1.79-.71c.33-.24.11-.5-.07-.73a5.64,5.64,0,0,1-1-3.2c.47-1.08,1.59-1.18,2.48-1.62l.51-.07,0,.37c0,.39-.27.58-.6.76a5.52,5.52,0,0,1,1.51.06c2,.7,2.46,2.41.92,4.13A3.79,3.79,0,0,1,72.37,155.34Z"/><path class="cls-77" d="M67.8,151.61A17,17,0,0,0,65.23,153h-.29a11.13,11.13,0,0,1,7.77-4.54c-.62.79-1.72.89-2.37,1.65A3.52,3.52,0,0,1,67.8,151.61Z"/><path class="cls-78" d="M72.37,155.34a13,13,0,0,0,2.38-1.73c1.46-1.62,1.28-2.72-.67-3.71-.1-.09-.3-.26-.27-.28.29-.29,0-.57,0-.85,1.64-.92,3-2.25,4.83-2.91-.65.84-1.07,1.88-2.25,2.23a.68.68,0,0,0-.45,1c.25.36.69.24,1,0a7.52,7.52,0,0,1,1.52-.74,1.52,1.52,0,0,1,1.88.5,1.55,1.55,0,0,1,.4,1.92c-.32.69-.68,1.36-1,2-.23.47-.95.83-.48,1.46s1.12.24,1.71.2c0,.74-.62.89-1.07,1.18-3.08,2-6.26,3.77-9.34,5.73-2,1.29-2,1.32-.22,2.83.44.37,1.1.66.84,1.45-1.08.18-1.62-.77-2.43-1.15-1.36-1.29-2.27-1.43-3.82-.57a20.46,20.46,0,0,0-1.89,1.27,10.17,10.17,0,0,1-6.91,1.62c-.57,0-1.16-.13-1.31-.86.27-.51.74-.46,1.22-.48,2.5-.11,4.81-.59,6.26-3a3.47,3.47,0,0,1,2-1.26A8.93,8.93,0,0,0,69.1,158c.64-.91,1.91-1.08,2.43-2.12A.93.93,0,0,0,72.37,155.34Z"/><path class="cls-79" d="M73.82,148.76c.65.25-.1.82.27,1.14l-1.79-.11c.07-.68.72-.63,1-1Z"/><path class="cls-80" d="M136.95,73a1.5,1.5,0,0,0,0,.19c0,.59.62.61.93.93.49.5.9,1.18.43,1.72s-.93-.22-1.36-.5c-1.76-.17-2.35.67-2.56,2.72a8.87,8.87,0,0,0,.69,4.38,2.87,2.87,0,0,1-1,3.53,3,3,0,0,0-.55.79c-.45,1.09-1.66,1.4-2.3,2.3-.72,1.4-1.82,2.51-2.41,4.08-.44,1.18-2.31,1.77-3.79,1.88a3.64,3.64,0,0,0-2.8,1,2.27,2.27,0,0,1-1.61.46c-.95.85-1.4,2.19-2.82,2.57-.85.23-1.55.28-2.1-.52a.74.74,0,0,1-.06-.43c.44-.8.86-.13,1.28,0a1.33,1.33,0,0,0,1.12-1.89c-.41-1.33.29-1.63,1.23-1.44,1.48.3,1.51-.28,1.2-1.41-.13-.45-.41-1.1.3-1.35a1,1,0,0,1,1.2.53,1.58,1.58,0,0,0,2.06,1c.94-.19,1.14-1.12,1.33-1.87.57-2.29-.47-3.49-2.83-3.41a.78.78,0,0,1-.42,0c-1.84-1.25-3-.54-3.84,1.27-.1.22-.19.64-.57.49s-.25-.56-.17-.87a1.8,1.8,0,0,1,.27-.66c.87-1.09.38-1.95-.48-2.7a1.85,1.85,0,0,1-.67-1.75c.13-1.29-.94-2.12-1.41-3.18-.28-.61-.81,0-1.2-.16-.87-1,.24-.85.63-1.12h0c.43-.53.62-1-.3-1.19h0c-.65-.36-.74-.81-.23-1.36,1.58-.59,2.93-1.8,4.74-1.79.57-.17,1.16-1,1.67.08.1.51-.31.89-.36,1.36,0,.31-.13.68.15.9.13.1.25-.2.37-.32a2.8,2.8,0,0,1,1.7-.92c1.94-.45,1.94-.48.74-2-.21-1.48,1.28-1.24,1.69-1.16a16.38,16.38,0,0,0,6-.29.63.63,0,0,1,.4.09c1.4-.52,2.79-.82,4.17.11.2.13.3-.1.28-.31C136.23,72.32,136.62,72.46,136.95,73Z"/><path class="cls-81" d="M151.25,98.72V99a1,1,0,0,0,.9.81c.18.64-.6.93-.56,1.62A27.74,27.74,0,0,0,156,99a5.68,5.68,0,0,1,2.57-1.09.85.85,0,0,1,.36.17c.05.88-.72,1-1.26,1.31a11.48,11.48,0,0,0-1.94,1.15,3.37,3.37,0,0,1-.33.23,42.88,42.88,0,0,1-3.68,2.4,1.36,1.36,0,0,0-.71.85,16.28,16.28,0,0,0-.84,3.3,2.14,2.14,0,0,0,1.13,2.38,3.56,3.56,0,0,1,2,2.73c.1.7.79,1.06,1.07,1.61.49,1,.94,1.68,2.2,1.68.52,0,.44.5-.05.73-2,.24-4.1.06-6.15.11a1.87,1.87,0,0,1-1.27-.33c-.68-1.32-.25-2.73-.38-4.1a7.42,7.42,0,0,0-.24-1.88c-.55-1.46.56-2.71.63-4.15A30.2,30.2,0,0,1,141,111a.78.78,0,0,0-.26.11c-2.51,2.19-5.63,1.71-8.6,2.14a55.36,55.36,0,0,1-9.53.4,44.25,44.25,0,0,1-9-1.48c-1.16-.27-1.2-1-.24-2.13.67-.45.84-1.25,1.28-1.85.37-.43.6-1,1.2-1.19a5.74,5.74,0,0,0,1.74-.59.92.92,0,0,1,.95-.14c1.73,1.1,3.73.77,5.55.8,3,0,6.07.23,9-.63,1.48-.43,3-.39,4.49-.73a19.14,19.14,0,0,0,6.68-2.72c.65-.44,1.67-.38,2-.9.81-1.12,2.36-1.42,2.85-2.9a1.56,1.56,0,0,1,2-1.05Z"/><path class="cls-82" d="M115.8,98.32a2.46,2.46,0,0,0,3.56-.9c.31-.47.64-.94,1.3-.95-.28.48.68,1.18-.77,1.59,1.13.08,1.66.25,2.07-.6s1.11-1,1.58,0c.33.72.74.74,1.34.32a2.4,2.4,0,0,1,3-.08c.38.28.86.39,1.17,0a2,2,0,0,1,2.18-.49,3,3,0,0,0,3-.6,2.15,2.15,0,0,1,1.43-.58c2.43.11,4.38-1.2,6.44-2.13s4.54-1.56,5.41-4.25c.26-.79,1.12-1.38.89-2.39a.44.44,0,0,1,.33-.55c.36-.08.49.21.63.46a9.12,9.12,0,0,1,1.6,4c.24.35.12.73.11,1.1a1.84,1.84,0,0,0-.6,1.37c-.21,2.58-1.83,4.28-3.69,5.84s-4.24,2.3-6.33,3.51a12.39,12.39,0,0,1-5.53,1.13c-1.7.09-3.41.28-5.09.36-2.29.11-4.79.45-6.89-1.12-.66-.49-1.37-.16-2.07-.08-1.09.12-2.15.14-2.49-1.3-.37.19-.38.62-.64.87-.52.49-1,.43-1.24-.18a18.84,18.84,0,0,0-1.49-2.4C114.81,99.53,114.88,98.76,115.8,98.32Z"/><path class="cls-83" d="M115.26,100.44a3.15,3.15,0,0,1,1.35,1.84c.05.28.19.79.52.73a.91.91,0,0,0,.67-.83c0-.46,0-1.13.65-1s.33.7.34,1.16c0,1,1.06.87,1.52.77,1.4-.32,2.59-.5,3.78.67.43.43,1.42.34,2.18.43,3.21.37,6.38-.27,9.55-.45,2-.12,4.4-.17,6.16-2,.77-.81,2.3-.88,3.39-1.58a10.33,10.33,0,0,0,4.51-5.19,6,6,0,0,0,.21-1.82c0-.55.15-1,.85-.66a1.65,1.65,0,0,1,.29,1.72c-.27,1.33.82,2.66,0,4-.95.51-2.29.68-1.88,2.32.16.63-.39.6-.71.48-.76-.3-1,0-1.2.71-.09.37-.29.78-.69.85-2.34.42-4,2.18-6.29,2.86a21.46,21.46,0,0,1-4.4,1c-1.72.14-3.32.79-5,.89a38.31,38.31,0,0,1-8,.11c-.86-.13-1.95.37-2.49,0-1.67-1-3.21-.25-4.8-.11-.26-.32-.12-.63.07-.9,1-1.41.48-2.75-.18-4.08C115.38,101.72,114.65,101.23,115.26,100.44Z"/><path class="cls-84" d="M147,77.33c1-.3,4.43.71,5,1.46.32.45-.07.6-.34.75-1.38.74-2.78,1.45-4.16,2.19-.57.3-.77-.1-1-.45a7.27,7.27,0,0,0-1.44-1.74c-.84-.71-.58-1.22.28-1.67A6.93,6.93,0,0,1,147,77.33Z"/><path class="cls-85" d="M147,77.33a13.68,13.68,0,0,1-1.7.94c-.8.31-.63.75-.29,1.27-1.08-.65-1.39-2.09-2.66-2.54-.86-.66-1.89-1.14-2.3-2.26l2-.92c-.57,1.09-.4,1.63,1,1.52a3.61,3.61,0,0,1,2.69,1.19A2.18,2.18,0,0,0,147,77.33Z"/><path class="cls-6" d="M140.1,74.74a7.31,7.31,0,0,1,2.3,2.26c-1.5.17-2.88-.84-4.45-.46-.39.09-.93-.58-1-1.22.46-.08.72.39,1.14.44.3-1.12-.48-1.52-1.22-1.86s-.37-.53.08-.72l2.84,1.46Z"/><path class="cls-86" d="M131.26,89c.29-1.25,1.29-1.77,2.3-2.3a6.93,6.93,0,0,1-2.67,4.71c0-.76.55-1.21.74-1.8C131.77,89.21,131.77,89,131.26,89Z"/><path class="cls-23" d="M151.25,94.15a5,5,0,0,1-.29-1.72V91.29C151.16,92.24,152.33,93.08,151.25,94.15Z"/><path class="cls-63" d="M195.24,90.39c-2.51,1.38-4.9,3-7.26,4.57a1.42,1.42,0,0,1-.73.37,3.41,3.41,0,0,1-1.83-.39c-.74-.42-1.56-.67-2.31-1.05-1.19-.6-1.27-1.33-.19-2.11s2.59-1.54,3.83-2.39c1.49-.81,2.95-1.68,4.5-2.37.95-.56,1.78-.16,2.64.27s1.47.61,2.2.91c1,.49,1.12,1,.05,1.57A8.23,8.23,0,0,0,195.24,90.39Z"/><path class="cls-87" d="M177.24,82.94c-.62.82,0,1.8-.32,2.66-.49,1.16.14,2.36-.13,3.53,0,1.93-.47,3.63-2.3,4.66-2,1-3.85.3-5.62-.74-1-.48-1.68-1.64-3-1.45-1.15-.62-2.66-.72-3.21-2.21a.45.45,0,0,1,.59-.23,8.57,8.57,0,0,0,6.4-.52,3,3,0,0,1,3,.07c.16.11.74-.78,1.33-1,.24-.11-.15-.59-.53-.57s-.56-.2-.44-.5c.52-1.31.13-3,1.68-3.87.4,0,.86.11,1.14-.34s.57-1.18,1.21-.89C177.5,81.71,177.17,82.44,177.24,82.94Z"/><path class="cls-36" d="M162.89,84.44l-.27,2.27c-1.2.68-1.46,1.58-1.39,3a11,11,0,0,0,1,4.13c-.09.75-.68,1-1.25,1.36-.35.13-.7.29-1.06,0a7,7,0,0,1-.77-8.71,3.09,3.09,0,0,1,1.78-1.35C161.63,85,162.23,84.66,162.89,84.44Z"/><path class="cls-83" d="M162.89,84.44a4,4,0,0,1-1,.77,3.79,3.79,0,0,0-2.67,2.06,7.63,7.63,0,0,0-.13,6.44c.23.53,1,.77,1,1.47,0,.1,0,.21-.08.26a39.89,39.89,0,0,1-7.42,4.57.5.5,0,0,1-.52-.12c-.62,0-.91-.25-.84-.88.31.16.76.8.87.46.44-1.38,2-.94,2.71-1.84a3,3,0,0,1,1.9-1.15c.58-.07.86-.32.81-.92,0-.09,0-.25,0-.28,1.87-1.13.29-2-.21-3-1.18-2.29.92-7,3.87-7.55a4.41,4.41,0,0,0,1.71-.9Z"/><path class="cls-88" d="M162.19,93.89c-2-1.47-1-3.76-1.41-5.65-.2-.93.82-1.5,1.85-1.53a9,9,0,0,1-.25,2.29,5.26,5.26,0,0,0,.88,2.28c.46.82.71,1.65-.13,2.42C162.85,93.92,162.56,94.13,162.19,93.89Z"/><path class="cls-89" d="M163,93.55c.85-.92.28-1.86-.27-2.48a2.05,2.05,0,0,1-.35-2.06l.26.37c.82,1,2.1,1.29,3.13,2,.49,1-.47,1.15-1,1.58C164.2,93.09,163.84,94,163,93.55Z"/><path class="cls-90" d="M177.25,78.72c2.5-1.15,4.8-2.63,7.21-3.95.57-.31,1.26-1,1.73-.72s.17,1.29,0,2c-.05.23-.08.47-.11.7-.28,1.32-.58,2.64-.83,4-.17.93-.19,2-1.38,2.15-3.07.39-3.55.16-4.15-1.64,0-.08-.12-.14-.19-.2-1.11.49-1.69-.62-2.56-.85C176.91,79.65,176.8,79.13,177.25,78.72Z"/><path class="cls-91" d="M177,80.16c1-.24,1.63.8,2.56.85-.09,1.25-1.2,1.3-2,1.72C177.51,81.83,177.68,80.9,177,80.16Z"/><path class="cls-92" d="M191.25,87A22.24,22.24,0,0,1,187,89.58c-1.81.4-1.88.35-1.79-1.37.08-1.51,0-1.61-2.26-1.8a1.23,1.23,0,0,1-.37-.19.89.89,0,0,1-.13-1.16,7.94,7.94,0,0,1,2.23-1.53c-.2,1,.09,1.59,1.2,1.45a4.43,4.43,0,0,1,3.44,1.47A2.18,2.18,0,0,0,191.25,87Z"/><path class="cls-93" d="M178.88,86.4c.63-.49,1.21-1.13,2.15-.8.49.36,1.2.09,1.65.56h0c.7.21,1.54.28,1.61,1.27s-.62,1.4-1.34,1.8a4.12,4.12,0,0,1-.92.35,6.1,6.1,0,0,1-3.22-.15.49.49,0,0,1-.18-.37c.32-.57,1.29-.16,1.44-.93C180.24,87.19,179.7,86.68,178.88,86.4Z"/><path class="cls-87" d="M178.88,86.4c1.79-.62,1.54.89,1.58,1.71.08,1.31-1.07.75-1.75.87-1-.77-.7-1.57-.07-2.39Z"/><path class="cls-93" d="M178.65,86.59a2.83,2.83,0,0,0,.06,2.39l0,0c-.11.1-.3.19-.38.1-.61-.68-1.24-.5-1.89-.1.43-1.11-.48-2.41.51-3.44l.12,1.55C177.72,87.26,178.09,86.65,178.65,86.59Z"/><path class="cls-94" d="M182.68,86.16c-.55-.18-1.36.38-1.65-.56l1.41-.52Z"/><path class="cls-95" d="M141.31,169.35c1.4.39,2.31,1.55,3.5,2.27.44.26.85.56,1.28.84,2.1,1.53,2.08,1.92,0,3.57q-1.9,1.49-3.7,3.1a3.84,3.84,0,0,1-.47.38,31.63,31.63,0,0,0-3.55,2.77,3.55,3.55,0,0,1-.45.37c-.84.59-1.61,1.26-2.41,1.9a3,3,0,0,1-.32.24c-1.22.75-2.16,1.85-3.38,2.6a2.18,2.18,0,0,1-2.65.13c-1.37-1.17-2.82-2.24-4.25-3.35s-1.37-1.62-.09-2.7c2-1.65,4.05-3.13,6.06-4.72,1.68-1.32,3.46-2.51,5.09-3.89,1.28-.87,2.53-1.79,3.76-2.75A3.39,3.39,0,0,1,141.31,169.35Z"/><path class="cls-96" d="M141.31,169.35l-5.14,3.71a30.71,30.71,0,0,0-4.45,2.5c-.38.26-.79.72-1.26.35s-.1-1,.09-1.42a23.89,23.89,0,0,1,2-3.28,7.71,7.71,0,0,0,.59-1,2.32,2.32,0,0,0-.26-2.78c-.79-.74-1.75-.49-2.65-.06s-1.42,1.15-2.41,1.12c-1.66-.31-1.86-.54-1.43-1.65,1.76-1.14,3.19-2.73,5.11-3.66a.42.42,0,0,1,.36.15c-.1,1.34.28,1.63,1.78,1.48,2.13-.21,3.85,1.26,5.12,2.81A4.43,4.43,0,0,0,141.31,169.35Z"/><path class="cls-97" d="M131.82,163.36l-.31,0c-.31,0-.36-.16-.36-.4.77-3,.54-6.11.55-9.17,0-1-.51-.84-1.07-.43-1.81,1.3-3.64,2.56-5.45,3.84-2.87,2-5.66,4.08-8.57,6a2.45,2.45,0,0,0-1.27,2.59,6.59,6.59,0,0,1-.15,2c-.18.35-.32.74-.83.69a3.3,3.3,0,0,1-.61-1.73,10.85,10.85,0,0,0-.08-1.56,2.33,2.33,0,0,1,1.26-2.85c2.26-1.49,4.43-3.12,6.71-4.6a9.91,9.91,0,0,0,1.5-1.15c.36-.23.76-.38,1.1-.63a8.54,8.54,0,0,0,1.16-.85,3.86,3.86,0,0,1,.44-.35,8,8,0,0,1,1.9-.91c.18-.46.86-.31,1-.83a12.57,12.57,0,0,0,2.88-1.74c.69-.49,1.12-.52,1.1.52-.09,3.46-.19,6.92-.25,10.37A1.23,1.23,0,0,1,131.82,163.36Z"/><path class="cls-98" d="M127,191a5,5,0,0,1,.7-2.49c.3-.65.88-.59,1.46-.46a3.19,3.19,0,0,0,3.13-.88c1-1,2.27-1.56,3-2.8h0a8.86,8.86,0,0,0,2.57-2.08l.26-.2a23.68,23.68,0,0,0,3.74-2.94L142,179c.85-.24,1.37-1.2,2.38-1.1.31,1.28-.94,1.71-1.54,2.06a28,28,0,0,0-3.53,3c-1.34,1.09-2.78,2.06-4.07,3.23s-3.42,2-5.08,3C129.13,189.85,128,190.41,127,191Z"/><path class="cls-99" d="M144.39,177.89A4.88,4.88,0,0,1,142,179c1.54-1.25,3.09-2.49,4.61-3.76,1.32-1.1,1.31-1.18-.06-2.28a6,6,0,0,1-.48-.49c2.28.89,2.42,1.74.58,3.32C145.89,176.46,145.15,177.19,144.39,177.89Z"/><path class="cls-100" d="M188.17,152.38a4.74,4.74,0,0,1,2.23-1.89c-.31.2.38,1-.52.87a.35.35,0,0,0-.36.56.46.46,0,0,0,.74.07c.51-.59,1.33-.44,1.93-1,.86-.83,2.43-.23,3.4,1.16a6.92,6.92,0,0,1,1.24,4.23c1-.27,2.13-.27,2.74-1.38.38-.7.91-.51,1.45-.2-2.79,2.76-5.92,5.14-8.83,7.76-.77.7-1.56,1.38-2.34,2.07s-.68,1.15.17,1.66c1.13.68,2.22,1.43,3.32,2.15-.82.3-1.22-1-2.09-.53h-.57a20.79,20.79,0,0,1-2.16-1.08c-1.13-.77-1.9-.63-2.58.61-1.23,2.25-3.38,2.59-5.58,2.82-.45,0-1,.05-1.18-.55.71-.72,1.71-.73,2.6-1,1.3-.41,2.56-.72,2.47-2.56,0-.82.79-1.29,1.46-1.62a5.11,5.11,0,0,0,2.92-4.1c.22-1.48,1.54-2.37,2-3.73.76-2.08.46-2.82-1.55-3.72C188.76,152.8,188.35,152.78,188.17,152.38Z"/><path class="cls-63" d="M162.9,148.45l.12-1.71c.35.06.68-.42,1.05,0,2,2.07,4.67,3,6.95,4.61,1.7,1.19,3.5,2.25,5.21,3.43a1.75,1.75,0,0,0,1.59.28,7,7,0,0,1-.31,2.77,4.64,4.64,0,0,0,.38,3c.28.5.18.86-.21,1.45a10.08,10.08,0,0,0-1.46,4.13c0,.29.35.41.51.64-.73,1.25-1.43,1.46-2.74.59-1.65-1.1-3.39-2.09-5-3.24-1.85-1.32-3.75-2.56-5.67-3.78a3.43,3.43,0,0,1-1.84-3.79,46.6,46.6,0,0,0,.57-4.66c.22-.76.06-1.62.64-2.28A2.46,2.46,0,0,0,162.9,148.45Z"/><path class="cls-101" d="M192.88,171.06l0,1.35a2.75,2.75,0,0,1-3.44-1.09c-.48-.75-.17-1.24.44-1.68A3.16,3.16,0,0,1,192.88,171.06Z"/><path class="cls-102" d="M83.52,93.57a15.15,15.15,0,0,0-6.68,1.07,32.2,32.2,0,0,1-15.21,1.88c-2.77-.33-5.62,0-8.42-.12A12.63,12.63,0,0,1,47,94.64c-2.6-1.65-2.75-4-.46-6a1.49,1.49,0,0,0,.66-1.35c-.45-1.78.8-3.43.35-5.19a24.46,24.46,0,0,1,.86,4.58A2.21,2.21,0,0,1,48.21,89c-.81,1.28-.66,1.9.42,3a8.8,8.8,0,0,0,5.7,2.57,15.51,15.51,0,0,0,4,.17h2.28c1.33.62,2.71.17,4,.06a42.29,42.29,0,0,0,12.06-3.15,3.65,3.65,0,0,1,2.76-.18c1.07.41,2.27.22,3.28.84C83.27,92.6,83.86,92.81,83.52,93.57Z"/><path class="cls-103" d="M58.37,94.72c-4,.91-8.15-.11-10.6-3.06a2,2,0,0,1,0-2.73,2.43,2.43,0,0,0,.64-2.28L49,87.79a2.27,2.27,0,0,0,.59,2.32C51.81,93,54.92,94.17,58.37,94.72Z"/><path class="cls-104" d="M40.95,127.88c-.45,0-.89-.05-1-.61s.37-.44.65-.59c1.18-.64.58-1.78.44-2.54a33.49,33.49,0,0,0-1.17-4.68,16,16,0,0,1-.59-2.07c-.11-.59-.32-1.17.68-1.39a3.91,3.91,0,0,0,2.08-1.84c.52-.25,1.2-.24,1.48-.89.72.16.73.8.88,1.33.57,2.06.85,4.19,1.36,6.26a7.83,7.83,0,0,0,.26,1.31c1,3.52,1.07,2.72-2,4.85A5.25,5.25,0,0,1,40.95,127.88Z"/><path class="cls-105" d="M45.53,121c-.49-2.09-1-4.17-1.48-6.25-.12-.49-.33-1-.49-1.45l-.3-.58c.28-.09.53.46.82,0,.61,0,.6.52.68.91q.67,3,1.28,6C46.15,120.12,46.36,120.78,45.53,121Z"/><path class="cls-106" d="M56.35,121.27a17.25,17.25,0,0,1-6.78,4.42,5.56,5.56,0,0,0-2.34,1.5c-1.35,1.47-3.3,1.63-5.1,1.63-1.55,0-3.12-.05-4.68-.08a6.79,6.79,0,0,1-5.07-2.12c-1.53-1.6-1.63-2.68-.32-4.48v-.55l.29.28c.74,3.41,3.13,5,6.27,6a4.14,4.14,0,0,0,2.86.23c2.06-.42,4.3-.47,5.5-2.67,2.58-1,4.59-3.14,7.3-3.93a4.62,4.62,0,0,0,.8-.28A1.08,1.08,0,0,1,56.35,121.27Z"/><path class="cls-107" d="M41.5,128.44a9.54,9.54,0,0,1-8.06-3.3c-.87-1-1.48-1.92-1.09-3.26q3.36,2.86,6.71,5.73c.58.5,1.15.87,1.88.28l2.87-1a.33.33,0,0,1,.33.21C43.61,128.21,42.45,128.12,41.5,128.44Z"/><path class="cls-108" d="M52.34,131.83a2.37,2.37,0,0,0-.28-.05c-.79-.05-1.43-.31-1.46-1.23,0-.65.44-.85,1-1a1.21,1.21,0,0,1,1.61.75c.32.83-.27,1.2-.89,1.52Z"/><path class="cls-109" d="M115.26,100.44a.93.93,0,0,0,.13.82c1.56,1.92,2,3.92.39,6l-.85,1.11c-.63-.16-.61.47-.86.75a3.39,3.39,0,0,1-1.91,1.15c-.39.08-.91-.09-1-.45-.23-1.93-1.88-1.88-3.13-2.16s-2.47-1.31-3.94-.79a.42.42,0,0,1-.47-.26c-.33-1.81-2.23-2.21-3.14-3.49a3.92,3.92,0,0,1-.34-.46,1.26,1.26,0,0,1,1.14-1.64,4.7,4.7,0,0,0,3.33-2.59c1.35-.32,2.74-.54,3.66-1.77a.79.79,0,0,1,.93-.17c1.32.54,2.48-.08,3.68-.43l0,0a15.29,15.29,0,0,1,2.83,2.07l0,.12A2.62,2.62,0,0,0,115.26,100.44Z"/><path class="cls-110" d="M104.68,98.47a4.1,4.1,0,0,1-3,2.85c-.7.17-1.41.42-1.21,1.41a12.91,12.91,0,0,1,1.4,3.34c0,.46.11,1.08-.45,1.19s-.63-.49-.84-.84a9.79,9.79,0,0,1-1.2-2.06.84.84,0,0,1-.06.68c-.79.12-.89-.51-1-1a2.52,2.52,0,0,0-1.32-1.84c-.79-.23-1.14-1-1.76-1.44a.87.87,0,0,1-.25-.29c-.12-.82-1.33-.61-1.41-1.48.91-.33,1.48.37,2.16.72s1.18.74,1.86,1.1c.34-.72-.58-1.12-.33-1.73.8,0,1.05-.49.8-1.11-.36-.88.17-1.67.11-2.5a.71.71,0,0,1,.37-.54c.35-.15.47.21.6.45a4.36,4.36,0,0,1,.68,1.4c.2,1.84,2,2.21,2.93,3.42.27.36.42,0,.65-.18C104,99.6,103.82,98.58,104.68,98.47Z"/><path class="cls-111" d="M97.23,99c.15.18.29.37.45.53.44.47.84,1.12.4,1.59s-.89-.22-1.32-.45A18.23,18.23,0,0,0,93.54,99a67.25,67.25,0,0,0-6.9-4.23.25.25,0,0,1-.07-.22c0-.08,0-.12,0-.11.67-.08,0-1,.59-1.06l1.43.5A68.57,68.57,0,0,0,97.23,99Z"/><path class="cls-46" d="M112.95,93.58a1.57,1.57,0,0,0-1.42.42.73.73,0,0,1-1.21.07c-.47-.51-.06-.83.38-1.08.78.1,1.83-.91,2.26.56Z"/><path class="cls-112" d="M113,93.55c-.58-.89-1.49-.45-2.26-.56.24-.45.89-.06,1.12-.53a4.31,4.31,0,0,1,2-.31c.62.75.62.79,0,1.14Z"/><path class="cls-113" d="M99.23,89a7.27,7.27,0,0,1,1.59-4,18.42,18.42,0,0,1-1.57,4.59A.44.44,0,0,1,99.23,89Z"/><path class="cls-114" d="M99.23,89l0,.61L98.92,91A2,2,0,0,1,99.23,89Z"/><path class="cls-115" d="M87.21,93.34c0,.17-.15.41-.07.51.76,1-.12.58-.5.6-1,.2-1.47-.66-2.13-1.06-1.29-.79-2.84-1.17-3.88-2.37l-.82-.84c.46-.14,1-.19,1.12-.8,1.21.52,2.12,1.56,3.41,1.94Z"/><path class="cls-116" d="M80.63,91c2.1,1,4,2.29,6,3.43a1.16,1.16,0,0,1,0,.28c-1.21.07-1.85-1.41-3.12-1.16a1.82,1.82,0,0,0-1.93-1.29,6.75,6.75,0,0,1-1.73-.34,4.62,4.62,0,0,0-3.26.19c-4.72,1.83-9.53,3.34-14.69,3.17-.48,0-1.1.22-1.25-.56,2.88,0,5.54-1.11,8.25-1.89,2.35-.68,4.59-1.71,6.91-2.51a4.94,4.94,0,0,1,2.82.13A13.58,13.58,0,0,0,80.63,91Z"/><path class="cls-117" d="M131.28,73c-2.06.55-4.1,1.09-6.27.45-.38-.11-1.71-.45-1.47,1-.66.5-1.26.68-1.7-.26,0,0,0-.36-.07-.1s-.94.11-.74.79c.14.5-.06.81-.62.81-.25-1.17-1.06,0-1.49-.35.07-.2.22-.34,0-.61-.47-.63-.46-1.07.46-1.42a31.62,31.62,0,0,1,3.28-1.09c.43.12,1-.25,1.28.27.19.35-.37.46-.47.79.61.14,1-.24,1.35-.58s.4-.36.57.24.5.49.74.2c.76-.92,1.83-.76,2.81-.92.1.46,0,1.16.85.77A1.42,1.42,0,0,1,131.28,73Z"/><path class="cls-118" d="M115.52,92.5l-.14,0h-.14c-.32.13-.75,0-.56-.27a2.45,2.45,0,0,0,.59-1.76h0c.6-.29.73-.87.89-1.43.27,0,.77,0,.72.23-.35,1.7,1,1.61,2,2a.68.68,0,0,1,.21.18s0,.08,0,.16c-.67.75-1.78-.4-2.41.52C116.31,92.36,116,92.76,115.52,92.5Z"/><path class="cls-82" d="M115.83,98.21c-.56,0-1.16,0-1.34-.71s-1.23-.65-1.49-1.36c.54.31,1.26.11,1.72.77.35.5.75,0,1-.31a1.65,1.65,0,0,1,1.17-.7c.24,0,.51,0,.57.29s-.22.26-.4.37c-.75.45-.29,1-.1,1.57C116.59,98.33,116.15,97.53,115.83,98.21Z"/><path class="cls-119" d="M115.26,90.46c-.06.56.58,1.23-.37,1.67-.26.12.17.27.34.36-.44.34-.55,1.27-1.43.81.5-.38-.09-.76,0-1.14C113.24,91.18,113.24,91.18,115.26,90.46Z"/><path class="cls-120" d="M113.49,79c-.52.42-1.12.29-1.81.33.15-.77.81-.86,1.27-1.17C113.91,77.93,113.7,78.46,113.49,79Z"/><path class="cls-119" d="M115.52,92.5l1.15-.35a4.35,4.35,0,0,0-.22.51c-.12.42-.06,1-.76.9C114.79,93.38,116.07,92.78,115.52,92.5Z"/><path class="cls-121" d="M113.49,79c0-.43,0-.81-.54-.84.32-.46.61-1,1.23-1.1a1.38,1.38,0,0,0,.23,1.36C114,78.39,113.83,78.85,113.49,79Z"/><path class="cls-119" d="M116.15,89c.7,1.1-.12,1.25-.89,1.43C115.68,90.07,115.17,89.08,116.15,89Z"/><path class="cls-121" d="M114.69,79.61c-.2.38-1.09.37-.63,1.12-.48-.07-1.06-.32-.87-.8S114.16,79.63,114.69,79.61Z"/><path class="cls-121" d="M114.39,78.41c.53,0,1.09-.14,1.64.3l-1.34.89A1.14,1.14,0,0,0,114.39,78.41Z"/><path class="cls-122" d="M136.95,73a1.63,1.63,0,0,0-1.22-.21,11,11,0,0,0-3.11-1.7c.89-1.1,1.8-.15,2.68,0a8.71,8.71,0,0,1,1.68.74C137.92,72.24,137.54,72.61,136.95,73Z"/><path class="cls-123" d="M177.84,118.43l-1.46,0c-5.88,0-11.76,0-17.65,0a4.87,4.87,0,0,0-4.8,3,46.46,46.46,0,0,1-3.84,6.43,2.18,2.18,0,0,0,0,2.83l-.55,0a6.58,6.58,0,0,1-3.36-2c-1-1.06-1.07-1.63,0-2.94a22.87,22.87,0,0,0,2.35-3.22,24.56,24.56,0,0,0,1.36-2.67,3.11,3.11,0,0,1,3.18-2.15c7.72,0,15.43,0,23.15,0C176.78,117.78,177.58,117.49,177.84,118.43Z"/><path class="cls-124" d="M208.66,125.55a2.8,2.8,0,0,1-2.73-.69c-.26-.23-.47-.5-.3-.85a.86.86,0,0,1,.67-.45,1.78,1.78,0,0,1,2.36,2Z"/><path class="cls-123" d="M152.91,132.54a8.45,8.45,0,0,1-2.83-1.79A4.38,4.38,0,0,1,152.91,132.54Z"/><path class="cls-125" d="M179.29,148.64l-1.8-1.3c1.22-.57,2.53,0,3.77-.31-.51.66,0,1.71-.81,2.25C180,149.17,179.48,149.21,179.29,148.64Z"/><path class="cls-126" d="M138.1,129.85c.88-1.52,3.69-2.38,5.13-1.59a11.41,11.41,0,0,0,1.15.48c1.71.66,3.45,1.25,4.57,2.85.43.58,1.18.5,1.72.85.64.68,1.63.8,2.28,1.45,2.5,1.44,4.76,3.28,7.36,4.56a1,1,0,0,1,.67.82.61.61,0,0,1-.36.2c-2.07-.47-3.54-2.09-5.47-2.84-2.88-2.21-6.18-3.73-9.19-5.72-.49-.38-1.06-.62-1.56-1-1.5-1.1-3-1.46-4.71-.34A1.5,1.5,0,0,1,138.1,129.85Z"/><path class="cls-127" d="M149,131.59c-1.16-.69-2.31-1.38-3.48-2-.4-.23-.88-.33-1.09-.81a2,2,0,0,1-.28-1.15c.5-.19.84.2,1.25.34.4.32.9.48,1.31.8l2.88,2C149.35,131,148.92,131.15,149,131.59Z"/><path class="cls-128" d="M160.63,139.33l.36-.05a23.65,23.65,0,0,1,5.66,3.07,3.18,3.18,0,0,0,1.46.43l-1.21.76c-2.19-.89-4-2.44-6-3.59A.57.57,0,0,1,160.63,139.33Z"/><path class="cls-127" d="M153,133.9a3.61,3.61,0,0,1-2.28-1.45C151.45,132.91,152.69,132.64,153,133.9Z"/><path class="cls-129" d="M146.66,128.73l-1.41-.58c-.38-.64-1.71-.48-1.41-1.69h0c1.46-1.66,3.26-3.06,3.91-5.34a4.73,4.73,0,0,0,.25-1.52,2.63,2.63,0,0,1,.41-1.86,1.81,1.81,0,0,1,.75-.28c8.56,0,17.12,0,25.67,0,1,0,2,0,3,0a1.81,1.81,0,0,1,1.46.41.51.51,0,0,1,0,.53h-1.41c-.4-.38-.9-.25-1.36-.25l-23.52,0a2.73,2.73,0,0,0-2.83,2.06,15.67,15.67,0,0,1-2.91,5c-.15.18-.34.33-.5.51C145.5,127,145.49,127.55,146.66,128.73Z"/><path class="cls-130" d="M179.25,118.42v-.31c.83-.59,1.75-.3,2.64-.27a20.83,20.83,0,0,1,5.58,2.41,16.34,16.34,0,0,0,6.15,2.06,12.11,12.11,0,0,0,3.06-1.29h0a9,9,0,0,0,1.73-3.15,2.35,2.35,0,0,1,.53-1.75c1.65.82,1.75,1.18.74,2.64-.27.39-.69.74-.67,1.22.08,1.87-1.21,2.36-2.63,2.75-2.12,0-4.29.43-6.33.17a12.78,12.78,0,0,1-7.27-3.18A5.7,5.7,0,0,0,179.25,118.42Z"/><path class="cls-131" d="M196.4,122.73c.54-.37,1.07-.75,1.63-1.09.34-.21.77-.47.62-.84-.44-1.12.34-1.78.9-2.45.71-.84.75-1.35-.36-1.76-.12,0-.16-.32-.23-.48a2,2,0,0,1,.45-1.51c1.41,1.89,3.36,1.48,5.28,1.25a3.11,3.11,0,0,0-1.71,1.67,5.1,5.1,0,0,1-1.83,1.94,4.15,4.15,0,0,0-1.42,1.82C199.13,122.62,197.82,123,196.4,122.73Z"/><path class="cls-132" d="M183.23,107.58c.66-1,.38-2.24,1.12-3.16a48.9,48.9,0,0,0,6.79,3.64c1.82.85,3.45,2.18,5.54,2.38a12.38,12.38,0,0,0-.91,2.83c-.29,1,0,1.27,1,1a1.31,1.31,0,0,1-.67,1.1c-.61.39-.68.77-.61,1.51.1,1.25-.77,2.28-1.37,3.33-.26.45-.76.15-1.1-.17a13.4,13.4,0,0,0-5.8-3.41,1.63,1.63,0,0,1-1-.91c-.48-1.85-2.36-2.58-3.17-4.13-.74-.91.08-1.9-.15-2.84A1.73,1.73,0,0,1,183.23,107.58Z"/><path class="cls-133" d="M183.28,108.72l-.29,2.86-.32.57c-.78.9-1.81,1.55-2,3a2.31,2.31,0,0,1-1.62,1.67c-4.88.2-9.76,0-14.64.07a8.21,8.21,0,0,1-3-.18.53.53,0,0,1-.3-.39c.48-.75,1.26-.53,1.94-.54,3.46,0,6.93,0,10.39,0,2.27,0,2.64-.32,3.13-2.57a4,4,0,0,1,2.19-2.66A27,27,0,0,1,183.28,108.72Z"/><path class="cls-134" d="M182.11,118.15l-2.85,0a3.2,3.2,0,0,0-1.81-.2l-28.5-.06c-.24-.19-.69-.11-.71-.58a1.31,1.31,0,0,1,1-1.14l1.14.09a1.76,1.76,0,0,0,.35.28,2.88,2.88,0,0,0,1,.11c7,0,14,.44,20.94.27,2.76-.06,5.5.17,8.26.27,0,0,.45.24.22-.17,0-.08-.14-.13-.19-.21.12-.77.74-1.05,1.33-1.36,0,.66.13,1.18,1,1.11,1.18-.1,2,.33,2.18,1.64C184.36,118.86,183.23,118.25,182.11,118.15Z"/><path class="cls-135" d="M182.11,118.15h3.38l6.83,3.55a2.58,2.58,0,0,0,1.45.48c.11,0,.16,0,.16.1s0,.12,0,.12a13.89,13.89,0,0,1-5-1.12C186.61,120.3,184.61,118.68,182.11,118.15Z"/><path class="cls-136" d="M182.3,115.41c-.16.69-.45,1.23-1.3,1.12a1.05,1.05,0,0,1-1.47-.11c.29-1,1.41-1.54,1.06-2.87-.08-.29,1.22-1.13,2.09-1.39C182.82,113.27,182.28,114.31,182.3,115.41Z"/><path class="cls-132" d="M198.42,117.87c.1,1.42-.78,2.3-1.73,3.15A17.64,17.64,0,0,1,198.42,117.87Z"/><path class="cls-132" d="M193.88,122.41l-.11-.22a10.14,10.14,0,0,1,2.92-1.18C196,122,194.82,122,193.88,122.41Z"/><path class="cls-137" d="M176.73,167c-.78.09-1-.16-.93-1,.16-1.28,1.3-2.29,1-3.69a.14.14,0,0,1,.06-.12c1.56-.68.31-1.53.23-2.38a9.6,9.6,0,0,1,.76-4.82h0c.6-.44,1.37-.25,2-.57a6.71,6.71,0,0,0,2.28-2.88c.27-.62.41-.56.59,0,.63.88,0,1.71-.1,2.57-.07.4-.31.91.12,1.17s.64-.27.93-.48a10.56,10.56,0,0,1,2.49-1.8c.76,0,1.1-1.26,2.05-.67a4.1,4.1,0,0,1,2.2.8c1.16.81,1.32,1.82.61,3.59-.68.81-1.25,1.74-2.4,2a5.43,5.43,0,0,1-2.13.37,5.33,5.33,0,0,1-3.13-1.13c-.84-.78-1.14-.23-1.29.53-.3,1.48-.46,3-.82,4.45a14.07,14.07,0,0,1-2.32,3.3A2.51,2.51,0,0,1,176.73,167Z"/><path class="cls-138" d="M186.12,153c-.79,1.09-2,1.71-2.94,2.67-.2.21-.56.5-.87.27s-.14-.51-.18-.78c-.18-1.26.77-2.34.56-3.61l.25,0c1.37.29,2.64-.43,4-.42.48,0,.44.1.33.42Z"/><path class="cls-139" d="M160.63,139.33c1.62,1,3.25,2.05,4.86,3.09.5.32,1.1.54,1.41,1.11-.5.46-.88,1.1-1.66,1.18-1.8-2.11-4.16-3.55-6.31-5.21a32.81,32.81,0,0,0-5.14-2.9,4.7,4.7,0,0,1-2-1.29.87.87,0,0,1,.58-.3c1.17.06,1.93,1,2.9,1.41C157.26,137.06,158.77,138.51,160.63,139.33Z"/><path class="cls-10" d="M179.29,148.64l1.16.63c-.29.11-.39.63-.78.46S179.25,149.07,179.29,148.64Z"/><path class="cls-63" d="M179.82,154.45a2.87,2.87,0,0,1-2,.57C178.29,154.14,179.13,154.56,179.82,154.45Z"/><path class="cls-62" d="M67.8,117.28a12.64,12.64,0,0,0-5.82.17c-.93.17-1.82.25-2.26,1.23-.33-.33-.51-.78-.91-1.06s-.84-.43-.68-.8c.26-.6,1-.45,1.51-.5q10.4,0,20.79,0c.69,0,1.56-.32,2,.66-3.61,0-7.21,0-10.82,0-.5,0-1.05-.18-1.49.25Z"/><path class="cls-140" d="M82.38,117c-.46-.37-1-.22-1.51-.22l-19.2-.06c-.8,0-1.61-.05-2.41-.08a.42.42,0,0,1,.26-.43c1.87-.43,3.76-.06,5.63-.16.8,0,1.6,0,2.41,0q14.58,0,29.16,0a3,3,0,0,0,1.92-.34c.76-.26,1.53-.36,2.05.39a.87.87,0,0,1-.34,1.33c-2.08-.3-4.19-.19-6.28-.38l-9.71,0Z"/><path class="cls-141" d="M94.08,117a31.77,31.77,0,0,1,6.3.23.56.56,0,0,1,.83.23c.65,1.51,1.21,3,.32,4.65a4.5,4.5,0,0,1-1.14-3.13c0-1-.41-1.3-1.32-1.46a34.05,34.05,0,0,0-5-.29Q94.09,117.16,94.08,117Z"/><path class="cls-142" d="M93.52,137.59a45.67,45.67,0,0,0-8.37,5.1,11.57,11.57,0,0,1-1.92.9.59.59,0,0,0-.57-.28,39.37,39.37,0,0,0,4.86-3.42c1.72-.73,3.22-1.87,4.85-2.72,2.35-1.21,4.79-2.33,7.09-3.6a11,11,0,0,1,5.83-1.71,2.26,2.26,0,0,1,1.37.3c1.75,1.34,3.94,1.48,5.93,2.11a32.6,32.6,0,0,0,4.56.92c4.76.78,5.13,2.76,5,6.82,0,.14,0,.29,0,.43a.91.91,0,0,1,.2.67c-.43,3.31.64,6.63,0,9.94a6,6,0,0,0-.11,2.27,1.4,1.4,0,0,1,0,.57c-.19.81-2.12,2.76-2.95,2.75-1.61,0-3.12.72-4.77.52a5.44,5.44,0,0,0-2.84.84,11.62,11.62,0,0,1-4.76,1.37,3.73,3.73,0,0,1-2.73-2.11l-.07-1.08a1.56,1.56,0,0,0,2.25-.39,3.61,3.61,0,0,1,2.95-1.08,5.68,5.68,0,0,0,4.25-1.17,2.2,2.2,0,0,1,1.64-.3c2,0,3.5-1.31,5.34-1.67.26,0,.46-.16.35-.47-.58-1.58.28-3.1.15-4.66a11.19,11.19,0,0,1-.29-4c.37-1,0-1.42-.73-2.27-1.8-2-4-2.09-6.27-2.27-2.07-.16-3.91-1-5.86-1.51a53.83,53.83,0,0,1-8.54-2.63c-.25-.11-.62-.23-.81-.12C96.9,136.53,94.93,136.36,93.52,137.59Z"/><path class="cls-143" d="M71.28,165.58a9.91,9.91,0,0,0-2-1.81c-1.12-1-1.13-1.28.14-2.09,1.84-1.16,3.72-2.26,5.56-3.42,2-1.26,4.11-2.33,6-3.78,1.63-.94,3.29-1.85,4.89-2.84a1.64,1.64,0,0,1,2.27.15c.76.69,1.64,1.25,2.47,1.87,1.66,1.67,1.66,1.67-.39,3L73.79,167C72.45,167.41,71.88,166.46,71.28,165.58Z"/><path class="cls-2" d="M95.26,163.8a1.19,1.19,0,0,0-.24-1c2.23-1.42,4.49-2.81,6.68-4.29,1.23-.83,1.59.54,2.38.79a12,12,0,0,0,2.44,1.8A14,14,0,0,1,110,163.4c1.25,1.21,2.88,2,4.08,3.24a5.06,5.06,0,0,1,.33,1.81,4.74,4.74,0,0,1-1.33,1.78,10.88,10.88,0,0,1-5.1,2.66,1.28,1.28,0,0,1-1.33-.26,17.74,17.74,0,0,0-5.87-3.94A4.88,4.88,0,0,1,99,167.24c-.22-.24-.4-.65-.71-.68-1.4-.15-2-1.23-2.74-2.2A1.7,1.7,0,0,1,95.26,163.8Z"/><path class="cls-144" d="M120.66,144.45a14.73,14.73,0,0,1,.29,4C119.95,147.18,120.32,145.82,120.66,144.45Z"/><path class="cls-107" d="M54.93,165a3.19,3.19,0,0,1-2.75,0c-3.67-1-6.61-3-7.86-6.82a1.52,1.52,0,0,1,.06-1.48c1.15.76,1.86,2,3.07,2.7a7.94,7.94,0,0,0,1.71,1.63,16.46,16.46,0,0,1,2.59,2.37c.86,1.12,1.73,2.12,3.27.91.25-.2.72-.1,1.09-.15Z"/><path class="cls-63" d="M51.75,163.43a13.39,13.39,0,0,1-2.59-2.37A4.73,4.73,0,0,1,51.75,163.43Z"/><path class="cls-137" d="M59.27,117.55c.48.25.46.69.45,1.14-.73,1.38-2.07,2-3.37,2.59a1.9,1.9,0,0,0-1.14.27,4.55,4.55,0,0,1-2.94,0c-.74-1.46.44-2.61.65-3.92a6.72,6.72,0,0,1,3.88-2c1.07.59.08.79-.15,1.14C57.62,116.55,58.39,117.24,59.27,117.55Z"/><path class="cls-145" d="M103.81,114.73l-.3-.57a.67.67,0,0,1,.58-.22,15.38,15.38,0,0,1,3.38,3.34,15,15,0,0,0,6.22,5c2.92,1.28,6,1.37,9,1.78a25,25,0,0,0,9.3-.78,24.3,24.3,0,0,0,5.43-2.11,22.29,22.29,0,0,0,5.22-3.93c.31-.3.51-.76.93-.87.75-.2-.12-.53.09-.75.33-.73.71-1.37,1.69-1.1a5.79,5.79,0,0,1-1.27,4.52,17.14,17.14,0,0,1-9.65,6.16c-2.83.73-5.74.83-8.6,1.29a14.24,14.24,0,0,1-4.26-.17,40.92,40.92,0,0,1-9-2.07,22.47,22.47,0,0,1-5.07-2.86A9.32,9.32,0,0,1,103.81,114.73Z"/><path class="cls-146" d="M103.81,114.73a2.92,2.92,0,0,1,.81,1.78,8.37,8.37,0,0,0,3.78,5.07,23.28,23.28,0,0,0,10,3.79c2.19.32,4.37,1,6.59.76,3.61-.34,7.29-.52,10.73-1.68a16.11,16.11,0,0,0,8.21-5.76,8.56,8.56,0,0,0,1.33-4.29c0-.29.17-.37.42-.38a.81.81,0,0,1,.61,1,17.4,17.4,0,0,0-.64,3.64,2.26,2.26,0,0,1-.91,1.52c-2.09,1.67-4,3.54-6.61,4.5a38.12,38.12,0,0,1-11.93,2.6,30.29,30.29,0,0,1-12.79-1.64c-3.68-1.4-7.42-3-9.7-6.65C102.68,117.42,102.62,116.14,103.81,114.73Z"/><path class="cls-147" d="M123.29,156.74a2.64,2.64,0,0,1-1.43,1.19,64.3,64.3,0,0,0,.5-10.28.79.79,0,0,1,.31-.62c.06-.07.17-.15.17-.22,0-3.15.67-6.3,0-9.44a4.27,4.27,0,0,1-.16-1,2.1,2.1,0,0,0-1.78-2.48c-3.19-.92-6.39-1.72-9.63-2.38a7.28,7.28,0,0,1-1.8-.83,5.69,5.69,0,0,0-4.92-.19c-1.06.38-2,1.21-3.3,1.07,1.62-1.21,3.52-1.94,5.23-3a2.22,2.22,0,0,1,1.89-.12,24.91,24.91,0,0,0,9.73,3.1,17,17,0,0,1,5.3.64,15.61,15.61,0,0,1,.6,3.92c.09,6.08-.47,12.16-.31,18.24A5.64,5.64,0,0,1,123.29,156.74Z"/><path class="cls-127" d="M129.24,131.3c-1.06-.73-1.23-2.32-2.89-2.67a7,7,0,0,1,3.09-.92,71.22,71.22,0,0,0,9.2-2.24c.44-.12,1.1-.69,1.33,0,.27.89-.61.55-1,.65s-.68.14-.69.41c0,1.47-1.16,1.47-2.13,1.74a3,3,0,0,0-1.43,1.13,3.14,3.14,0,0,1-3.27,1.25,2.1,2.1,0,0,0-1.9.61A.19.19,0,0,1,129.24,131.3Z"/><path class="cls-148" d="M104.09,114.14l-.58,0c-2.52,2.18-2.41,4.64.29,6.86a5.77,5.77,0,0,1,0,4c-1.09-.7-1.55-1.89-2.26-2.88,0-.95.06-1.9,0-2.84s0-1.77-1.12-2c.38-1.36.32-1.4-1.72-1.39a16.06,16.06,0,0,1-7.18-.11c.33-.74,1-.55,1.59-.57,1.7,0,3.4,0,5.09,0,1,0,1.46-.39,1.54-1.4a12.22,12.22,0,0,1,.55-2.91,1.19,1.19,0,0,1,.48-.79c.66-.28,1.07.11,1.42.58s.84,1.24,1.26,1.86C103.66,113,104.26,113.43,104.09,114.14Z"/><path class="cls-149" d="M125.59,155.36a2.28,2.28,0,0,1-1.19.76,1.74,1.74,0,0,1-.4-1.59c.28-3.45.52-6.91.48-10.37s.16-6.83.33-10.24c.13-1.81.5-2.16,2.21-2.14,1,0,2-.41,3.05,0a22,22,0,0,0,5.71-1.21,4.25,4.25,0,0,1,1.75-.44,1.09,1.09,0,0,1,1.19,0c-.51,1.54-2,1.77-3.2,2a44.73,44.73,0,0,1-5.08.72,9.55,9.55,0,0,0-3.12,1,1.31,1.31,0,0,0-.79.95,17.62,17.62,0,0,0-.61,3.35C125.49,143.87,125.74,149.62,125.59,155.36Z"/><path class="cls-146" d="M130.07,131.81a20.84,20.84,0,0,1-3.06.33c-1.33,0-1.93.43-1.8,1.77-.28.52,0,1.12-.28,1.78a3,3,0,0,1-1.41-2.41,1.14,1.14,0,0,0-.31-1c-1.71-.15-3.47,0-5.11-.67.25-.85.89-.57,1.39-.4a3.37,3.37,0,0,0,4.5-1.62c.37-.65.81-.67,1.17-.07.5.84,1.55.94,2.09,1.82.34.55,1.3-.17,2,0h.29Z"/><path class="cls-150" d="M146.11,115a.9.9,0,0,0-.61-.88c-.38-.85.52-1.22.71-1.85l1-1.54c.23-.35.46-.76,1-.71s.54.56.69.94.19.63.32.93l.05,4.23-.87,1.16c-.59.84-.63,0-.86-.28l-.58-.85A1.85,1.85,0,0,1,146.11,115Z"/><path class="cls-151" d="M148.35,119.88a8.92,8.92,0,0,1-4.52,6.58c.06-.33.43-.75-.24-.85-.23,0-.48,0-.7,0-1.14-.26-1.46-1.15-.62-1.9a3.74,3.74,0,0,1,1.84-1.23c1.24.67,2.05.37,2.88-1C147.35,120.89,147.35,119.94,148.35,119.88Z"/><path class="cls-152" d="M146.11,115a1.37,1.37,0,0,1,.85,1.15c.24,2-.84,3.35-2,4.7a.87.87,0,0,1-1,.36c-.26-.09-.5,0-.6.21-.91,2.45-3.26,2.58-5.26,3.29a2.43,2.43,0,0,1,1.64-1.2c1.35-.29,2.06-1.58,3.17-2.28.64-.4,1.15-1,1.8-1.51,1-.72.52-2.07.79-3.13C145.66,116.05,145.37,115.35,146.11,115Z"/><path class="cls-153" d="M103.79,125a26.2,26.2,0,0,1,0-4,41.07,41.07,0,0,1,3.29,2.53c.89.62.08,1.43-.56,1.93-.46.36-1.43.31-.86,1.38.11.21-.4.44-.77.42.43-.47.25-.82-.17-1.2A11.71,11.71,0,0,1,103.79,125Z"/><path class="cls-150" d="M148.35,119.88c-.64.47-.75,1.26-1.11,1.9a2.69,2.69,0,0,1-2.49,1.52c-.56,0-1-.17-.65-.85l3.42-3.72c.31-.27.09-1.07.87-.85Z"/><path class="cls-154" d="M138.68,130.17h-1.15l.57-.31a5,5,0,0,0,1.19-.45c2.76-2,4.77-.24,6.82,1.33-.93.57-1.7-.09-2.33-.52a2.65,2.65,0,0,0-2.66-.26C140.35,130.22,139.54,130.67,138.68,130.17Z"/><path class="cls-151" d="M148.4,117.88c-.46.11-.51.65-.87.85q0-.85,0-1.71c.26.18.43.6.86.28l.55.55Z"/><path class="cls-151" d="M143.83,126.46c0,1,1.18.93,1.41,1.69-.5.05-.75-.41-1.15-.56S143.24,127,143.83,126.46Z"/><path class="cls-155" d="M122.67,147c0,3.15-.06,6.29-.05,9.44,0,.67-.7.88-.76,1.46l-6.59,4.54a12.3,12.3,0,0,1-4.6,1.44,2.6,2.6,0,0,1-.92-.28,22.75,22.75,0,0,1-3.22-2.55,15.08,15.08,0,0,0,5.14-1.52c1.19-.54,2.4-1.36,3.83-.59a.31.31,0,0,0,.27,0c1.4-1.16,3.21-.27,4.82-1-.51-.44-1-.94.11-1.19.89-.19,1.38-.5,1-1.65a5.45,5.45,0,0,1,.22-2.49,13.85,13.85,0,0,0,0-4.94,20.35,20.35,0,0,1,.2-5.23c.93.88.46,2,.56,3C122.7,146,122.67,146.52,122.67,147Z"/><path class="cls-156" d="M67.8,151.61l2.54-1.47c.64,1.21.4,2.84,2,3.65-.59.39-1,.72-1.52,1-1.54.87-2.37.45-2.32-1.3A2.71,2.71,0,0,0,67.8,151.61Z"/><path class="cls-157" d="M120.41,75.62c1-.8.19-.88-.7-1,1-.49,2-.46,2.4-1.58.33.6.77,1,0,1.45l1.38-.08c.44.4,1.2.69,1,1.4s-1,.73-1.66.87a2.94,2.94,0,0,0-2,.9c-.42.34-.74,0-.61-.29.36-.71-.41-.29-.45-.55C119.72,76.19,120.24,76,120.41,75.62Z"/><path class="cls-158" d="M123.69,80.33c-1.21.1-2.28,0-1.71,1.38a.43.43,0,0,1-.3.57c-.32.11-.43-.12-.45-.37-.05-.73-.3-1-1-.46-.22.17-.48,0-.6-.2a.74.74,0,0,1-.07-.52,6.82,6.82,0,0,1,3-1.06A11.34,11.34,0,0,1,123.69,80.33Z"/><path class="cls-159" d="M117.76,81.37c1.13-.69,1.39.6,2.52.83C118.92,82.62,118.58,81.38,117.76,81.37Z"/><path class="cls-160" d="M119.83,76.71c.21.16,1-.58.66.43-.1.3.16.38.4.4-.15.42-.47.94-.85.71S120.09,77.22,119.83,76.71Z"/><path class="cls-161" d="M113.81,110.21c-.34.35-1,.49-.77,1.18.2.53.76.55,1.21.6,1.84.19,3.65.62,5.47.9a40.22,40.22,0,0,0,11.57,0c1.88-.25,3.81-.36,5.71-.45a3.14,3.14,0,0,0,2.53-1c.79-1,2-1,3-1.44a4.64,4.64,0,0,0,1.77-1.08,2.44,2.44,0,0,1,.86-.72,6.38,6.38,0,0,0,3.6-2.59c.16-.25.43-.63.8-.42s.18.59.09.9a11.07,11.07,0,0,1-.62,2,2.38,2.38,0,0,0-.13,2,2,2,0,0,0-2.21.43c-3.79,3.48-8.61,4.87-13.37,6-4.09.94-8.4.7-12.65.48a18.31,18.31,0,0,1-6.84-1.58,5.89,5.89,0,0,1-1.56-4.17C112.32,110.2,112.75,110,113.81,110.21Z"/><path class="cls-83" d="M183.28,108.72c-.6,1.08-1.85.93-2.76,1.42a9.1,9.1,0,0,0-2.78,1.67,2.74,2.74,0,0,0-.78,1.78c-.09,1.85-.87,2.57-2.76,2.57l-13,0a4.93,4.93,0,0,1-4.26-.06c-.74-.49-1.57-.13-2.35-.25-.18,0-.43,0-.5-.14a.42.42,0,0,1,.2-.6c1-.43.2-.72-.11-.9a2.08,2.08,0,0,1-1.19-1.66,2.91,2.91,0,0,0-1.66-2.45c-1.61-1-1.86-1.67-1.43-3.53.23-1,.55-1.91.77-2.87s1-.85,1.6-1.19c1.1-.66,2-1.66,3.24-2.07.29.77.35,1.22-.79,1.31s-1.76,1-1.79,2.26c0,1,.2,1.79,1.39,1.9a.6.6,0,0,1,.56.56c0,1.43,1.15,2.1,2.14,2.64,1.29.69,1.49,2.31,2.83,2.91.33.15,0,.48-.27.62s-.77-.06-1,.29c3.26,2.18,7,2.64,10.71,2.38,2.24-.16,4.59-.65,5.75-3.38,1-2.47,6-4.81,8.2-4.35Z"/><path class="cls-162" d="M113.81,110.21c-1.25-.1-1.3.77-1.15,1.59a8,8,0,0,0,1.43,3.5c.58.71,1,1.52,1.63,2.23a8.74,8.74,0,0,1,1.08,2.42c0,.6-.13,1.18-.9,1.26a.67.67,0,0,1-.51-.31,2.2,2.2,0,0,0-2.23-1.92,24.49,24.49,0,0,1-6.43-5,34.69,34.69,0,0,0-3.44-3.79c-1.16-1.08-1.41-2.63-1.76-4.1-.19-1.19-1.19-2.13-1.09-3.42.91.63,1.54,1.64,2.74,1.9.34.07.3.54.38.86.21.82.4,1.71,1.53.79a.57.57,0,0,1,.53,0c1.65,1.2,3.72,1.18,5.52,1.93.47.19.77.4.41.93-.16.24-.37.48,0,.73a.87.87,0,0,0,1,0,5,5,0,0,0,1.9-1.83c.22-.32.26-.29.49.35C114.54,109,114.53,109.82,113.81,110.21Z"/><path class="cls-163" d="M115.45,117.61a3.7,3.7,0,0,1-1.36-2.31c1.42.34,2.81,1.15,4.16,1.21,1.17,0,2.37.18,3.55.22,3.56.12,7.11-.1,10.66-.31a17,17,0,0,0,4.1-1.13c2.06-.66,4.06-1.5,6-2.31a9.17,9.17,0,0,0,3.61-2.5,1.78,1.78,0,0,1,2.72-.32l.25,1.76c-.58-.4-.23-1.63-1.12-1.57-.64,0-.68,1-1.11,1.51-.19.21-.4.4-.6.59-1.73,2.6-4.58,3.51-7.23,4.59a27.57,27.57,0,0,1-11.77,2.37c-2.23-.11-4.44.41-6.68.12-.75-.1-1.51,0-2.14-.52-.14-.13-.37-.26-.52-.18C116.65,119.55,116.09,118.51,115.45,117.61Z"/><path class="cls-94" d="M182.1,89.25c.16-.08.33-.16.49-.25.59-.35,1.34-.59,1.41-1.41s-.78-1-1.31-1.43c.28,0,.61-.1.84,0,.64.31,1.8-.94,1.93.45.06.67.64,1.46,0,2.21-.32.35-.12.69.46.63a5.6,5.6,0,0,1,1.11.12,31.83,31.83,0,0,1-3.91,2.48c-.94.6-.95,1,.12,1.49.81.34,1.59.76,2.39,1.15-.68.58-1.37.12-2,0a4.21,4.21,0,0,0-3.8.45,5.56,5.56,0,0,1-3.56.85c-3.38-.17-6.73.36-10.12.26a10.56,10.56,0,0,0-5.66,1.68,2.22,2.22,0,0,1-1,.45.74.74,0,0,1-.42-.19l-.35,0c0-.91.85-1,1.33-1.46a20.15,20.15,0,0,1,4.65-2.28c2.28-.1,4.56-.13,6.83-.16a2.67,2.67,0,0,0,1.12,0,7.34,7.34,0,0,1,1.7,0A3.58,3.58,0,0,0,177.39,93C178.77,91.52,180.08,89.91,182.1,89.25Z"/><path class="cls-164" d="M160,97c-.38.49-1.1.56-1.39,1.15-2.35.86-4.24,2.58-6.55,3.53-.31.13-.52.72-.93.33s0-.82.14-1.17a3.72,3.72,0,0,1,.81-.93,78.27,78.27,0,0,0,8-4.71L161,95c.4.48.21.86-.2,1.22S160,96.48,160,97Z"/><path class="cls-150" d="M157,116.12l4.26.06a2.5,2.5,0,0,0,.1.23,1.37,1.37,0,0,1-1.29.45c-2.84-.26-5.7-.06-8.54-.13a1.56,1.56,0,0,1-1.08-.27,1.67,1.67,0,0,1,0-.24Z"/><path class="cls-83" d="M159,98.16h.29a.7.7,0,0,1,.28.56,11.1,11.1,0,0,1-4,1.72C156.37,99.21,158,99.26,159,98.16Z"/><path class="cls-139" d="M159.53,98.73a.58.58,0,0,1-.28-.56A11.13,11.13,0,0,1,166,95.77c3.28.14,6.51-.47,9.78-.21a6.19,6.19,0,0,0,4.54-1.25c1.06-.86,2.14-.2,3.19,0a10.49,10.49,0,0,0,2.06.44l1.67.62-2.63,1.34c-.41-.6-.56-1.62-1.74-1.06.3.88,1.26.58,1.75,1.05-.19.49-.63.35-1,.37-4.51.19-8.86,1.76-13.43,1.43a40.77,40.77,0,0,1-4.05-.52c-.69-.12-1.44-.62-2.09.14a.42.42,0,0,1-.4,0C162.09,97,160.86,98.15,159.53,98.73Z"/><path class="cls-165" d="M182.1,89.25a31.08,31.08,0,0,0-4.82,4.42c-.79,1-1.95,1-3.07.94-.51,0-1-.12-1.53-.18.26-.9,1.32-.24,1.71-.88a4.68,4.68,0,0,0,2-4.51c.67-1.39.66-1.39,1.77-.25a1.65,1.65,0,0,0,.49.24C179.78,89.66,181,89.22,182.1,89.25Z"/><path class="cls-166" d="M174.38,93.54c-.23.94-1.26.35-1.71.88h-1.13a6,6,0,0,1-2-.15,14.61,14.61,0,0,0-4.87.24c-.24-.87.45-1,1-1.3,1-.36,2-1.13,3.21-.51C170.63,93.61,172.38,94.43,174.38,93.54Z"/><path class="cls-167" d="M168.9,92.71c-1.2-.31-2,.7-3.1.86-.32-.38-1.22,0-1.14-.89.38-.44,1.16-.54,1.11-1.34C167.24,90.83,168,92,168.9,92.71Z"/><path class="cls-168" d="M164.66,92.67c.25.46,1,.29,1.14.89a1.65,1.65,0,0,0-1.15.87c0,.19-.2.2-.33.26L160,97c-.28-.39,0-.62.29-.75A1.1,1.1,0,0,0,161,95l1.23-1.1.8-.34C163.71,93.55,164,92.73,164.66,92.67Z"/><path class="cls-169" d="M152.4,135.3h-.58c-1.24-.08-2.15-1.16-3.43-1.14-.67-.81-1.33-.87-2,0l-2.57.29c-1.69.73-3.75.5-5.14,2-3.14.82-6.32,1.43-9.5,2-.33.06-.76,0-.74.48a4.39,4.39,0,0,1-1.33,3,2.89,2.89,0,0,0-.44,1.9c0,2.78.12,5.56-.05,8.33-.07,1.08-.21,1.76,1.12,1.74a3.69,3.69,0,0,1-1.9,1.17c-.66,0-.44-.5-.44-.8.07-3,.07-6,.05-9,0-2.78.66-5.43.88-8.15.1-1.25,1.44-2.34,3-2.66,4.51-.93,9-1.76,13.32-3.54a4.15,4.15,0,0,1,3.32.34c2.14.92,4.06,2.24,6.12,3.32A.6.6,0,0,1,152.4,135.3Z"/><path class="cls-139" d="M138.67,136.45a1,1,0,0,1,.87-1.26,14.19,14.19,0,0,0,3.52-1,.61.61,0,0,1,.75.25C142.42,135.94,140.39,135.8,138.67,136.45Z"/><path class="cls-139" d="M146.39,134.16c0-.62.13-1.15.89-1.11s1.17.31,1.11,1.11C147.72,134.19,147.06,134.51,146.39,134.16Z"/><path class="cls-170" d="M127.81,168.17c.94.13,1.37-.74,2.09-1.07,1.15-.54,2.29-.92,3.31.09s.78,2.55-.07,3.8a16.11,16.11,0,0,0-2.73,4.91c2-1,3.52-2.71,5.75-2.84q-4.84,3.73-9.68,7.46c-3.46,2.65-2.81,2.23,0,4.44a16.58,16.58,0,0,1,2.83,2.35c-.73-.29-1.63-.27-2-1.12-1.39-.92-3.1-1.31-4.28-2.59-.16-.32-.24-.9-.7-.74-1.23.43-2.72.41-3.54,1.65a5.51,5.51,0,0,1-4.28,2.47,11.31,11.31,0,0,1-4.25-.08c-.4-.11-.88-.1-1-.63.35-.52.92-.39,1.42-.45a12,12,0,0,0,4-.91,3.08,3.08,0,0,0,2-2.37,2.28,2.28,0,0,1,1.49-1.76,13.93,13.93,0,0,0,6.08-5.77,3.78,3.78,0,0,1,1.58-.9,6.3,6.3,0,0,0,2.44-1.87,2.38,2.38,0,0,0,0-3.22C128,168.75,127.68,168.58,127.81,168.17Z"/><path class="cls-99" d="M141.77,179.21a8,8,0,0,1-3.74,2.94A23.68,23.68,0,0,1,141.77,179.21Z"/><path class="cls-99" d="M137.77,182.34a3.79,3.79,0,0,1-2.57,2.08A11.53,11.53,0,0,1,137.77,182.34Z"/><path class="cls-171" d="M125.79,191a2.5,2.5,0,0,1-2.86-1.34,1.35,1.35,0,0,1,0-1.48,1.49,1.49,0,0,1,1.46-.65,2.11,2.11,0,0,1,1.76,1.27,1.72,1.72,0,0,1-.34,2.2Z"/><path class="cls-172" d="M95.26,163.8l.25.37a2.07,2.07,0,0,1,0,2.57l-.06,0-.22,0Z"/><path class="cls-173" d="M127.81,168.17c1.87,1.41,2,3,.35,4.74a9.37,9.37,0,0,1-3.78,2.12,3.62,3.62,0,0,1-4.4-.82c-.6-.84-1.13-1.2-2.09-.71a.63.63,0,0,1-.55-.09c-.38-.65.17-.87.54-1.17,2.34-1.19,4.25-3,6.39-4.49a13.87,13.87,0,0,1,1.51-1.06,1.41,1.41,0,0,1,.38-.12c.29,0,.54.06.54.43-.4.2-.82.43-.2.84A1.71,1.71,0,0,0,127.81,168.17Z"/><path class="cls-174" d="M126.72,167c-.13-.24-.37-.21-.59-.23a.57.57,0,0,1,.2-.95c1.59-.75,2.79-2.11,4.41-2.8a.49.49,0,0,1,.53,0l.24.27A55.92,55.92,0,0,1,126.72,167Z"/><path class="cls-175" d="M131.27,163.06c-1.74.76-3,2.29-4.76,3a.62.62,0,0,0-.38.69h0c-2.35.52-4.78.78-6.79,2.28a5.24,5.24,0,0,1-.67.22,2.63,2.63,0,0,1-2.88-1,2.49,2.49,0,0,1,.24-2.9c.15-.24.35-.44.52-.66a84.43,84.43,0,0,1,7.09-5.18,2.32,2.32,0,0,0,1.29-2.55c2.11-1.5,4.21-3,6.33-4.49.49-.34.89-.34.87.45q-.13,4.61-.25,9.22A1.07,1.07,0,0,1,131.27,163.06Z"/><path class="cls-176" d="M152.4,135.3c-2.69-1.5-5.17-3.39-8.24-4.14a2.16,2.16,0,0,0-1.63.22c-1.74.91-3.74,1.06-5.51,1.74-2,.77-4.13.81-6.13,1.47a14.4,14.4,0,0,0-3.49,1.17,1.65,1.65,0,0,0-.72,1.44,34.94,34.94,0,0,1-1,5.51c-.3,1.23.07,2.58,0,3.91-.23,2.63-.07,5.3,0,8,0,.16.18.31.27.47l-.24.32c-.47-.34-.35-.85-.35-1.31,0-3.66-.12-7.32.06-11,.1-2.13.13-4.26.27-6.38.07-1,.23-2.49.89-2.94a8.66,8.66,0,0,1,3.66-1.36c2.6-.33,5.3-.22,7.7-1.55.33-.18.69-.32.85-.71a2.1,2.1,0,0,0,.55-.12c2.45-1.32,4.67-.33,6.88.69,3.12,1.81,6.4,3.36,9.19,5.68C154.21,136.35,153.51,135.29,152.4,135.3Z"/><path class="cls-177" d="M113,169.89c.47-.48.78-1.12,1.42-1.44l.58-.57.17.18a10.32,10.32,0,0,1,.22,3.19c-.28,1.8-1,3.5-1.08,5.36-.1,1.61.53,3.18.11,4.78a5.65,5.65,0,0,1-3,3,4.27,4.27,0,0,1-.84.12c-.9.06-1-.36-.58-1s.85-.9,1.17-1.43.84-.84.06-1.52.45-.84.6-1.44c-2.11-.62-1.54-2.6-1.93-4.1-.18-.67.32-1.44-.08-2.21-.18-.35.24-.52.55-.67A7.38,7.38,0,0,0,113,169.89Z"/><path class="cls-178" d="M123.21,132.23c.09,0,.24,0,.25.1a8.74,8.74,0,0,0,1.41,2.91c.27-.35-.15-1,.34-1.33-.47,5.06-.08,10.14-.47,15.21-.18,2.33,0,4.69-.34,7a1.27,1.27,0,0,1-1.11.61c-.6-.71,0-1.46,0-2.19,0-2,0-4.08,0-6.13.06-3,.17-6.06.26-9.1A46.31,46.31,0,0,0,123.21,132.23Z"/><path class="cls-179" d="M124.91,157c1.25,1.25.13,2-.69,2.59-1.78,1.36-3.81,2.38-5.43,4-.5.5-1.43.47-1.85,1.18a5.32,5.32,0,0,0-1.06.93c-.3.32-.62.47-.88-.05a2.22,2.22,0,0,1,1.18-2.59C119.14,161.08,122,159,124.91,157Z"/><path class="cls-180" d="M115,165.62c1,.41,1.09-1,1.94-.87a1,1,0,0,1-.14.24c-.91.89-1.5,2-.75,3.13a2.5,2.5,0,0,0,3.18.63,11,11,0,0,1-1.14,3.72l-.87.87-.08.22a1.12,1.12,0,0,1-.4.39c-.43.22-.81.8-1.37.44a1.35,1.35,0,0,1-.42-1.65,6.06,6.06,0,0,0,.13-1.53,16.1,16.1,0,0,0-.14-3.31h0Z"/><path class="cls-181" d="M109.75,163.62c1.09-.74,2.64.44,3.66-.95.25-.34,1.21-.15,1.85-.2-1.87,1-1.28,2.64-1.23,4.17C112.35,166,111.15,164.67,109.75,163.62Z"/><path class="cls-182" d="M161.54,159.31c.25-.74-.63-1.63.31-2.27-.31,1.71.59,2.62,2,3.47,3.41,2.12,6.73,4.38,10.06,6.62,1,.69,1.93.93,2.85-.09,2.22-.51,3-2.48,4.22-4.07a2.53,2.53,0,0,1-.79,3.21,10.68,10.68,0,0,1-2.59,1.88,9.08,9.08,0,0,1-5.33-.05c-3.31-1.16-6.58-2.47-9.06-5.2A5.5,5.5,0,0,1,161.54,159.31Z"/><path class="cls-183" d="M56.69,103.89a11.82,11.82,0,0,0,4-1.75c.61.11.78.52.86,1.09.12.92.35,1.82.53,2.73a26,26,0,0,1,1.37,7,.89.89,0,0,1-.41.71q-1.42.72-2.89,1.36c-.37.4-1.48.35-.84,1.37a.37.37,0,0,0,0,.2l-.94.15c.25.38.79.33.94.76-1.08-.09-2.12-.92-3.24-.11a.29.29,0,0,1-.45-.16c-.1-.26.07-.39.28-.55.36-.28,1.25,0,1.06-.89,0-.54.45-.67.79-.9a5.21,5.21,0,0,1,.5-.26c4.4-2.27,4.17-1.32,3.05-6.79-.14-.94-.29-1.88-.46-2.82-.22-1.22-.5-1.4-1.63-.86-2.62,1.24-5.26,2.45-7.88,3.69a10.79,10.79,0,0,1-2.82,1,1.21,1.21,0,0,1-1-.45l2-1.1a21,21,0,0,1,3.17-1.44A21.57,21.57,0,0,0,56.69,103.89Z"/><path class="cls-184" d="M47.51,108.44c.31,0,.65-.06.85.29-.9.93-2.22,1.23-3.18,2.07a2.1,2.1,0,0,0,0,1.79c.51,2.07,1,4.15,1.45,6.23.21.89.6,1.09,1.4.73,1.22-.53,2.43-1.07,3.61-1.69.48-.25,1-.67,1.58-.32.08,1.35-1.08,2.43-.86,3.82-.52.23-.79-.08-1-.47a1.7,1.7,0,0,1,.34-1.72c-.55.29-1.08.55-1.6.83l-.35.18c-1.25.36-2.2,1.57-3.67,1.33,0,.23,0,.48-.24.64-.42-.32-.27-.77-.26-1.18.5-.64.09-1.27,0-1.89a53.12,53.12,0,0,0-1.41-6.36c-.56-2.48-.57-2.51,1.81-3.52C46.44,109,46.83,108.38,47.51,108.44Z"/><path class="cls-185" d="M52.69,105.89a11.7,11.7,0,0,1-3.17,1.44c0-.14,0-.39.06-.4C50.67,106.74,51.51,105.8,52.69,105.89Z"/><path class="cls-186" d="M45.79,122.15c0-.23.06-.65.13-.66,1.45-.18,2.48-1.34,3.87-1.63.35.91-.5,1.23-.92,1.69s-1.05.82-.48,1.59a.57.57,0,0,1,0,.41c-.17,1.14-3,3.44-4.33,3.49l-.28-.19C45.83,125.86,46.84,124.44,45.79,122.15Z"/><path class="cls-187" d="M44.09,127.05a9.64,9.64,0,0,0,3.47-2.7c.67-.77,1-1.4-.38-1.86,1-.87,2.11-1.47,2.61-2.62h0c.76-.1,1.63-.42,1.68.86a1.06,1.06,0,0,0,.87.63c.93.47,1.92.11,2.88.18-2.9.39-4.65,3.05-7.4,3.73a.9.9,0,0,0-.56.36c-1.17,2.47-3.59,2.36-5.74,2.8C42.34,127.93,43.41,127.86,44.09,127.05Z"/><path class="cls-188" d="M99.52,106.44a2.44,2.44,0,0,0-.29-1.43L99,103.53l2.34,3.48c.27-.24.06-.57.14-.86a2.32,2.32,0,0,1,.56,1.12,6.86,6.86,0,0,0,2.45,3.7,12.57,12.57,0,0,1,2.39,2.93c-.07,1.13-.71,1.2-1.5.73a17.47,17.47,0,0,1-2.21-1.88c-.92-.74-1-2.22-2.28-2.63A8.35,8.35,0,0,1,99.52,106.44Z"/><path class="cls-189" d="M96.95,101.87c-1.2.28-1.19-.89-1.71-1.42C96.19,100.46,96.1,101.73,96.95,101.87Z"/><path class="cls-190" d="M150.41,116.46l10.91-.06h18.21l1.47.11a4.2,4.2,0,0,0,1.72.74,8.18,8.18,0,0,1-4,.26,32.83,32.83,0,0,0-4.92-.18c-4.08-.11-8.17.1-12.24-.09-3.46-.15-6.91-.22-10.37-.25C150.77,117,150.77,117,150.41,116.46Z"/><path class="cls-191" d="M161.54,159.31c1.22,3.48,3.95,5.48,7.11,6.89a17.12,17.12,0,0,0,5.94,2,13.81,13.81,0,0,0,2.94-.28c.77-.33,1.53-.69,2.28-1.08,1-.53,1.74-1.1,1.51-2.41a1.37,1.37,0,0,1,.78-1.42,7.05,7.05,0,0,0,2.52-2.63,3.91,3.91,0,0,1,1.78-1.58l2.27-.33c.26,1-1,.85-1.19,1.55a7.35,7.35,0,0,1-4.09,4.42,1.24,1.24,0,0,0-.67,1c-.06.58.32,1.3-.35,1.69a6.75,6.75,0,0,1-2.68,1.25c-3.68.18-7.39.82-11-.2a15,15,0,0,1-6.21-3.55C160.73,163,160.42,160.74,161.54,159.31Z"/><path class="cls-192" d="M186.4,158.76c-1.58,1.45-2.24,3.73-4.38,4.69a1,1,0,0,0-.31,1.39,1.12,1.12,0,0,1-.48,1.48,6.57,6.57,0,0,1-3.7,1.57,4,4,0,0,1,1.92-1.59c1.52-.82,1.28-2.1,1.49-3.31.27-1.68.54-3.36.8-5,.08-.51.25-1,.76-1.1s.58.4.81.67C184.12,158.47,185.3,158.5,186.4,158.76Z"/><path class="cls-193" d="M91.53,115.58c1.06.61,2.21.22,3.31.28,1.27.07,2.55,0,3.83,0,.21.48,0,.57-.45.56-1,0-2,0-3,0l-27.68,0a42.88,42.88,0,0,0-5.06-.13c-.79,0-1.39-.22-.67-1.15A7.9,7.9,0,0,1,65.3,115a3.54,3.54,0,0,0,1.26.17c6.4-.11,12.79.47,19.19.27A52.39,52.39,0,0,1,91.53,115.58Z"/><path class="cls-194" d="M61.79,115.29c-.33.82.23.85.77.86,1.21,0,2.43,0,3.64,0,.45,0,.94-.12,1.33.26H59.26c-.48,0-.92,0-.55-.66a2,2,0,0,1,1.14-1C60.43,115.2,61.26,114.66,61.79,115.29Z"/><path class="cls-63" d="M113,169.89a4.54,4.54,0,0,1-2.37,2.45c-.3.17-1.24.2-.22.78.08,0,.08.35,0,.5-.52,1.4,0,2.71.3,4.05.12.47.72.48.7,1,.46-.24,1-.12,1.09.29s-.54.55-.78.89a2.94,2.94,0,0,1-.52.46c.47.44,1.95.35.51,1.61a6.42,6.42,0,0,0-1.82,2.31h1.43c-1.49,1.7-2.85,1.9-4.43.52-3.52-3.07-7.35-5.79-10.6-9.18-.66-1.64-.24-3.36-.33-5-.15-.88.29-1.73.17-2.62,0-.25.08-.55-.33-.58l-.27-.58v-2.57c.19,0,.51,0,.54.08.74,2,3.25,1.88,4.19,3.63a2,2,0,0,0,1.3.83c2.14.58,3.6,2.14,5.15,3.56.3.27.56.59,1,.38,1.57-.79,3.5-.84,4.73-2.33A2.94,2.94,0,0,1,113,169.89Z"/><path class="cls-195" d="M53.19,117.55l-5.53,2.57c-.54.25-1.08.51-1.28-.41-.59-2.81-1.21-5.62-1.82-8.43-.08-.37-.31-.78.37-.77.49,1.22,1.23,1.22,2.36.74,2.46-1,4.84-2.21,7.29-3.24a1.75,1.75,0,0,1,1.86.07c.71.48,1.46.89,2.19,1.34,1.29.8,1.28,1.7,0,2.48-.81.49-1.78.77-1.93,2a3.19,3.19,0,0,1,1.71-.38c.34,0,.87-.07.86-.35,0-1.5,1-1.23,1.84-1.25.37-1.4-.13-2.79.42-4.09a12.77,12.77,0,0,1,.82,4.13c.14.9-.6,1.32-1.28,1.68-1.38.73-2.76,1.45-4.14,2.17Z"/><path class="cls-196" d="M115.45,117.61c.2.12.5.2.57.38.31.76.73.86,1.43.45s1.18-.42,1.54.36c.12.27.4.55.66.43,1.14-.52,2.28.26,3.35,0,2.67-.58,5.38-.05,8.07-.48a40.79,40.79,0,0,0,10.31-3.17,22.08,22.08,0,0,0,5-3.17c0,.73-.91,1-.88,1.69l-.27.28-1.4,1.21a2.83,2.83,0,0,1-1,1.18c-2.1,1.54-4.62,2.18-6.94,3.24-1.94.89-4.15.84-6.26,1.09a30.24,30.24,0,0,1-10-.13c-.57-.12-1,.37-1.51.26a2,2,0,0,1-1.42-1.38C115.93,119.3,116,118.28,115.45,117.61Z"/><path class="cls-197" d="M142.9,116.43l.94-.81c0,.29.63.41.19.81a32.77,32.77,0,0,1-7.38,5.53,23.22,23.22,0,0,1-11,2.62c-3.73-.12-7.66.11-11.22-1.76-.89-.47-1.9-.77-2.86-1.18-1.88-.81-2.74-2.71-4.38-3.74-.22-.14-.21-.41,0-.61a1.89,1.89,0,0,1,.93.36,38.51,38.51,0,0,0,4.93,2.9c7.9,3.12,15.76,3.29,23.59-.21a15.3,15.3,0,0,0,3-1.76C141,118.2,141.8,117.12,142.9,116.43Z"/><path class="cls-198" d="M107.82,117.77l-.64-.46-3.1-3.16-.86-1.41a4.39,4.39,0,0,1,2.08,1.39c.74.72,1.19.59,1.63-.24a42.83,42.83,0,0,0,6.27,4.86,2.29,2.29,0,0,1,1.13.83c.15,1.14-.53.72-1.12.63C111.17,119.92,109.58,118.65,107.82,117.77Z"/><path class="cls-199" d="M99.52,106.44a8.82,8.82,0,0,1,1.42,3.66l-.3.62c-1.06,1.35-2.55,2.37-3,4.15a.72.72,0,0,1-.75.56c-1.88-.08-3.77.23-5.64-.17,1.37-.91,3.06-1.37,3.32-3.51.19-1.54,1.57-2.63,2.74-3.49C98,107.68,98.46,106.64,99.52,106.44Z"/><path class="cls-188" d="M91.2,115.26c.62,0,1.24,0,1.85,0,2.13,0,4.54.62,5.17-2.53.2-1,1.57-1.12,1.89-2.11a2.92,2.92,0,0,1,.52.08,34.56,34.56,0,0,0-.49,3.5c0,1-.37,1.35-1.36,1.33-2.42,0-4.84,0-7.26,0l-5.68,0c-.1,0-.15-.06-.13-.12s0-.1.07-.1Z"/><path class="cls-200" d="M137,120.47a5.42,5.42,0,0,1-2.62,1.32,30.71,30.71,0,0,1-12.9,1.28,25.43,25.43,0,0,1-8.78-2.35c1.13-.83,2.09.07,3.11.3.74,0,.57-.79.89-1.15a3,3,0,0,1,1.16,1.13c.18.16.4.26.59.4A4.72,4.72,0,0,0,121,122c4.94.12,9.91.34,14.63-1.6C136.11,120.2,136.57,120.05,137,120.47Z"/><path class="cls-201" d="M115.79,121c-.66.72-1-.3-1.58-.28s-1,0-1.53,0a22.1,22.1,0,0,1-4.86-3c1.24-.26,1.77,1,2.74,1.28,1.17.36,2.35.72,3.54,1,.13,0,0-.31,0-.47,1.09-.39,1.08.6,1.42,1.14Z"/><path class="cls-200" d="M115.51,120.74c-.6-.22-.58-1.22-1.42-1.14l-.88-.84C114.79,118.74,115.47,119.33,115.51,120.74Z"/><path class="cls-165" d="M164.33,94.69l.33-.26c2.29-1.23,4.58-.54,6.88,0-1.08.61-2.25,0-3.39.24A20.23,20.23,0,0,1,164.33,94.69Z"/><path class="cls-202" d="M184.63,96.66a3.9,3.9,0,0,1-1,0c-.63-.16-1.43-.29-1.47-1.1,0-.66.64-.57,1.09-.6.81,0,1.4.24,1.47,1.15a2.22,2.22,0,0,1-.11.56Z"/><path class="cls-203" d="M117.23,173.33c1.42-.82,2.35-.72,3.32.92.73,1.23,2.5.67,3.83.79a11.44,11.44,0,0,1-5.33,5.65c-1.05.62-2,1-2.24,2.56s-2.2,2.23-3.77,2.6a11.26,11.26,0,0,1-3.8.34q0-.14,0-.28c.54-.94,1.59-1,2.43-1.27,1.83-.69,3.25-1.67,3.72-3.71a4.85,4.85,0,0,1,1.4-2.1c1.1-1.18,1-1.42-.55-1.94a2,2,0,0,1-.77-.35.64.64,0,0,1-.07-.58c.56-.51,1.22-1,1.29-1.82a6.24,6.24,0,0,1,.57-.82Z"/><path class="cls-204" d="M115.5,176.46a2,2,0,0,1,.57,0c.7.22,1.65.13,1.94.95s-.57,1.22-1,1.71a5.79,5.79,0,0,0-1.49,2.68,4.61,4.61,0,0,1-3.06,2.91c-1,.44-2.13.78-3.2,1.17h-1.14a6.81,6.81,0,0,1-4.49-.94,15.88,15.88,0,0,1-6-4.67A9.38,9.38,0,0,1,96.17,177c-.12-.5-.15-1.06.46-1.35,3.31,2.78,6.66,5.51,9.9,8.37,1.26,1.11,2.36,1.83,3.88.56a3.48,3.48,0,0,1,.89-.39,8.06,8.06,0,0,0,2.79-2.61,5.34,5.34,0,0,0,1-3.69A1.67,1.67,0,0,1,115.5,176.46Z"/><path class="cls-2" d="M96.06,170.23l-.21-.14-.06-2.77c.19.06.34-.71.6,0C96.77,168.38,96,169.25,96.06,170.23Z"/><path class="cls-174" d="M118.1,172.46c-.15-1.4.56-2.54,1.14-3.72a9.52,9.52,0,0,1,6.87-2C123.46,168.69,121,170.9,118.1,172.46Z"/><path class="cls-63" d="M115.5,176.46c0,.89-.07,1.79,0,2.67a2.24,2.24,0,0,1-1.42,2.46c0-2.14-.44-4.27-.16-6.4a9.72,9.72,0,0,1,.73-2.54,3.42,3.42,0,0,0,.29-1.35q.13-.19.25,0l.15,3,1.91-1-.33.82c-.29.74-1.13,1-1.44,1.77Z"/><path class="cls-97" d="M115.2,171.32H115v-3.42C115.44,169,115.17,170.17,115.2,171.32Z"/><path class="cls-205" d="M61.52,107.86c-.12.82.47,2.1.2,2.3-1.16.85.23,1.22.15,1.84-.53.21-1,.84-1.71.26-.29-.22-.72-.05-.46.46.55,1.1-.68,1.26-.95,1.21a3.23,3.23,0,0,0-2.69.82c.28-1.58.71-2.71,2.26-3.06.43-.1,1.07-.47,1-1.07s-.69-.7-1.05-1c-3-2.89-5.52-.1-8.09.86-1.26.47-2.5,1.06-3.76,1.54s-1.53-.41-1.46-1.46a14.12,14.12,0,0,1,3.42-1.78c3.66-1.51,7.22-3.25,10.8-4.94,1.58-.75,1.71-.68,2,1C61.32,105.79,61.4,106.83,61.52,107.86Z"/><path class="cls-206" d="M62.65,113.59c-.74.94-.56,1.4.69,1.4,4,0,7.9,0,11.86,0a1,1,0,0,1,0,.22,11.36,11.36,0,0,1-3.63.17,51.94,51.94,0,0,1-6.35-.1l-3.43,0c-.62-.28-1.51.48-1.94-.51C60.83,114.5,61.59,113.69,62.65,113.59Z"/><path class="cls-186" d="M51.47,120.73c-.21-1-1.21-.41-1.68-.86a9.73,9.73,0,0,1,2.58-1.27C51.91,119.26,51.31,119.85,51.47,120.73Z"/><path class="cls-148" d="M65.22,115.32l10-.06,10.58.08a1,1,0,0,0,.06.21l-19.84,0A.94.94,0,0,1,65.22,115.32Z"/><path class="cls-207" d="M118.09,121.31l-.25-.3c1.2-.69,2.39-.14,3.61-.06a46.61,46.61,0,0,0,9.49-.34c2.67-.37,5.36-.64,7.62-2.35,1.87.39,2.73-1.63,4.35-1.83a7.3,7.3,0,0,1-3,2.32,30.78,30.78,0,0,1-14.47,3.31,28.59,28.59,0,0,1-5.79-.2C119.09,121.75,118.46,121.89,118.09,121.31Z"/><path class="cls-208" d="M118.09,121.31c2.28.24,4.54.41,6.85.45a49.1,49.1,0,0,0,7.82-.82,22,22,0,0,0,5.92-1.78,2.34,2.34,0,0,1,1.2-.4,6.14,6.14,0,0,1-2.89,1.72c-1.11-.12-1.94.65-2.93.93-5,1.35-10,1.23-15,.76C118.47,122.11,118.14,121.87,118.09,121.31Z"/><path class="cls-204" d="M115.49,175.89c-.26-1.19.81-1.29,1.44-1.77C116.92,175.1,116.71,175.91,115.49,175.89Z"/></svg>