<svg id="Слой_1" data-name="Слой 1" xmlns="http://www.w3.org/2000/svg" viewBox="0 0 250 250"><defs><style>.cls-1{fill:#d1e6f2;}.cls-2{fill:#497199;}.cls-3{fill:#365575;}.cls-4{fill:#fdc243;}.cls-5{fill:#404244;}.cls-6{fill:#fdd29d;}.cls-7{fill:#fefefe;}.cls-8{fill:#fbd29d;}.cls-9{fill:#497099;}.cls-10{fill:#fcd29d;}.cls-11{fill:#fad29e;}.cls-12{fill:#365574;}.cls-13{fill:#254760;}.cls-14{fill:#f8c144;}.cls-15{fill:#35587b;}.cls-16{fill:#375574;}.cls-17{fill:#f8fbfb;}.cls-18{fill:#365676;}.cls-19{fill:#49719a;}.cls-20{fill:#375675;}.cls-21{fill:#244760;}.cls-22{fill:#4a739c;}.cls-23{fill:#f6ba82;}.cls-24{fill:#f8c347;}.cls-25{fill:#244861;}.cls-26{fill:#f8f2f6;}.cls-27{fill:#f8f1f5;}.cls-28{fill:#f0ba86;}.cls-29{fill:#487198;}.cls-30{fill:#f0ba87;}.cls-31{fill:#375878;}.cls-32{fill:#254962;}.cls-33{fill:#edc358;}.cls-34{fill:#49739a;}.cls-35{fill:#244a65;}.cls-36{fill:#eec355;}.cls-37{fill:#f5c44c;}.cls-38{fill:#f2eeed;}.cls-39{fill:#7eb5d5;}.cls-40{fill:#f2f0ee;}.cls-41{fill:#435956;}.cls-42{fill:#425c5c;}.cls-43{fill:#345d7f;}.cls-44{fill:#e59e4b;}.cls-45{fill:#365979;}.cls-46{fill:#375a7b;}.cls-47{fill:#37597a;}.cls-48{fill:#335771;}.cls-49{fill:#375d7f;}.cls-50{fill:#3b5d6f;}.cls-51{fill:#407196;}.cls-52{fill:#3b7092;}.cls-53{fill:#427195;}.cls-54{fill:#356588;}.cls-55{fill:#cbd1c2;}.cls-56{fill:#ced1bd;}.cls-57{fill:#b6c4bf;}.cls-58{fill:#b9c3c0;}.cls-59{fill:#cbc591;}.cls-60{fill:#d1c87b;}.cls-61{fill:#c6c793;}.cls-62{fill:#f06c62;}.cls-63{fill:#375777;}.cls-64{fill:#486e96;}.cls-65{fill:#9dccc9;}.cls-66{fill:#33312d;}.cls-67{fill:#443c30;}.cls-68{fill:#75604a;}.cls-69{fill:#766245;}.cls-70{fill:#ec4e42;}.cls-71{fill:#cdcecd;}.cls-72{fill:#dde0e2;}.cls-73{fill:#d3d4d5;}.cls-74{fill:#ecedec;}.cls-75{fill:#c7e6e3;}.cls-76{fill:#aedad1;}.cls-77{fill:#d2bf89;}.cls-78{fill:#84ccf0;}.cls-79{fill:#f9fbfa;}.cls-80{fill:#dcdedf;}.cls-81{fill:#dcdedc;}.cls-82{fill:#84caed;}.cls-83{fill:#fff;}.cls-84{fill:#fcd19d;}.cls-85{fill:#457fa2;}</style></defs><title>service-outsorsing</title><path class="cls-1" d="M146.33,188.24c3.67-.1,7.31-.11,10.7,1.7a16.76,16.76,0,0,1,8.57,17.37,16.39,16.39,0,0,1-13.82,13.28,28,28,0,0,1-4.19.29c-7.51,0-15,.3-22.53-.09-8.82-.45-17.57-.1-26.35-.28a16.31,16.31,0,0,1-5.29-31.59,17.36,17.36,0,0,1,9.18-.72c.8-.66,1.61-.26,2.42,0a15,15,0,0,1,5,2.91,1.53,1.53,0,0,0,2,.34,7.5,7.5,0,0,1,11.34,5.74.78.78,0,0,0,.17.32c1.4.76,1.68-.3,2-1.25a7.41,7.41,0,0,1,6-5.49,6.25,6.25,0,0,1,4.27.57,2.87,2.87,0,0,0,3.62-.5,15.32,15.32,0,0,1,4.66-2.5A2.4,2.4,0,0,1,146.33,188.24Z"/><path class="cls-2" d="M146.33,188.24c-3,1.06-5.93,2.21-8.22,4.55-.56.57-1,.14-1.42-.14-4.59-2.83-9.6-.77-10.65,4.41-.46,2.27-1.9,1.31-3.14,1.09a26.06,26.06,0,0,0,.61-6.28q0-13.71,0-27.43a1.51,1.51,0,0,1,.47-.78c1.76-1.44,2.46-3.57,3.75-5.29,2.69-3.68,5.21-7.48,7.81-11.22a2.5,2.5,0,0,0,.24-2.86c-1.3-2.65-1.14-3.32.88-5.48a17.77,17.77,0,0,1,2.65-2.5c2.78,2,6,2.71,9.28,3.53a.49.49,0,0,0,.44.5c2.31.37,3.34,2.06,4.12,4,1.36,3.4,2.74,6.78,4.37,10.07a1.29,1.29,0,0,1,.16,1.22c-.6.61-.07,1.16.14,1.67,1.52,3.64,3.14,7.25,4.6,10.91.51,1.28,1,1.6,2.22.8,1.76-1.12,3.65-1.95,5.29-3.14,1.46-1,2.34-.8,3,.74a1.33,1.33,0,0,1,1.08.6c1.59,2.08,2.89,4.35,4.27,6.57a1.67,1.67,0,0,1,.14,1.41c.41.63.34,1.06-.38,1.46-5.12,2.83-10.21,5.74-15.48,8.32-1.23.61-2.09.08-2.93-.74-3.4-3.34-6.23-7.19-9.26-10.85a32,32,0,0,0-4.12-4.41Z"/><path class="cls-3" d="M124,164a16.76,16.76,0,0,1,.3,3.62v24.84c0,1.65-.58,3.24-.33,4.9.14.93-.64.65-1.1.78-.56-.88-.32-1.9-.66-2.81a6.69,6.69,0,0,0-10-3.14,1.46,1.46,0,0,1-2.26-.17,15.64,15.64,0,0,0-7.38-3.84c-.36-5.41-.06-10.84-.16-16.25v-3.12a5.38,5.38,0,0,0-1.94,1.88C97,175,93.66,179.6,89.71,183.6c-2,2-2.28,2.06-4.74.76-4.67-2.49-9.31-5.05-14-7.56-.78-.41-1.14-.88-.57-1.69,0-.05-.07-.11-.06-.17.09-1.76,4-7.88,5.64-8.68.61-1.24,1.36-1.37,2.55-.59,1.89,1.23,3.92,2.23,5.85,3.4.93.56,1.44.56,1.88-.59,1.63-4.27,3.35-8.5,5-12.75a2.87,2.87,0,0,1,.22-2.65c1.29-3.09,2.59-6.17,3.77-9.3a4.79,4.79,0,0,1,3.62-3.25,33.65,33.65,0,0,0,3.43-1.06l6.53-2.59c3.07.33,5.5,4.25,4.19,6.94a3.4,3.4,0,0,0,.4,4c3.22,4.29,6.17,8.82,9,13.3a10.18,10.18,0,0,1,1.65,2.4A.88.88,0,0,1,124,164Z"/><path class="cls-4" d="M142.3,43.2c-.41,1.13-1.4.62-2,.54-2.24-.26-3.91.38-5,2.44-1.37,2.65-3.89,3.77-6.41,4.92-.62.28-1.66-.26-1.86.72a4.94,4.94,0,0,0,.13,3.4,2.94,2.94,0,0,1,0,3.47,1.5,1.5,0,0,0,.12,2c1.76,1.41,1.19,3.07.71,4.76-.17.26-.37.56-.66.57-2.14,0-4.37.93-6.37-.56-.88-1-.54-2.13-.53-3.23a3.17,3.17,0,0,1,1.36-1.54c-.05-.8.18-1.55-.47-2.37a2.42,2.42,0,0,1,0-2.73,3.65,3.65,0,0,0,.48-1.32c.48-2.13-.56-3.09-2.52-3.53a9.59,9.59,0,0,1-6-4.67,4.32,4.32,0,0,0-4.61-2.33c-.71.07-1.76.56-2.21-.56-.47-1,.3-1.18.88-1.5.76-.32,1.56.06,2.32-.16,1-.58-.06-1-.14-1.45-1.12-1.64-.78-3.66-1.46-5.43a2.25,2.25,0,0,0-2.41-1.76,16.88,16.88,0,0,1-3.1-.1c-.88-.46-1.76.71-2.65.06-.28-1.21.18-1.62,1.41-1.56,1.7.09,3.41,0,5.12,0,.81,0,1.69,0,2-.88a1.76,1.76,0,0,0-.53-2.11c-.63-.55-.64-1.33.63-1.33h32a3.69,3.69,0,0,1,.79.21l-.73,1.26c-.88,1.61-.27,2.74,1.56,2.8s3.66,0,5.49,0c.88,0,1.49.12,1.24,1.21-.55.6-1.27.11-1.89.31a34.39,34.39,0,0,1-4.35.09c-1,0-1.69.32-1.9,1.46-.34,1.83-.88,3.62-1.35,5.43-.31,1.24-.08,2,1.43,1.89a3.24,3.24,0,0,1,1,.26C142.34,42.25,142.65,42.6,142.3,43.2Z"/><path class="cls-3" d="M157.67,155.6c-2-2-2.39-4.86-3.68-7.24a24.14,24.14,0,0,1-1.12-2.88c-.84-2.19-1.76-4.29-4.41-4.84-.26-.05-.88-.05-.54-.62.08-.14.44-.13.68-.19l14,2.65a3.24,3.24,0,0,0,3-.68c3.94-3.17,7.94-6.25,12-9.35.6-.46,1.15-1.18,2.06-.63.18,0,.4-.13.53-.06,2.65,1.31,5.29,2.65,7.25,4.88.4.67-.15,1-.53,1.36a237.61,237.61,0,0,1-19.4,16.56c-2.33,1.7-4.7,1.66-7.26,1.32C159.36,155.75,158.51,155.75,157.67,155.6Z"/><path class="cls-2" d="M102.32,139.48A17.44,17.44,0,0,1,99.26,141c-2,.56-2.91,1.89-3.59,3.72-1.37,3.7-2.91,7.33-4.41,11a23.13,23.13,0,0,0-5.1.4A6.17,6.17,0,0,1,81.88,155a141,141,0,0,1-15.55-12.75q-2.24-2-4.41-4.09c-.41-.39-1.08-.71-.64-1.49.11-.21-.13,0,0-.18,2.28-2,4.64-3.93,7.72-4.64.88-.55,1.34.11,1.9.55,4.09,3.17,8.19,6.31,12.25,9.52a2.65,2.65,0,0,0,2.47.64c4.95-1,9.91-1.93,14.87-2.87C101.11,139.56,101.71,139.54,102.32,139.48Z"/><path class="cls-5" d="M110.81,111.24a7.7,7.7,0,0,1-1-4.18c-.53-9,3.57-12.78,9-15.12,7.05-3,15.78.13,19.49,6.82a2.65,2.65,0,0,1,.45,1.18c-.05,4.24.73,8.55-.83,12.7a.34.34,0,0,1-.39.24c-.78-.54-.88-1.62-1.76-2.1-1.08-1.82-1.66-3.88-2.8-6.22-.28,2.15-1.52,2.17-2.85,2A79,79,0,0,1,118.5,104c-2-.58-2.41-.4-3.24,1.49-.37.84-.49,1.76-.88,2.6-.48,1.07.43,1.53.8,2.22-1,1.39-2.65.78-3.92,1.2A.7.7,0,0,1,110.81,111.24Z"/><path class="cls-6" d="M110.81,111.24l.26.15c1,.74,1.28,1.94,1.68,3a8.82,8.82,0,0,0,.36,1.22c.8,2.55,2,3.53,4.32,3.53a4.92,4.92,0,0,0,4.87-3.53,3.94,3.94,0,0,1,.41-1c.34-.68.54-1.51,1.53-1.53s1.26.75,1.58,1.46c1.19,3.53,3.32,5.1,6.17,4.56,1.58-.3,2.86-1,3.23-2.75.13-.64.41-1.27.6-1.9.22-.88.61-1.61,1.67-1.64l.38-.19c1.61,1.84.38,3.81-.46,5.12a35.28,35.28,0,0,0-3.19,6.71c-.49,1.32-1.76,2.05-2.24,3.32-1.76,3-4.65,4.29-7.7,5.37a2.43,2.43,0,0,1-1.76-.21c-2.37-1.1-4.77-2.18-5.93-4.79a19.4,19.4,0,0,1-3.6-7.72c-.16-.71-.72-.88-1.15-1.28C110.26,117.68,109.73,113.27,110.81,111.24Z"/><path class="cls-7" d="M59.37,90.38c.1-.88.72-1,1.43-1.09,4.19-.88,8.07-2.35,11.09-5.54a1.87,1.87,0,0,1,1.33,1.76c.8,4.64,2,9.21,2.83,13.84a1.57,1.57,0,0,1-.53,1.76,18.84,18.84,0,0,0-11.84-.93,12.15,12.15,0,0,1-2.35.08C59.82,98.91,58.49,92.21,59.37,90.38Z"/><path class="cls-8" d="M68.27,172.26c-3.78-1.44-7.81-1.9-11.67-3.05a3.93,3.93,0,0,1-1.48-1c-2.34-2-4-4.71-6.17-6.91-.39-.4-.66-.78-.39-1.27a1,1,0,0,1,1.31-.26,2.26,2.26,0,0,0,2.09,0c1-.49,1.76.43,2.47,1.1,1.68,1.66,3.28,3.37,5.54,4.31a3.66,3.66,0,0,0,1.56.34c.71,0,1.57.13,1.61-1s-.63-1.18-1.45-1.23a5.05,5.05,0,0,1-3.2-1.38,1.56,1.56,0,0,1-.34-1.68.76.76,0,0,1,.95-.5l.11,0c3,1.18,6.12,1.61,9.14,2.56,2,.62,2.94,2.43,4.29,3.77,0,0,.11.09.11.13.22,1.64-2.43,5.75-4,6.17A.71.71,0,0,1,68.27,172.26Z"/><path class="cls-9" d="M124,163.68c-2.35-2.09-3.73-4.9-5.53-7.41-2-2.82-3.88-5.76-6-8.55a3,3,0,0,1-.36-3.66c1.4-2.65,1.34-2.65-.74-4.81-.8-.83-1.68-1.59-2.53-2.38a27.72,27.72,0,0,1,7.71-3.58l.27.11c1.5,2.15,1.61,4.74,2.2,7.17a78.21,78.21,0,0,1,2.36,9.53,7.69,7.69,0,0,0,.94,2.92c.78,3.08,1.12,6.26,2.12,9.29a1.49,1.49,0,0,1-.07.88A1,1,0,0,1,124,163.68Z"/><path class="cls-3" d="M139.32,136.34c0,1.46-1.23,2-2,2.88-2.16,2.28-2.28,2.31-.71,5,.88,1.51.22,2.46-.58,3.6-3.82,5.42-7.59,10.87-11.38,16.31-.88-2,.41-3.89.54-5.84a43.28,43.28,0,0,1,1.08-4.77c1.25-3.65,1.76-7.5,2.83-11.18.19-.63.34-1.28.53-1.91.73-2.2.74-4.63,2-6.67a.88.88,0,0,1,.47-.29A66.23,66.23,0,0,1,139.32,136.34Z"/><path class="cls-10" d="M189.94,161.92a4.27,4.27,0,0,1-3.32,1.46c-.8,0-1.31.36-1.26,1.19s.56,1,1.26,1a6.25,6.25,0,0,0,4.89-1.9c1.33-1.21,2.36-2.76,4-3.53.62-.3,1.33-1,1.65.33,0,.16-.11.31-.07.48a2,2,0,0,0,.88-.47c.47-.72,1.24-1.08,1.86-.55.88.72-.11,1.35-.53,1.76-2,2-3.53,4.41-5.63,6.37a7.94,7.94,0,0,1-4.18,1.92c-3.06.56-6.17,1-9.06,2.25-.05,0-.11.08-.17.07-1.76-.26-4.59-4.36-4.24-6.08.59-.06.78-.59,1-1,1.58-2.94,4.52-3.48,7.34-3.93,1.38-.22,2.65-1,4-.88C190.14,160,190.35,160.16,189.94,161.92Z"/><path class="cls-11" d="M60.55,135.56C59,134.09,58.69,132,58,130.1c-1.19-3.38-2.29-6.78-3.38-10.19-.38-1.19-.48-2.46-1-3.64-.15-.37-.23-1,.42-1.22a.93.93,0,0,1,1.18.57h0c.78,1.49,1.57,3,2.35,4.41.88.46,1.16,1.34,1.64,2.09,1.38,2.12,2.12,2.41,4.61,1.76,1.41-.48,1.53-1.91,2.13-3a7.06,7.06,0,0,1,1.69-2.08,1.06,1.06,0,0,1,1.61,1.29c-.84,2.49-1.49,5-2.35,7.5-.44,1.25.48,2,.7,3a1,1,0,0,1-.17,1.37l-.09.06a61.67,61.67,0,0,1-5.66,3.53A1.38,1.38,0,0,1,60.55,135.56Z"/><path class="cls-8" d="M190.68,119.37a1.17,1.17,0,0,0,1.46-1,10,10,0,0,1,.88-2.18c.33-.6.68-1.53,1.58-1.1s.44,1.24.23,1.91c-1.37,4.32-2.76,8.63-4.12,13a19,19,0,0,1-2.37,5.59,1.53,1.53,0,0,1-1.83,0c-1.68-1-3.26-2.21-5-3.15a1.87,1.87,0,0,1-1-1.61c1.29-1.13,1.24-2.35.93-4-.41-2.21-1.68-4.12-1.86-6.34,0-.56-.26-1.29.44-1.62s1.11.31,1.55.68a6.45,6.45,0,0,1,1.63,2.77,2.26,2.26,0,0,0,2.27,1.68c1.89.78,2.72.49,3.71-1.25C189.8,121.61,190,120.4,190.68,119.37Z"/><path class="cls-12" d="M59.37,90.38l2,9.92c-.39.72-1.54.19-1.82,1.1a9.23,9.23,0,0,1-3.74.78,1.86,1.86,0,0,0-1.35-.44,2,2,0,0,1-1.5-.55c-1.34-1.15-2.58-7.27-1.76-8.82a1.76,1.76,0,0,1,.71-.81,31.93,31.93,0,0,1,7.05-1.76C59,89.83,59.22,90.2,59.37,90.38Z"/><path class="cls-13" d="M120.9,65.47a39.79,39.79,0,0,0,7.05,0c2.06,0,4.13.06,6.17.11.88,0,1.53-.21,1.08,1.37a11.46,11.46,0,0,0,.11,6.26,2.84,2.84,0,0,1-1.61.18h-19a3.22,3.22,0,0,1-1.44-.13,12.13,12.13,0,0,0,.07-6.78c-.36-1.11.53-.88,1-.88C116.53,65.51,118.75,65.5,120.9,65.47Z"/><path class="cls-14" d="M202.53,142.11c-2.1-2.53-2.21-5.38-1.19-8.32.79-2.28,4.92-4.21,7.26-3.68,1.64.37,3.19.58,4.37,2.1,2.08,2.7,2.58,5.85,1.09,8.51-1.09,2-4.94,4.41-8,3.34C204.55,143.94,203,144,202.53,142.11Z"/><path class="cls-15" d="M206.82,89.34v1c0,.3,0,.65-.39.72a.65.65,0,0,1-.73-.61c-.1-.6-.09-1.22-.22-1.82s.15-1.23-.56-1.38-.88.67-1.17,1.16-.46.88-.69,1.29-.45.8-1,.55-.3-.69-.15-1.09c.88-2.35.88-2.45-1.71-2.86-1.83-.29-2.55-.88-2-2.87a36.52,36.52,0,0,0,1.12-5.73c.19-1.41.88-1.71,2.14-1.44,1,.21,1.9.44,2.86.59.63.1,1.31.38,1.83-.35.28-.39.93-.49,1.09-.08.61,1.54,2,1.31,3.19,1.59,3.53.82,3.47,0,2.71,4-.31,1.61-.67,3.22-.88,4.84-.19,1.28-.88,1.63-2,1.35-.53-.13-1.08-.18-1.61-.34C207.14,87.33,206.37,87.65,206.82,89.34Z"/><path class="cls-12" d="M193.39,90.73a.71.71,0,0,1,.71.45c1.12,3.53,2.74,6.92,3.53,10.58a8.87,8.87,0,0,1-5,.13c-1.83-.42-3.71-.5-5.56-.82a3.32,3.32,0,0,1-2-.73c-.56-.93,0-1.61.53-2.29a33.3,33.3,0,0,1,3.53-3.44c.29-.33.6-.63.88-1C191,92.52,191.51,90.84,193.39,90.73Z"/><path class="cls-2" d="M185.08,99.84c3,.88,6.17.88,9.27,1.56a9.81,9.81,0,0,0,3.24.37c-3.13,1.62-6.55,2.45-9.84,3.65-3.64,1.32-7.35,2.48-11,3.7-.63-.79-.1-1.42.4-1.9,2.46-2.42,4.41-5.29,7.17-7.46A.83.83,0,0,1,185.08,99.84Z"/><path class="cls-16" d="M184.41,100c-1.55,2.5-3.81,4.41-5.7,6.6-.7.82-1.76,1.34-2,2.55-.49.31-.88.38-1.12-.3-1.18-3.43-2.37-6.86-3.53-10.3a1.7,1.7,0,0,1,.2-.47c1.14-1.08,2.4-.19,3.61-.23a4.33,4.33,0,0,0,1.76.45c1.61.28,3.25.17,4.86.53C183.3,99,184.07,99.11,184.41,100Z"/><path class="cls-17" d="M175.91,98.53l-3.63-.47c-1.08-1.46-1-1.9.58-2.44l1.34-.49a5.69,5.69,0,0,1,2.74-1.76c3.25-1,6.45-2.23,9.7-3.35a6.38,6.38,0,0,1,3.39-.4l1.54-.53c1.76-.65,2.06-.41,1.86,1.61L190.29,94c-2.1-.34-3.79.88-5.6,1.56-2.58.88-5.29,1.46-7.69,3A1.1,1.1,0,0,1,175.91,98.53Z"/><path class="cls-18" d="M44.81,84.57c-1.1-.08-2.28.78-3.23-.73-1.3-2.06-.88-3.53,1.49-4,1.21-.21,1.57-.44,1.23-1.69-.28-1,.67-1.43,1.47-1.76s1.76-.62,2.41.41c.47.78.82,1,1.68.31,1-.83,2.43-1.46,3.59-.19s.56,3-.88,4.14a2.51,2.51,0,0,0-.41.6c-.64.33-1.13-.23-1.7-.29A2.15,2.15,0,0,1,49.37,80c-.23.19-.4.44-.61.64-.74.71-2.07.46-2.55,1.09s0,1.86-.71,2.65A.62.62,0,0,1,44.81,84.57Z"/><path class="cls-19" d="M47,155c-.1.55-.13,1.16-.93,1s-1.5-.06-1.7-1a1.45,1.45,0,0,0-1.93-1.31,1.31,1.31,0,0,1-1.13-2.1,1.47,1.47,0,0,0-.26-2.07h0c-1-1-.77-2.05.54-2.54.88-.32,1.27-.69,1.15-1.72a1.36,1.36,0,0,1,2-1.37c1,.59,1.76.65,2.34-.57.32-.67.88-.41,1.42-.12a40.22,40.22,0,0,0-.94,4.48c-.19.16.09,0-.11.14-2.29,1.76-2.29,1.76.16,3.19a.75.75,0,0,1,.23.27C47.63,152.48,47.37,153.73,47,155Z"/><path class="cls-20" d="M190,89.65,174.2,95.12c1.64-2.72,3.77-5.07,5.61-7.65a.94.94,0,0,1,1.11-.43C183.93,88,187.12,88.24,190,89.65Z"/><path class="cls-21" d="M47.39,147.55c-.64-2-.19-3.85,1.12-4.41a.91.91,0,0,1,1,.88c.1,1.15.67,1.5,1.84,1.28a1.45,1.45,0,0,1,1.29,2c-.74,1-.5,1.55.33,2.26a1.39,1.39,0,0,1-.57,2.41A1.42,1.42,0,0,0,51,153.5s0,.06,0,.09c0,1.53-.93,2.13-2.23,1.4-.63-.35-1.16-.08-1.76,0-.59-1.44-.94-2.78.73-3.66A6.23,6.23,0,0,0,47.39,147.55Z"/><path class="cls-22" d="M222.81,121.7v4.41c0,1.13-.52,1.65-1.67,1.68s-1.76-.42-1.76-1.56v-9.13c0-1.23.81-1.46,1.86-1.44s1.61.41,1.6,1.51C222.81,118.65,222.81,120.18,222.81,121.7Z"/><path class="cls-23" d="M116.63,128.16c1.46,1.09,2.89,2.19,4.36,3.26,2.09,1.53,4.15,1.29,6.24-.05a40.33,40.33,0,0,0,4.81-3.53v1.82a5.29,5.29,0,0,1-2,1.84c-1.91,1.08-3.81,2.2-5.61,3.45a5.72,5.72,0,0,1-4.13,1.11,4.84,4.84,0,0,1-3.62-2.75h-.09Q116.59,130.73,116.63,128.16Z"/><path class="cls-24" d="M75.54,101.16c-1.17-5.81-2.13-11.66-3.64-17.4.32-.8-.67-2.28.7-2.38s1,1.58,1.46,2.46a4.91,4.91,0,0,1,.11,1.76c.61.64.05,1.62.66,2.26a5,5,0,0,0,.34,2c1.66,1.13,1.25,2.8,1.16,4.41-.31,2.07,1,3.94.78,6a2.93,2.93,0,0,1-.06,2.94C75.33,103.41,75.76,102,75.54,101.16Z"/><path class="cls-6" d="M120.29,135.46a4.89,4.89,0,0,0,3.4-1,59.17,59.17,0,0,1,8.3-4.88l.1,3.77,0-.1a6.74,6.74,0,0,1-2.92,2.57,50.8,50.8,0,0,0-4.41,2.8,3.53,3.53,0,0,1-1.65-.19,10.74,10.74,0,0,1-2.37-1.63C120.29,136.51,119.84,136.13,120.29,135.46Z"/><path class="cls-25" d="M55.78,102.19a3,3,0,0,1,3.74-.78c1.91,1.57,2.8,3.87,4.09,5.84.49.73,0,1.57-.77,2a1.76,1.76,0,0,1-2.43-.54C58.85,106.56,57.33,104.37,55.78,102.19Z"/><path class="cls-26" d="M176.07,166.2a30.48,30.48,0,0,0,4.41,6c.71,1.91.51,2.22-1.95,2.95L173,166.58C174.15,164.64,174.71,164.56,176.07,166.2Z"/><path class="cls-27" d="M68.27,172.26c2.19-1.56,3-4.07,4.41-6.17,1.21-1.76,2.26-.71,3.32.19l-5.57,8.82C68.79,174.84,67.6,174.27,68.27,172.26Z"/><path class="cls-28" d="M63.87,123.93c-1.84,1.52-3.29,1.35-4.61-.49a7.88,7.88,0,0,1-1.64-3.37c.76-1-.05-2.43,1-3.33.26-.23,0-1,.68-.8a1.31,1.31,0,0,1,.83.88c.15,2,1,.4,1.51.33,1.46-.1,1.14.71.79,1.54-.31.64-.6,1.29-.88,1.92-1.08,2.18-.7,2.94,1.66,3.24Z"/><path class="cls-29" d="M43.69,142.45c-.65,1.08-1.42.5-1.76-.11-.37-.78-.72-1.2-1.6-1a.26.26,0,0,1-.17,0c-.38-.24-.81-.88-.67-1,1.44-1.23-1.9-2.91.41-4,.35-.17.7-.35.73-.72.11-1.38.72-1.83,2-1.24.64.28.94-.37,1.36-.66,1,1,.78,2.1.34,3.23-1.12.88-1.22,1.76.13,2.55C44.89,140.62,43.62,141.34,43.69,142.45Z"/><path class="cls-30" d="M190.68,119.37c.64,2-1.52,5.85-3.77,5.51-.69-.11-1.35-.06-1.41-1,2.56-.37,2.74-.88,1.68-3.32-.29-.67-.88-1.17-1-1.9-.33-.83-.63-1.65.82-1.56.49,0,.65.49,1,.71.11-.06.29-.1.3-.17.11-.75.34-1.66,1.08-1.7s.78,1,1.09,1.63A4.85,4.85,0,0,1,190.68,119.37Z"/><path class="cls-31" d="M218.14,123.67v2.2c.1,1.3-.37,1.9-1.76,1.9s-1.61-.76-1.59-1.89q.05-2.47,0-4.94c0-1.18.52-1.61,1.67-1.61s1.76.39,1.68,1.6C218.1,121.84,218.14,122.76,218.14,123.67Z"/><path class="cls-32" d="M43.69,142.45c-.78-1.23-.11-2.12.71-3a8.89,8.89,0,0,1-.29-2.65c-.34-1.07.11-2.14,0-3.21.65,0,1.38-.24,1.56.73a.82.82,0,0,0,.71.74c1.68,0,1.93.79,1.26,2.18-.09.18.17.55.31.8s.44.44.51.7c.39,1.44-1.64,1.12-1.67,2.19,0,1.51-.63,1.76-1.91,1.16A1,1,0,0,0,43.69,142.45Z"/><path class="cls-22" d="M213.45,124.65v1.64c0,1.12-.61,1.48-1.63,1.46s-1.66-.39-1.68-1.48,0-2.07,0-3.1c0-1.26.43-1.93,1.76-1.92s1.58.88,1.53,1.94v1.46Z"/><path class="cls-33" d="M107.48,42.16c-.38.34-1.09.32-1.13,1-1.38-.4-1.48-1.76-2-2.77a7.6,7.6,0,0,0-1.9-2.33c-1.65-1.35-2.79-2.95-2.65-5.2.83-.41,1.61-1,2.65-.66-.62,2.21.65,3.36,2.21,4.66A8.66,8.66,0,0,1,107.48,42.16Z"/><path class="cls-34" d="M37.39,148.26c-.54.56-1,.34-1.3-.21-.18-.31-.24-.75-.66-.79-2.54-.26-1.31-2.43-1.48-3.53-.23-1.49,3.21-3.15,4.94-2.65-.78.74-.26,1.9-.88,2.69a1.34,1.34,0,0,0-.3,1.87l.14.17C38.35,146.71,37.77,147.47,37.39,148.26Z"/><path class="cls-35" d="M37.39,148.26c-.29-.83.21-1.63.11-2.45.08-.77.27-1.51.35-2.28-.27-1.09-.59-2.2,1-2.51.1.22.18.62.3.63,2.08.23,1.42,2.23,2.13,3.33.27.41,0,.88-.52,1.19-.26.13-.68.34-.68.5,0,1.6-1,1.49-2.1,1.31C37.84,148,37.62,148.16,37.39,148.26Z"/><path class="cls-36" d="M142.3,43.2a.88.88,0,0,0-.81-.81c-.56-1.56.66-2.57,1.21-3.77a4.76,4.76,0,0,1,1.29-1.5c1.52-1.32,2.78-2.79,3-4.91.66-.15,1.24.22,1.87.31a5,5,0,0,1-2.1,5.06c-1.84,1.31-2.59,3.26-3.67,5C142.84,42.95,142.73,43.22,142.3,43.2Z"/><path class="cls-37" d="M197.18,150.86a7.35,7.35,0,0,1,2.29-3.69c1.6-.44,2.55.25,3,1.76a10.71,10.71,0,0,1-2.27,3.83C198.45,152.92,197.75,152.49,197.18,150.86Z"/><path class="cls-38" d="M180.53,130.77c2.5,1.76,4.89,3.7,7.8,4.79l-.88,1.09a66.44,66.44,0,0,1-7.78-4.82A1.53,1.53,0,0,1,180.53,130.77Z"/><path class="cls-39" d="M33.1,125.46l-.37.88c-1.9-1.63-3.31-3.77-5.49-5.1l-.48-.47c.15-1.59.88-2.54,2.65-2.52l.38.38c1.33,1.34,2.65,2.65,4,4,.39.4,1.09.69.78,1.48l-.35.31c-.78.49-1.24-.12-1.72-.56-.88-.82-1.71-1.76-2.42-2.38C30.87,122.78,32.91,123.4,33.1,125.46Z"/><path class="cls-40" d="M60.55,135.56c2.5-.93,4.41-2.89,6.77-4,.2-.1.25-.53.36-.8a1.9,1.9,0,0,1,1.38,1.11,77.6,77.6,0,0,1-7.76,4.81Z"/><path class="cls-41" d="M202.53,148.92l-3-1.76c.34-1.06.5-2.27,2.05-2.17,1.22-.25,1.86.4,2.24,1.45A2.75,2.75,0,0,1,202.53,148.92Z"/><path class="cls-42" d="M197.18,150.86l3.06,1.9c-.62,1-.68,2.84-2.72,1.64S195.27,152.76,197.18,150.86Z"/><path class="cls-43" d="M33.1,125.46c-1.35-1.39-2.71-2.77-4-4.18-.33-.35-1.06-.71-.41-1.31s1,.13,1.33.47c1.41,1.32,2.8,2.65,4.2,4h0c.26.76.43,1.45-.8,1.16Z"/><path class="cls-44" d="M203.78,146.45,201.54,145c-.11-1.11,1.16-1.76,1-2.89a17,17,0,0,0,3.53,1.95C204.49,144.14,204.29,145.46,203.78,146.45Z"/><path class="cls-45" d="M52.57,74.13c-.1,1-.53,1.65-1.56,1.68a1.66,1.66,0,1,1-.06-3.3C52,72.52,52.43,73.19,52.57,74.13Z"/><path class="cls-46" d="M40.63,80.19c-1.1-.12-1.76-.68-1.69-1.76a1.48,1.48,0,0,1,1.39-1.57h.24a1.51,1.51,0,0,1,1.65,1.76A1.58,1.58,0,0,1,40.63,80.19Z"/><path class="cls-47" d="M46.55,74.2A1.69,1.69,0,0,1,44.93,76h-.14a1.68,1.68,0,0,1-.11-3.35,1.7,1.7,0,0,1,1.87,1.51Z"/><path class="cls-48" d="M113.24,73.25l22,0c-.35.48-.88.34-1.34.34H114.62A1.88,1.88,0,0,1,113.24,73.25Z"/><path class="cls-49" d="M29.41,118.26l-2.65,2.52c-1.54-1.15-.83-2.17.24-3.06S28.88,116.89,29.41,118.26Z"/><path class="cls-50" d="M76.31,94.29c-1-1.3-.58-3-1.16-4.41a2,2,0,0,1,2.33,1.49C78,92.67,77.3,93.56,76.31,94.29Z"/><path class="cls-51" d="M50.66,80.9c.7-.14,1.08.32,1.5.75a5.92,5.92,0,0,1-7.35,2.92l.41-.43a3,3,0,0,1,1.81-.7A4.24,4.24,0,0,0,50.66,80.9Z"/><path class="cls-52" d="M34.56,124.13c-1.3-1.34-2.59-2.65-3.88-4-.41-.42-1-.77-.88-1.48,2.17,1.16,3.53,3.21,5.22,4.86C35.4,123.88,35,124.1,34.56,124.13Z"/><path class="cls-53" d="M27.26,121.25c.22,0,.56-.2.65-.11,1.67,1.68,3.69,3,4.83,5.2-.23,0-.56.14-.66,0C30.46,124.7,28.86,123,27.26,121.25Z"/><path class="cls-54" d="M34.92,124.88c1.62-.07,1.17,1.38,1.24,2.07.11,1-1,.56-1.31.36s-1.62.35-1.4-.93A7.65,7.65,0,0,0,34.92,124.88Z"/><path class="cls-55" d="M189.94,161.92c.12-1.14-.43-1.61-1.53-1.53a1.15,1.15,0,0,1,2-.33,1.1,1.1,0,0,1-.48,1.85Z"/><path class="cls-56" d="M198,160.43c-.1.21-.13.49-.3.63-.53.44-.81,1.21-1.62,1.24-.07,0-.25-.29-.22-.41a1.83,1.83,0,0,1,1.39-1.46Z"/><path class="cls-57" d="M187,117.11c-.88.19-.74.93-.82,1.56a1.15,1.15,0,0,1-.4-1.94C186.21,116.24,186.8,116.39,187,117.11Z"/><path class="cls-58" d="M62.42,118.65c-.07-.62.16-1.38-.79-1.54.22-.74.82-.88,1.21-.38a1.13,1.13,0,0,1-.41,1.92Z"/><path class="cls-59" d="M77,103.21l.06-2.94C78,101.28,78.49,102.27,77,103.21Z"/><path class="cls-60" d="M121.72,60.7a2.17,2.17,0,0,1-1.35,1.57C120.11,61.1,120.67,60.69,121.72,60.7Z"/><path class="cls-61" d="M74.82,87.84c-1-.51-.62-1.46-.66-2.26C75.25,86.12,74.75,87.08,74.82,87.84Z"/><path class="cls-39" d="M34.92,124.88c.09,1.06-.61,1.35-1.46,1.51v-.73c.73-.06.88-.56.8-1.16Z"/><path class="cls-62" d="M123.35,138.11l1.34.26c1-.44,1.61,0,2.11.82a1.66,1.66,0,0,1-.08,1.42c-1.12,1.91-.57,3.91-.24,5.86a23.67,23.67,0,0,1,.44,7.05,76.71,76.71,0,0,1-1.76,7.73,15.08,15.08,0,0,0-.5,2.85h-.58a.7.7,0,0,0-.06-.35l.11-.36a58.7,58.7,0,0,0-.64-6.3c-.52-4.55-.21-9.1-.13-13.64,0-1.59-.3-3.13-.24-4.71A.65.65,0,0,1,123.35,138.11Z"/><path class="cls-63" d="M137.38,184.24h3.42c.88,0,1.41.34,1.41,1.28s-.53,1.27-1.41,1.27h-6.93c-.88,0-1.15-.49-1.15-1.28s.3-1.27,1.16-1.26Z"/><path class="cls-64" d="M111.23,186.78h-3.64c-.83,0-1.2-.37-1.22-1.21s.34-1.34,1.28-1.33h7.1c.82,0,1.45.25,1.47,1.21s-.63,1.34-1.53,1.33h-3.46Z"/><path class="cls-65" d="M110,42.35V40.19C110.86,40.93,111.47,41.66,110,42.35Z"/><path class="cls-10" d="M115.12,110.31c-2.17,0-2.15,0-1.48-2a18.52,18.52,0,0,1,1.76-4.59,1.76,1.76,0,0,1,2.35-.85l.09,0a68.35,68.35,0,0,0,11.53,2.82c.88.17,1.76.19,2.72.27.23-.82-.64-1-.67-1.65,2.23-.74,2.56-.61,3,1.54.34,1.61,1.76,2.84,1.51,4.62-.34.46-.79.43-1.31.36a18.18,18.18,0,0,0-7.05.41,13.83,13.83,0,0,1-6.17.15,16.91,16.91,0,0,0-4.83-.71A1.76,1.76,0,0,1,115.12,110.31Z"/><path class="cls-66" d="M121.53,110.89a19.94,19.94,0,0,0,7.2-.4,19.82,19.82,0,0,1,7.22,0c1.83-.13,1.56,1.18,1.59,2.29-.31.63-1,1-1.16,1.76-1.08,0-.88-1.18-1.42-1.66-2.31-1.94-6.64-1.64-8.15.58-.43.5-.38,1.48-1.37,1.46-.34-.51-.17-1.43-1.08-1.46s-.88.88-1.1,1.39-.29.77-.43,1.16c-.5.12-.68-.23-.88-.58-.05-1.59-.88-2.9-1.44-4.34C120.79,110.68,121.15,110.77,121.53,110.89Z"/><path class="cls-67" d="M121.53,110.89l-.88.41c-.6.77-1.42.43-2.18.43-1.68,0-3.39-.14-4.74,1.16-.56.51-.4,1.63-1.46,1.7-.23-1.12-1.34-1.92-1.17-3.19.44-.88,1.26-.8,2.05-.81a3.42,3.42,0,0,0,2-.26A14,14,0,0,1,121.53,110.89Z"/><path class="cls-68" d="M135.71,112.41c.64.59.12,1.54.66,2.16-.71,4.35-2.55,5.37-6.09,5.07-2.65-.22-4.12-1.76-4.84-4.67.63-.46.18-1.32.69-1.83.78.41.69,1.22.88,1.9a3.87,3.87,0,0,0,4.24,3.18c2.26-.14,3.28-1.13,3.65-3.53C135,113.88,134.82,112.95,135.71,112.41Z"/><path class="cls-69" d="M112.27,114.58c.57-.61,0-1.57.67-2.15.75.45.68,1.22.78,1.93.25,1.68.59,3.23,2.65,3.69a4.08,4.08,0,0,0,4.74-1.76c.35-.47.59-1.1,1.37-1l.36.75c-1,2.65-2.82,3.79-5.77,3.64-2.65-.12-3.71-1.11-4.53-4.07C112.44,115.29,112.36,114.93,112.27,114.58Z"/><path class="cls-70" d="M123.22,138.4c1,.33.72,1.16.73,1.84,0,2.92.11,5.84,0,8.75-.17,4.07.51,8.11.38,12.18a4.47,4.47,0,0,1-.25,2.14,53.26,53.26,0,0,1-2.43-10.21,19,19,0,0,1,.06-7.43c.35-2.21-.41-4.29-.64-6.43C121.56,138.33,122.21,137.85,123.22,138.4Z"/><path class="cls-71" d="M121.4,139.18c2.13,3.25.88,6.71.64,10.11-.1,1.26-.26,2.52-.39,3.78-1.33-3.39-1.84-7-2.81-10.49-.18-.63-.26-1.31-.37-1.95C119.17,139.57,119.94,138.69,121.4,139.18Z"/><path class="cls-72" d="M121.4,139.18c-1,.34-1.76,1.32-2.93,1.45a57,57,0,0,1-1.83-7.35l3.65,2.22,3,2.58c0,.11-.09.21-.12.33Z"/><path class="cls-73" d="M126.92,153.49c-.72-3.53-1.16-7.05-1.76-10.58-.28-1.62,1.37-2.28,1.29-3.65,1.61-.88,2.74-.55,3.8,1.08A134,134,0,0,1,126.92,153.49Z"/><path class="cls-74" d="M130.21,140.29a10.85,10.85,0,0,0-3.8-1.08l-1.76-.88a3,3,0,0,1,1.76-1.9c2-.8,3.53-2.35,5.56-3.15A48.27,48.27,0,0,1,130.21,140.29Z"/><path class="cls-48" d="M124.39,67h4.92c1,0,1.45.39,1.32,1.61-.39,3.85-.32,3.86-4.14,3.86-2.25,0-4.5-.05-6.75,0-1.28,0-1.71-.46-1.68-1.71.08-4.48-.43-3.73,3.77-3.8h2.55Z"/><path class="cls-75" d="M212.59,136.94c.55,2-1.23,3.88-3.17,4.89-1.39.72-3.53.11-4.83-1.22-2.05-3.79-.6-6.85,3.59-7.57,1.45-.25,3.53,1.17,4.12,2.84A8.93,8.93,0,0,0,212.59,136.94Z"/><path class="cls-76" d="M212.59,136.94a19.22,19.22,0,0,0-1.49-2c-1.53-1.62-2.94-1.76-4.84-.66A4.36,4.36,0,0,0,204.4,139a8.82,8.82,0,0,1,.18,1.61c-2.33-1.16-1.76-3.34-1.39-5.07a3.87,3.87,0,0,1,3.53-3.09,3.53,3.53,0,0,1,3,.08C211.4,133.54,212.94,134.63,212.59,136.94Z"/><path class="cls-77" d="M209.72,132.54l-3-.08a1.86,1.86,0,0,1,3,.08Z"/><path class="cls-78" d="M209.91,86.51c-3.29-.64-6.17-1.23-9.13-1.76-1-.18-1.12-.71-.94-1.56.29-1.43.55-2.87.8-4.29.16-.88.51-1.38,1.6-1.14q4.27.93,8.58,1.68c1.09.19,1.24.72,1,1.65-.3,1.43-.56,2.86-.82,4.29C210.88,86.21,210.47,86.7,209.91,86.51Z"/><path class="cls-79" d="M184.41,100l-6.92-1.2c-.14-.88.51-1,1.08-1.2,3.13-1,6.17-2.18,9.3-3.24.66-.23,1.39-.68,1.68.47l-4.46,5Z"/><path class="cls-80" d="M189.55,94.82a.88.88,0,0,0-1-.22q-5.29,1.84-10.58,3.7c-.2.07-.34.33-.51.49a2.5,2.5,0,0,1-1.57-.26c3.77-2.28,8.14-3,12.1-4.78.88-.39,1.6-.55,2.24.32A1.13,1.13,0,0,1,189.55,94.82Z"/><path class="cls-81" d="M176.6,96l12.48-4.41.24.63c-4,1.87-8.26,3-12.42,4.48Z"/><path class="cls-82" d="M50.66,80.9c.78.46.78.88.11,1.54a6.49,6.49,0,0,1-5.57,1.69,3.34,3.34,0,0,0-.61-3.77,3,3,0,0,0,3,.26,2.13,2.13,0,0,0,1.52-2.31C50.09,79.11,49.58,80.47,50.66,80.9Z"/><path class="cls-83" d="M47.39,147.55c1.88,1.26,2,2.18.37,3.75-.88,0-1.83.3-2.48-.63A1.81,1.81,0,0,1,45,148.8,2.15,2.15,0,0,1,47.39,147.55Z"/><path class="cls-83" d="M44.11,136.87c1.26.74,1.41,1.6.29,2.65-1,.16-1.95,0-2-1.19S43.19,136.93,44.11,136.87Z"/><path class="cls-83" d="M37.86,143.53c1.21,1,1.06,1.76-.35,2.28-.63-.18-1.13-.5-1.07-1.23S37.15,143.56,37.86,143.53Z"/><path class="cls-84" d="M135.71,112.41v1.46c-.11,3.53-1.61,5.1-4.95,5.08-3,0-4.41-1.65-4.59-5.08a2.87,2.87,0,0,0-.06-.72,1.76,1.76,0,0,1,.77-1.18C128.76,110.46,133.9,110.73,135.71,112.41Z"/><path class="cls-84" d="M122.46,115.3c-.73,2-1.76,3.53-4.21,3.64-4,.18-5.49-1.61-5.29-6.52,1.76-1.85,4-1.38,6.11-1.36a12.35,12.35,0,0,1,1.61.23C122.66,112,122.58,113.65,122.46,115.3Z"/><path class="cls-85" d="M210.64,81.79a2.46,2.46,0,0,1-.53.48c-.33.15-.79.12-1,.34-1.38,1.37-2.38,1.29-3.32-.53-.41-.81-1.29-.44-1.95-.08a8.55,8.55,0,0,0-2.16,1.33.56.56,0,0,1-.88-.12.48.48,0,0,1,.33-.71,8.65,8.65,0,0,0,4-2.05c.34-.3.71,0,.88.37.88,2.29,2.08,2.22,3.61.63a.63.63,0,0,1,.83-.13C210.47,81.39,210.51,81.58,210.64,81.79Z"/></svg>