<svg id="Слой_1" data-name="Слой 1" xmlns="http://www.w3.org/2000/svg" viewBox="0 0 250 250"><defs><style>.cls-1{fill:#c8a299;}.cls-2{fill:#f9c83f;}.cls-3{fill:#a18179;}.cls-4{fill:#dfdfe1;}.cls-5{fill:#0a141c;}.cls-6{fill:#0a141b;}.cls-7{fill:#1d3240;}.cls-8{fill:#1e323e;}.cls-9{fill:#2c4757;}.cls-10{fill:#2e484f;}.cls-11{fill:#12222c;}.cls-12{fill:#30767a;}.cls-13{fill:#10222c;}.cls-14{fill:#14232f;}.cls-15{fill:#a88e3b;}.cls-16{fill:#d8bf5c;}.cls-17{fill:#9c8f3c;}.cls-18{fill:#e9e6e4;}.cls-19{fill:#493733;}.cls-20{fill:#3f2b26;}.cls-21{fill:#553e39;}.cls-22{fill:#5e463f;}.cls-23{fill:#f79a1d;}.cls-24{fill:#479daa;}.cls-25{fill:#499fac;}.cls-26{fill:#a58e2e;}.cls-27{fill:#527145;}.cls-28{fill:#243f4c;}.cls-29{fill:#0e414e;}.cls-30{fill:#ee9c30;}.cls-31{fill:#36391f;}.cls-32{fill:#d4d178;}.cls-33{fill:#14222c;}.cls-34{fill:#13222d;}.cls-35{fill:#7e99ae;}.cls-36{fill:#112736;}.cls-37{fill:#6d8290;}.cls-38{fill:#1b303e;}.cls-39{fill:#1d323c;}.cls-40{fill:#717070;}.cls-41{fill:#adacad;}.cls-42{fill:#b8b8b8;}.cls-43{fill:#737270;}.cls-44{fill:#767475;}.cls-45{fill:#848383;}.cls-46{fill:#535152;}.cls-47{fill:#5a5859;}.cls-48{fill:#aba9aa;}.cls-49{fill:#b1b1b1;}.cls-50{fill:#777676;}.cls-51{fill:#464244;}.cls-52{fill:#676767;}.cls-53{fill:#575556;}.cls-54{fill:#2b2b2b;}.cls-55{fill:#d3d3d3;}.cls-56{fill:#b7b6b7;}.cls-57{fill:#2e2d2d;}.cls-58{fill:#696868;}.cls-59{fill:#cfcecf;}.cls-60{fill:#bbb8b9;}.cls-61{fill:#9a9999;}.cls-62{fill:#5d5d5d;}.cls-63{fill:#787777;}.cls-64{fill:#cdcdcd;}.cls-65{fill:#464646;}.cls-66{fill:#554727;}.cls-67{fill:#3b5b46;}.cls-68{fill:#1e7a8c;}.cls-69{fill:#479ca9;}.cls-70{fill:#273641;}.cls-71{fill:#284657;}.cls-72{fill:#1f313a;}.cls-73{fill:#152937;}.cls-74{fill:#142836;}.cls-75{fill:#132935;}.cls-76{fill:#122634;}.cls-77{fill:#132837;}.cls-78{fill:#2c3f4f;}.cls-79{fill:#132737;}</style></defs><title>service-delivery</title><path class="cls-1" d="M34.93,164c-3.6,0-7.21-.2-10.8,0-2.85.18-3.66-.76-3.63-3.62.15-18.84.12-37.68.14-56.52,0-9,.06-18,0-27,0-2.29.62-3.13,3-3.13q60.66.1,121.32.06a9,9,0,0,1,1.07.12c1.22,1.55,1,3.39,1,5.18,0,24.72-.08,49.45-.06,74.17,0,6.22-.53,6.78-6.77,6.78q-55.81,0-111.62,0c-1.73,0-3.57-.39-5.45.88,2.45,1.84,5,.73,7.38,1.11C32.17,162.3,34.25,161.57,34.93,164Z"/><path class="cls-2" d="M231.07,154.52c.86,1.6.75,3.37.89,5.1a4,4,0,0,1-3.29,1c-3-.12-3.8,1.54-3.79,4.23,0,3.18.37,6.39-.43,9.55-1.76,2.58-3.75,2-5.81.42-2.82-2.91-5.33-6.2-9.13-8-8.92-4.15-18.24-2-24.53,5.7a21.59,21.59,0,0,1-1.94,2.13,6.28,6.28,0,0,1-3.32,1.7c-8.74.44-17.48.19-26.23.14-1.43,0-2.91-.19-3.74-1.67a10.64,10.64,0,0,1-.45-4.25q0-32,0-63.92a11.82,11.82,0,0,1,.09-1.38,3.12,3.12,0,0,1,.89-1.81c13.48-.06,27-.15,40.44-.14,2.71,0,3.77,2,4.13,4.39-1.72.9-1.87,2-1,3.76,2,3.9,3.6,8,5.61,11.93.65,1.26,1.89,2.7.11,4.12a8.21,8.21,0,0,1-3.62-.07c-1.9-.83-2.82-2.56-3.5-4.3-1.47-3.77-3.78-7.12-5.22-10.9-1-2.65-2.66-4.15-5.66-3.61-.79,0-1.58,0-2.37.07-5.8.09-11.6.14-17.4,0-1,0-2-.15-2.8.55-1,2.29-.5,4.69-.49,7,0,6-.35,12.1.24,18.13a6.57,6.57,0,0,1,.31,1.21c.44,9.35.09,18.71.2,28.06.06,4.71.23,4.89,4.83,4.93,2,0,4.09-.14,6.12,0,5.72.49,10.81-.25,14.94-5,2.22-2.56,5.84-3.34,9.13-3.93s4-2.23,4-5.21c-.1-4.67-.22-9.35.09-14,.42-1.8,1-3.19,3.38-2.26,1.85.73.83-1.14,1.34-1.66a2.54,2.54,0,0,1,2.93-1.58c6,1,11.94.32,17.91.45,2.77.06,3.92,1.35,3.83,4,0,.23,0,.52-.18.65-1.43,1.13-3.19,1.93-2.79,4.36s2.83,1.61,4.09,2.62C230.61,149.25,230.07,152.1,231.07,154.52Z"/><path class="cls-3" d="M34.93,164c-1.14-1.36-2.76-.35-4-.8-3.12-1.1-9.11,2.61-9.07-2.21,0-4.45,6.06-1.93,9.23-1.95,36.74-.22,73.49-.14,110.24-.14,4.69,0,4.69,0,4.7-4.63q0-40.17,0-80.34c2.59,0,1.86,2.09,1.87,3.4.09,7.48,0,15,.07,22.45,0,1.24-.45,2.66.84,3.63-.78,18.37-.14,36.76-.37,55.14,0,1.87.4,3.86-.95,5.52-1.92,1.39-4.14,1-6.27,1-23.53,0-47.05.15-70.58-.1-3.18.16-6.35,0-9.53,0-6.82-.16-13.64.1-20.47,0-2.43,0-4,.74-3.88,3.44a5.66,5.66,0,0,1-.15,1.76c-.41,1.6-1.32,2.64-3,2s-1.56-1.84-.77-3.15c1.16.1.33,2.13,1.57,1.84s.64-1.57.67-2.41C35.09,167,35,165.48,34.93,164Z"/><path class="cls-4" d="M196.6,199.87c-13.8,0-27.61.09-41.41.09q-42.86,0-85.72-.07c3-2.55,5.82-5.4,9.75-6.63,4.56-.36,9.13-.22,13.69-.21,31.34.07,62.69-.18,94,.11,1.53-.25,2.48.74,3.32,1.75C192,197,195.14,197.38,196.6,199.87Z"/><path class="cls-5" d="M78.28,193.57a20.75,20.75,0,0,1-8.81,6.31c-10.16.8-16.49-2.91-18.91-11-1-3.23-.46-6.4.17-9.59-.63-1.7.14-3.09,1.17-4.27,4.37-5,9.53-7.61,16.48-6.25,6.48,1.26,10.41,4.9,12.27,11.06.14.46.36.89.51,1.34C82.47,185.83,82.07,190.1,78.28,193.57Z"/><path class="cls-6" d="M196.6,199.87a20.64,20.64,0,0,1-8.81-6.4c-3.78-2.74-3.2-6.68-2.89-10.54,2.06-9.56,6.29-13.83,15-14.49,6.26-.47,11.1,2.44,14.65,7.51a3.36,3.36,0,0,1,.71,3.37C218.9,190.31,210.71,202.31,196.6,199.87Z"/><path class="cls-7" d="M32.79,169.09c.1,1.09-.36,2.71,1.4,2.65,2.51-.09,1.13-2.33,1.66-3.55,4.85-2,9.84-1,14.8-.68,1.74.69,1.08,1.85.41,2.81A82.12,82.12,0,0,0,45.8,179c-2.15,2.75-1.39,5.88-1.23,9,0,.86,1.47,2.12-.52,2.54-1.75.37-2.41-.67-2.47-2.2a39.73,39.73,0,0,1,0-6.45c.26-2.12-.33-2.84-2.42-2.65s-4.27.43-3.78-2.87c0-.3-.45-.87-.8-1a.94.94,0,0,0-1.27.85c-.12.69-.16,1.6-1.19,1.29s-.7-1.27-.55-1.84C32.11,173.52,30.09,170.85,32.79,169.09Z"/><path class="cls-8" d="M223.86,174.74c0-3.83.23-7.66,0-11.48-.13-2.67.69-3.74,3.41-3.46a31.23,31.23,0,0,0,4.64-.19c5,.55,5,.55,5,5.78,0,2.39-.1,4.78-.15,7.17-2.32,1.72-5,1.08-7.53,1s-4.17.19-3.79,3.26a2.9,2.9,0,0,1-.93,2.23l-.29.14-.31-.1C222.59,177.65,222.9,176.2,223.86,174.74Z"/><path class="cls-9" d="M45.8,179c0-4.65,3.62-7.32,5.8-10.77,2.28-3.22,5.84-3.67,9.31-4.33l9.4,0c3.31.66,6.56,1.47,9.11,3.91a21.88,21.88,0,0,1,5.49,6.94c.65,1.44,1.72,3,.39,4.64a3.53,3.53,0,0,1-3.28.11c-1.19-.75-1.6-2.06-2.22-3.21a16.45,16.45,0,0,0-26.82-3c-1.6,1.81-2.88,3.82-4.31,5.73A4.84,4.84,0,0,1,45.8,179Z"/><path class="cls-10" d="M182.75,174.05c7.81-13.1,27.06-14.09,36,0,1,1.52,3.2,2.65,1.58,5l-3,0c-2.74-4.94-6.28-9-12-10.53a16.83,16.83,0,0,0-19.72,8.42,7.1,7.1,0,0,1-1.46,2.44,3.22,3.22,0,0,1-3.26,0C179.23,176.82,181.9,175.75,182.75,174.05Z"/><path class="cls-11" d="M184.2,179.05c.86-7.58,11.21-13.44,18.85-12.09s14.07,7.06,14.3,12.09l-2,.26a15,15,0,0,0-14-10.06c-5.8-.23-10.75,2.43-14.11,7.7-1.2,1.89.14,4.15-1.55,5.69C184.64,181.66,184.53,180.31,184.2,179.05Z"/><path class="cls-12" d="M199.34,127.5c1.1-1.39-.05-2.48-.56-3.58-2-4.33-4-8.68-6.18-12.89-1.53-2.9-.93-3.87,2.26-3.3q5.71,12.2,11.42,24.41c.35.75.58,1.55.87,2.33-2.23,2.39-3.54,0-5.14-1C202,131.13,200.4,129.42,199.34,127.5Z"/><path class="cls-13" d="M48.69,179.05c.79-5.89,8.09-11.22,14.3-12.17,8.29-1.26,17.13,4.07,18.86,12.2a3.62,3.62,0,0,1-1.54,2.13c-1.1-2.21-1.55-4.65-3.25-6.66-7-8.31-22.19-6.7-26.32,4.73Z"/><path class="cls-14" d="M224.55,179c0-6.46,0-6.46,6.55-6.46h5.71c.5,6.67.5,6.68-6.17,6.66C228.61,179.21,226.58,179.1,224.55,179Z"/><path class="cls-15" d="M147.45,163.73q0-27.66,0-55.32a7.4,7.4,0,0,1,1.4-5l1.48.1-.19,1.35c-1.56,3.19-1,6.6-.86,9.9.67,15.91.51,31.82-.21,47.72a3.13,3.13,0,0,1-.5,1.19l-.52.39Z"/><path class="cls-16" d="M202.38,133.66c1.68-.26,2.77,3,4.77.81,5.29,1.32,10.68.59,16,.52,3.43,0,4.89.9,5.29,4.43.57,5.06,2.3,10,2.62,15.09-1.65-2.13-1-5-2.2-7.21a6.38,6.38,0,0,1-1.43-7.16c.24-3-1-4.42-4.16-4.36-5.62.1-11.24.08-16.86,0-1.6,0-2.93.11-2.8,2.2-2.49-.19-2.17-1.92-2-3.59A1.36,1.36,0,0,1,202.38,133.66Z"/><path class="cls-17" d="M220.32,179.07c.42-2-1.26-3.26-1.58-5,1.58,1.14,3.22,1.86,5.11.66q0,2.17.09,4.34Z"/><path class="cls-18" d="M57.34,110.55c-6.37,0-12.74-.08-19.1,0-2.41,0-3.44-.56-3.37-3.2.17-6.36.14-12.73,0-19.1-.05-2.42.86-3.05,3.15-3q19.64.12,39.28,0c2.28,0,3.21.58,3.16,3-.14,6.48-.12,13,0,19.46,0,2.25-.8,2.88-2.95,2.85C70.79,110.49,64.06,110.55,57.34,110.55Z"/><path class="cls-19" d="M134.92,151.58c-.7-2-.16-4.1-2-5.58a1.55,1.55,0,0,1,.12-2.5,4,4,0,0,1,3.77-.12,1.6,1.6,0,0,1,.33,2.49C135.41,147.49,135.33,149.53,134.92,151.58Z"/><path class="cls-20" d="M120.91,146c1.2-2.27,2.59-3,4.42-2.69,1.07.18,2.27.67,2.46,1.82.22,1.35-1.25.62-1.8,1.06-1.61,1.31-.83,3-.52,4.55.08.42,1.67.54.52,1.34-.92.64-1.53-.12-1.71-1.07a5.51,5.51,0,0,1-.07-1.43C124.37,147.39,124.35,145.35,120.91,146Z"/><path class="cls-21" d="M113.45,147.38c.68,1.21-1,3.83,1.26,3.67,1.84-.13.64-2.61.9-4,.15-.8-1-2.21.58-2.27,1.4-.05.79,1.38.8,2.24a9.44,9.44,0,0,1-.05,2.5c-.28,1,1.33,2.39-.12,2.76s-3.48.88-5-.43c-.07-.06.26-.61.41-.93C113.13,149.92,111.48,148,113.45,147.38Z"/><path class="cls-22" d="M113.45,147.38c-1.19.9,0,2.65-1.25,3.53,0-1.32-.05-2.63-.1-3.95,0-.79-.65-1.68.33-2.27a1.07,1.07,0,0,1,1,.07C114.44,145.59,113.41,146.5,113.45,147.38Z"/><path class="cls-23" d="M199.12,139.3q.1,9.18.21,18.35c0,1.54-.57,2.46-2.25,2.64-6,.67-11.3,3-15.24,7.78a4.76,4.76,0,0,1-4.15,1.63c-5.4-.07-10.81-.13-16.2,0-2.5.07-3.32-.73-3.29-3.26.14-10.44.1-20.88.12-31.33,2.81-2.36,6.12-.73,9-.6,8.15.39,16.28,0,24.42.25,2.27.06,4.37.21,5.17,2.84C197.42,138.46,198.53,138.53,199.12,139.3Z"/><path class="cls-24" d="M182,107.9c3-1.07,4.5.21,5.76,2.92,2.6,5.56,4.69,11.4,8.36,16.42,1.68,2.51.75,4.93-.27,7.35-2.56,1-5.22.28-7.83.48-2.12-.44-4.47.05-6.32-1.52-1.48-3.75-1.39-7.68-1.37-11.61,0-3.34,0-6.68,0-10C180.35,110.38,180.2,108.73,182,107.9Z"/><path class="cls-25" d="M161,107.69c6.25,0,12.5-.35,18.74.21,1.27,1.15.81,2.68.82,4.06,0,4.19.08,8.39,0,12.58-1,2.87-2.65,1.37-3.74.29-5.36-5.28-10.94-10.37-15.85-16.1A1.13,1.13,0,0,1,161,107.69Z"/><path class="cls-26" d="M148.15,163.93c.93-14,.7-28,.73-42.05,0-4.31-1.16-8.54-.74-12.88.16-1.65-.15-3.46,2-4.16,0,.27,0,.53,0,.8-.41,6.95-.14,13.9-.16,20.85,0,14.75,0,29.51,0,44.26a10.93,10.93,0,0,0,.24,3.92c1.07,1.15,2.48.69,3.75.7,8.88,0,17.76,0,26.65,0,.58,2.79-1.22,3.75-3.4,3.81-8.48.26-17,.19-25.46,0-2.44,0-3.75-1.47-3.78-3.88C147.89,171.57,147.57,167.74,148.15,163.93Z"/><path class="cls-27" d="M161,107.69l.17.74c-1.88,4.13-.9,8.52-1.13,12.8-.08,1.44.06,2.88,0,4.32.06,7.58.06,7.58,7.51,7.87a8.47,8.47,0,0,1,1.84.25c6.13.68,12.28.52,18.42.75l7.86-.1a1.85,1.85,0,0,1,1.35,1.07c.42,1.4.62,2.75-.68,3.85-.47-2.91-2-3.72-5-3.66-11,.22-22,.31-32.94-.43l-.06-.16a218.25,218.25,0,0,1,0-27.17Z"/><path class="cls-28" d="M196.44,135.11l-.8-.81.46-7.07c1.19-1.29,2.19-.18,3.24.26,2.34,1.4,3.84,3.22,3,6.16l-.1,0c-.6.49-.55,1.25-.75,1.9a3.54,3.54,0,0,1-3.33,2.67C195.91,138.39,197.43,136,196.44,135.11Z"/><path class="cls-15" d="M150.2,174.67c-.9-.88-.59-2-.59-3.06q0-31.44,0-62.87c0-1-.31-2.17.52-3.09Q150.16,140.15,150.2,174.67Z"/><path class="cls-29" d="M179.82,125.7q0-8.91-.07-17.81a2.84,2.84,0,0,1,2.23,0c-1.08,7-.55,14.1-.25,21.15.06,1.52.32,3.08.33,4.63-.76,1.06-1.6,1.46-2.64.34C178.58,131.2,178.25,128.4,179.82,125.7Z"/><path class="cls-15" d="M148.15,163.93c1.55,3.42.61,7,.64,10.53,0,3,1,4,4,3.92,7.89-.15,15.78-.07,23.68,0,2.15,0,3.8-.48,4.13-2.94l2.16-1.35-2.12,5.17-.43.36c-1.38.57-2.67,1.54-4.31,1-7.49-.85-15-.16-22.48-.4-1.88-.06-3.84.28-5.5-1A26.67,26.67,0,0,1,148,164Z"/><path class="cls-30" d="M227.43,140.15l1.43,7.16c-2.69.12-5.46.83-5.15-3.75C223.91,140.7,224.73,139.71,227.43,140.15Z"/><path class="cls-31" d="M196.44,135.11c1.23.42.07,2.67,1.77,2.53a3.49,3.49,0,0,0,2.83-2.32,8.24,8.24,0,0,1,1.23-1.61c0,1.57-.73,3.38,1.34,4.31.09.64.95,1.22.32,1.89s-1.28.21-1.77-.31c-.95-1-1.86-1.93-3.05-.3-.94,0-1.88.49-2.81-.07Q196.37,137.17,196.44,135.11Z"/><path class="cls-32" d="M158.22,107.8q0,13.59,0,27.18c-.24-.39-.68-.78-.68-1.16q-.07-12.41,0-24.82C157.56,108.6,158,108.2,158.22,107.8Z"/><path class="cls-33" d="M78.95,168.25c-2.64-1.91-5.78-2.84-8.63-4.33l72.83-.12c1.43,0,2.87,0,4.3-.07l-.07.34c1,5.26.9,5.37-4.32,5.27a36.52,36.52,0,0,1-3.86-.23c-9.78-1-19.58-.21-29.36-.43-1.79,0-3.58,0-5.37.06-7.6,1.28-15.24.51-22.86.51A5.66,5.66,0,0,1,78.95,168.25Z"/><path class="cls-34" d="M60.91,163.94c-3.31,1-6.22,2.86-9.31,4.33l-15.75-.07c-.74-3.29.23-4.65,3.93-4.48C46.81,164.05,53.86,163.9,60.91,163.94Z"/><path class="cls-35" d="M71.77,179.09c1.76-.41,2.27.83,2.77,2.1a10,10,0,0,1-3.11,11.27,10.13,10.13,0,0,1-11.42.4,9.82,9.82,0,0,1-3.81-11.38,10.09,10.09,0,0,1,9.35-6.58A6.42,6.42,0,0,1,71,177.58l-.24.26c-.87.84-2.89-.33-3,1.72,0,.61.13,1.28.82,1.4C70.1,181.24,70.79,179.89,71.77,179.09Z"/><path class="cls-36" d="M71.77,179.09c.95,2.92-2,2.2-3.11,3.23-.67.65-1.71.07-1.95-.83-.37-1.39-.51-3.1.36-4.13,1.07-1.27,2.56.79,3.95.22Z"/><path class="cls-35" d="M197.91,175.5a10,10,0,0,1,11.64,5.14A9.76,9.76,0,0,1,194.23,192c-3.73-3.34-4.23-8.19-1.34-13a1.25,1.25,0,0,1,1.36.34,6.41,6.41,0,0,0,.54.45c.95.67,2,1.79,3.09,1.25,1.5-.73.42-2.28.48-3.47C198.33,176.91,197.49,176.33,197.91,175.5Z"/><path class="cls-37" d="M193.74,180l-.85-.88a6.59,6.59,0,0,1,5-3.58l1.42,1.39C197.54,178,195.9,179.49,193.74,180Z"/><path class="cls-38" d="M103.91,179.2l-18.47-.14c-.63-4.53-3.73-7.56-6.5-10.8q10.55,0,21.1,0a8,8,0,0,0,4.17-.7c2.82,3.42,2,7.21,1.12,11A1,1,0,0,1,103.91,179.2Z"/><path class="cls-39" d="M148,179l-7.74.16c-1.83-3.54-1.41-7.23-.76-10.94a16.69,16.69,0,0,1,3.86,0c3.94,1,4.53-1.05,4-4.22a2.07,2.07,0,0,1,.64,0Q148,171.54,148,179Z"/><path class="cls-40" d="M67.49,88.28c3.53-.68,4.5.89,4.24,4.25a75.47,75.47,0,0,0,0,11c.25,3.59-1.26,4.41-4.38,3.48C66.43,100.78,66.11,94.52,67.49,88.28Z"/><path class="cls-41" d="M47.09,88.4c1.54.69.86,2.08.88,3.15.08,4.2,0,8.4.05,12.6,0,2.31,0,4.16-3.27,3.25-1.23-.34-2.76,1-4-.47a6.84,6.84,0,0,0,1.43-1.68c.91-4.14.18-8.33.42-12.48.09-1.53-.26-3.14.9-4.45l2.35,0c1.48,4.43.11,9,.64,12.7C47,97.34,45.78,92.82,47.09,88.4Z"/><path class="cls-42" d="M55.83,88.28c1.63,0,1.57,1.11,1.57,2.21,0,4.9,0,9.8,0,14.7,0,3.05-1.5,3.09-3.63,1.74-.65-5.55-.25-11.12-.21-16.69a2.89,2.89,0,0,1,.82-1.92l.91,0c.68,6-.12,12.06.5,18.08.18.47.49-.28.09,0-.12.08-.2,0-.21-.29C55.59,100.14,55.26,94.21,55.83,88.28Z"/><path class="cls-43" d="M75.36,107c-1.91.84-2-.48-2-1.76,0-5,0-10.05,0-15.08,0-1.38.49-2,1.9-1.8A3,3,0,0,1,76.05,91C75.71,96.31,76.9,101.7,75.36,107Z"/><path class="cls-44" d="M43,106.86l-2.19.08c0-5.51-.05-11-.15-16.52,0-1.72.53-2.5,2.32-2A117.18,117.18,0,0,1,43,106.86Z"/><path class="cls-45" d="M38,88.65V107h-.64V88.6Z"/><path class="cls-46" d="M59.37,107V88.59l.46,0V107Z"/><path class="cls-47" d="M47.09,88.4v18.19l-1.2,0q0-9.13,0-18.25Z"/><path class="cls-48" d="M63,88.33h.91c.53,4.89.08,9.79.25,14.69,0,1.3-.31,2.63.31,3.89-.68,1.14-1.37.91-2.07,0-.69-5.55-.26-11.11-.23-16.67A2.85,2.85,0,0,1,63,88.33Z"/><path class="cls-49" d="M51.8,107c-.81.66-1.62,1.23-2.36-.09.75-4.76.13-9.56.35-14.33.06-1.43-.25-2.88.25-4.28l.92,0c1.23,1.44.86,3.19.88,4.83.05,4.2,0,8.4,0,12.6C51.85,106.18,51.83,106.59,51.8,107Z"/><path class="cls-50" d="M66.77,107a2.52,2.52,0,0,1-.57-.12c-.07-6.19-.88-12.4.41-18.57C67.47,94.56,67.13,100.79,66.77,107Z"/><path class="cls-51" d="M76.19,88.31c1.33.64.76,1.86.78,2.82.07,4.5.08,9,0,13.5,0,.77,1,2.22-.92,2.37C75.66,100.77,75.3,94.53,76.19,88.31Z"/><path class="cls-52" d="M52.39,88.28a1.24,1.24,0,0,1,.53,0c1,1,.86,2.21.79,3.39-.31,5.1.8,10.27-.66,15.32h-.81C51.26,100.74,51,94.5,52.39,88.28Z"/><path class="cls-53" d="M43,106.86,43,88.4a.74.74,0,0,1,.57-.07q.06,8.34.11,16.68C43.65,105.69,43.79,106.46,43,106.86Z"/><path class="cls-54" d="M50,88.31c0,5.6.07,11.2.08,16.8,0,.66.24,1.47-.68,1.81,0-5.36-.06-10.72,0-16.07C49.43,90,48.88,88.92,50,88.31Z"/><path class="cls-55" d="M52.39,88.28,52.25,107l-.45,0-.31-.09a140.79,140.79,0,0,1,0-18.63Z"/><path class="cls-56" d="M66.77,107q-.08-9.34-.16-18.68l.88-.05q-.08,9.38-.16,18.75H67Z"/><path class="cls-57" d="M64.5,106.9c-1.47-2.4-.51-5-.62-7.53-.16-3.67,0-7.36.06-11,1.39,3.64.33,7.41.57,11.11C64.67,101.91,64.51,104.41,64.5,106.9Z"/><path class="cls-58" d="M63,88.33c0,5.45.06,10.89.07,16.34,0,.8.2,1.69-.67,2.25l-.07.07a47.37,47.37,0,0,1,.12-18.7A1,1,0,0,1,63,88.33Z"/><path class="cls-59" d="M62.48,88.29,62.36,107h-.7a113.48,113.48,0,0,1-.09-18.67Z"/><path class="cls-60" d="M76.19,88.31,76,107h-.33l-.33,0q-.06-9.32-.13-18.64Z"/><path class="cls-61" d="M61.58,88.31,61.67,107c-1.48-1.76-.74-3.87-.67-5.76C61.17,96.92,60.1,92.55,61.58,88.31Z"/><path class="cls-62" d="M51.45,88.29l0,18.63c-1.44-3.64-.36-7.43-.6-11.14-.16-2.47,0-5,.06-7.45A1.08,1.08,0,0,1,51.45,88.29Z"/><path class="cls-63" d="M54.36,88.32c0,5.46.07,10.91.08,16.37,0,.8.18,1.69-.68,2.24l0,.05a90.55,90.55,0,0,1,.12-18.69A1.11,1.11,0,0,1,54.36,88.32Z"/><path class="cls-64" d="M53.84,88.3,53.72,107h-.66l-.14-18.7Z"/><path class="cls-65" d="M55.83,88.28v18.16h-.55V88.3A1.22,1.22,0,0,1,55.83,88.28Z"/><path class="cls-66" d="M166.76,139.41c1.15.24,3-.52,3,1.48,0,2.36-2,1.47-3.19,1.5s-3,.75-3-1.29C163.51,138.91,165.49,139.65,166.76,139.41Z"/><path class="cls-67" d="M179.71,134.26c.88.23,1.59-.28,2.34-.58a12,12,0,0,1,5.73.73,56.16,56.16,0,0,1-18.74,0C172.57,132.56,176.13,132.75,179.71,134.26Z"/><path class="cls-68" d="M179.71,134.26l-10.68.17-1.42-.16a79.29,79.29,0,0,1-8.49-8.59q0-7.13-.1-14.27c0-1.52.1-2.94,2.14-3,5.08,5,10.15,10,15.25,14.92,1,1,1.73,2.35,3.39,2.36Q179.76,130,179.71,134.26Z"/><path class="cls-69" d="M159.13,125.67a23.81,23.81,0,0,1,8.49,8.59C157.64,134.24,158.92,136.25,159.13,125.67Z"/><path class="cls-70" d="M180.66,179.07a21.58,21.58,0,0,0-.48,9.2c.16.79,1.1,1.9-.51,2.27a1.83,1.83,0,0,1-2.53-1.71,26.91,26.91,0,0,1,.1-8.55C178,178.88,179.37,179.06,180.66,179.07Z"/><path class="cls-71" d="M139.5,168.25c1.28,3.57.5,7.29.76,10.94-.62.84-.33,2.17-1.5,2.7-10.46,0-20.93.24-31.38-.23a2.73,2.73,0,0,0-2.49,1c-1.51-.83-.29-2.42-1-3.48,2-3.84,1-7.75.3-11.65q15.75,0,31.49-.06A6.89,6.89,0,0,1,139.5,168.25Z"/><path class="cls-72" d="M104.89,182.67c-.14-2.07.22-3.4,2.69-2,1.53.88,3.26.47,4.91.48,8,0,16,0,24,0,.83,0,1.69-.08,2.29.68-.46.9-1.33.94-2.15.94Q120.75,182.77,104.89,182.67Z"/><path class="cls-73" d="M65.48,193.45c-1-1-3.68.32-3.42-2,.17-1.45,1.05-3.65,3.27-3.71,2.43-.06,3.34,2.25,3.55,3.84C69.12,193.41,66.69,192.64,65.48,193.45Z"/><path class="cls-73" d="M73.86,185.7c-.6,1.29-.22,3.88-2.46,3.82A3.84,3.84,0,0,1,68.28,186c0-2.54,2.46-2.15,4-2.58S73.88,184.35,73.86,185.7Z"/><path class="cls-74" d="M59,183.47c1.18.65,3.58.07,3.57,2.48a3.67,3.67,0,0,1-3.37,3.56c-1.8-.06-1.92-2.38-2-4.05C57.11,184.34,57.06,183.16,59,183.47Z"/><path class="cls-75" d="M64.41,179.64c.25,1.84-.29,3.12-1.72,2.82s-3.76-.8-3.69-2.66c.07-1.66,2-2.74,3.68-2.87C65.06,176.74,63.84,179,64.41,179.64Z"/><path class="cls-76" d="M200.58,193.33c-1.11-.61-3.46.07-3.22-1.75.2-1.57,1-3.9,3.48-3.81s3.21,2.4,3.3,4S201.94,192.9,200.58,193.33Z"/><path class="cls-77" d="M192.24,185.43c-.06-1.36.2-2.44,1.51-2,1.52.53,4.14-.13,4.08,2.48,0,1.87-1.9,3.73-3.34,3.62C192.57,189.39,192.61,186.87,192.24,185.43Z"/><path class="cls-78" d="M201.63,179.62c.55-.77-.53-3,1.67-2.86,2,.12,4,1.47,4.06,3.33,0,1.56-2.37,2.17-3.89,2.44C201.78,182.84,201.45,181.37,201.63,179.62Z"/><path class="cls-73" d="M209.09,185.54c-.43,1.6-.29,4-2.18,4a3.79,3.79,0,0,1-3.25-3.7c.09-2.54,2.61-2,4.15-2.36C209.52,183.07,209.19,184.55,209.09,185.54Z"/><path class="cls-79" d="M193.74,180c1.57-1.57,3-3.3,5.6-3.06a2.42,2.42,0,0,1,.05.7c-.36,1.6,1.54,3.88-.63,4.71C196.85,183,195.12,181.41,193.74,180Z"/></svg>